<svg width="202" height="46" viewBox="0 0 202 46" fill="none" xmlns="http://www.w3.org/2000/svg">
<path d="M101 14C101 13.533 101 13.0717 101 12.6034C101 12.4022 101 12.2011 101 12" stroke="#B43535" stroke-linecap="round"/>
<path d="M100.59 11.5329C100.612 11.895 101.416 12.009 101.72 11.8411C102.429 11.449 102.631 10.3348 101.862 9.91131C101.483 9.70303 100.889 9.68903 100.454 9.69818C99.9606 9.70853 99.629 10.0364 99.4674 10.4094C99.3611 10.6548 99.2906 11.3883 99.511 11.5978C99.7469 11.822 100.068 11.9499 100.415 11.9499C100.94 11.9499 101.335 11.6491 101.45 11.2086C101.575 10.731 101.249 10.4917 100.74 10.4279C100.272 10.3695 100.06 10.8614 100.012 11.1901C99.9419 11.6747 100.366 11.8027 100.878 11.8225C101.105 11.8313 101.312 11.8253 101.418 11.6302C101.535 11.4141 101.569 11.1123 101.429 10.8982C101.189 10.5322 100.053 10.0721 99.6663 10.5159C99.3441 10.8859 99.7827 11.5023 100.138 11.7322C100.508 11.9723 101.014 12.0298 101.467 11.987C102.11 11.9262 102.68 11.238 102.894 10.7731C103.13 10.2614 102.933 9.56974 102.687 9.08196C102.541 8.79262 102.214 8.61042 102.036 8.34296C101.899 8.13631 101.697 7.89281 101.521 7.70589C101.259 7.42696 100.944 7.21031 100.712 6.90666C100.58 6.73322 100.452 6.51881 100.296 6.36225C100.242 6.30911 100.116 6.0578 100.05 6.28117C99.9681 6.56096 99.9233 6.8051 99.8924 7.09431C99.8054 7.90811 99.6186 8.70997 99.6091 9.53139C99.608 9.62182 99.616 11.2159 99.2659 11.1994C98.8944 11.1818 99.0207 10.3776 99.0207 10.1893C99.0207 9.69578 99.1276 9.20424 99.2413 8.72057C99.3018 8.4635 99.3857 8.21184 99.4511 7.95609C99.5041 7.74865 99.519 7.52219 99.5846 7.32133C99.6731 7.05033 99.6397 6.70108 99.9278 6.51052C100.201 6.32997 100.535 6.2484 100.862 6.19777C100.967 6.18157 101.12 6.18473 101.227 6.19546C101.306 6.20332 101.476 6.58729 101.519 6.65415C101.774 7.05282 101.835 7.69746 101.862 8.13678C101.904 8.84493 101.963 9.54633 101.963 10.2565C101.963 10.336 101.969 10.2827 101.99 10.2333C102.08 10.0145 102.061 9.78302 102.061 9.55455C102.061 8.9009 101.96 8.07467 101.38 7.58079C100.81 7.09597 100.581 9.82688 101.189 9.50359C101.871 9.14106 101.914 8.34233 101.914 7.74527C101.914 7.68766 101.91 7.34543 101.916 7.4001C101.953 7.72824 102.095 8.03487 102.257 8.33138C102.441 8.66913 102.649 8.9945 102.796 9.34606C102.843 9.45737 102.943 9.59263 102.943 9.7144C102.943 9.95919 102.946 9.22481 102.943 8.98003C102.938 8.57281 102.735 8.15421 102.622 7.75686C102.546 7.48837 102.47 7.26735 102.295 7.03871C101.848 6.45498 100.977 6.23131 100.257 6.01939C99.8125 5.88844 99.5484 6.45287 99.462 6.74681C99.3407 7.15947 99.1887 7.52175 99.1705 7.95377C99.1392 8.70014 99.1678 9.4518 99.1678 10.1986" stroke="#05FF00" stroke-linecap="round"/>
<path d="M191 20C191 19.533 191 19.0717 191 18.6034C191 18.4022 191 18.2011 191 18" stroke="#B43535" stroke-linecap="round"/>
<path d="M190.59 17.5329C190.612 17.895 191.416 18.009 191.72 17.8411C192.429 17.449 192.631 16.3348 191.862 15.9113C191.483 15.703 190.889 15.689 190.454 15.6982C189.961 15.7085 189.629 16.0364 189.467 16.4094C189.361 16.6548 189.291 17.3883 189.511 17.5978C189.747 17.822 190.068 17.9499 190.415 17.9499C190.94 17.9499 191.335 17.6491 191.45 17.2086C191.575 16.731 191.249 16.4917 190.74 16.4279C190.272 16.3695 190.06 16.8614 190.012 17.1901C189.942 17.6747 190.366 17.8027 190.878 17.8225C191.105 17.8313 191.312 17.8253 191.418 17.6302C191.535 17.4141 191.569 17.1123 191.429 16.8982C191.189 16.5322 190.053 16.0721 189.666 16.5159C189.344 16.8859 189.783 17.5023 190.138 17.7322C190.508 17.9723 191.014 18.0298 191.467 17.987C192.11 17.9262 192.68 17.238 192.894 16.7731C193.13 16.2614 192.933 15.5697 192.687 15.082C192.541 14.7926 192.214 14.6104 192.036 14.343C191.899 14.1363 191.697 13.8928 191.521 13.7059C191.259 13.427 190.944 13.2103 190.712 12.9067C190.58 12.7332 190.452 12.5188 190.296 12.3623C190.242 12.3091 190.116 12.0578 190.05 12.2812C189.968 12.561 189.923 12.8051 189.892 13.0943C189.805 13.9081 189.619 14.71 189.609 15.5314C189.608 15.6218 189.616 17.2159 189.266 17.1994C188.894 17.1818 189.021 16.3776 189.021 16.1893C189.021 15.6958 189.128 15.2042 189.241 14.7206C189.302 14.4635 189.386 14.2118 189.451 13.9561C189.504 13.7487 189.519 13.5222 189.585 13.3213C189.673 13.0503 189.64 12.7011 189.928 12.5105C190.201 12.33 190.535 12.2484 190.862 12.1978C190.967 12.1816 191.12 12.1847 191.227 12.1955C191.306 12.2033 191.476 12.5873 191.519 12.6541C191.774 13.0528 191.835 13.6975 191.862 14.1368C191.904 14.8449 191.963 15.5463 191.963 16.2565C191.963 16.336 191.969 16.2827 191.99 16.2333C192.08 16.0145 192.061 15.783 192.061 15.5546C192.061 14.9009 191.96 14.0747 191.38 13.5808C190.81 13.096 190.581 15.8269 191.189 15.5036C191.871 15.1411 191.914 14.3423 191.914 13.7453C191.914 13.6877 191.91 13.3454 191.916 13.4001C191.953 13.7282 192.095 14.0349 192.257 14.3314C192.441 14.6691 192.649 14.9945 192.796 15.3461C192.843 15.4574 192.943 15.5926 192.943 15.7144C192.943 15.9592 192.946 15.2248 192.943 14.98C192.938 14.5728 192.735 14.1542 192.622 13.7569C192.546 13.4884 192.47 13.2673 192.295 13.0387C191.848 12.455 190.977 12.2313 190.257 12.0194C189.813 11.8884 189.548 12.4529 189.462 12.7468C189.341 13.1595 189.189 13.5217 189.171 13.9538C189.139 14.7001 189.168 15.4518 189.168 16.1986" stroke="#05FF00" stroke-linecap="round"/>
<path d="M65 30C65 29.533 65 29.0717 65 28.6034C65 28.4022 65 28.2011 65 28" stroke="#B43535" stroke-linecap="round"/>
<path d="M64.5897 27.5329C64.6121 27.895 65.4163 28.009 65.7201 27.8411C66.4294 27.449 66.6313 26.3348 65.8618 25.9113C65.4833 25.703 64.8892 25.689 64.4535 25.6982C63.9606 25.7085 63.629 26.0364 63.4674 26.4094C63.3611 26.6548 63.2906 27.3883 63.511 27.5978C63.7469 27.822 64.0679 27.9499 64.4154 27.9499C64.9398 27.9499 65.3354 27.6491 65.4505 27.2086C65.5753 26.731 65.2491 26.4917 64.7395 26.4279C64.2722 26.3695 64.0599 26.8614 64.0122 27.1901C63.9419 27.6747 64.3663 27.8027 64.8784 27.8225C65.1047 27.8313 65.3119 27.8253 65.4178 27.6302C65.5351 27.4141 65.5688 27.1123 65.4287 26.8982C65.1891 26.5322 64.0528 26.0721 63.6663 26.5159C63.3441 26.8859 63.7827 27.5023 64.1375 27.7322C64.5081 27.9723 65.0136 28.0298 65.4668 27.987C66.1105 27.9262 66.6803 27.238 66.8942 26.7731C67.1296 26.2614 66.933 25.5697 66.6871 25.082C66.5413 24.7926 66.2139 24.6104 66.0361 24.343C65.8988 24.1363 65.6971 23.8928 65.5213 23.7059C65.2589 23.427 64.9444 23.2103 64.7123 22.9067C64.5797 22.7332 64.452 22.5188 64.2955 22.3623C64.2424 22.3091 64.116 22.0578 64.0504 22.2812C63.9681 22.561 63.9233 22.8051 63.8924 23.0943C63.8054 23.9081 63.6186 24.71 63.6091 25.5314C63.608 25.6218 63.616 27.2159 63.2659 27.1994C62.8944 27.1818 63.0207 26.3776 63.0207 26.1893C63.0207 25.6958 63.1276 25.2042 63.2413 24.7206C63.3018 24.4635 63.3857 24.2118 63.4511 23.9561C63.5041 23.7487 63.519 23.5222 63.5846 23.3213C63.6731 23.0503 63.6397 22.7011 63.9278 22.5105C64.2007 22.33 64.5347 22.2484 64.8621 22.1978C64.9669 22.1816 65.1199 22.1847 65.2271 22.1955C65.3056 22.2033 65.4757 22.5873 65.5186 22.6541C65.7743 23.0528 65.8353 23.6975 65.8618 24.1368C65.9045 24.8449 65.9626 25.5463 65.9626 26.2565C65.9626 26.336 65.9695 26.2827 65.9898 26.2333C66.0799 26.0145 66.0606 25.783 66.0606 25.5546C66.0606 24.9009 65.9604 24.0747 65.3797 23.5808C64.8096 23.096 64.5807 25.8269 65.189 25.5036C65.871 25.1411 65.9135 24.3423 65.9135 23.7453C65.9135 23.6877 65.9101 23.3454 65.9163 23.4001C65.953 23.7282 66.095 24.0349 66.2568 24.3314C66.4411 24.6691 66.6493 24.9945 66.7961 25.3461C66.8426 25.4574 66.9432 25.5926 66.9432 25.7144C66.9432 25.9592 66.9461 25.2248 66.9432 24.98C66.9383 24.5728 66.7346 24.1542 66.6218 23.7569C66.5456 23.4884 66.47 23.2673 66.2949 23.0387C65.848 22.455 64.9772 22.2313 64.2574 22.0194C63.8125 21.8884 63.5484 22.4529 63.462 22.7468C63.3407 23.1595 63.1887 23.5217 63.1705 23.9538C63.1392 24.7001 63.1678 25.4518 63.1678 26.1986" stroke="#B43535" stroke-linecap="round"/>
<path d="M187 24C187 24.467 187 24.9283 187 25.3966C187 25.5978 187 25.7989 187 26" stroke="#B43535" stroke-linecap="round"/>
<path d="M187.41 26.4671C187.388 26.105 186.584 25.991 186.28 26.1589C185.571 26.551 185.369 27.6652 186.138 28.0887C186.517 28.297 187.111 28.311 187.546 28.3018C188.039 28.2915 188.371 27.9636 188.533 27.5906C188.639 27.3452 188.709 26.6117 188.489 26.4022C188.253 26.178 187.932 26.0501 187.585 26.0501C187.06 26.0501 186.665 26.3509 186.55 26.7914C186.425 27.269 186.751 27.5083 187.26 27.5721C187.728 27.6305 187.94 27.1386 187.988 26.8099C188.058 26.3253 187.634 26.1973 187.122 26.1775C186.895 26.1687 186.688 26.1747 186.582 26.3698C186.465 26.5859 186.431 26.8877 186.571 27.1018C186.811 27.4678 187.947 27.9279 188.334 27.4841C188.656 27.1141 188.217 26.4977 187.862 26.2678C187.492 26.0277 186.986 25.9702 186.533 26.013C185.89 26.0738 185.32 26.762 185.106 27.2269C184.87 27.7386 185.067 28.4303 185.313 28.918C185.459 29.2074 185.786 29.3896 185.964 29.657C186.101 29.8637 186.303 30.1072 186.479 30.2941C186.741 30.573 187.056 30.7897 187.288 31.0933C187.42 31.2668 187.548 31.4812 187.704 31.6377C187.758 31.6909 187.884 31.9422 187.95 31.7188C188.032 31.439 188.077 31.1949 188.108 30.9057C188.195 30.0919 188.381 29.29 188.391 28.4686C188.392 28.3782 188.384 26.7841 188.734 26.8006C189.106 26.8182 188.979 27.6224 188.979 27.8107C188.979 28.3042 188.872 28.7958 188.759 29.2794C188.698 29.5365 188.614 29.7882 188.549 30.0439C188.496 30.2513 188.481 30.4778 188.415 30.6787C188.327 30.9497 188.36 31.2989 188.072 31.4895C187.799 31.67 187.465 31.7516 187.138 31.8022C187.033 31.8184 186.88 31.8153 186.773 31.8045C186.694 31.7967 186.524 31.4127 186.481 31.3459C186.226 30.9472 186.165 30.3025 186.138 29.8632C186.096 29.1551 186.037 28.4537 186.037 27.7435C186.037 27.664 186.031 27.7173 186.01 27.7667C185.92 27.9855 185.939 28.217 185.939 28.4454C185.939 29.0991 186.04 29.9253 186.62 30.4192C187.19 30.904 187.419 28.1731 186.811 28.4964C186.129 28.8589 186.086 29.6577 186.086 30.2547C186.086 30.3123 186.09 30.6546 186.084 30.5999C186.047 30.2718 185.905 29.9651 185.743 29.6686C185.559 29.3309 185.351 29.0055 185.204 28.6539C185.157 28.5426 185.057 28.4074 185.057 28.2856C185.057 28.0408 185.054 28.7752 185.057 29.02C185.062 29.4272 185.265 29.8458 185.378 30.2431C185.454 30.5116 185.53 30.7327 185.705 30.9613C186.152 31.545 187.023 31.7687 187.743 31.9806C188.187 32.1116 188.452 31.5471 188.538 31.2532C188.659 30.8405 188.811 30.4783 188.829 30.0462C188.861 29.2999 188.832 28.5482 188.832 27.8014" stroke="#00D1FF" stroke-linecap="round"/>
<path d="M135 30C135 30.467 135 30.9283 135 31.3966C135 31.5978 135 31.7989 135 32" stroke="#B43535" stroke-linecap="round"/>
<path d="M135.41 32.4671C135.388 32.105 134.584 31.991 134.28 32.1589C133.571 32.551 133.369 33.6652 134.138 34.0887C134.517 34.297 135.111 34.311 135.546 34.3018C136.039 34.2915 136.371 33.9636 136.533 33.5906C136.639 33.3452 136.709 32.6117 136.489 32.4022C136.253 32.178 135.932 32.0501 135.585 32.0501C135.06 32.0501 134.665 32.3509 134.55 32.7914C134.425 33.269 134.751 33.5083 135.26 33.5721C135.728 33.6305 135.94 33.1386 135.988 32.8099C136.058 32.3253 135.634 32.1973 135.122 32.1775C134.895 32.1687 134.688 32.1747 134.582 32.3698C134.465 32.5859 134.431 32.8877 134.571 33.1018C134.811 33.4678 135.947 33.9279 136.334 33.4841C136.656 33.1141 136.217 32.4977 135.862 32.2678C135.492 32.0277 134.986 31.9702 134.533 32.013C133.89 32.0738 133.32 32.762 133.106 33.2269C132.87 33.7386 133.067 34.4303 133.313 34.918C133.459 35.2074 133.786 35.3896 133.964 35.657C134.101 35.8637 134.303 36.1072 134.479 36.2941C134.741 36.573 135.056 36.7897 135.288 37.0933C135.42 37.2668 135.548 37.4812 135.704 37.6377C135.758 37.6909 135.884 37.9422 135.95 37.7188C136.032 37.439 136.077 37.1949 136.108 36.9057C136.195 36.0919 136.381 35.29 136.391 34.4686C136.392 34.3782 136.384 32.7841 136.734 32.8006C137.106 32.8182 136.979 33.6224 136.979 33.8107C136.979 34.3042 136.872 34.7958 136.759 35.2794C136.698 35.5365 136.614 35.7882 136.549 36.0439C136.496 36.2513 136.481 36.4778 136.415 36.6787C136.327 36.9497 136.36 37.2989 136.072 37.4895C135.799 37.67 135.465 37.7516 135.138 37.8022C135.033 37.8184 134.88 37.8153 134.773 37.8045C134.694 37.7967 134.524 37.4127 134.481 37.3459C134.226 36.9472 134.165 36.3025 134.138 35.8632C134.096 35.1551 134.037 34.4537 134.037 33.7435C134.037 33.664 134.031 33.7173 134.01 33.7667C133.92 33.9855 133.939 34.217 133.939 34.4454C133.939 35.0991 134.04 35.9253 134.62 36.4192C135.19 36.904 135.419 34.1731 134.811 34.4964C134.129 34.8589 134.086 35.6577 134.086 36.2547C134.086 36.3123 134.09 36.6546 134.084 36.5999C134.047 36.2718 133.905 35.9651 133.743 35.6686C133.559 35.3309 133.351 35.0055 133.204 34.6539C133.157 34.5426 133.057 34.4074 133.057 34.2856C133.057 34.0408 133.054 34.7752 133.057 35.02C133.062 35.4272 133.265 35.8458 133.378 36.2431C133.454 36.5116 133.53 36.7327 133.705 36.9613C134.152 37.545 135.023 37.7687 135.743 37.9806C136.187 38.1116 136.452 37.5471 136.538 37.2532C136.659 36.8405 136.811 36.4783 136.829 36.0462C136.861 35.2999 136.832 34.5482 136.832 33.8014" stroke="#B43535" stroke-linecap="round"/>
<path d="M43 32C43 32.467 43 32.9283 43 33.3966C43 33.5978 43 33.7989 43 34" stroke="#B43535" stroke-linecap="round"/>
<path d="M43.4103 34.4671C43.3879 34.105 42.5837 33.991 42.2799 34.1589C41.5706 34.551 41.3687 35.6652 42.1382 36.0887C42.5167 36.297 43.1108 36.311 43.5465 36.3018C44.0394 36.2915 44.371 35.9636 44.5326 35.5906C44.6389 35.3452 44.7094 34.6117 44.489 34.4022C44.2531 34.178 43.9321 34.0501 43.5846 34.0501C43.0602 34.0501 42.6646 34.3509 42.5495 34.7914C42.4247 35.269 42.7509 35.5083 43.2605 35.5721C43.7278 35.6305 43.9401 35.1386 43.9878 34.8099C44.0581 34.3253 43.6337 34.1973 43.1216 34.1775C42.8953 34.1687 42.6881 34.1747 42.5822 34.3698C42.4649 34.5859 42.4312 34.8877 42.5713 35.1018C42.8109 35.4678 43.9472 35.9279 44.3337 35.4841C44.6559 35.1141 44.2173 34.4977 43.8625 34.2678C43.4919 34.0277 42.9864 33.9702 42.5332 34.013C41.8895 34.0738 41.3197 34.762 41.1058 35.2269C40.8704 35.7386 41.067 36.4303 41.3129 36.918C41.4587 37.2074 41.7861 37.3896 41.9639 37.657C42.1012 37.8637 42.3029 38.1072 42.4787 38.2941C42.7411 38.573 43.0556 38.7897 43.2877 39.0933C43.4203 39.2668 43.548 39.4812 43.7045 39.6377C43.7576 39.6909 43.884 39.9422 43.9496 39.7188C44.0319 39.439 44.0767 39.1949 44.1076 38.9057C44.1946 38.0919 44.3814 37.29 44.3909 36.4686C44.392 36.3782 44.384 34.7841 44.7341 34.8006C45.1056 34.8182 44.9793 35.6224 44.9793 35.8107C44.9793 36.3042 44.8724 36.7958 44.7587 37.2794C44.6982 37.5365 44.6143 37.7882 44.5489 38.0439C44.4959 38.2513 44.481 38.4778 44.4154 38.6787C44.3269 38.9497 44.3603 39.2989 44.0722 39.4895C43.7993 39.67 43.4653 39.7516 43.1379 39.8022C43.0331 39.8184 42.8801 39.8153 42.7729 39.8045C42.6944 39.7967 42.5243 39.4127 42.4814 39.3459C42.2257 38.9472 42.1647 38.3025 42.1382 37.8632C42.0955 37.1551 42.0374 36.4537 42.0374 35.7435C42.0374 35.664 42.0305 35.7173 42.0102 35.7667C41.9201 35.9855 41.9394 36.217 41.9394 36.4454C41.9394 37.0991 42.0396 37.9253 42.6203 38.4192C43.1904 38.904 43.4193 36.1731 42.811 36.4964C42.129 36.8589 42.0865 37.6577 42.0865 38.2547C42.0865 38.3123 42.0899 38.6546 42.0837 38.5999C42.047 38.2718 41.905 37.9651 41.7432 37.6686C41.5589 37.3309 41.3507 37.0055 41.2039 36.6539C41.1574 36.5426 41.0568 36.4074 41.0568 36.2856C41.0568 36.0408 41.0539 36.7752 41.0568 37.02C41.0617 37.4272 41.2654 37.8458 41.3782 38.2431C41.4544 38.5116 41.53 38.7327 41.7051 38.9613C42.152 39.545 43.0228 39.7687 43.7426 39.9806C44.1875 40.1116 44.4516 39.5471 44.538 39.2532C44.6593 38.8405 44.8113 38.4783 44.8295 38.0462C44.8608 37.2999 44.8322 36.5482 44.8322 35.8014" stroke="#00D1FF" stroke-linecap="round"/>
<path d="M87 24C87 24.467 87 24.9283 87 25.3966C87 25.5978 87 25.7989 87 26" stroke="#B43535" stroke-linecap="round"/>
<path d="M87.4103 26.4671C87.3879 26.105 86.5837 25.991 86.2799 26.1589C85.5706 26.551 85.3687 27.6652 86.1382 28.0887C86.5167 28.297 87.1108 28.311 87.5465 28.3018C88.0394 28.2915 88.371 27.9636 88.5326 27.5906C88.6389 27.3452 88.7094 26.6117 88.489 26.4022C88.2531 26.178 87.9321 26.0501 87.5846 26.0501C87.0602 26.0501 86.6646 26.3509 86.5495 26.7914C86.4247 27.269 86.7509 27.5083 87.2605 27.5721C87.7278 27.6305 87.9401 27.1386 87.9878 26.8099C88.0581 26.3253 87.6337 26.1973 87.1216 26.1775C86.8953 26.1687 86.6881 26.1747 86.5822 26.3698C86.4649 26.5859 86.4312 26.8877 86.5713 27.1018C86.8109 27.4678 87.9472 27.9279 88.3337 27.4841C88.6559 27.1141 88.2173 26.4977 87.8625 26.2678C87.4919 26.0277 86.9864 25.9702 86.5332 26.013C85.8895 26.0738 85.3197 26.762 85.1058 27.2269C84.8704 27.7386 85.067 28.4303 85.3129 28.918C85.4587 29.2074 85.7861 29.3896 85.9639 29.657C86.1012 29.8637 86.3029 30.1072 86.4787 30.2941C86.7411 30.573 87.0556 30.7897 87.2877 31.0933C87.4203 31.2668 87.548 31.4812 87.7045 31.6377C87.7576 31.6909 87.884 31.9422 87.9496 31.7188C88.0319 31.439 88.0767 31.1949 88.1076 30.9057C88.1946 30.0919 88.3814 29.29 88.3909 28.4686C88.392 28.3782 88.384 26.7841 88.7341 26.8006C89.1056 26.8182 88.9793 27.6224 88.9793 27.8107C88.9793 28.3042 88.8724 28.7958 88.7587 29.2794C88.6982 29.5365 88.6143 29.7882 88.5489 30.0439C88.4959 30.2513 88.481 30.4778 88.4154 30.6787C88.3269 30.9497 88.3603 31.2989 88.0722 31.4895C87.7993 31.67 87.4653 31.7516 87.1379 31.8022C87.0331 31.8184 86.8801 31.8153 86.7729 31.8045C86.6944 31.7967 86.5243 31.4127 86.4814 31.3459C86.2257 30.9472 86.1647 30.3025 86.1382 29.8632C86.0955 29.1551 86.0374 28.4537 86.0374 27.7435C86.0374 27.664 86.0305 27.7173 86.0102 27.7667C85.9201 27.9855 85.9394 28.217 85.9394 28.4454C85.9394 29.0991 86.0396 29.9253 86.6203 30.4192C87.1904 30.904 87.4193 28.1731 86.811 28.4964C86.129 28.8589 86.0865 29.6577 86.0865 30.2547C86.0865 30.3123 86.0899 30.6546 86.0837 30.5999C86.047 30.2718 85.905 29.9651 85.7432 29.6686C85.5589 29.3309 85.3507 29.0055 85.2039 28.6539C85.1574 28.5426 85.0568 28.4074 85.0568 28.2856C85.0568 28.0408 85.0539 28.7752 85.0568 29.02C85.0617 29.4272 85.2654 29.8458 85.3782 30.2431C85.4544 30.5116 85.53 30.7327 85.7051 30.9613C86.152 31.545 87.0228 31.7687 87.7426 31.9806C88.1875 32.1116 88.4516 31.5471 88.538 31.2532C88.6593 30.8405 88.8113 30.4783 88.8295 30.0462C88.8608 29.2999 88.8322 28.5482 88.8322 27.8014" stroke="#00D1FF" stroke-linecap="round"/>
<path d="M13 22C13 22.467 13 22.9283 13 23.3966C13 23.5978 13 23.7989 13 24" stroke="#B43535" stroke-linecap="round"/>
<path d="M13.4103 24.4671C13.3879 24.105 12.5837 23.991 12.2799 24.1589C11.5706 24.551 11.3687 25.6652 12.1382 26.0887C12.5167 26.297 13.1108 26.311 13.5465 26.3018C14.0394 26.2915 14.371 25.9636 14.5326 25.5906C14.6389 25.3452 14.7094 24.6117 14.489 24.4022C14.2531 24.178 13.9321 24.0501 13.5846 24.0501C13.0602 24.0501 12.6646 24.3509 12.5495 24.7914C12.4247 25.269 12.7509 25.5083 13.2605 25.5721C13.7278 25.6305 13.9401 25.1386 13.9878 24.8099C14.0581 24.3253 13.6337 24.1973 13.1216 24.1775C12.8953 24.1687 12.6881 24.1747 12.5822 24.3698C12.4649 24.5859 12.4312 24.8877 12.5713 25.1018C12.8109 25.4678 13.9472 25.9279 14.3337 25.4841C14.6559 25.1141 14.2173 24.4977 13.8625 24.2678C13.4919 24.0277 12.9864 23.9702 12.5332 24.013C11.8895 24.0738 11.3197 24.762 11.1058 25.2269C10.8704 25.7386 11.067 26.4303 11.3129 26.918C11.4587 27.2074 11.7861 27.3896 11.9639 27.657C12.1012 27.8637 12.3029 28.1072 12.4787 28.2941C12.7411 28.573 13.0556 28.7897 13.2877 29.0933C13.4203 29.2668 13.548 29.4812 13.7045 29.6377C13.7576 29.6909 13.884 29.9422 13.9496 29.7188C14.0319 29.439 14.0767 29.1949 14.1076 28.9057C14.1946 28.0919 14.3814 27.29 14.3909 26.4686C14.392 26.3782 14.384 24.7841 14.7341 24.8006C15.1056 24.8182 14.9793 25.6224 14.9793 25.8107C14.9793 26.3042 14.8724 26.7958 14.7587 27.2794C14.6982 27.5365 14.6143 27.7882 14.5489 28.0439C14.4959 28.2513 14.481 28.4778 14.4154 28.6787C14.3269 28.9497 14.3603 29.2989 14.0722 29.4895C13.7993 29.67 13.4653 29.7516 13.1379 29.8022C13.0331 29.8184 12.8801 29.8153 12.7729 29.8045C12.6944 29.7967 12.5243 29.4127 12.4814 29.3459C12.2257 28.9472 12.1647 28.3025 12.1382 27.8632C12.0955 27.1551 12.0374 26.4537 12.0374 25.7435C12.0374 25.664 12.0305 25.7173 12.0102 25.7667C11.9201 25.9855 11.9394 26.217 11.9394 26.4454C11.9394 27.0991 12.0396 27.9253 12.6203 28.4192C13.1904 28.904 13.4193 26.1731 12.811 26.4964C12.129 26.8589 12.0865 27.6577 12.0865 28.2547C12.0865 28.3123 12.0899 28.6546 12.0837 28.5999C12.047 28.2718 11.905 27.9651 11.7432 27.6686C11.5589 27.3309 11.3507 27.0055 11.2039 26.6539C11.1574 26.5426 11.0568 26.4074 11.0568 26.2856C11.0568 26.0408 11.0539 26.7752 11.0568 27.02C11.0617 27.4272 11.2654 27.8458 11.3782 28.2431C11.4544 28.5116 11.53 28.7327 11.7051 28.9613C12.152 29.545 13.0228 29.7687 13.7426 29.9806C14.1875 30.1116 14.4516 29.5471 14.538 29.2532C14.6593 28.8405 14.8113 28.4783 14.8295 28.0462C14.8608 27.2999 14.8322 26.5482 14.8322 25.8014" stroke="#FFE500" stroke-linecap="round"/>
<path d="M1 14C17.8224 27.5832 61.3738 46.5997 101 14" stroke="#1A4008"/>
<path d="M101 14C117.822 27.5832 161.374 46.5997 201 14" stroke="#1A4008"/>
<g style="mix-blend-mode:screen" opacity="0.73" filter="url(#filter0_f_240_1213)">
<path d="M13.4395 27.9234C13.4395 27.6831 13.4768 27.4236 13.631 27.7319" stroke="#FFE500" stroke-width="7" stroke-linecap="round"/>
</g>
<g style="mix-blend-mode:screen" opacity="0.73" filter="url(#filter1_f_240_1213)">
<path d="M43.1152 38.0836V38.4764" stroke="#00D1FF" stroke-width="7" stroke-linecap="round"/>
</g>
<g style="mix-blend-mode:screen" opacity="0.73" filter="url(#filter2_f_240_1213)">
<path d="M86.7109 30.8177V30.6213" stroke="#00D1FF" stroke-width="7" stroke-linecap="round"/>
</g>
<g style="mix-blend-mode:screen" opacity="0.73" filter="url(#filter3_f_240_1213)">
<path d="M187.06 29.443V29.6394" stroke="#00D1FF" stroke-width="7" stroke-linecap="round"/>
</g>
<g style="mix-blend-mode:screen" opacity="0.73" filter="url(#filter4_f_240_1213)">
<path d="M135.216 35.7271C135.5 35.7627 135.412 36.0958 135.412 36.3162" stroke="#B43535" stroke-width="7" stroke-linecap="round"/>
</g>
<g style="mix-blend-mode:screen" opacity="0.73" filter="url(#filter5_f_240_1213)">
<path d="M65.1094 24.3372V24.1408" stroke="#B43535" stroke-width="7" stroke-linecap="round"/>
</g>
<g style="mix-blend-mode:screen" opacity="0.73" filter="url(#filter6_f_240_1213)">
<path d="M101.046 8.23422V8.03784" stroke="#05FF00" stroke-width="7" stroke-linecap="round"/>
</g>
<g style="mix-blend-mode:screen" opacity="0.73" filter="url(#filter7_f_240_1213)">
<path d="M190.398 13.9292V14.5183" stroke="#05FF00" stroke-width="7" stroke-linecap="round"/>
</g>
<defs>
<filter id="filter0_f_240_1213" x="5.93945" y="20.0891" width="15.1914" height="15.3344" filterUnits="userSpaceOnUse" color-interpolation-filters="sRGB">
<feFlood flood-opacity="0" result="BackgroundImageFix"/>
<feBlend mode="normal" in="SourceGraphic" in2="BackgroundImageFix" result="shape"/>
<feGaussianBlur stdDeviation="2" result="effect1_foregroundBlur_240_1213"/>
</filter>
<filter id="filter1_f_240_1213" x="35.6152" y="30.5836" width="15" height="15.3928" filterUnits="userSpaceOnUse" color-interpolation-filters="sRGB">
<feFlood flood-opacity="0" result="BackgroundImageFix"/>
<feBlend mode="normal" in="SourceGraphic" in2="BackgroundImageFix" result="shape"/>
<feGaussianBlur stdDeviation="2" result="effect1_foregroundBlur_240_1213"/>
</filter>
<filter id="filter2_f_240_1213" x="79.2109" y="23.1213" width="15" height="15.1964" filterUnits="userSpaceOnUse" color-interpolation-filters="sRGB">
<feFlood flood-opacity="0" result="BackgroundImageFix"/>
<feBlend mode="normal" in="SourceGraphic" in2="BackgroundImageFix" result="shape"/>
<feGaussianBlur stdDeviation="2" result="effect1_foregroundBlur_240_1213"/>
</filter>
<filter id="filter3_f_240_1213" x="179.56" y="21.943" width="15" height="15.1964" filterUnits="userSpaceOnUse" color-interpolation-filters="sRGB">
<feFlood flood-opacity="0" result="BackgroundImageFix"/>
<feBlend mode="normal" in="SourceGraphic" in2="BackgroundImageFix" result="shape"/>
<feGaussianBlur stdDeviation="2" result="effect1_foregroundBlur_240_1213"/>
</filter>
<filter id="filter4_f_240_1213" x="127.716" y="28.2267" width="15.209" height="15.5895" filterUnits="userSpaceOnUse" color-interpolation-filters="sRGB">
<feFlood flood-opacity="0" result="BackgroundImageFix"/>
<feBlend mode="normal" in="SourceGraphic" in2="BackgroundImageFix" result="shape"/>
<feGaussianBlur stdDeviation="2" result="effect1_foregroundBlur_240_1213"/>
</filter>
<filter id="filter5_f_240_1213" x="57.6094" y="16.6408" width="15" height="15.1964" filterUnits="userSpaceOnUse" color-interpolation-filters="sRGB">
<feFlood flood-opacity="0" result="BackgroundImageFix"/>
<feBlend mode="normal" in="SourceGraphic" in2="BackgroundImageFix" result="shape"/>
<feGaussianBlur stdDeviation="2" result="effect1_foregroundBlur_240_1213"/>
</filter>
<filter id="filter6_f_240_1213" x="93.5459" y="0.537842" width="15" height="15.1964" filterUnits="userSpaceOnUse" color-interpolation-filters="sRGB">
<feFlood flood-opacity="0" result="BackgroundImageFix"/>
<feBlend mode="normal" in="SourceGraphic" in2="BackgroundImageFix" result="shape"/>
<feGaussianBlur stdDeviation="2" result="effect1_foregroundBlur_240_1213"/>
</filter>
<filter id="filter7_f_240_1213" x="182.898" y="6.4292" width="15" height="15.5891" filterUnits="userSpaceOnUse" color-interpolation-filters="sRGB">
<feFlood flood-opacity="0" result="BackgroundImageFix"/>
<feBlend mode="normal" in="SourceGraphic" in2="BackgroundImageFix" result="shape"/>
<feGaussianBlur stdDeviation="2" result="effect1_foregroundBlur_240_1213"/>
</filter>
</defs>
</svg>
