                    <svg onclick="(function() { window.open('https://steamcommunity.com/id/laportebr/') })()" class="cursorClick"  width="32" height="32" viewBox="0 0 32 32" fill="none" xmlns="http://www.w3.org/2000/svg">
                        <path
                            d="M3.63097 17.2816C2.72131 17.0489 5.30965 8.12504 5.86606 6.9859C6.84863 4.97431 7.58414 3.2624 9.76449 2.48982C12.9359 1.36607 16.3894 1 19.7704 1C21.7132 1 22.3178 1.16953 23.9288 2.14397C25.411 3.04054 27.2984 4.23213 28.0741 5.90844C31.3139 12.9099 33.3938 22.9233 25.8 27.87C23.7655 29.1953 22.0954 30.0249 19.7704 30.6368C17.5739 31.215 15.1284 30.9295 12.8702 30.9295C9.65302 30.9295 7.03824 30.1243 4.91745 27.471C3.78884 26.0589 2.60308 24.843 2.11058 23.0281C1.63191 21.2642 1.29192 19.4002 1.29192 17.5743C1.29192 14.7486 0.441926 11.4993 1.64277 8.79497C2.13401 7.6887 2.96929 6.73208 3.77391 5.90844C4.59975 5.06307 5.8688 4.88189 6.72372 4.16588C7.42208 3.58098 8.57731 3.38188 9.37464 2.91549C10.0467 2.52236 8.65739 2.80691 8.43902 2.91549C7.60135 3.33198 7.09725 3.65891 6.38585 4.21908C3.52502 6.47176 2.9409 9.62931 2.47444 12.9718C1.9128 16.9962 3.64348 21.2998 6.20393 24.212C6.99198 25.1083 7.79899 26.6004 8.89384 27.0985C9.44446 27.349 9.89369 27.8077 10.4662 28.0031C10.7448 28.0981 12.7579 28.7746 11.7657 28.7746C8.97601 28.7746 7.62421 26.7317 5.63216 25.0633C4.46126 24.0827 4.38042 22.5028 3.63097 21.3521"
                            class="secundaryColor" stroke-width="2" stroke-linecap="round" />
                        <path d="M16.0771 15.6835C16.2927 15.7111 16.2321 15.7612 16.3111 15.923" class="secundaryColor"
                            stroke-width="30" stroke-linecap="round" />
                        <path
                            d="M13.1161 18.7204C11.5391 19.6986 12.3804 22.1321 13.5422 22.8952C14.5331 23.546 15.9925 22.2973 15.9925 20.8817C15.9925 20.1255 16.0991 19.0025 15.5072 18.5805C15.147 18.3237 14.7406 18.3006 14.3412 18.3006C14.046 18.3006 13.3985 18.1391 13.2463 18.6116C13.0802 19.1271 12.7965 19.5331 12.7965 20.1198C12.7965 21.4386 13.5084 22.255 14.501 22.2188C15.6111 22.1783 15.5597 19.1187 14.2288 19.5911C13.9446 19.692 13.3256 20.5433 13.773 20.8739C14.284 21.2514 14.5765 20.7875 14.4774 20.1509C14.2965 18.9894 13.7219 20.2597 14.3945 20.2597"
                            class="primaryColor" stroke-width="2" stroke-linecap="round" />
                        <path
                            d="M22.957 9.48206C22.2148 9.48206 21.3037 9.41419 21.143 10.1653C20.9299 11.1613 20.7701 12.1921 21.844 12.9042C22.7365 13.496 23.9298 13.5446 25.0385 13.4195C26.4761 13.2573 26.5996 12.2464 26.5996 11.3002C26.5996 10.0032 24.9155 9.2736 23.4774 9.2736C22.2407 9.2736 21.6042 9.42798 21.3381 10.5243C21.1495 11.3014 21.2591 12.2201 22.321 12.551C23.3862 12.8828 24.3911 12.6429 25.0385 11.8793C25.4113 11.4396 25.783 10.4696 25.5299 9.92213C25.3568 9.54752 24.2243 9.6683 23.8749 9.6963C22.9559 9.76993 22.8209 11.2259 23.3618 11.6592C24.9349 12.9196 25.1619 9.4072 23.3473 10.1769C22.4677 10.55 21.6784 12.5371 23.0582 12.7942C24.3014 13.0258 24.5181 11.8701 24.5181 11.1497C24.5181 10.7636 24.1185 9.69509 23.3473 10.0727C22.7529 10.3637 21.9236 12.0386 22.5884 12.5046C22.894 12.7189 24.4919 12.9426 24.7783 12.5857C25.3484 11.8752 25.5719 10.8009 24.8795 10.1074C24.4925 9.71986 23.7029 9.79474 23.1594 9.79474C22.0527 9.79474 21.5537 10.1108 21.0057 10.8949C20.5745 11.5118 20.4877 12.816 21.3454 13.2342C22.3178 13.7085 23.5576 13.356 24.5832 13.2342C26.0573 13.0593 27.25 12.5341 27.25 11.2539C27.25 10.0406 26.6333 9.5919 25.4866 9.00724C24.9743 8.74607 23.6783 8.55128 23.0871 8.77563C22.7373 8.90839 21.8932 9.10497 21.685 9.37783C21.155 10.0727 20.8756 10.5328 20.8756 11.3581"
                            class="primaryColor" stroke-width="2" stroke-linecap="round" />
                        <path
                            d="M20.6875 10.5967C18.5839 12.7575 16.8019 15.2279 15.0358 17.7412C14.8092 18.0636 14.4624 18.469 14.3134 18.8534C14.1677 19.2292 13.9195 19.3714 14.4408 19.0726"
                            class="primaryColor" stroke-width="2" stroke-linecap="round" />
                        <path
                            d="M25.375 13.4756C22.7432 14.8707 20.271 16.3422 17.4934 17.4942C16.5102 17.902 15.4653 18.2406 14.615 18.8739C14.3726 19.0544 13.7854 19.3197 14.389 19.2064"
                            class="primaryColor" stroke-width="2" stroke-linecap="round" />
                        <path
                            d="M21.2136 13.0307C20.6342 13.8909 19.5472 14.487 18.7244 15.0898C17.8066 15.7622 14.9747 17.6714 15.9157 17.0311C16.9764 16.3095 17.8278 15.302 18.7467 14.4206C19.2475 13.9403 20.4728 12.516 21.2731 12.516C21.435 12.516 21.1462 12.8185 21.0353 12.9351C20.5357 13.4605 20.0225 13.972 19.5269 14.5015C18.6129 15.4778 17.7494 16.4801 16.8891 17.5018C16.6897 17.7386 14.8873 19.321 14.7492 19.2299C14.734 19.2199 15.7246 18.3281 15.7894 18.2665C16.9838 17.1325 18.3409 16.0949 19.6681 15.1192C20.7002 14.3604 22.009 13.9274 22.9523 13.0896C23.1157 12.9445 23.879 12.4933 23.2644 12.9278C20.2925 15.0286 17.3913 17.5033 14.125 19.1196"
                            class="primaryColor" stroke-width="2" stroke-linecap="round" />
                        <path
                            d="M3.8125 15.395C5.87156 16.3421 7.91414 17.2935 10.0013 18.1739C11.1008 18.6376 12.2072 19.1117 13.2856 19.644C13.5384 19.7688 14.0008 19.8922 14.125 20.1934"
                            class="primaryColor" stroke-width="2" stroke-linecap="round" />
                        <path
                            d="M2.875 20.1934C5.06649 20.1934 7.27239 20.2554 9.45655 20.4675C10.4439 20.5635 11.4072 20.761 12.384 20.9322C12.6904 20.9858 12.9573 20.9857 13.1875 21.153"
                            class="primaryColor" stroke-width="2" stroke-linecap="round" />
                        <path
                            d="M4.37776 18.434C5.54267 18.434 6.62963 19.0469 7.79688 19.0737C7.94186 19.0771 8.34494 19.1071 7.94853 19.0737C7.1455 19.0062 6.30224 18.4437 5.54963 18.1141C5.31975 18.0134 3.93131 17.6207 3.8125 17.3144C3.81039 17.3089 5.11058 17.8018 5.16361 17.8297C7.65696 19.1416 10.5028 19.9271 13.1875 20.1933"
                            class="primaryColor" stroke-width="2" stroke-linecap="round" />
                        <path
                            d="M24.5622 8.67731C23.6894 8.67731 22.7288 8.9195 22.6062 10.1635C22.5628 10.604 22.4707 11.2464 22.8268 11.5693C23.1433 11.8563 23.429 12.2734 23.8217 12.3905C24.6963 12.6515 26.3125 12.6291 26.3125 11.0873C26.3125 10.4755 26.207 9.8814 25.8413 9.44494C25.6714 9.24228 25.5585 9.15729 25.3401 9.03881C25.2447 8.98707 25.0702 8.92565 25.0334 8.83798"
                            class="secundaryColor" stroke-linecap="round" />
                        <path
                            d="M14.2808 19.2491C14.435 19.2491 14.6632 19.2061 14.814 19.2635C15.0148 19.34 15.183 19.5647 15.3607 19.6881C15.68 19.9099 15.8264 20.3176 15.9343 20.6885C16.1433 21.4065 15.8312 22.0834 15.3134 22.5381C14.9307 22.8743 14.451 23.2207 13.9299 23.0059C13.5073 22.8318 13.1875 22.2508 13.1875 21.7753"
                            class="secundaryColor" stroke-linecap="round" />
                        <path
                            d="M4.41857 15.6001C4.30905 15.6001 4.21855 15.5678 4.11507 15.528C4.00703 15.4864 3.72122 15.4316 3.66216 15.3214C3.64695 15.293 3.54652 15.243 3.51508 15.2243C3.47093 15.1982 3.44127 15.1545 3.40068 15.1298C3.32519 15.0838 3.27849 14.9996 3.19991 14.9555C3.11095 14.9056 3.02032 14.8699 2.92676 14.8435C2.79557 14.8065 2.68091 14.7391 2.54972 14.7042C2.34108 14.6486 2.12833 14.6095 1.91821 14.5586C1.82987 14.5372 1.7146 14.525 1.62405 14.525C1.54618 14.525 1.48726 14.4841 1.41394 14.4802C1.30985 14.4746 1.19544 14.4354 1.09877 14.4354C0.966127 14.4354 0.986876 14.4895 1.04624 14.6034C1.09621 14.6993 1.09877 14.787 1.09877 14.8946C1.09877 15.0084 1.11978 15.1237 1.11978 15.2418C1.11978 15.3375 1.09821 15.4694 1.12445 15.5603C1.15534 15.6674 1.14079 15.7908 1.14079 15.9025C1.14079 16.0274 1.18281 16.1382 1.18281 16.2622C1.18281 16.4527 1.23894 16.7703 1.16647 16.9441C1.13217 17.0264 1.1618 17.1877 1.1618 17.2801C1.1618 17.3921 1.1618 17.5041 1.1618 17.6161C1.1618 17.855 1.1618 18.094 1.1618 18.3329C1.1618 18.8289 1.18281 19.3136 1.18281 19.8113C1.18281 19.8467 1.16591 20.0718 1.19565 20.0788C1.28266 20.0994 1.39358 20.0801 1.48164 20.0801C1.81398 20.0801 2.1463 20.0983 2.47851 20.1074C3.50025 20.1355 4.52307 20.1755 5.54501 20.1908C5.86943 20.1957 6.19408 20.1921 6.51854 20.1921C6.61633 20.1921 6.65527 20.149 6.59908 20.0527C6.5397 19.9509 6.44808 19.8714 6.37263 19.7839C6.18747 19.5691 6.00832 19.3493 5.82867 19.1293C5.52515 18.7577 5.21482 18.4159 4.85397 18.1064C4.4984 17.8014 4.13275 17.5108 3.79289 17.1855C3.65099 17.0497 3.1573 16.4504 2.93376 16.7151C2.63167 17.073 2.37077 17.8198 2.73999 18.2134C2.81576 18.2942 2.95529 18.3996 3.06917 18.4063C3.12097 18.4094 3.09229 18.0309 3.09018 17.9944C3.06242 17.5135 2.96182 16.8713 2.61275 16.521C2.42488 16.3325 2.40808 16.5304 2.43066 16.7326C2.47258 17.108 2.68439 17.494 2.8789 17.8003C3.04688 18.0648 3.30718 18.4567 3.63414 18.5071C3.74311 18.5239 3.70168 18.2265 3.69951 18.1761C3.67902 17.6995 3.59933 17.1772 3.38317 16.7537C3.23338 16.4602 2.99495 16.2403 2.75983 16.027C2.63366 15.9125 2.50809 15.769 2.35945 15.6897"
                            class="primaryColor" stroke-width="2" stroke-linecap="round" />
                        <path
                            d="M3.8125 15.395C3.80427 15.3179 3.63601 15.2288 3.58899 15.1939C3.42029 15.0687 3.24554 14.9549 3.07781 14.8292C2.95647 14.7382 2.80586 14.6913 2.67736 14.6111C2.54836 14.5305 2.41991 14.489 2.2769 14.4741C1.95662 14.4408 1.63868 14.4354 1.31767 14.4354C1.22561 14.4354 1.07576 14.4417 1 14.5008"
                            class="primaryColor" stroke-width="2" stroke-linecap="round" />
                        <path
                            d="M1 15.395C1 15.6799 1 15.9778 1 16.2601C1 16.5932 1 16.9117 1 17.2498C1 17.4532 1 17.6638 1 17.8666C1 18.0967 1 18.3242 1 18.5524C1 18.7609 1 19.0908 1 19.2337"
                            class="primaryColor" stroke-width="2" stroke-linecap="round" />
                    </svg>