<svg width="69" height="31" viewBox="0 0 69 31" fill="none" xmlns="http://www.w3.org/2000/svg">
<path d="M5.46331 2.346C8.60914 2.346 11.8215 1.82709 14.9585 1.4718C18.7322 1.0444 22.5339 1.45052 26.3147 1.20954C32.8018 0.796052 39.2662 1.12211 45.752 1.12211C48.3939 1.12211 51.0096 1.26989 53.6427 1.51065C55.9288 1.71967 58.3747 2.0174 60.581 2.87052C62.3937 3.57148 64.2302 4.3777 65.4678 6.47419C68.2491 11.1859 68.4717 17.3822 67.4167 22.9772C67.0366 24.9929 65.6923 26.8915 64.2516 27.6979C61.4734 29.2531 58.4282 29.2715 55.4451 29.2715C53.0567 29.2715 50.6805 29.5948 48.2943 29.6212C45.6743 29.6501 43.0531 29.6212 40.433 29.6212C35.9519 29.6212 31.49 30.1442 27.0034 29.9611C22.879 29.7929 18.7487 29.6794 14.6288 29.4366C12.679 29.3217 10.7406 28.5839 8.92145 27.6979C8.07021 27.2834 7.25317 26.7918 6.38646 26.4352C5.72128 26.1615 4.89499 25.9484 4.28374 25.5027C3.63019 25.0262 2.72267 24.3738 2.35685 23.492C1.84399 22.2558 1.31758 20.8878 1.14065 19.4804C0.766681 16.5056 1.116 12.0212 2.45943 9.51448C3.04999 8.41254 3.42456 7.09558 4.27641 6.27992C4.83616 5.74396 5.50944 4.63576 6.15201 4.3081C6.70154 4.02789 7.15595 3.53823 7.71257 3.30763C8.32864 3.05238 8.98961 2.89333 9.55153 2.52084" stroke="#2F2F2F" stroke-width="2" stroke-linecap="round"/>
<path d="M17.4083 16.1005C16.8145 16.013 16.6901 14.4857 17.4083 14.5977C18.2024 14.7216 17.3548 17.0021 16.5015 17.0021C15.97 17.0021 15.3982 15.8934 15.8718 15.2656C16.1616 14.8813 18.3172 14.2436 18.5418 14.7647C18.6168 14.9388 19.8659 16.6938 19.0959 16.9854C18.691 17.1388 17.7125 17.1388 17.3076 16.9854C15.8705 16.4411 16.9736 13.788 17.8617 13.3955" stroke="#2F2F2F" stroke-width="14" stroke-linecap="round"/>
<path d="M17.8003 13.6793C17.3229 13.3322 16.3531 13.7551 15.9562 14.0613C15.4135 14.48 15.3107 15.3061 15.3107 15.9318C15.3107 16.5486 16.0699 17.2682 16.6675 17.3479C17.4167 17.4478 17.4556 16.3009 17.5368 15.8133C17.6233 15.2947 17.8733 14.6769 17.4446 14.2721C17.0368 13.8869 16.3793 13.8451 15.8508 13.9296C13.9983 14.226 17.9052 18.031 18.0374 15.6947C18.0724 15.0758 18.2469 14.7876 17.8003 14.3907C17.1951 13.8527 16.2666 14.4541 16.0286 15.069C15.7012 15.9148 16.2992 16.5246 17.1022 16.5246C17.8624 16.5246 18.2745 16.7738 18.2745 15.9582C18.2745 15.4767 18.401 15.0238 18.0374 14.6804C17.7108 14.372 16.8684 14.4303 16.4962 14.5751C15.8892 14.8111 15.1449 15.3345 15.3371 16.1031C15.4863 16.7002 16.6128 16.9856 17.1483 16.9856C18.0477 16.9856 18.4022 15.2361 18.2482 14.4829C18.1354 13.9315 17.9902 13.5608 17.4183 13.5608C16.7203 13.5608 16.3187 13.5728 16.0879 14.3314C15.6328 15.8268 16.7248 16.7617 18.1559 16.7617C19.1953 16.7617 19.2234 15.1841 18.9199 14.4038C18.5159 13.3649 16.5614 13.4892 15.8113 13.9428C14.765 14.5754 15.3308 16.4261 16.022 17.1173C16.4423 17.5376 17.4193 17.9928 18.0374 17.6838C18.3152 17.5449 18.205 16.818 18.4457 16.5773C18.6851 16.3379 18.5202 15.4749 18.3931 15.2205" stroke="#E5E5E5" stroke-width="2" stroke-linecap="round"/>
<path d="M16.9933 11.7064C16.9376 11.177 16.8119 10.6574 16.7739 10.1249C16.7539 9.84436 16.7616 9.5422 16.6719 9.27295" stroke="#E5E5E5" stroke-linecap="round"/>
<path d="M17.5449 19.7871C17.7686 20.275 17.774 20.8921 17.8893 21.417C17.9363 21.6312 18.0041 21.8622 18.0041 22.0828" stroke="#E5E5E5" stroke-linecap="round"/>
<path d="M21.4941 15.2877C22.0132 15.2257 22.5076 15.1835 23.0093 15.0581" stroke="#E5E5E5" stroke-linecap="round"/>
<path d="M23.0996 15.0581H23.2373" stroke="#E5E5E5" stroke-linecap="round"/>
<path d="M13.4577 15.9304C12.7747 16.067 12.0411 16.2059 11.3457 16.2059" stroke="#E5E5E5" stroke-linecap="round"/>
<path d="M14.4223 12.9002C14.1412 12.4859 13.7744 12.1422 13.4352 11.7778C13.3043 11.6373 13.1053 11.5662 13.0449 11.385" stroke="#E5E5E5" stroke-linecap="round"/>
<path d="M19.8867 12.5787C20.0448 11.9319 20.6467 11.4926 20.8509 10.8799" stroke="#E5E5E5" stroke-linecap="round"/>
<path d="M14.9272 18.731C14.5467 18.9529 14.197 19.2199 13.8712 19.5115C13.7761 19.5965 13.6362 19.6654 13.5957 19.787" stroke="#E5E5E5" stroke-linecap="round"/>
<path d="M20.2988 17.9963C20.3786 18.0043 20.4452 18.0497 20.5105 18.0933C20.7575 18.2579 21.0122 18.3666 21.2885 18.4733C21.4734 18.5448 21.5598 18.6654 21.6992 18.7769C21.8293 18.8809 22.0348 18.9332 22.1813 19.0064" stroke="#E5E5E5" stroke-linecap="round"/>
</svg>
