<svg width="69" height="31" viewBox="0 0 69 31" fill="none" xmlns="http://www.w3.org/2000/svg">
<path d="M5.46331 2.346C8.60914 2.346 11.8215 1.82709 14.9585 1.4718C18.7322 1.0444 22.5339 1.45052 26.3147 1.20954C32.8018 0.796052 39.2662 1.12211 45.752 1.12211C48.3939 1.12211 51.0096 1.26989 53.6427 1.51065C55.9288 1.71967 58.3747 2.0174 60.581 2.87052C62.3937 3.57148 64.2302 4.3777 65.4678 6.47419C68.2491 11.1859 68.4717 17.3822 67.4167 22.9772C67.0366 24.9929 65.6923 26.8915 64.2516 27.6979C61.4734 29.2531 58.4282 29.2715 55.4451 29.2715C53.0567 29.2715 50.6805 29.5948 48.2943 29.6212C45.6743 29.6501 43.0531 29.6212 40.433 29.6212C35.9519 29.6212 31.49 30.1442 27.0034 29.9611C22.879 29.7929 18.7487 29.6794 14.6288 29.4366C12.679 29.3217 10.7406 28.5839 8.92145 27.6979C8.07021 27.2834 7.25317 26.7918 6.38646 26.4352C5.72128 26.1615 4.89499 25.9484 4.28374 25.5027C3.63019 25.0262 2.72267 24.3738 2.35685 23.492C1.84399 22.2558 1.31758 20.8878 1.14065 19.4804C0.766681 16.5056 1.116 12.0212 2.45943 9.51448C3.04999 8.41254 3.42456 7.09558 4.27641 6.27992C4.83616 5.74396 5.50944 4.63576 6.15201 4.3081C6.70154 4.02789 7.15595 3.53823 7.71257 3.30763C8.32864 3.05238 8.98961 2.89333 9.55153 2.52084" stroke="white" stroke-width="2" stroke-linecap="round"/>
<path d="M54.713 15.705C54.1192 15.6175 53.9948 14.0902 54.713 14.2022C55.5071 14.3261 54.6595 16.6066 53.8062 16.6066C53.2746 16.6066 52.7029 15.4979 53.1765 14.8701C53.4663 14.4858 55.6219 13.8481 55.8465 14.3692C55.9215 14.5433 57.1706 16.2983 56.4006 16.5899C55.9957 16.7433 55.0172 16.7433 54.6122 16.5899C53.1752 16.0456 54.2783 13.3925 55.1664 13" stroke="white" stroke-width="14" stroke-linecap="round"/>
<path d="M55.4996 12.3788C54.4721 11.4117 52.3273 13.0464 51.8904 14.0451C51.6638 14.563 51.6931 15.1709 51.706 15.7246C51.7331 16.8917 53.2939 18.3064 54.4458 18.3064C55.8339 18.3064 57.2214 18.3858 58.3975 17.6017C58.551 17.4994 58.0287 17.5951 57.8443 17.5951C57.2285 17.5951 56.6346 17.6976 56.0265 17.7136C55.0024 17.7406 54.2816 17.6811 53.5106 16.9101C52.9539 16.3535 53.1838 14.8225 53.5435 14.223C53.892 13.6422 54.5599 13.3844 54.9991 12.9452C55.0462 12.8981 54.8063 12.8976 55.0781 12.6752C55.2486 12.5357 55.3866 12.3981 55.5589 12.2603C55.7558 12.1028 55.8865 11.7718 55.4996 12.0297C55.1988 12.2303 54.9488 12.4494 54.6698 12.6686C52.7656 14.1647 53.4267 17.9507 56.0924 17.9507" stroke="#2F2F2F" stroke-width="2" stroke-linecap="round"/>
<path d="M56.2108 10.8376C55.2627 10.8376 54.5447 11.0302 53.7278 11.4897C53.4323 11.6559 53.1055 11.8841 52.865 12.1154C52.657 12.3154 52.4035 12.6294 52.1801 12.7608C51.7447 13.0169 51.5873 14.0789 51.5873 14.5127C51.5873 15.2203 51.5308 15.8337 51.8837 16.4688C52.4553 17.4977 53.3872 18.8411 54.6697 19.0243C56.0514 19.2217 57.9897 19.3137 59.1746 18.4249" stroke="#2F2F2F" stroke-width="2" stroke-linecap="round"/>
<path d="M55.974 11.5488C54.8809 12.4101 54.6193 13.5774 54.67 14.8946C54.695 15.5448 55.6179 16.066 56.0926 16.3172C56.517 16.5419 57.3339 17.0909 57.8709 17.1208C58.0861 17.1327 59.8046 17.2801 59.1749 17.595" stroke="#2F2F2F" stroke-width="2" stroke-linecap="round"/>
</svg>
