<svg width="89" height="82" viewBox="0 0 89 82" fill="none" xmlns="http://www.w3.org/2000/svg">
<path d="M34.0781 33.4846C38.5995 45.5415 43.3051 57.6455 49.5262 68.9565C50.4056 70.5555 50.8752 73.7868 52.5279 74.3377" stroke="#E5E5E5" stroke-width="5" stroke-linecap="round"/>
<path d="M34.0781 31.5078C37.554 31.8554 42.1983 34.839 45.4262 36.1203C53.7905 39.4404 61.9145 43.9646 70.5384 46.5166C74.2441 47.6131 78.9863 48.4878 82.1794 50.6165" stroke="#E5E5E5" stroke-width="5" stroke-linecap="round"/>
<path d="M52.5273 76.3144C55.3604 73.6387 59.1879 71.3242 61.2397 68.0413C62.6026 65.8607 67.6024 72.9396 68.6709 74.0082C69.6654 75.0026 72.6056 78.6002 74.0155 78.9135C77.2868 79.6404 79.5539 76.3096 82.1788 75.143C83.0057 74.7754 84.4575 74.6214 85.1073 73.9716C86.7159 72.363 84.1679 72.6343 83.6431 72.2144C80.5753 69.7602 79.1553 64.9643 75.9556 63.136C69.115 59.227 78.4811 55.3271 81.5199 51.2754" stroke="#E5E5E5" stroke-width="5" stroke-linecap="round"/>
<path d="M43.3027 23.6008C47.8355 20.9345 49.6858 14.6643 54.5044 13.0581" stroke="#E5E5E5" stroke-width="5" stroke-linecap="round"/>
<path d="M34.737 18.9884C33.6325 13.1898 34.737 8.17088 34.737 2.51538" stroke="#E5E5E5" stroke-width="5" stroke-linecap="round"/>
<path d="M26.1704 22.283C20.945 21.7024 18.8446 13.0192 14.9688 11.0813" stroke="#E5E5E5" stroke-width="5" stroke-linecap="round"/>
<path d="M20.9002 31.5079C14.8878 31.5079 9.21341 30.1901 3.10938 30.1901" stroke="#E5E5E5" stroke-width="5" stroke-linecap="round"/>
<path d="M27.4887 39.415C21.4758 39.6556 16.5622 46.7911 11.0156 48.6399" stroke="#E5E5E5" stroke-width="5" stroke-linecap="round"/>
</svg>
