<svg width="941" height="902" viewBox="0 0 941 902" fill="none" xmlns="http://www.w3.org/2000/svg">
<path d="M208.612 726.88C201.502 672.842 220.185 610.615 236.081 559.519C253.239 504.368 274.147 450.88 293.31 396.482C318.917 323.789 346.358 247.798 401.916 192.24C458.326 135.83 537.254 219.62 565.971 262.694C609.649 328.212 637.207 411.232 657.282 486.775C666.692 522.189 679.255 556.006 687.295 591.821C692.829 616.473 705.647 640.052 707.643 665.327C708.827 680.334 704.651 671.602 703.319 662.275C699.767 637.414 682.045 606.701 663.895 589.277C623.153 550.166 589.769 521.879 538.247 496.949C453.695 456.037 359.487 434.616 265.586 433.871C245.199 433.709 221.622 430.759 201.49 434.888C191.839 436.868 187.011 436.832 197.166 440.738C230.76 453.659 269.828 454.175 305.01 459.306C410.801 474.733 526.015 473.555 629.812 447.606C693.319 431.729 797.807 389.829 803.532 312.547C805.405 287.257 807.489 258.4 794.63 235.988C773.006 198.302 744.4 168.724 709.932 143.151C679.787 120.785 642.124 107.083 604.886 103.218C557.39 98.2895 509.055 85.9226 461.434 85.9226C311.275 85.9226 162.04 179.066 94.1552 314.836C41.8915 419.363 62.8168 520.535 115.012 621.325C153.264 695.191 220.149 747.1 296.616 777.241C389.849 813.989 516.201 822.628 613.534 799.115C718.939 773.651 798.83 718.114 846.771 619.036C889.329 531.084 925.386 392.217 883.397 297.286C866.052 258.071 833.062 228.476 805.821 196.818C794.409 183.556 774.457 164.659 758.004 159.175" stroke="white" stroke-width="76" stroke-linecap="round"/>
<path d="M432.947 108.814C430.969 144.419 390.315 181.078 375.973 213.86C369.928 227.675 355.116 244.519 355.116 259.897" stroke="white" stroke-width="76" stroke-linecap="round"/>
<path d="M803.786 237.006C803.786 225.158 787.598 212.723 780.895 202.669C763.376 176.391 740.09 149.81 713.238 132.723C681.735 112.676 644.664 101.489 606.921 96.0968C516.4 83.1652 423.36 85.7299 337.058 115.936C257.103 143.92 171.71 197.324 127.22 272.614C78.7929 354.569 73.8456 472.158 80.6747 564.352C85.2186 625.694 104.393 673.332 147.06 717.469C176.419 747.841 218.306 765.775 254.394 786.397C295.842 810.081 342.472 832.011 388.945 843.371C459.74 860.677 554.213 877.246 623.199 845.406C660.236 828.312 685.926 802.05 717.817 778.258C749.972 754.27 779.698 727.259 803.786 694.832C842.025 643.356 867.862 570.582 876.021 507.123C879.995 476.212 884.154 441.868 879.328 410.98C873.272 372.226 857.782 344.998 840.412 310.258C810.876 251.186 774.793 195.733 716.799 161.464C660.114 127.968 585.185 105.287 519.934 96.0968C455.274 86.9898 391.832 85.9228 326.629 85.9228C290.95 85.9228 262.869 86.6464 230.486 98.6402C163.52 123.442 112.843 170.032 78.3856 232.682C49.9468 284.389 49.3124 341.033 41.5051 397.245C33.0053 458.443 41.0192 533.086 67.703 589.532C80.5053 616.614 89.2926 648.63 108.144 672.195C124.613 692.781 141.851 711.769 159.268 731.458C208.123 786.686 288.741 821.098 359.949 834.215C428.06 846.762 501.157 849.501 570.295 845.66C606.063 843.673 642.667 826.963 675.595 813.867C711.486 799.592 749.792 783.228 778.351 756.639C834.412 704.444 879.465 651.66 892.808 573.508C905.688 498.068 901.706 404.42 871.443 334.167C842.212 266.31 797.702 222.276 749.864 168.332C704.918 117.648 654.509 80.4509 591.151 56.4185C511.875 26.3482 426.87 37.0772 350.538 67.6098" stroke="white" stroke-width="76" stroke-linecap="round"/>
<path d="M423.79 223.271C420.251 240.969 397.388 257.14 387.419 271.597C370.483 296.153 354.168 325.561 341.382 352.479C325.771 385.344 304.348 414.159 290.766 448.114C272.673 493.347 257.54 535.223 245.492 582.41C235.41 621.9 240.66 666.846 240.66 707.549C240.66 716.779 247.227 687.701 247.781 685.167C255.806 648.482 274.907 614.871 283.899 578.086C291.941 545.185 301.92 512.646 309.334 479.653C313.237 462.283 320.775 446.24 324.849 429.038C328.799 412.362 327.832 395.387 333.242 378.932C348.308 333.106 357.272 286.675 375.719 241.584C379.521 232.287 407.153 169.559 390.725 202.414C356.427 271.009 321.838 338.793 302.721 413.523C286.024 478.79 286.442 545.613 286.442 612.423C286.442 643.266 294.059 735.301 295.599 704.497C297.008 676.32 306.446 648.933 311.623 621.325C319.607 578.744 326.839 536.025 334.514 493.388C347.978 418.591 367.139 344.954 379.025 270.071C381.553 254.144 386.205 236.463 391.742 221.236C399.593 199.647 384.018 230.708 380.297 237.005C336.858 310.517 319.46 393.9 301.195 476.092C276.909 585.378 286.442 702.515 286.442 813.867" stroke="white" stroke-width="76" stroke-linecap="round"/>
<path d="M405.477 227.849C442.464 227.849 484.504 279.578 506.199 306.697C542.076 351.543 574.126 396.432 606.921 443.282C622.872 466.069 651.119 515.233 652.703 543.749C653.141 551.627 659.624 574.288 656.264 567.149C650.967 555.893 650.862 541.009 648.125 528.997C641.873 501.557 630.681 476.41 620.91 450.149C581.03 342.973 520.732 254.159 430.658 184.101C419.843 175.69 409.078 133.602 420.229 123.566C440.908 104.956 469.743 123.656 474.151 145.694C478.631 168.096 491.412 194.866 499.84 216.403C508.342 238.131 520.883 257.965 528.836 280.499C534.658 296.994 542.42 312.276 549.438 328.316C555.777 342.805 544.698 285.704 542.825 278.21C533.059 239.147 523.029 197.566 505.181 161.21C490.756 131.824 470.982 104.725 458.127 74.7313C456.732 71.4755 442.814 46.2168 451.26 60.9965C459.861 76.0487 469.837 87.2735 475.168 104.236C480.717 121.892 498.991 148.015 509.76 163.753C522.171 181.893 530.437 207.652 540.536 227.849C556.614 260.006 573.355 291.963 587.59 323.992C596.881 344.896 589.232 327.114 584.029 313.818C570.027 278.035 565.131 237.367 547.403 203.177C535.443 180.11 515.752 125.036 492.464 113.392" stroke="white" stroke-width="76" stroke-linecap="round"/>
<path d="M231.503 452.184C274.519 454.574 318.664 468.497 359.695 480.671C408.693 495.209 458.357 508.513 506.199 526.453C560.341 546.757 602.79 567.276 648.126 602.249C677.674 625.044 687.534 664.643 711.204 691.271C720.667 701.917 719.013 727.098 730.534 735.019C735.639 738.528 739.691 752.337 739.691 758.928" stroke="white" stroke-width="76" stroke-linecap="round"/>
</svg>
