<svg width="1917" height="2218" viewBox="0 0 1917 2218" fill="none" xmlns="http://www.w3.org/2000/svg">
<path d="M1104 0V442L1033 482.5L399 0H1104Z" fill="#D9D9D9" fill-opacity="0.15"/>
<path d="M0 389L399 2.5H1104L1917 543V2217.5H0V389Z" fill="#D9D9D9" fill-opacity="0.1"/>
<path d="M1220 308.417C1218.16 314.375 1219.04 321.205 1218.18 327.382C1217.18 334.624 1216.03 341.733 1215.91 349.069C1215.8 356.011 1214.27 362.808 1214.27 369.849C1214.27 376.938 1213.55 384.486 1214.45 391.536C1217.39 414.613 1215.32 438.495 1220.18 461.316C1222.79 473.559 1225.1 489.508 1233.28 499.518C1242.55 510.863 1252.81 518.136 1267.3 521.568C1283.21 525.338 1300.71 528.483 1316.6 523.201C1330.52 518.571 1341.99 510.45 1353.8 501.968C1365.41 493.626 1372.06 478.561 1377.95 466.08C1385.17 450.773 1384.87 432.58 1386.59 416.172C1387.84 404.161 1386.38 392.004 1387.41 379.966C1388.42 368.039 1388.63 355.592 1388.63 343.624C1388.63 335.581 1388.28 325.808 1389.86 317.945C1390.27 315.917 1391.22 311.942 1390.95 310.05C1390.22 304.922 1377.49 299.402 1373.49 297.845C1366.22 295.016 1356.62 293.59 1348.84 292.9C1326.07 290.881 1303.9 288 1280.99 288C1267.64 288 1254.49 290.176 1241.74 294.125C1237.1 295.561 1232.95 297.142 1228.55 299.025C1224.43 300.786 1220.57 303.615 1216.73 305.15" stroke="#2F2F2F" stroke-width="10" stroke-linecap="round"/>
<path d="M1205.88 374.149C1205.88 369.311 1200.62 370.039 1196.94 370.039C1192.12 370.039 1192.07 376.305 1192.07 379.902C1192.07 388.907 1191.12 397.418 1196.13 405.383C1199.04 410.001 1202.5 413.071 1206.65 416.479C1208.97 418.39 1211.6 419.18 1214 421" stroke="#2F2F2F" stroke-width="10" stroke-linecap="round"/>
<path d="M1391 367.192C1397.03 366.094 1406.39 357.152 1412.37 362.926C1420.41 370.676 1419.56 382.572 1417.9 392.966C1417.18 397.465 1414.98 402.168 1412.19 405.762C1409.62 409.078 1406.34 414.842 1402.82 417.015C1398.93 419.415 1395.02 422.787 1391.82 426" stroke="#2F2F2F" stroke-width="10" stroke-linecap="round"/>
<path d="M1268.98 468.372C1265.9 467.8 1270.86 455.554 1273.03 455.152C1275.62 454.67 1274.64 456.567 1274.64 461.762C1274.64 464.101 1273.61 470.254 1274.82 468.773C1276.73 466.452 1278.34 461.9 1279.95 459.025C1282.24 454.937 1280.71 466.397 1281.16 468.773C1281.28 469.376 1283.77 462.442 1283.9 462.096C1284.38 460.826 1288.38 452.62 1288.4 453.149C1288.5 455.777 1287.02 469.537 1288.13 465.635C1288.94 462.774 1290.86 455.448 1292.76 453.884C1293.15 453.56 1293.25 462.372 1293.25 463.365C1293.25 471.264 1297.9 456.408 1298.38 455.019C1302.22 443.806 1300.56 459.177 1301.79 463.365C1303.36 468.679 1305.18 452.607 1306.02 454.485C1306.73 456.06 1305.31 467.037 1307.41 467.037C1307.95 467.037 1309.15 463.789 1309.44 463.298C1311.61 459.576 1311.85 464.198 1312.67 466.903C1313.88 470.873 1317.83 451.534 1318.25 455.085C1318.71 459.073 1318.34 463.529 1318.34 467.571C1318.34 471.095 1319.52 464.954 1319.95 463.832C1321.22 460.559 1324 454.528 1324 461.161" stroke="#2F2F2F" stroke-width="3" stroke-linecap="round"/>
<path d="M1276 456.866C1276.12 455.335 1279.18 449.526 1280.4 450.031C1281.94 450.667 1280.35 454.684 1283.46 454.523C1284.93 454.446 1289.4 449.639 1289.7 452.244C1290.33 457.731 1291.17 455.884 1293.61 452.44C1297.92 446.339 1295.73 456.904 1299.04 457.973C1300.21 458.347 1302.78 454.772 1303.67 453.611C1305.51 451.208 1306.58 450.499 1308.34 453.416C1310.42 456.857 1310.89 456.866 1314 456.866" stroke="#2F2F2F" stroke-width="3" stroke-linecap="round"/>
<path d="M1281.12 418C1279.23 420.01 1280 426.178 1281.48 428.286C1284.7 432.868 1295.17 430.431 1300 429.669" stroke="#2F2F2F" stroke-width="10" stroke-linecap="round"/>
<path d="M1280 374.906C1280 372.69 1280 370.474 1280 368.258C1280 362.009 1280 380.754 1280 387.003C1280 396.216 1278.16 405.891 1271.55 412.719C1264.53 419.96 1247.25 418.952 1238.22 418.952C1232.18 418.952 1222.45 418.558 1218 413.966" stroke="#2F2F2F" stroke-width="10" stroke-linecap="round"/>
<path d="M1219 367C1261.94 367 1304.94 365.5 1347.93 365.5C1360.38 365.5 1372.74 364 1385 364" stroke="#2F2F2F" stroke-width="10" stroke-linecap="round"/>
<path d="M1317.19 375C1317.19 381.073 1315.96 388.087 1319.71 393.291C1325.66 401.558 1333.96 409.9 1343.95 412.829C1352.56 415.351 1361.65 415.052 1370.53 414.908C1374.1 414.849 1377.19 413.245 1380.77 413.245C1383.14 413.245 1386.38 413.213 1388 411.582" stroke="#2F2F2F" stroke-width="10" stroke-linecap="round"/>
<path d="M1356 389C1355.79 390.684 1354.46 389.931 1354 389" stroke="#2F2F2F" stroke-width="10" stroke-linecap="round"/>
<path d="M1243 391C1241.95 391 1239.97 390.629 1241.66 390" stroke="#2F2F2F" stroke-width="10" stroke-linecap="round"/>
<path d="M1235 354C1244.35 354 1253.78 354 1263 354" stroke="#2F2F2F" stroke-width="10" stroke-linecap="round"/>
<path d="M1328 348.117C1337.25 348.117 1346.92 347.329 1355.69 349.843C1358.93 350.772 1371.97 350.084 1373 352" stroke="#2F2F2F" stroke-width="10" stroke-linecap="round"/>
<path d="M1250.25 521C1249.53 535.824 1247.79 550.671 1247.3 565.565C1247.1 571.629 1246.74 578.171 1247.3 584.221C1247.66 588.185 1248.87 587.382 1251 585.077" stroke="#2F2F2F" stroke-width="10" stroke-linecap="round"/>
<path d="M1338 521C1338 538.911 1338.61 556.14 1340.92 573.925C1341.22 576.293 1341.42 590.237 1343 591" stroke="#2F2F2F" stroke-width="10" stroke-linecap="round"/>
<path d="M1227 578C1234.57 583.232 1240 588.9 1249.23 591.333C1267.82 596.233 1287.27 598 1306.44 598C1319.5 598 1330.73 594.948 1342.6 589.667C1345.9 588.201 1349.82 586.597 1353.44 586.333C1355.56 586.18 1356.74 584.667 1359 584.667" stroke="#2F2F2F" stroke-width="10" stroke-linecap="round"/>
<path d="M1247 574C1277.34 574 1307.65 575 1338 575" stroke="#2F2F2F" stroke-width="10" stroke-linecap="round"/>
<path d="M1244 549C1238.44 549.658 1232.41 555.507 1226.97 557.379C1216.96 560.818 1206.84 563.98 1197.03 568.016C1182.88 573.832 1168.39 579.506 1153.97 584.337C1132.8 591.43 1114.16 607.409 1107 629" stroke="#2F2F2F" stroke-width="10" stroke-linecap="round"/>
<path d="M1339 549C1345.93 549.768 1352.71 558.887 1359.45 561.307C1369.64 564.965 1383.5 565.637 1394.22 566.041C1411.2 566.679 1429.2 571.534 1442.87 581.479C1448.62 585.659 1457.57 589.716 1461.28 596.189C1464.81 602.353 1468.61 608.009 1471.8 614.541C1474.93 620.955 1474.4 628.921 1477.71 634.858C1479.04 637.239 1481 643.334 1481 646" stroke="#2F2F2F" stroke-width="10" stroke-linecap="round"/>
<path d="M1217.32 297.074C1215.65 292.042 1211.19 277.709 1216.59 273.591C1219.78 271.161 1241.04 267.181 1239.55 273.958C1238.11 280.462 1234.04 272.307 1233.65 270.509C1231.59 261.066 1230.59 250.343 1242.25 247.172C1247.3 245.797 1253.66 249.203 1254.05 254.804C1254.28 257.965 1254.56 248.234 1256.24 245.558C1260.91 238.146 1270.47 234.511 1278.76 233.816C1290.29 232.849 1290.79 238.142 1290.79 248.2C1290.79 248.395 1291.11 242.959 1291.66 241.595C1293.86 236.152 1301.1 230 1307.19 230C1312.79 230 1325.51 237.793 1323.51 244.824C1322.99 246.664 1327.04 245.073 1328.47 244.897C1335.55 244.028 1344.61 242.817 1350.84 247.172C1354.61 249.801 1356.38 253.655 1356.38 258.18C1356.38 258.732 1355.4 262.62 1354.05 261.115C1348.08 254.44 1366.04 247.516 1371.4 251.796C1378.73 257.648 1380 267.708 1380 276.453C1380 278.269 1378.75 278.249 1378.98 277.847C1380.35 275.434 1387.33 273.03 1389.91 273.591C1397.72 275.292 1396.4 293.647 1396.98 299.496C1397.33 302.982 1393.11 303.243 1390.49 305" stroke="#2F2F2F" stroke-width="10" stroke-linecap="round"/>
<path d="M1270 481.023C1276.02 480.66 1284.46 483.454 1290.5 483C1299.54 482.32 1305.96 483 1315 483C1318.96 483 1325.04 481.023 1329 481.023" stroke="#2F2F2F" stroke-width="10" stroke-linecap="round"/>
<path d="M1292 498C1292.59 500.49 1298.23 499.951 1300 499.951" stroke="#2F2F2F" stroke-width="7" stroke-linecap="round"/>
<path d="M1228.42 291.722C1227.83 289.841 1226.32 286.691 1227.43 284.714C1227.97 283.757 1230.1 283.458 1230.84 284.358C1231.3 284.922 1231.95 289.748 1230.56 289.584C1229.32 289.438 1227.25 285.573 1229.61 285.348C1232.11 285.11 1234.08 286.09 1235.55 283.883" stroke="#2F2F2F" stroke-width="3" stroke-linecap="round"/>
<path d="M1239.82 266.78C1236.87 262.26 1238.19 258.998 1244.06 258.307C1246.81 257.984 1248.62 258.856 1249.01 261.752C1249.08 262.258 1249.09 265.183 1249.09 264.761C1249.09 262.901 1248.45 259.884 1250.24 258.663C1250.71 258.342 1252.83 257.089 1253.32 257.832C1253.48 258.058 1253.44 257.3 1253.52 257.04C1253.98 255.576 1254.8 254.525 1256.1 253.675C1258.65 251.99 1263.69 249.99 1266.43 252.289C1270.62 255.808 1265.07 260.082 1264.49 256.921C1262.84 247.997 1278.27 235.807 1285.59 243.381C1287.53 245.391 1288.01 248.85 1286.82 251.339C1286.21 252.613 1284.8 254.1 1284.8 251.656C1284.8 240.81 1301.59 244.968 1306.97 248.647C1309.03 250.054 1312.03 252.335 1311.64 255.219C1311.49 256.384 1310.15 258.092 1310.38 255.773C1311.34 245.749 1327.54 245.797 1330.57 254.665C1331.17 256.439 1330.63 262.156 1330.49 260.287C1330.16 255.862 1337.55 252.5 1340.86 251.735C1346.08 250.528 1350.33 252.948 1351.39 258.228C1351.52 258.839 1351.54 266.519 1352.03 266.542C1352.66 266.573 1354.61 264.65 1355.11 264.404C1357.22 263.376 1359.54 263.251 1361.84 263.375C1365.89 263.593 1371.02 264.225 1372.06 268.918C1372.77 272.124 1371.3 274.919 1369.13 277.153C1367.18 279.156 1369.27 275.459 1369.84 274.935C1374.74 270.404 1381.94 276.568 1379.9 282.299C1379.06 284.649 1374.99 285.54 1376.65 283.883" stroke="#2F2F2F" stroke-width="3" stroke-linecap="round"/>
<path d="M1250.51 282.457C1247.79 281.55 1248.45 276.085 1249.25 274.262C1251.3 269.584 1260.5 265.485 1264.61 269.947C1266.13 271.595 1267.27 278.28 1265.84 276.558C1262.14 272.126 1272.34 264.166 1276.09 264.166C1277.94 264.166 1283.13 267.812 1281 270.184C1280.06 271.229 1279.86 268.907 1279.89 268.64C1280.39 264.415 1283.7 260.929 1287.73 259.732C1295.08 257.547 1305.47 262.405 1307.41 270.144C1307.92 272.191 1307.47 270.233 1307.52 269.155C1307.75 264.876 1309.65 261.818 1313.78 260.247C1321.4 257.35 1331.15 261.22 1334.84 268.6C1336.18 271.271 1332.22 272.219 1332.67 270.897C1334.23 266.199 1341.49 264.659 1344.11 269.076C1345.34 271.161 1344.86 274.189 1346.13 276.083C1346.46 276.586 1354.81 273.609 1355.83 273.51C1359.57 273.145 1373.34 275.024 1369.72 281.982C1368.23 284.858 1363.04 284.78 1367.15 281.824C1371.83 278.454 1374.84 282.254 1376.18 286.733C1376.65 288.307 1375.67 294.265 1377.36 291.722" stroke="#2F2F2F" stroke-width="3" stroke-linecap="round"/>
<path d="M1321.06 370.825C1319.75 371.318 1319.96 378.466 1319.64 380.09" stroke="#2F2F2F" stroke-width="3" stroke-linecap="round"/>
<path d="M1314.65 370.112V377.239" stroke="#2F2F2F" stroke-width="3" stroke-linecap="round"/>
<path d="M1254.01 579.539C1253.92 580.194 1253.36 580.11 1254.52 580.326C1260.78 581.5 1267.15 581.861 1273.5 582.387C1289.83 583.742 1306.36 584.13 1322.75 584.13C1327.01 584.13 1331.52 584.625 1335.21 582.217C1336.78 581.188 1335.32 582.376 1334.74 583.004C1333.63 584.191 1332.99 585.837 1331.87 586.958C1331.25 587.579 1330.2 587.877 1329.38 588.042C1326.53 588.611 1324.05 589.938 1321.35 590.933C1315.12 593.225 1309.55 594.079 1302.94 594.079C1293.84 594.079 1284.65 593.854 1275.6 593.016C1270.02 592.499 1264.53 591.689 1259.02 590.656C1258.7 590.595 1252.33 590.233 1254.47 588.807C1255.38 588.204 1258.14 588.389 1259.13 588.361C1266.02 588.164 1272.94 588.339 1279.83 588.339C1290.19 588.339 1300.46 587.191 1310.8 587.191C1313.91 587.191 1316.64 587.35 1319.48 586.405C1322.47 585.408 1325.48 583.814 1328.53 583.068C1331.2 582.416 1333.4 580.749 1335.89 579.922" stroke="#2F2F2F" stroke-width="10" stroke-linecap="round"/>
</svg>
