<svg width="1916" height="2218" viewBox="0 0 1916 2218" fill="none" xmlns="http://www.w3.org/2000/svg">
<path d="M1103 0V442L1032 482.5L398 0H1103Z" fill="#D9D9D9" fill-opacity="0.15"/>
<path d="M-1 389L398 2.5H1103L1916 543V2217.5H-1V389Z" fill="#D9D9D9" fill-opacity="0.1"/>
<path d="M1264 530.5L1241.5 522.5V546.5L1171 571.5C1174.17 575.833 1180.5 585.4 1180.5 589C1180.5 592.6 1206.5 582.5 1219.5 577L1232 584.5L1260 571.5L1264 530.5Z" fill="#D9D9D9" fill-opacity="0.05"/>
<path d="M1125 602.5L1106 620L1119.5 627.5L1137 612.5L1125 602.5Z" fill="#D9D9D9" fill-opacity="0.05"/>
<path d="M1127.5 558.5L1095 539.5L1099 534L1131.5 539.5L1127.5 508L1148 519L1161.5 562.5L1127.5 558.5Z" fill="#D9D9D9" fill-opacity="0.05"/>
<path d="M1127.5 587.5C1109.1 587.1 1091.5 571.667 1085 564L1096.5 587.5L1144 611L1127.5 587.5Z" fill="black" fill-opacity="0.2"/>
<path d="M1103 444.5L1044.5 482L1058.5 506.5L1123 468.5L1103 444.5Z" fill="#D9D9D9" fill-opacity="0.2"/>
<path d="M1312.5 255C1307.7 241.8 1293.5 236.5 1287 235.5H1257.5L1248 252L1244 245L1226.5 249L1230 271.5L1205.5 274.5L1213.5 303.5L1208.5 372H1184C1176.8 398.4 1199 415 1211 420V441C1214 527 1272 522.5 1291 523.5C1310 524.5 1336 506 1345.5 501C1353.1 497 1358.33 441.333 1360 414H1342.5L1378 408.5V365.5L1360 359.5V298.5C1352 295.667 1336 289.1 1336 285.5C1336 281.9 1345 280 1349.5 279.5L1336 271.5C1334.8 262.7 1319.83 256.833 1312.5 255Z" fill="#D9D9D9" fill-opacity="0.07"/>
<path d="M1213.3 306.417C1211.46 312.375 1212.34 319.205 1211.48 325.382C1210.47 332.624 1209.32 339.733 1209.21 347.069C1209.09 354.011 1207.57 360.808 1207.57 367.849C1207.57 374.938 1206.85 382.486 1207.75 389.536C1210.69 412.613 1208.61 436.495 1213.48 459.316C1216.09 471.559 1218.4 487.508 1226.58 497.518C1235.84 508.863 1246.11 516.136 1260.6 519.568C1276.51 523.338 1294.01 526.483 1309.89 521.201C1323.82 516.571 1335.29 508.45 1347.1 499.968C1358.71 491.626 1365.36 476.561 1371.24 464.08C1378.46 448.773 1378.17 430.58 1379.88 414.172C1381.14 402.161 1379.68 390.004 1380.7 377.966C1381.72 366.039 1381.93 353.592 1381.93 341.624C1381.93 333.581 1381.58 323.808 1383.16 315.945C1383.57 313.917 1384.52 309.942 1384.25 308.05C1383.52 302.922 1370.79 297.402 1366.79 295.845C1359.52 293.016 1349.92 291.59 1342.14 290.9C1319.37 288.881 1297.2 286 1274.28 286C1260.94 286 1247.79 288.176 1235.04 292.125C1230.4 293.561 1226.25 295.142 1221.85 297.025C1217.73 298.786 1213.87 301.615 1210.02 303.15" stroke="#040404" stroke-width="10" stroke-linecap="round"/>
<path d="M1199.18 372.149C1199.18 367.311 1193.92 368.039 1190.24 368.039C1185.42 368.039 1185.37 374.305 1185.37 377.902C1185.37 386.907 1184.42 395.418 1189.43 403.383C1192.33 408.001 1195.8 411.071 1199.94 414.479C1202.27 416.39 1204.9 417.18 1207.3 419" stroke="#040404" stroke-width="10" stroke-linecap="round"/>
<path d="M1384.3 365.192C1390.33 364.094 1399.69 355.152 1405.67 360.926C1413.7 368.676 1412.86 380.572 1411.2 390.966C1410.48 395.465 1408.28 400.168 1405.49 403.762C1402.92 407.078 1399.64 412.842 1396.12 415.015C1392.23 417.415 1388.32 420.787 1385.11 424" stroke="#040404" stroke-width="10" stroke-linecap="round"/>
<path d="M1262.28 466.372C1259.2 465.8 1264.16 453.554 1266.33 453.152C1268.92 452.67 1267.94 454.567 1267.94 459.762C1267.94 462.101 1266.9 468.254 1268.12 466.773C1270.03 464.452 1271.63 459.9 1273.25 457.025C1275.54 452.937 1274 464.397 1274.46 466.773C1274.58 467.376 1277.07 460.442 1277.2 460.096C1277.68 458.826 1281.68 450.62 1281.7 451.149C1281.8 453.777 1280.32 467.537 1281.43 463.635C1282.24 460.774 1284.16 453.448 1286.06 451.884C1286.45 451.56 1286.55 460.372 1286.55 461.365C1286.55 469.264 1291.2 454.408 1291.68 453.019C1295.52 441.806 1293.86 457.177 1295.09 461.365C1296.66 466.679 1298.48 450.607 1299.32 452.485C1300.03 454.06 1298.61 465.037 1300.71 465.037C1301.25 465.037 1302.45 461.789 1302.73 461.298C1304.91 457.576 1305.15 462.198 1305.97 464.903C1307.17 468.873 1311.13 449.534 1311.54 453.085C1312.01 457.073 1311.63 461.529 1311.63 465.571C1311.63 469.095 1312.82 462.954 1313.25 461.832C1314.52 458.559 1317.3 452.528 1317.3 459.161" stroke="#040404" stroke-width="3" stroke-linecap="round"/>
<path d="M1269.3 454.866C1269.42 453.335 1272.48 447.526 1273.7 448.031C1275.24 448.667 1273.64 452.684 1276.75 452.523C1278.23 452.446 1282.7 447.639 1283 450.244C1283.63 455.731 1284.47 453.884 1286.91 450.44C1291.22 444.339 1289.02 454.904 1292.34 455.973C1293.5 456.347 1296.08 452.772 1296.97 451.611C1298.81 449.208 1299.88 448.499 1301.64 451.416C1303.72 454.857 1304.19 454.866 1307.3 454.866" stroke="#040404" stroke-width="3" stroke-linecap="round"/>
<path d="M1274.41 416C1272.53 418.01 1273.3 424.178 1274.78 426.286C1278 430.868 1288.47 428.431 1293.3 427.669" stroke="#040404" stroke-width="10" stroke-linecap="round"/>
<path d="M1273.3 372.906C1273.3 370.69 1273.3 368.474 1273.3 366.258C1273.3 360.009 1273.3 378.754 1273.3 385.003C1273.3 394.216 1271.46 403.891 1264.84 410.719C1257.83 417.96 1240.54 416.952 1231.52 416.952C1225.48 416.952 1215.75 416.558 1211.3 411.966" stroke="#040404" stroke-width="10" stroke-linecap="round"/>
<path d="M1212.3 365C1255.24 365 1298.24 363.5 1341.23 363.5C1353.68 363.5 1366.04 362 1378.3 362" stroke="#040404" stroke-width="10" stroke-linecap="round"/>
<path d="M1310.49 373C1310.49 379.073 1309.26 386.087 1313.01 391.291C1318.96 399.558 1327.26 407.9 1337.25 410.829C1345.85 413.351 1354.95 413.052 1363.83 412.908C1367.39 412.849 1370.49 411.245 1374.07 411.245C1376.44 411.245 1379.68 411.213 1381.3 409.582" stroke="#040404" stroke-width="10" stroke-linecap="round"/>
<path d="M1349.3 387C1349.09 388.684 1347.76 387.931 1347.3 387" stroke="#040404" stroke-width="10" stroke-linecap="round"/>
<path d="M1236.3 389C1235.25 389 1233.26 388.629 1234.95 388" stroke="#040404" stroke-width="10" stroke-linecap="round"/>
<path d="M1228.3 352C1237.65 352 1247.08 352 1256.3 352" stroke="#040404" stroke-width="10" stroke-linecap="round"/>
<path d="M1321.3 346.117C1330.54 346.117 1340.22 345.329 1348.98 347.843C1352.22 348.772 1365.27 348.084 1366.3 350" stroke="#040404" stroke-width="10" stroke-linecap="round"/>
<path d="M1243.55 519C1242.83 533.824 1241.09 548.671 1240.6 563.565C1240.4 569.629 1240.04 576.171 1240.6 582.221C1240.96 586.185 1242.17 585.382 1244.3 583.077" stroke="#040404" stroke-width="10" stroke-linecap="round"/>
<path d="M1331.3 519C1331.3 536.911 1331.91 554.14 1334.22 571.925C1334.52 574.293 1334.72 588.237 1336.3 589" stroke="#040404" stroke-width="10" stroke-linecap="round"/>
<path d="M1220.3 576C1227.87 581.232 1233.29 586.9 1242.53 589.333C1261.12 594.233 1280.57 596 1299.74 596C1312.8 596 1324.02 592.948 1335.9 587.667C1339.2 586.201 1343.12 584.597 1346.74 584.333C1348.85 584.18 1350.03 582.667 1352.3 582.667" stroke="#040404" stroke-width="10" stroke-linecap="round"/>
<path d="M1240.3 572C1270.63 572 1300.95 573 1331.3 573" stroke="#040404" stroke-width="10" stroke-linecap="round"/>
<path d="M1237.3 547C1231.73 547.658 1225.71 553.507 1220.26 555.379C1210.26 558.818 1200.14 561.98 1190.33 566.016" stroke="#040404" stroke-width="10" stroke-linecap="round"/>
<path d="M1332.3 547C1339.23 547.768 1346.01 556.887 1352.75 559.307C1362.94 562.965 1376.8 563.637 1387.52 564.041C1404.49 564.679 1422.5 569.534 1436.17 579.479C1441.91 583.659 1450.87 587.716 1454.58 594.189C1458.11 600.353 1461.8 614.5 1461.8 621" stroke="#040404" stroke-width="10" stroke-linecap="round"/>
<path d="M1210.62 295.074C1208.95 290.042 1204.48 275.709 1209.89 271.591C1213.08 269.161 1234.34 265.181 1232.85 271.958C1231.41 278.462 1227.33 270.307 1226.94 268.509C1224.89 259.066 1223.89 248.343 1235.54 245.172C1240.6 243.797 1246.95 247.203 1247.35 252.804C1247.58 255.965 1247.85 246.234 1249.54 243.558C1254.2 236.146 1263.77 232.511 1272.06 231.816C1283.59 230.849 1284.09 236.142 1284.09 246.2C1284.09 246.395 1284.41 240.959 1284.96 239.595C1287.15 234.152 1294.4 228 1300.48 228C1306.08 228 1318.81 235.793 1316.81 242.824C1316.29 244.664 1320.34 243.073 1321.77 242.897C1328.84 242.028 1337.91 240.817 1344.14 245.172C1347.91 247.801 1349.68 251.655 1349.68 256.18C1349.68 256.732 1348.69 260.62 1347.35 259.115C1341.38 252.44 1359.34 245.516 1364.7 249.796C1372.02 255.648 1373.3 265.708 1373.3 274.453C1373.3 276.269 1372.05 276.249 1372.28 275.847C1373.65 273.434 1380.63 271.03 1383.21 271.591C1391.02 273.292 1389.7 291.647 1390.28 297.496C1390.62 300.982 1386.41 301.243 1383.79 303" stroke="#040404" stroke-width="10" stroke-linecap="round"/>
<path d="M1263.3 479.023C1269.32 478.66 1277.76 481.454 1283.8 481C1292.83 480.32 1299.25 481 1308.3 481C1312.25 481 1318.34 479.023 1322.3 479.023" stroke="#040404" stroke-width="10" stroke-linecap="round"/>
<path d="M1285.3 496C1285.89 498.49 1291.53 497.951 1293.3 497.951" stroke="#040404" stroke-width="7" stroke-linecap="round"/>
<path d="M1221.72 289.722C1221.13 287.841 1219.62 284.691 1220.73 282.714C1221.27 281.757 1223.4 281.458 1224.13 282.358C1224.6 282.922 1225.25 287.748 1223.86 287.584C1222.61 287.438 1220.55 283.573 1222.91 283.348C1225.4 283.11 1227.38 284.09 1228.85 281.883" stroke="#040404" stroke-width="3" stroke-linecap="round"/>
<path d="M1233.12 264.78C1230.17 260.26 1231.49 256.998 1237.36 256.307C1240.11 255.984 1241.92 256.856 1242.31 259.752C1242.37 260.258 1242.39 263.183 1242.39 262.761C1242.39 260.901 1241.75 257.884 1243.53 256.663C1244 256.342 1246.13 255.089 1246.62 255.832C1246.77 256.058 1246.74 255.3 1246.82 255.04C1247.27 253.576 1248.1 252.525 1249.39 251.675C1251.95 249.99 1256.99 247.99 1259.73 250.289C1263.92 253.808 1258.37 258.082 1257.79 254.921C1256.13 245.997 1271.57 233.807 1278.89 241.381C1280.83 243.391 1281.31 246.85 1280.12 249.339C1279.51 250.613 1278.1 252.1 1278.1 249.656C1278.1 238.81 1294.89 242.968 1300.27 246.647C1302.33 248.054 1305.33 250.335 1304.94 253.219C1304.79 254.384 1303.45 256.092 1303.67 253.773C1304.64 243.749 1320.84 243.797 1323.87 252.665C1324.47 254.439 1323.92 260.156 1323.79 258.287C1323.46 253.862 1330.85 250.5 1334.16 249.735C1339.38 248.528 1343.62 250.948 1344.69 256.228C1344.81 256.839 1344.84 264.519 1345.32 264.542C1345.96 264.573 1347.91 262.65 1348.41 262.404C1350.52 261.376 1352.84 261.251 1355.14 261.375C1359.19 261.593 1364.32 262.225 1365.36 266.918C1366.07 270.124 1364.6 272.919 1362.43 275.153C1360.48 277.156 1362.57 273.459 1363.14 272.935C1368.04 268.404 1375.23 274.568 1373.2 280.299C1372.36 282.649 1368.29 283.54 1369.95 281.883" stroke="#040404" stroke-width="3" stroke-linecap="round"/>
<path d="M1243.81 280.457C1241.09 279.55 1241.74 274.085 1242.54 272.262C1244.6 267.584 1253.79 263.485 1257.91 267.947C1259.43 269.595 1260.57 276.28 1259.13 274.558C1255.44 270.126 1265.64 262.166 1269.39 262.166C1271.24 262.166 1276.43 265.812 1274.3 268.184C1273.36 269.229 1273.16 266.907 1273.19 266.64C1273.69 262.415 1277 258.929 1281.03 257.732C1288.38 255.547 1298.77 260.405 1300.7 268.144C1301.22 270.191 1300.77 268.233 1300.82 267.155C1301.05 262.876 1302.95 259.818 1307.08 258.247C1314.7 255.35 1324.45 259.22 1328.14 266.6C1329.48 269.271 1325.52 270.219 1325.96 268.897C1327.53 264.199 1334.79 262.659 1337.41 267.076C1338.64 269.161 1338.16 272.189 1339.42 274.083C1339.76 274.586 1348.11 271.609 1349.12 271.51C1352.87 271.145 1366.64 273.024 1363.02 279.982C1361.53 282.858 1356.34 282.78 1360.45 279.824C1365.13 276.454 1368.14 280.254 1369.47 284.733C1369.94 286.307 1368.97 292.265 1370.66 289.722" stroke="#040404" stroke-width="3" stroke-linecap="round"/>
<path d="M1314.36 368.825C1313.05 369.318 1313.26 376.466 1312.94 378.09" stroke="#040404" stroke-width="3" stroke-linecap="round"/>
<path d="M1307.95 368.112V375.239" stroke="#040404" stroke-width="3" stroke-linecap="round"/>
<path d="M1247.3 577.539C1247.22 578.194 1246.66 578.11 1247.81 578.326C1254.07 579.5 1260.45 579.861 1266.8 580.387C1283.13 581.742 1299.66 582.13 1316.05 582.13C1320.3 582.13 1324.82 582.625 1328.5 580.217C1330.08 579.188 1328.62 580.376 1328.04 581.004C1326.93 582.191 1326.29 583.837 1325.17 584.958C1324.55 585.579 1323.5 585.877 1322.68 586.042C1319.83 586.611 1317.35 587.938 1314.64 588.933C1308.41 591.225 1302.85 592.079 1296.24 592.079C1287.14 592.079 1277.95 591.854 1268.9 591.016C1263.32 590.499 1257.83 589.689 1252.32 588.656C1252 588.595 1245.63 588.233 1247.77 586.807C1248.68 586.204 1251.44 586.389 1252.43 586.361C1259.32 586.164 1266.24 586.339 1273.13 586.339C1283.49 586.339 1293.76 585.191 1304.1 585.191C1307.21 585.191 1309.94 585.35 1312.77 584.405C1315.76 583.408 1318.78 581.814 1321.83 581.068C1324.49 580.416 1326.7 578.749 1329.18 577.922" stroke="#040404" stroke-width="10" stroke-linecap="round"/>
<path d="M1461.75 622.507C1461.75 654.05 1452.52 689.622 1440.5 719C1432.39 738.828 1416.33 757.174 1401 772.5C1377.73 795.767 1340.92 773.135 1317 759C1303.74 751.163 1295.63 743.417 1283 735C1274.87 729.578 1277.14 729.335 1268.97 724.081C1264.7 721.335 1254.95 712.232 1251 709C1246.67 705.457 1247.63 707.851 1243.81 703.681C1232 696 1228.62 692.968 1221.2 688.296C1212.93 683.089 1205.47 677.053 1197.4 671.467C1188.58 665.364 1181.58 657.027 1172.66 650.897C1163.91 644.878 1141.87 625.495 1140.5 614.5C1140.5 614.5 1134.43 606.933 1132.03 604.062C1128.39 599.688 1128.33 603.159 1126 598.5" stroke="#040404" stroke-width="10" stroke-linecap="round"/>
<path d="M1166.5 564.5C1172.4 565.09 1173.01 584.014 1177.17 588.167C1181.96 592.958 1186.89 597.04 1191.7 601.852C1197.98 608.125 1207.98 612.183 1216.1 616.557C1232.5 625.39 1250.69 632.094 1266.59 641.632C1283.45 651.749 1303.57 655.449 1320.99 664.157C1327.88 667.605 1335.52 671.675 1343.26 673.081C1352.56 674.773 1362.03 683.706 1371.48 683.706" stroke="#040404" stroke-width="10" stroke-linecap="round"/>
<path d="M1362 676C1365.96 670.445 1370.23 664.018 1374.78 659.618C1377.46 657.019 1379.02 652.755 1381.5 650.244C1383.85 647.863 1390 642.103 1390 638" stroke="#040404" stroke-width="10" stroke-linecap="round"/>
<path d="M1380.79 653.874C1382.61 654.055 1384.37 655.328 1385.96 656.108C1389.41 657.793 1392.68 659.798 1396.19 661.359C1403.82 664.747 1411.43 668.347 1418.95 671.957C1426.19 675.432 1433.86 678.119 1441.48 680.656C1443.58 681.358 1445.87 681.965 1447.91 682.747C1449.09 683.203 1450.47 683.752 1451.75 683.752" stroke="#0A0A0A" stroke-width="8" stroke-linecap="round"/>
<path d="M1097.61 532.238C1094.52 528.762 1087.24 523.739 1085.37 519.998" stroke="#040404" stroke-width="10" stroke-linecap="round"/>
<path d="M1120.56 501.638C1120.92 491.933 1125.15 483.865 1125.15 474.099" stroke="#040404" stroke-width="10" stroke-linecap="round"/>
<path d="M1080.78 518.468C1073.77 517.69 1065.44 512.329 1059.36 509.288" stroke="#040404" stroke-width="10" stroke-linecap="round"/>
<path d="M1059.36 507.758C1068.47 505.274 1074.44 494.051 1082.99 490.164C1086.52 488.561 1092.15 483.643 1095.4 480.984C1104.43 473.593 1115.97 475.246 1126.68 472.569" stroke="#040404" stroke-width="10" stroke-linecap="round"/>
<path d="M1057.83 507.758C1053.42 507.758 1053.04 500.608 1050.86 497.048C1048.01 492.383 1043.24 487.765 1041 483.279" stroke="#040404" stroke-width="10" stroke-linecap="round"/>
<path d="M1045.59 483.279C1049.88 471.841 1071.48 461.806 1081.97 457.609C1087.31 455.474 1092.09 448.702 1097.61 448.089C1100.45 447.773 1106.66 443.991 1109.08 445.879C1112.99 448.916 1112.43 452.465 1114.78 455.399C1119.38 461.153 1124.84 468.892 1128.21 475.629" stroke="#040404" stroke-width="10" stroke-linecap="round"/>
<path d="M1125.5 596.5C1123.51 596.301 1113.71 593.111 1111.62 593.111C1109.75 593.111 1107.88 593.111 1106 593.111C1101.47 593.111 1099.55 591.812 1096.83 588.255C1094.33 584.99 1091 581.71 1089.37 578.05C1087.82 574.566 1084.58 572.196 1082.89 568.833" stroke="#040404" stroke-width="10" stroke-linecap="round"/>
<path d="M1081.28 568.024C1081.28 563.869 1084.51 559.013 1086.13 555.255C1087.17 552.86 1088.88 551.102 1089.77 548.601C1090.35 546.999 1092.21 545.327 1092.56 544.105C1093.33 541.427 1095.8 534.844 1099.08 534.844" stroke="#040404" stroke-width="10" stroke-linecap="round"/>
<path d="M1099.89 534.034C1109.03 534.034 1118.72 538.086 1127.04 540.464C1130.91 541.568 1131.11 537.56 1132.66 535.698C1134.65 533.317 1132.08 529.97 1131.5 527.92C1129.9 522.336 1124.17 515.878 1124.17 510.161C1124.17 501.911 1136.18 512.486 1139.14 513.803C1141.48 514.842 1144.4 516.684 1146.2 518.478C1148.66 520.938 1149.05 520.567 1149.25 524.323C1149.58 530.227 1154.11 535.328 1154.11 541.318C1154.11 544.019 1156.3 546.591 1157.53 549.051C1158.97 551.948 1160.15 554.843 1162.38 557.323C1164.14 559.278 1166.76 563.085 1167.06 565.596C1167.33 567.907 1170.29 570.118 1170.29 572.879" stroke="#040404" stroke-width="10" stroke-linecap="round"/>
<path d="M1085.32 523.514C1086.98 528.314 1090.61 533.656 1094.22 537.271" stroke="#040404" stroke-width="10" stroke-linecap="round"/>
<path d="M1192.77 566.384C1190.25 568.358 1186.06 568.822 1183.02 569.704C1181.33 570.195 1179.5 570.67 1178.04 571.641C1176.31 572.795 1174.25 573.565 1172.57 574.684" stroke="#040404" stroke-width="10" stroke-linecap="round"/>
<path d="M1192.77 564.17C1189.4 565.106 1185.94 566.843 1182.81 568.382C1180.84 569.35 1178.66 570.502 1177.12 572.04C1176.66 572.498 1175.51 572.833 1174.92 573.163C1174.15 573.594 1173.38 574.205 1172.57 574.408" stroke="#040404" stroke-width="10" stroke-linecap="round"/>
<path d="M1127.19 601.799C1123.92 603.435 1121.59 606.653 1118.56 608.655C1116.54 609.984 1114.49 611.954 1112.75 613.635C1111.87 614.477 1111.14 615.319 1110.32 616.186C1109.53 617.019 1108.47 619.23 1107.27 619.23" stroke="#040404" stroke-width="10" stroke-linecap="round"/>
<path d="M1124.15 600.692C1122.88 600.946 1121.29 602.969 1120.31 603.705C1118.29 605.212 1116.21 606.741 1114.41 608.501C1111.97 610.879 1109.64 613.322 1107.27 615.756C1105.89 617.181 1104.98 618.794 1103.95 620.336" stroke="#040404" stroke-width="10" stroke-linecap="round"/>
<path d="M1360.5 362V295L1383 308V369C1395.8 353.4 1405 360.5 1408 366C1422.4 392.4 1395.67 417.667 1380.5 427C1375.3 470.6 1353 495.167 1342.5 502C1355.3 489.6 1359.83 436.833 1360.5 412H1380.5V362H1360.5Z" fill="black" fill-opacity="0.2"/>
<path d="M1243.5 523L1245.5 514C1280.3 532.4 1317.67 521.667 1332 514V543.5C1316 555.1 1267 531.167 1243.5 523Z" fill="black" fill-opacity="0.2"/>
<path d="M1409.5 566C1383.1 572 1346.83 556.5 1332 548C1339.83 556.333 1365.1 575.6 1403.5 586C1441.9 596.4 1438.83 626.667 1432.5 640.5C1423.33 662.333 1402.4 711.8 1392 735C1381.6 758.2 1363.33 757.667 1355.5 754.5L1282 718.5C1259.17 704.5 1226.5 687.5 1278.5 731.5C1330.5 775.5 1369.83 782.833 1383 781C1435 759.4 1455.67 681.333 1459.5 645C1475.9 598.2 1433 572.833 1409.5 566Z" fill="black" fill-opacity="0.2"/>
<path d="M1122 473.5C1110 468.7 1078 492.833 1063.5 505.5L1086 520.5L1122 499.5V473.5Z" fill="black" fill-opacity="0.2"/>
<path d="M1313.39 242.92C1316.87 251.509 1324.96 253.709 1333.66 253.709C1336.91 253.709 1340.59 253.263 1343.8 253.818C1345.81 254.166 1350.73 258.123 1346.14 258.123C1336.1 258.123 1326.28 252.175 1317.07 248.887C1315.4 248.29 1314.27 245.548 1313.15 244.173C1311.81 242.539 1309.95 241.033 1308.49 239.487C1307.16 238.083 1305.54 236.357 1303.69 235.673C1302.11 235.087 1299.84 234.631 1298.43 233.847C1294.83 231.845 1306.84 235.212 1310.23 237.553C1313.07 239.508 1317.29 241.662 1318.9 244.882C1319.46 246.015 1319.36 247.191 1320.01 248.342C1320.91 249.938 1321.9 251.157 1323.2 252.456C1324.73 253.988 1326.35 255.025 1328.1 256.27C1329.82 257.487 1331.61 257.53 1333.47 258.368C1337.43 260.15 1341.17 258.742 1344.81 256.924C1348.05 255.301 1355.88 255.285 1358.97 257.415C1360.92 258.751 1360.83 261.847 1361.94 263.79C1362.86 265.391 1363.49 267.454 1363.41 269.294C1363.36 270.717 1359.85 270.443 1359 270.302C1355.15 269.659 1351.82 265.085 1348.92 262.755C1346.89 261.124 1341.37 256.591 1338.38 257.714C1333.45 259.56 1339.44 267.866 1342.08 269.13C1347.2 271.579 1351.85 273.816 1357.64 273.816C1359.35 273.816 1360.83 274.162 1362.19 273.108C1362.79 272.637 1363.63 272.3 1364.4 272.345C1365.28 272.397 1363.94 273.794 1363.8 274.307C1363.16 276.583 1363.42 278.041 1364.67 280.001C1367.43 284.336 1370.5 289.51 1376.19 289.51C1377.31 289.51 1378.77 289.851 1379.11 288.502C1379.64 286.378 1380.54 284.376 1380.58 282.153C1380.61 280.466 1380.58 278.774 1380.58 277.086C1380.58 275.16 1380.58 280.937 1380.58 282.862C1380.58 285.946 1381.47 288.837 1381.56 291.853C1381.6 293.075 1380.64 292.75 1379.87 292.97C1378.93 293.239 1379.6 295.629 1378.13 294.196C1376.31 292.434 1375.09 290.66 1372.71 289.537C1365.46 286.127 1355.31 286.567 1347.34 286.567C1346.95 286.567 1344.31 286.395 1345.9 286.077C1351.24 285.009 1356.69 284.42 1362.11 283.843C1366.44 283.38 1370.29 283.885 1374.48 284.851C1376.19 285.246 1379.39 285.381 1380.58 286.567" stroke="black" stroke-opacity="0.2" stroke-width="12" stroke-linecap="round"/>
<path d="M1237.56 387.523C1237.56 385.596 1238.18 389.211 1237.67 387.809C1237.17 386.471 1238.41 387.725 1238.05 387.862C1237.43 388.093 1237.74 385.829 1238.22 386.783C1238.48 387.303 1238.33 388.392 1237.75 387.523" stroke="white" stroke-linecap="round"/>
<path d="M1350.1 385.619C1350.23 384.624 1350.63 387.87 1349.83 386.836C1349.64 386.587 1349.84 385.808 1349.9 386.201C1350.02 386.884 1349.53 386.2 1349.53 385.809C1349.53 384.995 1349.91 385.955 1349.91 386.296C1349.93 387.003 1349.95 385.199 1350.56 385.471C1350.91 385.625 1350.65 387.269 1350.21 387.269C1349.87 387.269 1349.72 386.095 1349.72 385.809" stroke="white" stroke-linecap="round"/>
</svg>
