<svg width="19" height="19" viewBox="0 0 62 58" fill="none" xmlns="http://www.w3.org/2000/svg">
<path d="M10.2334 11.4966C11.2862 11.4966 11.6403 12.0771 12.5895 12.3483C13.6934 12.6637 14.715 13.8281 15.7655 14.3462C18.138 15.5162 20.6592 16.3999 23.0966 17.4188C25.3354 18.3546 27.6502 19.0547 29.8785 20.0296C32.2373 21.0616 34.8358 21.8143 37.3608 22.3062C39.1439 22.6535 41.2342 22.5034 42.9009 23.2773C43.4464 23.5305 46.648 24.5321 45.671 25.323C44.9892 25.8749 44.2861 26.3792 43.6094 26.915C42.8705 27.4999 42.0125 27.59 41.1816 28.0055C40.4712 28.3607 39.785 28.733 39.2394 29.3268C38.7903 29.8155 39.0324 31.0274 39.0324 31.6431C39.0324 32.8579 39.1736 33.5238 40.0194 34.453C40.8772 35.3953 42.0746 35.747 42.8611 36.7375C43.795 37.9135 44.9729 38.6808 46.0929 39.6349C46.7282 40.1762 47.2097 41.0956 47.661 41.7921C47.7961 42.0006 49.0806 43.9459 48.8231 44.1004C48.4746 44.3095 47.822 43.7239 47.6052 43.5432C46.4033 42.5417 45.6898 41.0517 44.9068 39.7304C43.7628 37.8 42.2395 35.9559 41.7069 33.7286C41.5593 33.1111 41.6114 31.1913 41.6114 31.8262C41.6114 33.3809 41.4983 34.9738 41.8502 36.4987C42.5247 39.4215 44.2176 42.5733 46.0531 44.9283C46.1727 45.0818 48.1291 47.0859 47.3744 47.173C46.8517 47.2333 46.3889 47.3162 45.8461 47.3162C44.8385 47.3162 44.2371 46.7897 43.5536 46.1063C42.8591 45.4118 42.0013 44.9448 41.3249 44.2437C39.8008 42.6643 38.5546 40.7401 36.7399 39.4439C34.4722 37.8241 30.924 37.8893 28.5969 39.3563C27.5948 39.9881 26.8673 40.947 26.0657 41.808C25.2193 42.717 25.1804 43.5216 24.7841 44.5939C24.6515 44.953 24.5101 43.8734 24.4498 43.4955C24.1621 41.6922 23.4872 40.0216 22.5713 38.4489C21.4197 36.4716 20.151 34.5773 19.053 32.5665C17.8465 30.357 16.6803 28.1004 15.2641 26.0155C13.9728 24.1144 12.6776 22.3381 12.0323 20.1013C11.6511 18.7795 11.2952 17.4587 10.8384 16.1611C10.7119 15.8021 10.5071 15.2422 11.0374 15.7472C12.2689 16.9201 13.4266 18.1772 14.5636 19.4406C18.2248 23.5085 21.5666 27.8445 25.3652 31.7864C26.3693 32.8284 27.4241 33.8677 28.191 35.1057C28.5018 35.6076 28.7248 36.481 29.1939 36.8649C29.3088 36.9588 28.8632 35.9307 28.8278 35.8699C27.6861 33.9103 26.3981 32.0289 24.9911 30.2502C23.092 27.8494 21.1576 25.0193 18.862 22.9748C18.1934 22.3794 18.4167 24.4854 18.4242 24.6225C18.5679 27.2569 19.5769 29.4045 21.0271 31.5715C22.5008 33.7738 24.1191 35.8295 25.4767 38.1066C25.4973 38.1412 26.1042 39.2066 26.1373 38.6877C26.2208 37.3795 26.173 35.991 26.0418 34.6918C25.5298 29.6232 23.2187 25.5744 20.7325 21.2714C20.3247 20.5654 20.1168 19.6736 19.6579 19.0107C19.2736 18.4555 20.66 20.9255 20.6768 20.953C24.0125 26.4044 27.9977 31.3546 32.4893 35.9017C33.3747 36.798 34.2418 37.7575 35.1878 38.5922C35.4267 38.803 35.288 37.758 35.2833 37.7086C34.8771 33.4432 32.4239 29.154 30.2685 25.5618C29.6634 24.5533 28.8933 23.5749 28.382 22.5131C28.3279 22.4008 30.3437 24.3243 30.5949 24.6145C34.1928 28.7718 37.4555 33.2619 41.2612 37.239C41.3516 37.3335 42.1323 38.3463 41.8025 37.828C41.4808 37.3226 41.3352 36.7121 41.0861 36.1723C40.7037 35.3439 40.1951 34.6254 39.6533 33.8958C36.9714 30.2842 33.8166 27.1203 30.1332 24.519C29.7195 24.2268 28.4222 23.4341 28.8437 23.7151C30.1524 24.5875 31.4393 25.5113 32.7281 26.4135C35.4862 28.3441 38.1294 30.4576 40.903 32.3595C41.7075 32.9112 41.9123 30.8525 42.1527 30.3775C42.5524 29.5879 42.9009 28.3263 42.9009 27.4323C42.9009 27.0227 42.5058 27.1162 42.2005 27.106C40.0784 27.0353 37.992 26.7772 35.9042 26.3976C33.9459 26.0415 31.972 25.8183 30.0775 25.2354C29.7269 25.1275 29.396 24.7231 29.0825 24.5349C28.1534 23.9775 27.1141 23.6218 26.201 23.0385C24.904 22.2098 23.8998 21.5261 22.4121 21.5261" stroke="black" stroke-width="6" stroke-linecap="round"/>
<path d="M3 5.14697C7.91118 18.2434 13.0225 31.3911 19.78 43.6774C20.7353 45.4142 21.2454 48.9241 23.0406 49.5225" stroke="black" stroke-width="5" stroke-linecap="round"/>
<path d="M3 3C6.77556 3.37756 11.8203 6.61836 15.3265 8.01014C24.412 11.6166 33.2365 16.5308 42.604 19.3028C46.6291 20.494 51.7803 21.4441 55.2486 23.7563" stroke="black" stroke-width="5" stroke-linecap="round"/>
<path d="M23.04 51.6698C26.1174 48.7634 30.2749 46.2494 32.5036 42.6834C33.984 40.3148 39.4149 48.0041 40.5755 49.1648C41.6557 50.245 44.8495 54.1527 46.3809 54.493C49.9344 55.2827 52.3968 51.6646 55.2481 50.3974C56.1464 49.9982 57.7233 49.8309 58.4291 49.125C60.1764 47.3777 57.4088 47.6725 56.8386 47.2164C53.5064 44.5506 51.9639 39.3412 48.4884 37.3551C41.058 33.1092 51.2316 28.873 54.5324 24.4719" stroke="black" stroke-width="5" stroke-linecap="round"/>
<path d="M6 7.91699C10.385 19.6103 14.9487 31.3492 20.9821 42.3191C21.835 43.8699 22.2905 47.0037 23.8934 47.538" stroke="#E5E5E5" stroke-width="5" stroke-linecap="round"/>
<path d="M6 6C9.37103 6.3371 13.8753 9.23068 17.0058 10.4733C25.1179 13.6934 32.9969 18.0811 41.3607 20.5561C44.9546 21.6196 49.5538 22.4679 52.6506 24.5324" stroke="#E5E5E5" stroke-width="5" stroke-linecap="round"/>
<path d="M23.8926 49.4552C26.6402 46.8602 30.3523 44.6155 32.3422 41.4316C33.664 39.3168 38.513 46.1823 39.5493 47.2186C40.5137 48.183 43.3653 51.6721 44.7327 51.9759C47.9054 52.681 50.104 49.4506 52.6498 48.3192C53.4518 47.9627 54.8598 47.8133 55.49 47.1831C57.0501 45.623 54.5789 45.8862 54.0699 45.4789C51.0947 43.0988 49.7175 38.4475 46.6143 36.6743C39.98 32.8832 49.0636 29.1009 52.0107 25.1714" stroke="#E5E5E5" stroke-width="5" stroke-linecap="round"/>
</svg>
