<svg width="21" height="21" viewBox="0 0 62 72" fill="none" xmlns="http://www.w3.org/2000/svg">
<path d="M24.4734 10C24.7932 11.8121 25.1471 13.6047 25.4207 15.4287C25.5582 16.3454 25.7854 17.1291 25.763 18.0714C25.7376 19.1382 25.4523 20.2171 25.365 21.2872C25.2373 22.8506 25.0466 24.3226 25.0466 25.9039C25.0466 28.0561 25.3101 30.1515 25.3331 32.2878C25.3648 35.2331 25.9062 38.111 25.9062 41.0596C25.9062 43.114 25.6459 44.5971 23.964 45.8754C22.5342 46.962 21.1533 46.314 19.7453 45.4535C18.5611 44.7298 17.8141 43.751 17.0707 42.6038C16.3612 41.5089 15.3033 40.3617 14.7942 39.1652C14.1665 37.6901 13.6301 36.034 12.2948 35.0021C11.6894 34.5343 11.2252 34.0436 10.8301 33.4181C10.748 33.288 10.4839 33.3513 10.3605 33.2032C10.2328 33.05 10.0341 32.5023 10.0341 32.7017C10.0341 32.9661 10.3433 33.6123 10.4162 33.8002C10.951 35.1784 11.5568 36.5371 12.1833 37.8757C13.3521 40.3725 14.6906 42.7866 15.4469 45.4535C16.2052 48.1274 16.6562 50.7717 16.8956 53.5249C17.0195 54.9498 17.3199 56.5839 18.2329 57.7436C18.8049 58.4702 20.1969 59.6819 21.1462 59.8928C21.9102 60.0626 24.4039 60.4141 24.951 59.7177C25.689 58.7784 24.1115 57.0378 23.7252 56.4223C23.1046 55.4332 22.5568 54.7815 21.6636 54.09C20.4589 53.1573 19.7082 51.2211 18.9811 49.919C18.2963 48.6927 18.096 47.3683 17.5961 46.0744C17.178 44.9923 16.7206 43.8987 16.2429 42.8426C15.4907 41.1799 14.3868 39.5618 13.3534 38.0587C12.2092 36.3943 11.2802 34.5731 10.0182 33.0042C9.59822 32.482 9.01051 31.9201 8.72076 31.3406C8.65887 31.2168 8.40003 30.8925 8.49788 30.9903C9.03779 31.5302 9.57053 32.0806 10.066 32.6619C11.9104 34.826 13.4552 37.471 14.7146 40.0089C15.8856 42.3687 16.9416 44.7732 18.0259 47.1728C19.0911 49.53 19.833 52.1184 21.1462 54.3527C21.5955 55.1171 22.2232 55.2942 22.8178 55.8492C23.5583 56.5403 22.6349 53.6176 22.579 53.4453C21.1236 48.9577 18.6331 44.9316 16.2747 40.8845C15.3323 39.2672 14.2908 37.6638 12.9793 36.3314C11.7153 35.0473 10.1044 33.7978 9.08692 32.2957C8.64864 31.6488 7.93267 31.1945 7.48697 30.6003C7.35503 30.4244 6.84055 30.1763 7.04917 30.1068C7.31151 30.0193 8.26671 31.1989 8.37052 31.3087C9.21916 32.2065 10.0023 33.1641 10.8142 34.0947C13.5086 37.1827 16.4084 40.2928 18.2249 44.0048C18.4601 44.4853 18.4627 44.9909 18.6627 45.4535C18.9149 46.0368 19.2638 46.5849 19.4905 47.1728C20.0469 48.6152 20.4726 50.2013 21.4089 51.4632C22.0756 52.3618 23.1373 53.2036 23.1839 54.4164C23.2257 55.5014 22.8479 57.0238 23.5501 57.9267C25.048 59.8525 26.6227 60.412 29.0743 60.4341C29.8926 60.4415 30.8413 60.5575 31.6374 60.3386C32.4322 60.12 33.0524 59.4253 33.699 58.9456C35.4249 57.6651 35.38 55.3393 35.1238 53.3497C34.7804 50.6824 33.6014 48.0379 32.2423 45.7401C31.5621 44.59 30.8549 43.4598 30.4593 42.174C29.7994 40.0294 29.2876 37.3615 30.3479 35.2409C30.6564 34.6238 31.264 34.149 31.8921 33.8798C32.9956 33.4068 32.803 35.1666 32.7836 35.7902C32.7131 38.0608 31.1521 39.6661 29.8544 41.386C28.3565 43.3711 26.633 45.4704 26.2883 48.0086C25.9482 50.5129 26.6526 55.2051 29.4404 56.1676C30.2351 56.4419 31.5108 56.6481 32.2821 56.2074C34.3573 55.0216 34.7014 51.1936 34.9805 49.1469C35.314 46.7015 35.1869 44.3328 34.9646 41.8875C34.8562 40.6946 34.7982 39.503 34.7895 38.3055C34.7875 38.0284 34.7055 37.5311 34.8213 37.2548C35.1537 36.4624 37.0528 36.4117 37.7108 36.3792C39.3478 36.2983 39.9429 36.4997 40.3137 38.1065C40.9405 40.8225 40.9168 43.3498 39.5336 45.8356C38.0083 48.5768 35.7659 50.8219 34.2482 53.5726C33.2325 55.4136 32.304 58.4499 34.9965 59.2401C37.9472 60.1061 41.9292 59.8038 44.1106 57.4571C45.4695 55.9953 46.4178 54.2224 47.5891 52.6174C47.9615 52.1071 48.7009 51.0553 47.605 52.0284C45.5294 53.8713 43.2036 55.1504 40.7913 56.5019C37.8156 58.169 34.8262 59.4773 31.5976 60.5535C30.5422 60.9053 31.2473 61.0552 31.8921 61.246C33.5181 61.7272 34.9642 62.6222 36.684 62.8061C39.4154 63.0983 42.4896 62.8694 44.8986 61.437C47.5184 59.8793 50.2523 58.3467 51.2029 55.2283C51.7005 53.5956 52.014 51.9522 51.9829 50.2454C51.9634 49.1695 51.7954 47.6329 51.2029 46.7112C50.1009 44.997 48.3678 43.8072 47.0319 42.3093C46.0441 41.2018 44.1309 40.5555 43.8479 38.9423C43.6567 37.8525 44.8415 37.5308 45.6707 37.3185C47.3698 36.8833 47.9996 37.3152 48.6159 38.9423C49.3202 40.8017 50.0584 42.6204 50.5263 44.562C50.7198 45.365 51.1794 46.863 50.5979 47.6106C49.6908 48.7769 48.3674 49.1151 46.9682 49.1151C45.4208 49.1151 43.909 48.9225 42.3674 48.8444C41.6026 48.8057 39.9496 49.1812 41.1734 48.2634C43.0529 46.8537 44.9262 45.4822 46.8727 44.164C48.1244 43.3163 49.2089 42.237 50.4706 41.4099C51.0219 41.0484 51.7797 40.8217 52.4446 40.98C52.8549 41.0777 52.9034 41.429 53.2725 41.5213" stroke="black" stroke-width="9" stroke-linecap="round"/>
<path d="M20.7347 36.5046C20.7347 29.4107 20.7347 22.0474 20.7347 14.9649C20.7347 11.5663 20.5812 8.62464 21.537 5.39329C22.2197 3.08497 23.6881 3 25.605 3C27.5054 3 30.2687 5.3121 31.2568 6.84041C32.5334 8.81507 32.7936 11.021 32.7936 13.3249C32.7936 16.0661 32.9756 18.8361 32.9756 21.5988C32.9756 23.5124 32.9756 25.4259 32.9756 27.3394C32.9756 28.0029 32.9756 28.6664 32.9756 29.3299C32.9756 29.7463 35.1355 29.7009 35.5639 29.8226C36.5118 30.0918 37.7713 30.1443 38.7588 30.1443C39.8166 30.1443 40.8434 30.568 41.8829 30.6972C43.142 30.8537 44.7525 31.046 45.8968 31.5517C46.4916 31.8146 47.2596 31.5876 47.8582 31.9539C48.4282 32.3027 49.2196 32.0804 49.8096 32.4063C50.8854 33.0006 52.5752 33.1488 53.4999 33.9847C54.5634 34.946 56.3756 35.7154 57.1902 36.9303C57.5192 37.421 58.4661 37.6509 58.6259 38.2071C58.8286 38.9124 59 39.5062 59 40.2781C59 44.0849 58.818 47.8598 58.818 51.6787C58.818 55.0706 58.7935 58.3894 56.8161 61.2295C55.8779 62.5771 54.9766 63.6418 53.8133 64.7984C52.3897 66.214 49.6349 66.963 47.7571 67.5631C44.5763 68.5798 41.5586 68.6891 38.2431 68.6891C34.6121 68.6891 30.9025 68.7923 27.3743 67.8245C21.9931 66.3484 15.964 65.0947 14.1903 59.0981C13.5886 57.0642 12.4108 54.8494 12.4108 52.6639C12.4108 49.8536 11.7276 46.9549 11.1773 44.2191C10.6934 41.8131 9.94908 39.5647 8.8519 37.3827C8.00272 35.6939 6.29025 34.0112 4.94925 32.6777C3.78111 31.5162 3.43876 30.1131 3.08462 28.5285C2.85033 27.4801 3.09987 26.1197 3.8866 25.3374C4.41244 24.8145 4.78472 23.9501 5.4915 23.7419C6.35433 23.4877 6.22152 23.4889 7.09566 23.4889C8.08961 23.4889 9.35844 24.1825 10.3053 24.5396C12.6726 25.4325 19.5531 33.3587 20.7347 35.7084" stroke="black" stroke-width="5" stroke-linecap="round"/>
<path d="M36.0391 29.9231C35.0562 30.6754 35.3482 32.5038 35.3482 33.3953C35.3482 34.6743 35.3076 35.6368 35.3076 36.9231C35.3076 38.0938 35.3076 39.4962 35.3076 40.6923" stroke="black" stroke-width="5" stroke-linecap="round"/>
<path d="M43.9229 32.0769C43.9229 33.0192 43.9229 34.217 43.9229 35.1813C43.9229 35.9888 43.9229 36.7997 43.9229 37.6076C43.9229 38.6333 43.9229 39.6456 43.9229 40.6923" stroke="black" stroke-width="5" stroke-linecap="round"/>
<path d="M52.4011 40.6398C52.4011 40.9525 52.4011 41.2652 52.4011 41.5779C52.4011 42.2834 52.4046 40.8203 52.4011 40.6872C52.3688 39.4573 52.8195 37.5871 52.4011 36.3846C52.4011 35.7443 52.4011 34.8526 52.4011 34.2307" stroke="black" stroke-width="5" stroke-linecap="round"/>
<path d="M21.1512 37.5131C21.1512 31.0526 21.1512 24.3468 21.1512 17.8966C21.1512 14.8015 21.0114 12.1224 21.8819 9.17961C22.5037 7.07739 23.841 7 25.5867 7C27.3174 7 29.834 9.10566 30.7338 10.4975C31.8965 12.2959 32.1334 14.3049 32.1334 16.403C32.1334 18.8994 32.2992 21.4222 32.2992 23.9382C32.2992 25.6809 32.2992 27.4235 32.2992 29.1662C32.2992 29.7705 32.2992 30.3748 32.2992 30.979C32.2992 31.3582 34.2663 31.3169 34.6564 31.4277C35.5196 31.6729 36.6667 31.7207 37.566 31.7207C38.5294 31.7207 39.4645 32.1066 40.4112 32.2242C41.5579 32.3668 43.0246 32.5419 44.0667 33.0025C44.6084 33.2419 45.3079 33.0351 45.853 33.3687C46.3721 33.6864 47.0928 33.4839 47.6301 33.7807C48.6099 34.322 50.1489 34.4569 50.991 35.2182C51.9595 36.0937 53.61 36.7943 54.3518 37.9008C54.6514 38.3477 55.5138 38.5571 55.6593 39.0636C55.8439 39.7059 56 40.2467 56 40.9497C56 44.4166 55.8343 47.8545 55.8343 51.3324C55.8343 54.4215 55.8119 57.444 54.0111 60.0304C53.1566 61.2577 52.3358 62.2273 51.2764 63.2807C49.9799 64.5699 47.4711 65.252 45.7609 65.7986C42.8641 66.7244 40.1158 66.824 37.0964 66.824C33.7896 66.824 30.4112 66.918 27.1981 66.0366C22.2973 64.6923 16.8065 63.5505 15.1911 58.0894C14.6432 56.237 13.5706 54.22 13.5706 52.2297C13.5706 49.6702 12.9483 47.0304 12.4472 44.5388C12.0065 42.3477 11.3286 40.3 10.3294 38.3128C9.55605 36.7748 7.99648 35.2423 6.77521 34.0279C5.71136 32.9701 5.39958 31.6923 5.07706 30.2491C4.86369 29.2944 5.09096 28.0554 5.80744 27.343C6.28633 26.8668 6.62537 26.0796 7.26904 25.8899C8.05483 25.6584 7.93389 25.6595 8.72998 25.6595C9.63518 25.6595 10.7907 26.2912 11.653 26.6165C13.8089 27.4296 20.0752 34.6481 21.1512 36.788" stroke="#E5E5E5" stroke-width="5" stroke-linecap="round"/>
<path d="M35.089 31.5193C34.1939 32.2044 34.4598 33.8695 34.4598 34.6815C34.4598 35.8463 34.4229 36.7228 34.4229 37.8943C34.4229 38.9604 34.4229 40.2377 34.4229 41.327" stroke="#E5E5E5" stroke-width="5" stroke-linecap="round"/>
<path d="M42.2695 33.4807C42.2695 34.3389 42.2695 35.4298 42.2695 36.3079C42.2695 37.0434 42.2695 37.7818 42.2695 38.5176C42.2695 39.4517 42.2695 40.3736 42.2695 41.3269" stroke="#E5E5E5" stroke-width="5" stroke-linecap="round"/>
<path d="M49.9898 41.2791C49.9898 41.5639 49.9898 41.8487 49.9898 42.1334C49.9898 42.7759 49.993 41.4435 49.9898 41.3223C49.9604 40.2022 50.3709 38.499 49.9898 37.4038C49.9898 36.8207 49.9898 36.0086 49.9898 35.4423" stroke="#E5E5E5" stroke-width="5" stroke-linecap="round"/>
</svg>
