     <svg id="npk" width="549" height="576" viewBox="0 0 470 576" fill="none" xmlns="http://www.w3.org/2000/svg">
                        <g id="caricatura">
                        <g id="fase3" >
                        <path id="Vector 670" d="M135 221.5L76.5 259L90.5 283.5L155 245.5L135 221.5Z" fill="#D9D9D9" fill-opacity="0.2"/>
                        <path id="Vector 675" d="M131 133.646L0.5 210.646L77.0004 260.5L137.5 223L131 133.646Z" fill="url(#paint1_linear_0_1)" fill-opacity="0.2"/>
                        <g id="Group 147">
                        <g id="Group 143">
                        <path id="Vector 672" d="M157 379.5L138 397L151.5 404.5L169 389.5L157 379.5Z" fill="#D9D9D9" fill-opacity="0.05"/>
                        <path id="Vector 194" d="M294.28 243.372C291.2 242.8 296.161 230.554 298.326 230.152C300.921 229.67 299.944 231.567 299.944 236.762C299.944 239.101 298.905 245.254 300.124 243.773C302.033 241.452 303.635 236.9 305.248 234.025C307.541 229.937 306.005 241.397 306.462 243.773C306.578 244.376 309.073 237.442 309.203 237.096C309.683 235.826 313.678 227.62 313.698 228.149C313.803 230.777 312.317 244.537 313.429 240.635C314.244 237.774 316.162 230.448 318.059 228.884C318.451 228.56 318.553 237.372 318.553 238.365C318.553 246.264 323.202 231.408 323.677 230.019C327.518 218.806 325.86 234.177 327.094 238.365C328.659 243.679 330.476 227.607 331.319 229.485C332.026 231.06 330.608 242.037 332.712 242.037C333.248 242.037 334.448 238.789 334.735 238.298C336.911 234.576 337.152 239.198 337.971 241.903C339.174 245.873 343.129 226.534 343.545 230.085C344.012 234.073 343.635 238.529 343.635 242.571C343.635 246.095 344.818 239.954 345.253 238.832C346.523 235.559 349.299 229.528 349.299 236.161" class="secundaryColor" stroke-width="3" stroke-linecap="round"/>
                        <path id="Vector 195" d="M301.299 231.866C301.416 230.335 304.481 224.526 305.701 225.031C307.237 225.667 305.644 229.684 308.755 229.523C310.233 229.446 314.699 224.639 314.999 227.244C315.63 232.731 316.472 230.884 318.906 227.44C323.219 221.339 321.024 231.904 324.341 232.973C325.504 233.347 328.078 229.772 328.968 228.611C330.811 226.208 331.878 225.499 333.639 228.416C335.717 231.857 336.191 231.866 339.299 231.866" class="secundaryColor" stroke-width="3" stroke-linecap="round"/>
                        <path id="Vector 196" d="M306.414 193C304.529 195.01 305.296 201.178 306.779 203.286C310.004 207.868 320.47 205.431 325.299 204.669" class="secundaryColor" stroke-width="10" stroke-linecap="round"/>
                        <path id="Vector 197" d="M305.299 149.906C305.299 147.69 305.299 145.474 305.299 143.258C305.299 137.009 305.299 155.754 305.299 162.003C305.299 171.216 303.46 180.891 296.844 187.719C289.829 194.96 272.545 193.952 263.518 193.952C257.483 193.952 247.748 193.558 243.299 188.966" class="secundaryColor" stroke-width="10" stroke-linecap="round"/>
                        <path id="Vector 198" d="M244.299 142C287.242 142 330.239 140.5 373.228 140.5C385.677 140.5 398.042 139 410.299 139" class="secundaryColor" stroke-width="10" stroke-linecap="round"/>
                        <path id="Vector 199" d="M342.493 150C342.493 156.073 341.26 163.087 345.009 168.291C350.963 176.558 359.262 184.9 369.251 187.829C377.855 190.351 386.95 190.052 395.826 189.908C399.394 189.849 402.491 188.245 406.072 188.245C408.441 188.245 411.683 188.213 413.299 186.582" class="secundaryColor" stroke-width="10" stroke-linecap="round"/>
                        <path id="Vector 200" d="M381.299 164C381.09 165.684 379.761 164.931 379.299 164" class="secundaryColor" stroke-width="10" stroke-linecap="round"/>
                        <path id="Vector 201" d="M268.299 166C267.251 166 265.265 165.629 266.955 165" class="secundaryColor" stroke-width="10" stroke-linecap="round"/>
                        <path id="Vector 202" d="M260.299 129C269.653 129 279.076 129 288.299 129" class="secundaryColor" stroke-width="10" stroke-linecap="round"/>
                        <path id="Vector 203" d="M353.299 123.117C362.544 123.117 372.218 122.329 380.984 124.843C384.225 125.772 397.271 125.084 398.299 127" class="secundaryColor" stroke-width="10" stroke-linecap="round"/>
                        <path id="Vector 204" d="M275.55 296C274.83 310.824 273.089 325.671 272.598 340.565C272.398 346.629 272.039 353.171 272.598 359.221C272.963 363.185 274.171 362.382 276.299 360.077" class="secundaryColor" stroke-width="10" stroke-linecap="round"/>
                        <path id="Vector 205" d="M363.299 296C363.299 313.911 363.913 331.14 366.215 348.925C366.522 351.293 366.718 365.237 368.299 366" class="secundaryColor" stroke-width="10" stroke-linecap="round"/>
                        <path id="Vector 206" d="M252.299 353C259.868 358.232 265.294 363.9 274.527 366.333C293.122 371.233 312.572 373 331.736 373C344.797 373 356.024 369.948 367.901 364.667C371.197 363.201 375.116 361.597 378.742 361.333C380.854 361.18 382.035 359.667 384.299 359.667" class="secundaryColor" stroke-width="10" stroke-linecap="round"/>
                        <path id="Vector 207" d="M272.299 349C302.635 349 332.946 350 363.299 350" class="secundaryColor" stroke-width="10" stroke-linecap="round"/>
                        <path id="Vector 208" d="M269.3 324C263.735 324.658 257.709 330.507 252.265 332.379C242.264 335.818 232.144 338.98 222.328 343.016" class="secundaryColor" stroke-width="10" stroke-linecap="round"/>
                        <path id="Vector 209" d="M364.299 324C371.23 324.768 378.009 333.887 384.752 336.307C394.942 339.965 408.798 340.637 419.521 341.041C436.495 341.679 454.499 346.534 468.169 356.479C473.915 360.659 482.866 364.716 486.577 371.189C490.109 377.353 493.799 391.5 493.799 398" class="secundaryColor" stroke-width="10" stroke-linecap="round"/>
                        <path id="Vector 210" d="M242.618 72.0744C240.952 67.0417 236.485 52.7089 241.889 48.591C245.078 46.1612 266.344 42.1814 264.848 48.9579C263.413 55.4617 259.335 47.3068 258.944 45.5088C256.893 36.0657 255.892 25.3432 267.545 22.1722C272.597 20.7975 278.955 24.203 279.352 29.8043C279.576 32.9646 279.854 23.2338 281.539 20.5577C286.204 13.1458 295.773 9.51135 304.06 8.81605C315.589 7.84866 316.086 13.1419 316.086 23.1996C316.086 23.3948 316.411 17.9591 316.96 16.5949C319.154 11.1515 326.398 5 332.485 5C338.085 5 350.806 12.7929 348.811 19.8239C348.289 21.6643 352.338 20.0728 353.767 19.8973C360.845 19.0282 369.906 17.8173 376.143 22.1722C379.908 24.8013 381.682 28.6547 381.682 33.18C381.682 33.7322 380.694 37.6195 379.35 36.1155C373.383 29.4398 391.338 22.5164 396.696 26.7955C404.025 32.6475 405.297 42.7081 405.297 51.453C405.297 53.2695 404.048 53.2491 404.276 52.8474C405.646 50.4344 412.631 48.0299 415.209 48.591C423.021 50.2917 421.698 68.6474 422.279 74.4961C422.625 77.9817 418.409 78.2432 415.792 80" class="secundaryColor" stroke-width="10" stroke-linecap="round"/>
                        <path id="Vector 211" d="M295.299 256.023C301.316 255.66 309.76 258.454 315.799 258C324.834 257.32 331.254 258 340.299 258C344.254 258 350.344 256.023 354.299 256.023" class="secundaryColor" stroke-width="10" stroke-linecap="round"/>
                        <path id="Vector 212" d="M317.299 273C317.888 275.49 323.526 274.951 325.299 274.951" class="secundaryColor" stroke-width="7" stroke-linecap="round"/>
                        <path id="Vector 213" d="M253.719 66.7219C253.129 64.8415 251.618 61.6911 252.73 59.7143C253.268 58.7566 255.398 58.4583 256.134 59.358C256.596 59.9216 257.251 64.748 255.857 64.584C254.613 64.4376 252.546 60.5727 254.907 60.3477C257.403 60.11 259.375 61.0895 260.846 58.8829" class="secundaryColor" stroke-width="3" stroke-linecap="round"/>
                        <path id="Vector 214" d="M265.122 41.7797C262.167 37.2601 263.488 33.9978 269.358 33.3071C272.108 32.9836 273.921 33.8557 274.307 36.7516C274.375 37.2578 274.386 40.1834 274.386 39.7605C274.386 37.9014 273.751 34.8837 275.535 33.6635C276.004 33.3423 278.127 32.0888 278.623 32.832C278.774 33.0584 278.74 32.3001 278.821 32.0402C279.274 30.5762 280.103 29.525 281.394 28.675C283.953 26.9899 288.99 24.9898 291.727 27.2893C295.917 30.8084 290.373 35.0823 289.787 31.9214C288.135 22.9971 303.568 10.8071 310.89 18.3813C312.832 20.3908 313.312 23.8501 312.117 26.3391C311.505 27.6134 310.098 29.1002 310.098 26.6558C310.098 15.81 326.892 19.9683 332.269 23.6469C334.325 25.0538 337.325 27.3345 336.941 30.219C336.785 31.3836 335.451 33.0921 335.674 30.7733C336.637 20.7493 352.842 20.7968 355.865 29.6648C356.47 31.4387 355.924 37.1557 355.786 35.2867C355.458 30.8624 362.853 27.4996 366.159 26.735C371.379 25.5277 375.624 27.9476 376.69 33.228C376.813 33.8391 376.84 41.5191 377.324 41.5421C377.962 41.5725 379.909 39.6495 380.412 39.4042C382.517 38.3759 384.84 38.2508 387.142 38.3748C391.191 38.5928 396.32 39.2251 397.357 43.9176C398.065 47.1243 396.597 49.9189 394.427 52.1525C392.481 54.1559 394.573 50.4593 395.14 49.9354C400.041 45.4039 407.233 51.5685 405.196 57.2994C404.36 59.6495 400.293 60.5397 401.949 58.8831" class="secundaryColor" stroke-width="3" stroke-linecap="round"/>
                        <path id="Vector 215" d="M275.812 57.4574C273.09 56.5499 273.745 51.0849 274.545 49.262C276.599 44.5843 285.795 40.4846 289.907 44.9465C291.426 46.5949 292.569 53.2803 291.134 51.5583C287.441 47.1262 297.639 39.1662 301.388 39.1662C303.24 39.1662 308.433 42.8117 306.298 45.1841C305.358 46.2285 305.158 43.9067 305.189 43.64C305.686 39.4154 309.001 35.9294 313.028 34.732C320.376 32.5474 330.77 37.4048 332.705 45.1445C333.216 47.1908 332.768 45.2332 332.824 44.1547C333.046 39.8757 334.948 36.8178 339.079 35.2467C346.696 32.3501 356.452 36.2203 360.142 43.6004C361.477 46.2707 357.523 47.2192 357.964 45.8967C359.53 41.1991 366.791 39.6591 369.406 44.0755C370.641 46.1607 370.163 49.1894 371.425 51.0832C371.76 51.5856 380.107 48.6091 381.125 48.5097C384.867 48.1447 398.64 50.0239 395.021 56.9823C393.526 59.8579 388.343 59.7796 392.448 56.8239C397.129 53.4537 400.136 57.2538 401.475 61.7332C401.945 63.307 400.967 69.2648 402.663 66.7217" class="secundaryColor" stroke-width="3" stroke-linecap="round"/>
                        <path id="Vector 216" d="M346.363 145.825C345.049 146.318 345.262 153.466 344.938 155.09" class="secundaryColor" stroke-width="3" stroke-linecap="round"/>
                        <path id="Vector 218" d="M279.303 354.539C279.222 355.194 278.662 355.11 279.814 355.326C286.075 356.5 292.451 356.861 298.796 357.387C315.129 358.742 331.658 359.13 348.047 359.13C352.304 359.13 356.821 359.625 360.503 357.217C362.078 356.188 360.622 357.376 360.036 358.004C358.928 359.191 358.287 360.837 357.166 361.958C356.545 362.579 355.501 362.877 354.679 363.042C351.833 363.611 349.347 364.938 346.644 365.933C340.414 368.225 334.85 369.079 328.236 369.079C319.138 369.079 309.951 368.854 300.9 368.016C295.322 367.499 289.828 366.689 284.32 365.656C283.996 365.595 277.632 365.233 279.771 363.807C280.676 363.204 283.439 363.389 284.426 363.361C291.317 363.164 298.237 363.339 305.13 363.339C315.486 363.339 325.762 362.191 336.101 362.191C339.213 362.191 341.94 362.35 344.774 361.405C347.765 360.408 350.775 358.814 353.829 358.068C356.494 357.416 358.701 355.749 361.184 354.922" class="secundaryColor" stroke-width="10" stroke-linecap="round"/>
                        <path id="Vector 592" d="M493.745 399.507C493.745 431.05 484.518 466.622 472.5 496C464.389 515.828 448.326 534.174 433 549.5C409.733 572.767 372.921 550.135 349 536C335.737 528.163 327.626 520.417 315 512C306.868 506.578 309.14 506.335 300.967 501.081C296.695 498.335 286.95 489.232 283 486C278.669 482.457 279.63 484.851 275.808 480.681C264 473 260.617 469.968 253.198 465.296C244.928 460.089 237.467 454.053 229.398 448.467C220.584 442.364 213.58 434.027 204.663 427.897C195.908 421.878 173.874 402.495 172.5 391.5C172.5 391.5 166.426 383.933 164.034 381.062C160.389 376.688 160.329 380.159 158 375.5" class="secundaryColor" stroke-width="10" stroke-linecap="round"/>
                        <path id="Vector 593" d="M198.5 341.5C204.4 342.09 205.015 361.014 209.168 365.167C213.959 369.958 218.891 374.04 223.703 378.852C229.976 385.125 239.975 389.183 248.098 393.557C264.502 402.39 282.691 409.094 298.587 418.632C315.449 428.749 335.571 432.449 352.987 441.157C359.884 444.605 367.522 448.675 375.257 450.081C384.561 451.773 394.035 460.706 403.476 460.706" class="secundaryColor" stroke-width="10" stroke-linecap="round"/>
                        <path id="Vector 594" d="M394 453C397.959 447.445 402.229 441.018 406.778 436.618C409.465 434.019 411.023 429.755 413.5 427.244C415.85 424.863 422 419.103 422 415" class="secundaryColor" stroke-width="10" stroke-linecap="round"/>
                        <path id="Vector 675_2" d="M412.793 430.874C414.607 431.055 416.37 432.328 417.964 433.108C421.412 434.793 424.683 436.798 428.195 438.359C435.818 441.747 443.434 445.347 450.956 448.957C458.195 452.432 465.864 455.119 473.477 457.656C475.584 458.358 477.875 458.965 479.909 459.747C481.096 460.203 482.472 460.752 483.755 460.752" class="secundaryColor" stroke-width="8" stroke-linecap="round"/>
                        <path id="Vector 598" d="M129.609 309.238C126.519 305.762 119.239 300.739 117.369 296.998" class="secundaryColor" stroke-width="10" stroke-linecap="round"/>
                        <path id="Vector 600" d="M152.559 278.638C152.918 268.933 157.149 260.865 157.149 251.099" class="secundaryColor" stroke-width="10" stroke-linecap="round"/>
                        <path id="Vector 601" d="M112.779 295.468C105.772 294.69 97.4407 289.329 91.3594 286.288" class="secundaryColor" stroke-width="10" stroke-linecap="round"/>
                        <path id="Vector 602" d="M91.3594 284.758C100.468 282.274 106.437 271.051 114.989 267.164C118.515 265.561 124.149 260.643 127.399 257.984C136.432 250.593 147.971 252.246 158.679 249.569" class="secundaryColor" stroke-width="10" stroke-linecap="round"/>
                        <path id="Vector 603" d="M89.8298 284.758C85.4171 284.758 85.0351 277.608 82.8599 274.048C80.0088 269.383 75.243 264.765 73 260.279" class="secundaryColor" stroke-width="10" stroke-linecap="round"/>
                        <path id="Vector 604" d="M77.5898 260.279C81.8789 248.841 103.478 238.806 113.969 234.609C119.307 232.474 124.087 225.702 129.609 225.089C132.451 224.773 138.656 220.991 141.084 222.879C144.989 225.916 144.432 229.465 146.779 232.399C151.382 238.153 156.841 245.892 160.209 252.629" class="secundaryColor" stroke-width="10" stroke-linecap="round"/>
                        <path id="Vector 605" d="M157.5 373.5C155.506 373.301 145.707 370.111 143.624 370.111C141.75 370.111 139.877 370.111 138.004 370.111C133.472 370.111 131.552 368.812 128.832 365.255C126.335 361.99 122.996 358.71 121.369 355.05C119.82 351.566 116.576 349.196 114.895 345.833" class="secundaryColor" stroke-width="10" stroke-linecap="round"/>
                        <path id="Vector 606" d="M113.275 345.024C113.275 340.869 116.508 336.013 118.131 332.255C119.165 329.86 120.88 328.102 121.773 325.601C122.345 323.999 124.211 322.327 124.56 321.105C125.325 318.427 127.798 311.844 131.079 311.844" class="secundaryColor" stroke-width="10" stroke-linecap="round"/>
                        <path id="Vector 607" d="M131.889 311.034C141.026 311.034 150.724 315.086 159.044 317.464C162.908 318.568 163.112 314.56 164.664 312.698C166.648 310.317 164.081 306.97 163.495 304.92C161.9 299.336 156.167 292.878 156.167 287.161C156.167 278.911 168.176 289.486 171.138 290.803C173.477 291.842 176.402 293.684 178.197 295.478C180.656 297.938 181.045 297.567 181.254 301.323C181.582 307.227 186.11 312.328 186.11 318.318C186.11 321.019 188.297 323.591 189.526 326.051C190.975 328.948 192.15 331.843 194.382 334.323C196.141 336.278 198.762 340.085 199.058 342.596C199.33 344.907 202.295 347.118 202.295 349.879" class="secundaryColor" stroke-width="10" stroke-linecap="round"/>
                        <path id="Vector 608" d="M117.322 300.514C118.984 305.314 122.609 310.656 126.224 314.271" class="secundaryColor" stroke-width="10" stroke-linecap="round"/>
                        <path id="Vector 610" d="M224.768 341.17C221.399 342.106 217.943 343.843 214.808 345.382C212.836 346.35 210.658 347.502 209.12 349.04C208.663 349.498 207.515 349.833 206.922 350.163C206.146 350.594 205.381 351.205 204.57 351.408" class="secundaryColor" stroke-width="10" stroke-linecap="round"/>
                        <path id="Vector 612" d="M156.151 377.692C154.882 377.946 153.292 379.969 152.308 380.705C150.293 382.212 148.209 383.741 146.406 385.501C143.968 387.879 141.64 390.322 139.273 392.756C137.888 394.181 136.982 395.794 135.953 397.336" class="secundaryColor" stroke-width="10" stroke-linecap="round"/>
                        <path id="Vector 676" d="M269.559 164.523C269.559 162.596 270.181 166.211 269.665 164.809C269.172 163.471 270.41 164.725 270.045 164.862C269.429 165.093 269.738 162.829 270.215 163.783C270.475 164.303 270.328 165.392 269.749 164.523" stroke="white" stroke-linecap="round"/>
                        <path id="Vector 677" d="M382.104 162.619C382.229 161.624 382.634 164.87 381.829 163.836C381.636 163.587 381.838 162.808 381.903 163.201C382.017 163.884 381.533 163.2 381.533 162.809C381.533 161.995 381.907 162.955 381.914 163.296C381.929 164.003 381.949 162.199 382.559 162.471C382.907 162.625 382.646 164.269 382.21 164.269C381.871 164.269 381.724 163.095 381.724 162.809" stroke="white" stroke-linecap="round"/>
                        <path id="Vector 1016" d="M231.177 149.149C231.177 144.311 225.922 145.039 222.243 145.039C217.419 145.039 217.37 151.305 217.37 154.902C217.37 163.907 216.423 172.418 221.431 180.383C224.335 185.001 227.799 188.071 231.944 191.479C234.268 193.39 236.901 194.18 239.299 196" class="secundaryColor" stroke-width="10" stroke-linecap="round"/>
                        <path id="Vector 1018" d="M339.949 145.112V152.239" class="secundaryColor" stroke-width="3" stroke-linecap="round"/>
                        <path id="Vector 1019" d="M224.768 343.384C222.255 345.358 218.061 345.822 215.023 346.704C213.33 347.195 211.499 347.67 210.042 348.641C208.311 349.795 206.249 350.565 204.57 351.684" class="secundaryColor" stroke-width="10" stroke-linecap="round"/>
                        <path id="Vector 1020" d="M159.194 378.799C155.922 380.435 153.593 383.653 150.556 385.655C148.539 386.984 146.489 388.954 144.746 390.635C143.872 391.477 143.136 392.319 142.317 393.186C141.53 394.019 140.473 396.23 139.273 396.23" class="secundaryColor" stroke-width="10" stroke-linecap="round"/>
                        <path id="Vector 191" d="M245.299 83.4168C243.462 89.3745 244.337 96.2053 243.48 102.382C242.475 109.624 241.325 116.733 241.206 124.069C241.094 131.011 239.569 137.808 239.569 144.849C239.569 151.938 238.854 159.486 239.751 166.536C242.688 189.613 240.614 213.495 245.481 236.316C248.092 248.559 250.404 264.508 258.579 274.518C267.845 285.863 278.111 293.136 292.596 296.568C308.507 300.338 326.012 303.483 341.895 298.201C355.819 293.571 367.287 285.45 379.096 276.968C390.709 268.626 397.357 253.561 403.244 241.08C410.465 225.773 410.172 207.58 411.885 191.172C413.139 179.161 411.681 167.004 412.704 154.966C413.717 143.039 413.932 130.592 413.932 118.624C413.932 110.581 413.583 100.808 415.16 92.9446C415.566 90.917 416.522 86.9424 416.251 85.0501C415.517 79.9221 402.786 74.4021 398.788 72.8454C391.519 70.0156 381.918 68.5899 374.139 67.9C351.373 65.8812 329.201 63 306.285 63C292.94 63 279.793 65.1759 267.038 69.125C262.399 70.5612 258.253 72.1422 253.849 74.0251C249.731 75.7859 245.871 78.6154 242.025 80.1501" class="secundaryColor" stroke-width="10" stroke-linecap="round"/>
                        <path id="Vector 1017" d="M416.299 142.192C422.326 141.094 431.689 132.152 437.674 137.926C445.705 145.676 444.858 157.572 443.198 167.966C442.48 172.465 440.282 177.168 437.492 180.762C434.918 184.078 431.643 189.842 428.118 192.015C424.227 194.415 420.321 197.787 417.114 201" class="secundaryColor" stroke-width="10" stroke-linecap="round"/>
                        </g>
                        </g>
                        <path id="Vector 671" d="M296 307.5L273.5 299.5V323.5L203 348.5C206.167 352.833 212.5 362.4 212.5 366C212.5 369.6 238.5 359.5 251.5 354L264 361.5L292 348.5L296 307.5Z" fill="#D9D9D9" fill-opacity="0.05"/>
                        <path id="Vector 673" d="M159.5 335.5L127 316.5L131 311L163.5 316.5L159.5 285L180 296L193.5 339.5L159.5 335.5Z" fill="#D9D9D9" fill-opacity="0.05"/>
                        <path id="Vector 674" d="M159.5 364.5C141.1 364.1 123.5 348.667 117 341L128.5 364.5L176 388L159.5 364.5Z" fill="black" fill-opacity="0.2"/>
                        <path id="Vector 664" d="M392.5 139V72L415 85V146C427.8 130.4 437 137.5 440 143C454.4 169.4 427.667 194.667 412.5 204C407.3 247.6 385 272.167 374.5 279C387.3 266.6 391.833 213.833 392.5 189H412.5V139H392.5Z" fill="black" fill-opacity="0.2"/>
                        <path id="Vector 665" d="M275.5 300L277.5 291C312.3 309.4 349.667 298.667 364 291V320.5C348 332.1 299 308.167 275.5 300Z" fill="black" fill-opacity="0.2"/>
                        <path id="Vector 666" d="M441.5 343C415.1 349 378.833 333.5 364 325C371.833 333.333 397.1 352.6 435.5 363C473.9 373.4 470.833 403.667 464.5 417.5C455.333 439.333 434.4 488.8 424 512C413.6 535.2 395.333 534.667 387.5 531.5L314 495.5C291.166 481.5 258.5 464.5 310.5 508.5C362.5 552.5 401.833 559.833 415 558C467 536.4 487.666 458.333 491.5 422C507.9 375.2 465 349.833 441.5 343Z" fill="black" fill-opacity="0.2"/>
                        <path id="Vector 667" d="M154 250.5C142 245.7 110 269.833 95.5 282.5L118 297.5L154 276.5V250.5Z" fill="black" fill-opacity="0.2"/>
                        <path id="Vector 668" d="M345.393 19.9199C348.869 28.5091 356.961 30.7091 365.663 30.7091C368.908 30.7091 372.591 30.263 375.799 30.8181C377.811 31.1664 382.733 35.1229 378.142 35.1229C368.103 35.1229 358.277 29.1747 349.071 25.8867C347.4 25.2899 346.272 22.548 345.147 21.1732C343.811 19.5394 341.948 18.0329 340.488 16.487C339.163 15.0832 337.54 13.3566 335.693 12.6726C334.112 12.087 331.845 11.6307 330.435 10.8471C326.832 8.84539 338.839 12.2124 342.232 14.5525C345.067 16.5078 349.287 18.6624 350.896 21.8816C351.463 23.0145 351.366 24.191 352.013 25.3418C352.911 26.9383 353.902 28.1572 355.201 29.4558C356.733 30.9884 358.353 32.0251 360.105 33.2702C361.818 34.4874 363.61 34.5299 365.472 35.3681C369.433 37.1504 373.171 35.7421 376.807 33.9241C380.052 32.3013 387.877 32.2853 390.974 34.4145C392.919 35.7513 392.834 38.8469 393.944 40.79C394.859 42.3908 395.489 44.4545 395.415 46.2936C395.358 47.7172 391.852 47.4435 391.002 47.3017C387.148 46.6594 383.817 42.0852 380.921 39.7547C378.894 38.1241 373.373 33.5907 370.377 34.7142C365.453 36.5605 371.439 44.8659 374.082 46.1301C379.203 48.5793 383.855 50.8163 389.639 50.8163C391.347 50.8163 392.835 51.1615 394.189 50.108C394.794 49.6372 395.631 49.3 396.396 49.3451C397.286 49.3974 395.939 50.7941 395.797 51.3068C395.164 53.5831 395.421 55.0413 396.669 57.0011C399.427 61.3358 402.501 66.5098 408.193 66.5098C409.308 66.5098 410.771 66.8511 411.109 65.5017C411.64 63.3776 412.539 61.3758 412.58 59.1535C412.611 57.4655 412.58 55.7742 412.58 54.0858C412.58 52.1605 412.58 57.9365 412.58 59.8619C412.58 62.9465 413.467 65.8372 413.561 68.8529C413.599 70.0754 412.643 69.7496 411.872 69.97C410.932 70.2385 411.605 72.6293 410.128 71.196C408.312 69.4338 407.091 67.6595 404.706 66.537C397.459 63.1265 387.309 63.5672 379.34 63.5672C378.955 63.5672 376.308 63.3946 377.896 63.0768C383.238 62.0086 388.695 61.42 394.108 60.8427C398.441 60.3804 402.291 60.8848 406.477 61.8508C408.188 62.2456 411.394 62.3809 412.58 63.5672" stroke="black" stroke-opacity="0.2" stroke-width="12" stroke-linecap="round"/>
                        <path id="Vector 669" d="M344.5 32C339.7 18.8 325.5 13.5 319 12.5H289.5L280 29L276 22L258.5 26L262 48.5L237.5 51.5L245.5 80.5L240.5 149H216C208.8 175.4 231 192 243 197V218C246 304 304 299.5 323 300.5C342 301.5 368 283 377.5 278C385.1 274 390.333 218.333 392 191H374.5L410 185.5V142.5L392 136.5V75.5C384 72.6667 368 66.1 368 62.5C368 58.9 377 57 381.5 56.5L368 48.5C366.8 39.7 351.833 33.8333 344.5 32Z" fill="#D9D9D9" fill-opacity="0.07"/>
                        </g>
                        <g id="fase1">
                        <path id="eyeball2" d="M380 164C379.791 165.684 378.462 164.931 378 164" class="secundaryColor" stroke-width="10" stroke-linecap="round"/>
                        <path id="eyeball1" d="M267 166C265.952 166 263.966 165.629 265.657 165" class="secundaryColor" stroke-width="10" stroke-linecap="round"/>
                        <g id="Group 150">
                        <path id="Vector 191_2" d="M244 83.4168C242.163 89.3745 243.039 96.2053 242.181 102.382C241.176 109.624 240.026 116.733 239.907 124.069C239.795 131.011 238.27 137.808 238.27 144.849C238.27 151.938 237.555 159.486 238.452 166.536C241.39 189.613 239.315 213.495 244.182 236.316C246.793 248.559 249.105 264.508 257.28 274.518C266.546 285.863 276.812 293.136 291.298 296.568C307.209 300.338 324.713 303.483 340.596 298.201C354.52 293.571 365.988 285.45 377.797 276.968C389.41 268.626 396.058 253.561 401.946 241.08C409.166 225.773 408.873 207.58 410.586 191.172C411.841 179.161 410.383 167.004 411.405 154.966C412.418 143.039 412.633 130.592 412.633 118.624C412.633 110.581 412.284 100.808 413.861 92.9446C414.267 90.917 415.223 86.9424 414.952 85.0501C414.218 79.9221 401.487 74.4021 397.489 72.8454C390.22 70.0156 380.619 68.5899 372.84 67.9C350.074 65.8812 327.902 63 304.986 63C291.641 63 278.494 65.1759 265.739 69.125C261.1 70.5612 256.954 72.1422 252.55 74.0251C248.432 75.7859 244.572 78.6154 240.726 80.1501" class="secundaryColor" stroke-width="10" stroke-linecap="round"/>
                        <path id="Vector 1016_2" d="M229.878 149.149C229.878 144.311 224.623 145.039 220.944 145.039C216.12 145.039 216.071 151.305 216.071 154.902C216.071 163.907 215.124 172.418 220.132 180.383C223.036 185.001 226.501 188.071 230.645 191.479C232.969 193.39 235.602 194.18 238 196" class="secundaryColor" stroke-width="10" stroke-linecap="round"/>
                        <path id="Vector 1017_2" d="M415 142.192C421.027 141.094 430.39 132.152 436.375 137.926C444.407 145.676 443.559 157.572 441.9 167.966C441.181 172.465 438.983 177.168 436.194 180.762C433.62 184.078 430.344 189.842 426.82 192.015C422.928 194.415 419.022 197.787 415.815 201" class="secundaryColor" stroke-width="10" stroke-linecap="round"/>
                        <path id="Vector 194_2" d="M292.981 243.372C289.901 242.8 294.862 230.554 297.027 230.152C299.623 229.67 298.645 231.567 298.645 236.762C298.645 239.101 297.606 245.254 298.825 243.773C300.734 241.452 302.336 236.9 303.949 234.025C306.242 229.937 304.706 241.397 305.163 243.773C305.279 244.376 307.774 237.442 307.905 237.096C308.384 235.826 312.379 227.62 312.4 228.149C312.504 230.777 311.019 244.537 312.13 240.635C312.945 237.774 314.864 230.448 316.76 228.884C317.152 228.56 317.254 237.372 317.254 238.365C317.254 246.264 321.903 231.408 322.379 230.019C326.219 218.806 324.561 234.177 325.795 238.365C327.36 243.679 329.177 227.607 330.02 229.485C330.727 231.06 329.309 242.037 331.413 242.037C331.949 242.037 333.149 238.789 333.436 238.298C335.612 234.576 335.853 239.198 336.673 241.903C337.875 245.873 341.831 226.534 342.246 230.085C342.713 234.073 342.336 238.529 342.336 242.571C342.336 246.095 343.519 239.954 343.955 238.832C345.224 235.559 348 229.528 348 236.161" class="secundaryColor" stroke-width="3" stroke-linecap="round"/>
                        <path id="Vector 195_2" d="M300 231.866C300.117 230.335 303.182 224.526 304.402 225.031C305.938 225.667 304.345 229.684 307.456 229.523C308.934 229.446 313.4 224.639 313.7 227.244C314.331 232.731 315.173 230.884 317.608 227.44C321.92 221.339 319.725 231.904 323.043 232.973C324.205 233.347 326.779 229.772 327.669 228.611C329.512 226.208 330.579 225.499 332.34 228.416C334.418 231.857 334.892 231.866 338 231.866" class="secundaryColor" stroke-width="3" stroke-linecap="round"/>
                        <path id="Vector 196_2" d="M305.115 193C303.23 195.01 303.997 201.178 305.48 203.286C308.705 207.868 319.171 205.431 324 204.669" class="secundaryColor" stroke-width="10" stroke-linecap="round"/>
                        <path id="Vector 197_2" d="M304 149.906C304 147.69 304 145.474 304 143.258C304 137.009 304 155.754 304 162.003C304 171.216 302.161 180.891 295.545 187.719C288.531 194.96 271.246 193.952 262.219 193.952C256.184 193.952 246.449 193.558 242 188.966" class="secundaryColor" stroke-width="10" stroke-linecap="round"/>
                        <path id="Vector 198_2" d="M243 142C285.943 142 328.94 140.5 371.929 140.5C384.378 140.5 396.743 139 409 139" class="secundaryColor" stroke-width="10" stroke-linecap="round"/>
                        <path id="Vector 199_2" d="M341.194 150C341.194 156.073 339.962 163.087 343.71 168.291C349.664 176.558 357.963 184.9 367.952 187.829C376.556 190.351 385.652 190.052 394.527 189.908C398.095 189.849 401.192 188.245 404.773 188.245C407.142 188.245 410.385 188.213 412 186.582" class="secundaryColor" stroke-width="10" stroke-linecap="round"/>
                        <path id="Vector 202_2" d="M259 129C268.354 129 277.777 129 287 129" class="secundaryColor" stroke-width="10" stroke-linecap="round"/>
                        <path id="Vector 203_2" d="M352 123.117C361.245 123.117 370.919 122.329 379.685 124.843C382.926 125.772 395.972 125.084 397 127" class="secundaryColor" stroke-width="10" stroke-linecap="round"/>
                        <path id="Vector 210_2" d="M241.319 72.0744C239.653 67.0417 235.186 52.7089 240.59 48.591C243.779 46.1612 265.045 42.1814 263.549 48.9579C262.114 55.4617 258.036 47.3068 257.645 45.5088C255.594 36.0657 254.593 25.3432 266.246 22.1722C271.298 20.7975 277.656 24.203 278.053 29.8043C278.277 32.9646 278.555 23.2338 280.24 20.5577C284.905 13.1458 294.474 9.51135 302.761 8.81605C314.29 7.84866 314.787 13.1419 314.787 23.1996C314.787 23.3948 315.112 17.9591 315.662 16.5949C317.855 11.1515 325.1 5 331.186 5C336.786 5 349.507 12.7929 347.512 19.8239C346.99 21.6643 351.039 20.0728 352.468 19.8973C359.546 19.0282 368.608 17.8173 374.844 22.1722C378.609 24.8013 380.383 28.6547 380.383 33.18C380.383 33.7322 379.395 37.6195 378.051 36.1155C372.084 29.4398 390.039 22.5164 395.397 26.7955C402.726 32.6475 403.998 42.7081 403.998 51.453C403.998 53.2695 402.749 53.2491 402.977 52.8474C404.347 50.4344 411.333 48.0299 413.91 48.591C421.722 50.2917 420.399 68.6474 420.98 74.4961C421.326 77.9817 417.11 78.2432 414.493 80" class="secundaryColor" stroke-width="10" stroke-linecap="round"/>
                        <path id="Vector 211_2" d="M294 256.023C300.017 255.66 308.461 258.454 314.5 258C323.536 257.32 329.955 258 339 258C342.955 258 349.045 256.023 353 256.023" class="secundaryColor" stroke-width="10" stroke-linecap="round"/>
                        <path id="Vector 212_2" d="M316 273C316.589 275.49 322.227 274.951 324 274.951" class="secundaryColor" stroke-width="7" stroke-linecap="round"/>
                        <path id="Vector 213_2" d="M252.423 66.7219C251.833 64.8415 250.321 61.6911 251.433 59.7143C251.971 58.7566 254.102 58.4583 254.838 59.358C255.299 59.9216 255.954 64.748 254.56 64.584C253.316 64.4376 251.249 60.5727 253.61 60.3477C256.106 60.11 258.078 61.0895 259.549 58.8829" class="secundaryColor" stroke-width="3" stroke-linecap="round"/>
                        <path id="Vector 214_2" d="M263.823 41.7797C260.868 37.2601 262.189 33.9978 268.06 33.3071C270.809 32.9836 272.622 33.8557 273.008 36.7516C273.076 37.2578 273.088 40.1834 273.088 39.7605C273.088 37.9014 272.452 34.8837 274.236 33.6635C274.705 33.3423 276.828 32.0888 277.324 32.832C277.475 33.0584 277.441 32.3001 277.522 32.0402C277.975 30.5762 278.804 29.525 280.095 28.675C282.654 26.9899 287.691 24.9898 290.429 27.2893C294.618 30.8084 289.074 35.0823 288.489 31.9214C286.836 22.9971 302.269 10.8071 309.591 18.3813C311.533 20.3908 312.013 23.8501 310.818 26.3391C310.206 27.6134 308.799 29.1002 308.799 26.6558C308.799 15.81 325.594 19.9683 330.97 23.6469C333.026 25.0538 336.026 27.3345 335.642 30.219C335.486 31.3836 334.152 33.0921 334.375 30.7733C335.339 20.7493 351.543 20.7968 354.566 29.6648C355.171 31.4387 354.626 37.1557 354.487 35.2867C354.159 30.8624 361.554 27.4996 364.86 26.735C370.08 25.5277 374.325 27.9476 375.391 33.228C375.515 33.8391 375.541 41.5191 376.025 41.5421C376.663 41.5725 378.61 39.6495 379.113 39.4042C381.218 38.3759 383.541 38.2508 385.843 38.3748C389.892 38.5928 395.021 39.2251 396.058 43.9176C396.766 47.1243 395.298 49.9189 393.128 52.1525C391.182 54.1559 393.274 50.4593 393.841 49.9354C398.742 45.4039 405.935 51.5685 403.897 57.2994C403.061 59.6495 398.994 60.5397 400.65 58.8831" class="secundaryColor" stroke-width="3" stroke-linecap="round"/>
                        <path id="Vector 215_2" d="M274.514 57.4574C271.791 56.5499 272.446 51.0849 273.247 49.262C275.3 44.5843 284.496 40.4846 288.608 44.9465C290.127 46.5949 291.27 53.2803 289.835 51.5583C286.142 47.1262 296.34 39.1662 300.089 39.1662C301.941 39.1662 307.134 42.8117 304.999 45.1841C304.059 46.2285 303.859 43.9067 303.89 43.64C304.387 39.4154 307.702 35.9294 311.729 34.732C319.077 32.5474 329.471 37.4048 331.406 45.1445C331.918 47.1908 331.469 45.2332 331.525 44.1547C331.747 39.8757 333.649 36.8178 337.78 35.2467C345.397 32.3501 355.153 36.2203 358.843 43.6004C360.178 46.2707 356.224 47.2192 356.665 45.8967C358.231 41.1991 365.492 39.6591 368.107 44.0755C369.342 46.1607 368.864 49.1894 370.126 51.0832C370.461 51.5856 378.808 48.6091 379.826 48.5097C383.568 48.1447 397.341 50.0239 393.723 56.9823C392.227 59.8579 387.044 59.7796 391.149 56.8239C395.83 53.4537 398.837 57.2538 400.176 61.7332C400.646 63.307 399.668 69.2648 401.364 66.7217" class="secundaryColor" stroke-width="3" stroke-linecap="round"/>
                        </g>
                        <path id="Vector 216_2" d="M345.065 145.825C343.751 146.318 343.964 153.466 343.64 155.09" class="secundaryColor" stroke-width="3" stroke-linecap="round"/>
                        <path id="Vector 1018_2" d="M338.651 145.112V152.239" class="secundaryColor" stroke-width="3" stroke-linecap="round"/>
                        <g id="Group 149">
                        <path id="Vector 204_2" d="M274.251 296C273.531 310.824 271.79 325.671 271.299 340.565C271.099 346.629 270.74 353.171 271.299 359.221C271.665 363.185 272.872 362.382 275 360.077" class="secundaryColor" stroke-width="10" stroke-linecap="round"/>
                        <path id="Vector 205_2" d="M362 296C362 313.911 362.614 331.14 364.917 348.925C365.223 351.293 365.419 365.237 367 366" class="secundaryColor" stroke-width="10" stroke-linecap="round"/>
                        <path id="Vector 206_2" d="M251 353C258.57 358.232 263.995 363.9 273.228 366.333C291.823 371.233 311.273 373 330.437 373C343.498 373 354.726 369.948 366.602 364.667C369.898 363.201 373.817 361.597 377.443 361.333C379.555 361.18 380.736 359.667 383 359.667" class="secundaryColor" stroke-width="10" stroke-linecap="round"/>
                        <path id="Vector 207_2" d="M271 349C301.336 349 331.647 350 362 350" class="secundaryColor" stroke-width="10" stroke-linecap="round"/>
                        <path id="Vector 208_2" d="M268 324C262.436 324.658 256.409 330.507 250.966 332.379C240.964 335.818 230.845 338.98 221.029 343.016C206.885 348.832 192.389 354.506 177.971 359.337C156.801 366.43 138.16 382.409 131 404" class="secundaryColor" stroke-width="10" stroke-linecap="round"/>
                        <path id="Vector 209_2" d="M363 324C369.931 324.768 376.71 333.887 383.453 336.307C393.644 339.965 407.5 340.637 418.222 341.041C435.196 341.679 453.2 346.534 466.87 356.479C472.616 360.659 481.567 364.716 485.278 371.189C488.811 377.353 492.609 383.009 495.796 389.541C498.927 395.955 498.404 403.921 501.713 409.858C503.04 412.239 505 418.334 505 421" class="secundaryColor" stroke-width="10" stroke-linecap="round"/>
                        <path id="Vector 218_2" d="M278.005 354.539C277.923 355.194 277.363 355.11 278.515 355.326C284.776 356.5 291.152 356.861 297.497 357.387C313.83 358.742 330.359 359.13 346.748 359.13C351.006 359.13 355.522 359.625 359.205 357.217C360.78 356.188 359.323 357.376 358.737 358.004C357.629 359.191 356.988 360.837 355.867 361.958C355.246 362.579 354.202 362.877 353.38 363.042C350.534 363.611 348.048 364.938 345.345 365.933C339.115 368.225 333.551 369.079 326.937 369.079C317.84 369.079 308.653 368.854 299.601 368.016C294.024 367.499 288.529 366.689 283.021 365.656C282.697 365.595 276.333 365.233 278.472 363.807C279.377 363.204 282.14 363.389 283.127 363.361C290.018 363.164 296.938 363.339 303.831 363.339C314.187 363.339 324.464 362.191 334.802 362.191C337.914 362.191 340.641 362.35 343.475 361.405C346.466 360.408 349.476 358.814 352.53 358.068C355.195 357.416 357.403 355.749 359.885 354.922" class="secundaryColor" stroke-width="10" stroke-linecap="round"/>
                        </g>
                        </g>
                        <g id="fase2">
                        <g id="Group 144">
                        <path id="Vector 192" d="M229.861 149.149C229.861 144.311 224.605 145.039 220.927 145.039C216.103 145.039 216.054 151.305 216.054 154.902C216.054 163.907 215.106 172.418 220.115 180.383C223.018 185.001 226.483 188.071 230.628 191.479C232.951 193.39 235.585 194.18 237.982 196" class="secundaryColor" stroke-width="10" stroke-linecap="round"/>
                        <path id="Vector 193" d="M414.982 142.192C421.009 141.094 430.373 132.152 436.357 137.926C444.389 145.676 443.542 157.572 441.882 167.966C441.164 172.465 438.966 177.168 436.176 180.762C433.602 184.078 430.327 189.842 426.802 192.015C422.911 194.415 419.004 197.787 415.798 201" class="secundaryColor" stroke-width="10" stroke-linecap="round"/>
                        <path id="Vector 217" d="M338.633 145.112V152.239" class="secundaryColor" stroke-width="3" stroke-linecap="round"/>
                        <path id="Vector 972" d="M155.684 379.5L136.684 397L150.184 404.5L167.684 389.5L155.684 379.5Z" fill="#D9D9D9" fill-opacity="0.05"/>
                        <path id="Vector 973" d="M243.983 83.4168C242.145 89.3745 243.021 96.2053 242.164 102.382C241.159 109.624 240.008 116.733 239.89 124.069C239.778 131.011 238.253 137.808 238.253 144.849C238.253 151.938 237.537 159.486 238.435 166.536C241.372 189.613 239.298 213.495 244.165 236.316C246.776 248.559 249.087 264.508 257.262 274.518C266.529 285.863 276.795 293.136 291.28 296.568C307.191 300.338 324.695 303.483 340.578 298.201C354.502 293.571 365.971 285.45 377.779 276.968C389.392 268.626 396.04 253.561 401.928 241.08C409.148 225.773 408.856 207.58 410.569 191.172C411.823 179.161 410.365 167.004 411.388 154.966C412.401 143.039 412.615 130.592 412.615 118.624C412.615 110.581 412.267 100.808 413.843 92.9446C414.25 90.917 415.206 86.9424 414.935 85.0501C414.2 79.9221 401.47 74.4021 397.471 72.8454C390.203 70.0156 380.601 68.5899 372.822 67.9C350.056 65.8812 327.884 63 304.969 63C291.623 63 278.476 65.1759 265.721 69.125C261.083 70.5612 256.936 72.1422 252.533 74.0251C248.414 75.7859 244.554 78.6154 240.708 80.1501" class="secundaryColor" stroke-width="10" stroke-linecap="round"/>
                        <path id="Vector 974" d="M292.964 243.372C289.884 242.8 294.844 230.554 297.009 230.152C299.605 229.67 298.627 231.567 298.627 236.762C298.627 239.101 297.589 245.254 298.807 243.773C300.717 241.452 302.318 236.9 303.931 234.025C306.225 229.937 304.688 241.397 305.145 243.773C305.261 244.376 307.757 237.442 307.887 237.096C308.366 235.826 312.361 227.62 312.382 228.149C312.486 230.777 311.001 244.537 312.112 240.635C312.927 237.774 314.846 230.448 316.742 228.884C317.134 228.56 317.237 237.372 317.237 238.365C317.237 246.264 321.885 231.408 322.361 230.019C326.202 218.806 324.544 234.177 325.777 238.365C327.342 243.679 329.16 227.607 330.002 229.485C330.709 231.06 329.291 242.037 331.396 242.037C331.932 242.037 333.132 238.789 333.419 238.298C335.595 234.576 335.836 239.198 336.655 241.903C337.858 245.873 341.813 226.534 342.229 230.085C342.696 234.073 342.319 238.529 342.319 242.571C342.319 246.095 343.502 239.954 343.937 238.832C345.207 235.559 347.982 229.528 347.982 236.161" class="secundaryColor" stroke-width="3" stroke-linecap="round"/>
                        <path id="Vector 975" d="M299.982 231.866C300.1 230.335 303.165 224.526 304.384 225.031C305.92 225.667 304.328 229.684 307.439 229.523C308.916 229.446 313.383 224.639 313.682 227.244C314.313 232.731 315.155 230.884 317.59 227.44C321.902 221.339 319.708 231.904 323.025 232.973C324.188 233.347 326.761 229.772 327.651 228.611C329.494 226.208 330.562 225.499 332.323 228.416C334.4 231.857 334.874 231.866 337.982 231.866" class="secundaryColor" stroke-width="3" stroke-linecap="round"/>
                        <path id="Vector 976" d="M305.098 193C303.212 195.01 303.98 201.178 305.463 203.286C308.687 207.868 319.153 205.431 323.982 204.669" class="secundaryColor" stroke-width="10" stroke-linecap="round"/>
                        <path id="Vector 977" d="M303.982 149.906C303.982 147.69 303.982 145.474 303.982 143.258C303.982 137.009 303.982 155.754 303.982 162.003C303.982 171.216 302.143 180.891 295.528 187.719C288.513 194.96 271.229 193.952 262.202 193.952C256.166 193.952 246.432 193.558 241.982 188.966" class="secundaryColor" stroke-width="10" stroke-linecap="round"/>
                        <path id="Vector 978" d="M242.982 142C285.925 142 328.922 140.5 371.912 140.5C384.361 140.5 396.725 139 408.982 139" class="secundaryColor" stroke-width="10" stroke-linecap="round"/>
                        <path id="Vector 979" d="M341.176 150C341.176 156.073 339.944 163.087 343.692 168.291C349.646 176.558 357.945 184.9 367.934 187.829C376.538 190.351 385.634 190.052 394.51 189.908C398.078 189.849 401.175 188.245 404.755 188.245C407.124 188.245 410.367 188.213 411.982 186.582" class="secundaryColor" stroke-width="10" stroke-linecap="round"/>
                        <path id="Vector 980" d="M381 170C380.791 171.684 379.462 170.931 379 170" class="secundaryColor" stroke-width="10" stroke-linecap="round"/>
                        <path id="Vector 981" d="M268 172C266.952 172 264.966 171.629 266.657 171" class="secundaryColor" stroke-width="10" stroke-linecap="round"/>
                        <path id="Vector 982" d="M256.5 131.5C265.854 131.5 275.277 131.5 284.5 131.5" class="secundaryColor" stroke-width="10" stroke-linecap="round"/>
                        <path id="Vector 983" d="M353 122.594C362.245 122.594 371.733 118.436 380.5 119.065C383.741 119.297 396.972 123.086 398 123.565" class="secundaryColor" stroke-width="10" stroke-linecap="round"/>
                        <path id="Vector 984" d="M274.234 296C273.514 310.824 271.772 325.671 271.281 340.565C271.081 346.629 270.723 353.171 271.281 359.221C271.647 363.185 272.855 362.382 274.982 360.077" class="secundaryColor" stroke-width="10" stroke-linecap="round"/>
                        <path id="Vector 985" d="M361.982 296C361.982 313.911 362.597 331.14 364.899 348.925C365.206 351.293 365.402 365.237 366.982 366" class="secundaryColor" stroke-width="10" stroke-linecap="round"/>
                        <path id="Vector 986" d="M250.982 353C258.552 358.232 263.978 363.9 273.21 366.333C291.806 371.233 311.255 373 330.419 373C343.48 373 354.708 369.948 366.585 364.667C369.88 363.201 373.799 361.597 377.425 361.333C379.538 361.18 380.718 359.667 382.982 359.667" class="secundaryColor" stroke-width="10" stroke-linecap="round"/>
                        <path id="Vector 987" d="M270.982 349C301.318 349 331.63 350 361.982 350" class="secundaryColor" stroke-width="10" stroke-linecap="round"/>
                        <path id="Vector 990" d="M241.302 72.0744C239.636 67.0417 235.169 52.7089 240.573 48.591C243.762 46.1612 265.027 42.1814 263.532 48.9579C262.096 55.4617 258.018 47.3068 257.628 45.5088C255.576 36.0657 254.576 25.3432 266.228 22.1722C271.28 20.7975 277.638 24.203 278.036 29.8043C278.26 32.9646 278.538 23.2338 280.222 20.5577C284.888 13.1458 294.457 9.51135 302.743 8.81605C314.273 7.84866 314.769 13.1419 314.769 23.1996C314.769 23.3948 315.094 17.9591 315.644 16.5949C317.838 11.1515 325.082 5 331.168 5C336.768 5 349.49 12.7929 347.495 19.8239C346.972 21.6643 351.021 20.0728 352.451 19.8973C359.528 19.0282 368.59 17.8173 374.826 22.1722C378.591 24.8013 380.366 28.6547 380.366 33.18C380.366 33.7322 379.378 37.6195 378.033 36.1155C372.066 29.4398 390.021 22.5164 395.38 26.7955C402.708 32.6475 403.98 42.7081 403.98 51.453C403.98 53.2695 402.732 53.2491 402.96 52.8474C404.329 50.4344 411.315 48.0299 413.893 48.591C421.704 50.2917 420.381 68.6474 420.962 74.4961C421.309 77.9817 417.093 78.2432 414.476 80" class="secundaryColor" stroke-width="10" stroke-linecap="round"/>
                        <path id="Vector 991" d="M293.982 256.023C299.999 255.66 308.443 258.454 314.482 258C323.518 257.32 329.938 258 338.982 258C342.938 258 349.027 256.023 352.982 256.023" class="secundaryColor" stroke-width="10" stroke-linecap="round"/>
                        <path id="Vector 992" d="M315.982 273C316.572 275.49 322.21 274.951 323.982 274.951" class="secundaryColor" stroke-width="7" stroke-linecap="round"/>
                        <path id="Vector 993" d="M252.403 66.7219C251.813 64.8415 250.301 61.6911 251.413 59.7143C251.952 58.7566 254.082 58.4583 254.818 59.358C255.279 59.9216 255.935 64.748 254.541 64.584C253.297 64.4376 251.229 60.5727 253.591 60.3477C256.087 60.11 258.058 61.0895 259.529 58.8829" class="secundaryColor" stroke-width="3" stroke-linecap="round"/>
                        <path id="Vector 994" d="M263.806 41.7797C260.851 37.2601 262.172 33.9978 268.042 33.3071C270.792 32.9836 272.605 33.8557 272.991 36.7516C273.058 37.2578 273.07 40.1834 273.07 39.7605C273.07 37.9014 272.435 34.8837 274.218 33.6635C274.688 33.3423 276.811 32.0888 277.306 32.832C277.457 33.0584 277.424 32.3001 277.504 32.0402C277.957 30.5762 278.787 29.525 280.078 28.675C282.636 26.9899 287.674 24.9898 290.411 27.2893C294.6 30.8084 289.056 35.0823 288.471 31.9214C286.818 22.9971 302.251 10.8071 309.573 18.3813C311.516 20.3908 311.995 23.8501 310.8 26.3391C310.189 27.6134 308.781 29.1002 308.781 26.6558C308.781 15.81 325.576 19.9683 330.952 23.6469C333.009 25.0538 336.009 27.3345 335.624 30.219C335.469 31.3836 334.134 33.0921 334.357 30.7733C335.321 20.7493 351.526 20.7968 354.549 29.6648C355.153 31.4387 354.608 37.1557 354.47 35.2867C354.142 30.8624 361.536 27.4996 364.842 26.735C370.062 25.5277 374.307 27.9476 375.374 33.228C375.497 33.8391 375.523 41.5191 376.007 41.5421C376.646 41.5725 378.593 39.6495 379.095 39.4042C381.201 38.3759 383.523 38.2508 385.826 38.3748C389.875 38.5928 395.004 39.2251 396.04 43.9176C396.749 47.1243 395.28 49.9189 393.111 52.1525C391.164 54.1559 393.257 50.4593 393.823 49.9354C398.725 45.4039 405.917 51.5685 403.879 57.2994C403.044 59.6495 398.976 60.5397 400.633 58.8831" class="secundaryColor" stroke-width="3" stroke-linecap="round"/>
                        <path id="Vector 995" d="M274.496 57.4574C271.774 56.5499 272.429 51.0849 273.229 49.262C275.283 44.5843 284.478 40.4846 288.59 44.9465C290.109 46.5949 291.253 53.2803 289.818 51.5583C286.124 47.1262 296.322 39.1662 300.072 39.1662C301.923 39.1662 307.116 42.8117 304.981 45.1841C304.041 46.2285 303.841 43.9067 303.873 43.64C304.37 39.4154 307.684 35.9294 311.712 34.732C319.06 32.5474 329.454 37.4048 331.389 45.1445C331.9 47.1908 331.451 45.2332 331.507 44.1547C331.73 39.8757 333.631 36.8178 337.763 35.2467C345.38 32.3501 355.135 36.2203 358.825 43.6004C360.16 46.2707 356.207 47.2192 356.648 45.8967C358.214 41.1991 365.475 39.6591 368.09 44.0755C369.324 46.1607 368.846 49.1894 370.109 51.0832C370.444 51.5856 378.79 48.6091 379.809 48.5097C383.551 48.1447 397.323 50.0239 393.705 56.9823C392.21 59.8579 387.026 59.7796 391.132 56.8239C395.812 53.4537 398.82 57.2538 400.158 61.7332C400.629 63.307 399.651 69.2648 401.346 66.7217" class="secundaryColor" stroke-width="3" stroke-linecap="round"/>
                        <path id="Vector 996" d="M345.046 145.825C343.732 146.318 343.946 153.466 343.621 155.09" class="secundaryColor" stroke-width="3" stroke-linecap="round"/>
                        <path id="Vector 997" d="M277.987 354.539C277.905 355.194 277.345 355.11 278.497 355.326C284.758 356.5 291.134 356.861 297.479 357.387C313.812 358.742 330.342 359.13 346.731 359.13C350.988 359.13 355.505 359.625 359.187 357.217C360.762 356.188 359.305 357.376 358.719 358.004C357.611 359.191 356.97 360.837 355.85 361.958C355.229 362.579 354.185 362.877 353.363 363.042C350.517 363.611 348.03 364.938 345.328 365.933C339.098 368.225 333.533 369.079 326.92 369.079C317.822 369.079 308.635 368.854 299.584 368.016C294.006 367.499 288.511 366.689 283.004 365.656C282.68 365.595 276.316 365.233 278.455 363.807C279.359 363.204 282.122 363.389 283.11 363.361C290.001 363.164 296.921 363.339 303.814 363.339C314.17 363.339 324.446 362.191 334.785 362.191C337.897 362.191 340.623 362.35 343.457 361.405C346.448 360.408 349.459 358.814 352.513 358.068C355.177 357.416 357.385 355.749 359.867 354.922" class="secundaryColor" stroke-width="10" stroke-linecap="round"/>
                        </g>
                        <path id="Vector 1021" d="M143.041 379.415C143.478 374.61 148.858 372.042 150.661 367.984C151.747 365.541 155.893 363.237 157.826 361.373C161.886 357.458 166.721 354.675 170.722 350.822C174.538 347.147 179.794 344.577 184.205 341.899C191.231 337.633 200.409 337.209 208.401 337.209C212.576 337.209 216.773 336.037 221.004 336.037C225.244 336.037 229.783 336.301 233.9 335.157C240.277 333.386 247.315 332.293 253.245 329.328C255.615 328.143 258.25 326.801 260.735 325.941C262.335 325.387 263.265 323.965 264.708 323.141C267.564 321.509 269.452 319.565 272.003 317.865" class="secundaryColor" stroke-width="9" stroke-linecap="round"/>
                        <path id="Vector 1022" d="M366.38 324.313C370.547 324.73 373.647 330.545 376.899 332.78C379.861 334.817 383.203 336.909 386.343 338.675C389.61 340.512 393.911 341.261 397.448 342.485C403.778 344.676 410.245 344.007 416.792 344.96C422.93 345.853 428.799 345.649 434.964 346.035C441.7 346.456 448.475 348.45 455.155 349.519C464.748 351.054 471.756 356.378 478.928 362.285C481.797 364.647 484.151 367.867 485.67 371.241C487.715 375.786 490.442 380.624 491.238 385.602C492.202 391.622 493.023 397.411 493.713 403.449C494.379 409.272 494.617 415.262 495.472 421.034C497.912 437.508 499.445 454.266 499.445 470.86" class="secundaryColor" stroke-width="9" stroke-linecap="round"/>
                        <path id="Vector 1023" d="M407.413 450.93C410.73 452.233 413.403 454.717 416.662 456.206C420.437 457.93 424.172 459.388 428.19 460.439C432.829 461.653 437.3 463.431 441.998 464.412C446.942 465.445 451.943 465.811 456.946 466.464C471.031 468.301 487.56 467.263 500.617 473.791" class="secundaryColor" stroke-width="9" stroke-linecap="round"/>
                        <path id="Vector 1024" d="M416.792 414.586C416.792 422.203 413.877 430.664 410.962 437.708C408.807 442.918 407.136 449.108 406.24 454.708C405.136 461.608 401.551 469.315 401.551 476.136" class="secundaryColor" stroke-width="9" stroke-linecap="round"/>
                        <path id="Vector 1025" d="M495.34 475.55C494.792 485.411 492.13 495.84 489.934 505.446C487.803 514.771 485.089 523.651 482.314 532.736C478.638 544.764 472.064 556.6 462.383 564.521C458.242 567.909 453.216 568.07 448.315 569.471C443.298 570.904 437.748 569.897 432.618 570.643C425.599 571.664 418.548 570.893 411.645 569.34C402.281 567.233 392.673 565.964 383.508 563.023C375.521 560.459 367.47 557.332 359.344 555.272C342.291 550.948 326.233 543.529 309.225 539.119C292.771 534.853 277.078 528.311 260.864 523.357C252.912 520.927 245.184 516.727 237.416 513.62C229.796 510.572 222.18 507.776 214.881 503.98C209.84 501.359 202.861 500.658 198.435 496.913C195.039 494.04 191.026 492.01 187.623 489.032C181.592 483.755 175.817 478.396 169.093 474.117C167.87 473.339 165.037 473.109 163.556 472.749C160.643 472.041 157.501 471.447 154.503 471.447C149.64 471.447 145.084 472.315 140.369 473.173C131.965 474.701 122.593 469.419 116.368 464.152C110.923 459.544 104.222 453.222 105.231 445.557C106.09 439.022 108.266 432.738 109.073 426.277C109.349 424.074 110.175 419.918 111.386 418.103" class="secundaryColor" stroke-width="9" stroke-linecap="round"/>
                        <path id="Vector 1026" d="M113.145 418.103C119.694 417.558 126.197 416.243 132.749 415.791C135.48 415.603 139.106 416.438 141.738 415.628C143.658 415.037 146.361 415.643 147.437 413.707C148.177 412.373 148.965 409.697 148.186 408.138C145.417 402.601 138.48 399.241 134.866 394.363C133.306 392.256 130.766 389.46 129.688 387.035C128.927 385.323 141.587 382.581 143.04 384.397C143.763 385.301 149.731 386.289 151.117 386.449C152.813 386.645 157.291 389.562 158.574 390.846C160.541 392.813 162.737 394.422 164.729 396.414C166.313 397.998 167.493 400.286 169.093 401.657C170.974 403.269 172.736 406.286 174.108 408.268C176.215 411.311 178.575 414.478 181.11 417.224C185.366 421.835 188.93 429.185 194.625 431.716C196.611 432.599 198.747 433.577 200.161 435.396C201.626 437.28 202.603 440.604 204.59 442.007C206.453 443.322 208.507 445.989 210.192 447.673C211.182 448.664 215.414 450.765 216.9 450.93C218.301 451.086 219.411 451.754 220.548 452.428C222.345 453.493 225.424 453.325 227.452 454.154C234.115 456.88 241.738 456.531 248.554 458.55C253.827 460.113 259.522 460.433 264.968 460.928C271.6 461.531 278.031 464.025 284.605 464.999C295.439 466.604 305.916 471.636 316.846 472.586C327.634 473.525 338.121 476.722 349.053 476.722C362.473 476.722 376.045 477.895 389.468 477.895C393.685 477.895 397.922 477.774 402.136 477.895C404.568 477.964 406.877 479.067 409.17 479.067" class="secundaryColor" stroke-width="9" stroke-linecap="round"/>
                        <path id="Vector 1027" d="M111.126 418.781C109.362 418.781 107.401 416.546 105.946 415.594C103.854 414.225 101.625 412.504 99.3935 411.388C97.5133 410.448 95.6381 409.053 93.5274 408.842C89.5901 408.449 85.5878 408.099 81.6403 408.023C77.1138 407.936 72.87 405.882 68.4915 405.256C63.3468 404.521 60.3849 400.324 56.4494 397.088C54.7259 395.671 53.0922 394.165 51.2696 392.882C49.936 391.944 49.1714 390.395 47.7721 389.495C46.2758 388.533 44.6355 386.766 45.0715 384.913C45.8198 381.733 48.9455 378.685 50.9597 376.236C52.5682 374.279 54.6868 372.704 56.4494 370.879C57.8916 369.385 59.0686 367.64 60.5446 366.164C66.4904 360.218 72.5341 353.986 77.855 347.437C82.1972 342.093 86.5429 335.69 92.3099 331.919C94.2937 330.622 96.0154 328.497 98.176 327.536C101.559 326.033 105.321 331.309 107.849 333.115C113.014 336.804 117.233 341.716 122.061 345.666C123.894 347.166 125.47 349.506 125.47 351.842C125.47 356.045 124.376 360.039 124.695 364.349C125.201 371.172 131.025 390.976 129.366 384.338C128.422 380.561 125.923 376.839 125.492 372.96C125.078 369.23 124.673 365.659 124.673 361.892C124.673 360.613 124.878 351.497 122.858 351.864C119.708 352.437 114.607 356.377 112.719 358.925C111.607 360.427 109.995 361.48 108.823 362.998C107.697 364.458 106.293 365.688 105.171 367.16C102.59 370.548 99.3944 373.933 96.383 376.944C92.191 381.136 88.8874 386.294 84.7394 390.58C80.8849 394.563 77.994 399.318 74.0698 403.242C72.7157 404.596 70.5251 406.745 69.6868 408.422" class="secundaryColor" stroke-width="9" stroke-linecap="round"/>
                        </g>
                        </g>
                        <defs>
                        <linearGradient id="paint0_linear_0_1" x1="-2039" y1="7604" x2="4279" y2="7604" gradientUnits="userSpaceOnUse">
                        <stop offset="0.510417" stop-color="white"/>
                        <stop offset="0.510517" stop-color="#393939"/>
                        </linearGradient>
                        <linearGradient id="paint1_linear_0_1" x1="104.5" y1="240" x2="66" y2="178.5" gradientUnits="userSpaceOnUse">
                        <stop stop-color="#D9D9D9"/>
                        <stop offset="1" stop-color="#D9D9D9" stop-opacity="0"/>
                        </linearGradient>
                        </defs>
                    </svg>