<svg width="32" height="33" viewBox="0 0 32 33" fill="none" xmlns="http://www.w3.org/2000/svg">
<path d="M6.22232 2.29463C11.964 2.29463 17.6834 2.00024 23.425 2.00024C24.4421 2.00024 25.5262 1.98704 26.5312 2.15561C26.8209 2.2042 27.1221 2.42312 27.4087 2.44182C27.6061 2.45469 28.1019 2.32752 28.2584 2.47453C28.7581 2.94387 29.2757 3.19936 29.728 3.84833C30.1008 4.38331 30.4175 5.59217 30.4175 6.26883C30.4175 8.38655 30.6682 10.5779 30.6682 12.7453C30.6682 15.2419 30.9189 17.7226 30.9189 20.2194C30.9189 22.0618 31.2276 24.416 30.6403 26.1398C30.5052 26.5365 30.6518 27.0283 30.4801 27.391C30.3648 27.6347 30.23 28.2713 30.1737 28.5685C30.0322 29.3161 29.7739 29.896 29.1917 30.343C27.0893 31.957 24.4386 31.8804 22.0181 31.8804C18.8655 31.8804 15.7128 31.8804 12.5601 31.8804C10.2438 31.8804 7.68684 32.2265 5.41442 31.7413C4.81462 31.6133 4.14451 31.221 3.58969 31.1444C2.89402 31.0483 2.59668 29.7056 2.27337 29.1573C1.7026 28.1893 1.74876 27.1036 1.48637 26.0254C1.37184 25.5547 1.49736 25.0048 1.45154 24.5207C1.39547 23.9282 1.26501 23.3364 1.21475 22.7462C0.827306 18.1972 1.08242 13.4536 1.08242 8.85288C1.08242 7.98027 1.58651 6.48183 2.08533 5.82725C2.37592 5.44592 2.62515 4.9808 2.89322 4.57611C3.08355 4.28879 3.48251 3.93396 3.58969 3.61936C3.8111 2.96944 4.97879 2.80244 5.44228 2.7035C6.30202 2.51996 7.10676 2.29463 7.97741 2.29463" stroke="#2F2F2F" stroke-width="2" stroke-linecap="round"/>
<path d="M12.1811 13.4729C10.8926 13.4729 10.6903 12.9182 10.8978 11.4485C10.9294 11.2245 11.7725 10.2068 11.1017 10.1602C10.1099 10.0913 8.94291 10.4654 8.94291 8.88607C8.94291 7.27153 10.9322 7.86677 11.9652 7.86677C13.5758 7.86677 15.1941 7.61194 16.7625 7.61194C18.3473 7.61194 19.926 7.35712 21.4639 7.35712C22.0756 7.35712 22.6872 7.35712 23.2989 7.35712C24.1689 7.35712 24.0545 7.66054 24.0545 8.63125C24.0545 9.59687 23.7188 11.7672 24.2224 12.5103C24.8443 13.428 23.899 16.0467 24.5342 16.9839C24.9698 17.6266 24.918 20.4956 24.918 21.3725C24.918 22.405 25.3398 24.4305 24.2703 24.4305C22.5736 24.4305 20.9894 24.6853 19.3051 24.6853C17.9148 24.6853 16.5527 25.1949 15.1554 25.1949C14.4956 25.1949 8.3797 26.042 8.29528 25.1949C8.13218 23.5585 7.50304 22.0361 7.43176 20.3532C7.36928 18.8784 7 17.5413 7 16.0212" stroke="#2F2F2F" stroke-width="13" stroke-linecap="round"/>
<path d="M16.6419 14.8571C17.297 14.8571 17.9521 14.8571 18.6072 14.8571C18.9048 14.8571 18.9878 14.898 18.9955 15.3155C19.0056 15.8578 18.9955 16.402 18.9955 16.9444C18.9955 19.4658 18.9955 21.9871 18.9955 24.5084C18.9955 24.7771 19.0027 25.0237 18.9401 25.2839C18.8565 25.631 18.8187 25.5667 18.4963 25.5667C17.7534 25.5667 17.0306 25.3911 16.2853 25.3911C16.0393 25.3911 16 25.4065 16 25.079C16 24.2793 16.2639 23.4827 16.2813 22.6699C16.3195 20.8828 16.2533 19.0441 16.3606 17.2614C16.3866 16.8288 16.4279 16.414 16.4279 15.9788C16.4279 15.3421 16.5706 16.6476 16.5706 16.7786C16.5706 18.6311 16.4357 20.5558 16.6102 22.3968C16.6192 22.4919 16.7596 24.0893 17.0381 23.5282C17.5207 22.5563 17.6274 21.1323 17.6959 20.0168C17.7698 18.8141 17.8908 17.5708 17.9257 16.3689C17.9265 16.3428 17.9257 16.0498 17.9257 16.1983C17.9257 16.8085 17.7406 17.3963 17.6404 17.9881C17.3889 19.474 17.3428 21.0863 17.4423 22.6016C17.4681 22.9939 17.4978 23.378 17.4978 23.772C17.4978 23.9231 17.4978 24.0125 17.4978 23.7964C17.4978 22.1087 17.7117 20.4383 17.7117 18.7489C17.7117 17.8663 17.677 16.8496 17.4621 16.0032C17.362 15.6091 17.756 16.5649 17.787 16.7493C17.9162 17.5177 18.1778 18.1885 18.1238 19.0025C18.0815 19.6414 17.9047 20.2409 17.8267 20.8703C17.7611 21.3992 17.7831 21.9415 17.7831 22.4748C17.7831 23.2534 17.5129 24.093 17.997 24.6889" stroke="#E5E5E5" stroke-width="2" stroke-linecap="round"/>
<path d="M19.7366 18.2581C19.7366 17.2626 20.6001 16.8667 21.1677 16.2975C21.6647 15.7989 22.075 15.442 22.6827 15.9954C23.5778 16.8107 24.2057 17.8434 24.4096 19.1295C24.6078 20.3793 24.5068 21.7134 24.5068 22.9815C24.5068 23.711 24.5068 24.4404 24.5068 25.1699C24.5068 25.6485 24.3864 25.566 23.9945 25.566C23.2867 25.566 24.2903 25.566 24.5068 25.566C24.9249 25.566 25.3431 25.566 25.7612 25.566C25.9634 25.566 26.043 25.5625 25.9776 25.2986C25.878 24.8964 25.8847 24.3748 25.8628 23.9569C25.8159 23.0635 25.7789 22.1361 25.7789 21.2436C25.7789 20.5282 25.9065 19.6357 25.717 18.9513C25.5557 18.3684 25.565 17.72 25.4432 17.1193C25.3459 16.6397 25.0646 16.2762 24.922 15.832C24.7191 15.2002 24.1059 15.1389 23.5925 15.1389C23.1981 15.1389 22.7699 15.4454 22.4441 15.6736C21.9931 15.9896 21.5569 16.3557 21.0882 16.6539C20.6044 16.9617 20.0514 17.4597 19.6571 17.9016C19.4663 18.1155 19.1892 18.4001 19.0608 18.6591C18.8081 19.1691 19.4198 18.103 19.4937 17.9511C19.7007 17.5257 20.0572 17.2264 20.3682 16.9213C20.9752 16.3259 21.4789 15.5635 22.2012 15.1587C22.8673 14.7854 23.6039 14.736 24.233 15.1389C24.831 15.522 24.9838 16.4756 24.9838 17.1887" stroke="#E5E5E5" stroke-width="2" stroke-linecap="round"/>
<path d="M20.4951 17.6806C20.087 17.7201 19.678 18.172 19.3834 18.4405C19.2515 18.5607 19.1444 18.5804 19.0305 18.7361C18.8433 18.9919 19.5778 18.4758 19.6216 18.4405C20.2001 17.9748 20.8085 17.3654 21.5097 17.1083C21.9003 16.9651 22.3118 17.0051 22.7184 17.0051C23.1017 17.0051 23.4914 17.022 23.8654 17.0943C24.1983 17.1586 24.2865 17.7986 24.3463 18.0653C24.4788 18.6571 24.6634 19.241 24.8183 19.829C24.9786 20.4378 24.9418 21.1872 24.9418 21.818C24.9418 22.6998 25.1417 23.8729 24.8006 24.6887C24.6701 25.001 24.6546 25.1255 24.4477 25.3455C24.3853 25.4119 24.3952 25.5212 24.311 25.5659C24.2255 25.6114 24.3066 25.3627 24.3066 25.261C24.3066 25.014 24.3066 24.7669 24.3066 24.5199C24.3066 23.1151 24.4654 21.7111 24.4654 20.3028C24.4654 19.6388 24.0683 17.6921 24.0683 18.3561" stroke="#E5E5E5" stroke-width="2" stroke-linecap="round"/>
<path d="M24 18.5146C23.9183 18.1064 23.4707 17.3624 22.963 17.3367C22.7196 17.3244 22.5947 17.0226 22.3148 17.0226C22.08 17.0226 21.7654 16.9689 21.5418 17.027C21.2816 17.0945 21.0024 17.2437 20.716 17.2582C20.2632 17.2811 19.5863 17.3835 19.1605 17.5418C18.633 17.7379 18.0614 18.2133 17.6626 18.5757C17.4542 18.765 17.2623 19.0237 17 19.1429" stroke="#E5E5E5" stroke-width="2" stroke-linecap="round"/>
<path d="M10.3242 8.42859C9.09771 8.9089 8.845 10.9801 10.1588 11.4807C10.5453 11.628 11.3274 11.7478 11.6936 11.4999C12.1028 11.223 12.0102 10.4096 11.9326 9.99305C11.7428 8.97351 10.1105 8.9403 9.34999 9.13884C8.94673 9.24412 8.95743 10.096 9.06048 10.4106C9.23183 10.9336 9.82214 11.3183 10.3426 11.1544C10.8308 11.0006 11.0684 10.476 11.133 9.98345C11.1553 9.81342 11.2604 9.14024 11.0503 9.05245C10.3044 8.74087 9.33892 10.923 10.0531 11.2168C10.5974 11.4407 11.0548 11.1018 11.2249 10.5689C11.2992 10.3362 11.6749 9.04952 11.3903 8.87969C10.7833 8.51745 10.3001 9.64126 10.2415 10.0698" stroke="#E5E5E5" stroke-width="2" stroke-linecap="round"/>
<path d="M9.45771 14.9484C10.1369 14.9484 10.8138 14.8599 11.4944 14.8599C11.6891 14.8599 11.7853 14.8105 11.7853 15.1304C11.7853 15.7716 11.7853 16.4127 11.7853 17.0539C11.7853 18.9885 11.85 20.9234 11.85 22.8488C11.85 23.3867 11.9793 23.8582 11.9793 24.3787C11.9793 24.6673 12.0765 25.3108 11.85 25.4659C11.5209 25.6912 10.799 25.4856 10.4419 25.4856C10.1581 25.4856 9.87438 25.4856 9.59062 25.4856C9.50835 25.4856 9.16845 25.5546 9.13444 25.4265C8.95084 24.7351 9.01051 23.7169 9.00513 22.9865C8.99132 21.1141 9.06978 19.2508 9.06978 17.3785C9.06978 16.8505 9.06978 16.3225 9.06978 15.7945C9.06978 15.2362 9.14252 15.3364 9.52237 15.3911C9.66233 15.4113 9.8756 15.5843 10.0396 15.6371C10.1967 15.6877 10.6366 15.6834 10.6826 15.9667C10.8103 16.7542 10.5396 17.6877 10.4635 18.4559C10.3027 20.0775 10.4802 21.6 10.4922 23.2128C10.4934 23.3694 10.4794 24.6502 10.4419 24.0786C10.3126 22.1084 10.2924 20.1188 10.1653 18.146C10.1586 18.0414 10.0692 16.7565 10.0324 16.744C9.98218 16.7267 9.73555 18.5621 9.72352 18.6822C9.63022 19.6131 9.59421 20.5903 9.59421 21.5304C9.59421 21.8749 9.54633 22.7842 9.83128 22.9865C10.1456 23.2097 10.3416 23.6692 10.6574 23.8917C10.8609 24.035 11.1993 24.0343 11.4261 24.0639C11.8176 24.1149 11.4936 21.446 11.462 21.1615C11.3127 19.8173 11.2034 18.4355 11.2034 17.0735" stroke="#E5E5E5" stroke-width="2" stroke-linecap="round"/>
</svg>
