<svg width="32" height="32" viewBox="0 0 32 32" fill="none" xmlns="http://www.w3.org/2000/svg">
<path d="M27.7743 14.7184C28.6545 14.9511 26.5677 23.875 26.0851 25.0141C25.233 27.0257 24.6041 28.7376 22.5524 29.5102C19.5681 30.6339 16.281 31 13.0473 31C11.1892 31 10.6036 30.8305 9.02033 29.856C7.56361 28.9595 5.70654 27.7679 4.8916 26.0916C1.48786 19.0901 -0.937681 9.07668 6.10982 4.12997C7.99795 2.80467 9.55919 1.97512 11.7562 1.36315C13.8319 0.784963 16.1832 1.07051 18.343 1.07051C21.42 1.07051 23.956 1.87567 26.1 4.52903C27.2409 5.94106 28.428 7.15698 28.9781 8.97189C29.5128 10.7359 29.9192 12.5998 29.9987 14.4257C30.1218 17.2514 31.0763 20.5007 30.0456 23.205C29.624 24.3113 28.8668 25.2679 28.1331 26.0916C27.3801 26.9369 26.1742 27.1181 25.3877 27.8341C24.7453 28.419 23.649 28.6181 22.9068 29.0845C22.2811 29.4776 23.5975 29.1931 23.8016 29.0845C24.5846 28.668 25.0525 28.3411 25.7085 27.7809C28.3466 25.5282 28.7677 22.3707 29.0682 19.0282C29.4301 15.0038 27.5873 10.7002 25.0115 7.78802C24.2188 6.8917 23.3819 5.39959 22.3131 4.90148C21.7755 4.65098 21.3259 4.1923 20.7698 3.99695C20.4992 3.9019 18.5444 3.22543 19.4933 3.22543C22.1614 3.22543 23.5434 5.26829 25.5213 6.93669C26.6839 7.91735 26.8301 9.49719 27.597 10.6479" stroke="#2F2F2F" stroke-width="2" stroke-linecap="round"/>
<path d="M15.7974 16.2084C15.6043 16.1828 15.6562 16.1361 15.5793 15.9855" stroke="#2F2F2F" stroke-width="28" stroke-linecap="round"/>
<path d="M14.6564 14.1227C14.6564 13.5887 14.9548 13.4654 15.4489 13.4654C16.106 13.4654 16.5984 13.3643 16.9118 14.1154C17.3907 15.2629 15.3775 15.0835 14.6835 15.1452C13.9235 15.2128 12.3092 15.2415 12.8818 13.889C13.2067 13.1218 16.2494 12.3183 16.3564 13.4727C16.5031 15.0537 14.628 15.2981 13.5253 15.1525C13.0181 15.0856 12.3581 14.6242 12.1504 14.0935C11.8475 13.32 12.8488 13.088 13.3424 12.9687C14.1398 12.776 15.7284 12.4941 16.431 13.1002C16.9198 13.5219 16.7912 14.4807 16.3632 14.8823C15.6801 15.5234 12.9236 16.3032 12.7735 14.8458C12.6594 13.7385 14.1539 13.0075 14.9341 12.7789C16.1955 12.4092 18.4492 12.1108 19.2486 13.5384C20.9887 16.6462 15.8435 16.5193 14.3448 16.27C13.7881 16.1773 12.987 16.0192 12.8412 15.3059C12.709 14.6591 12.9431 13.8889 13.4643 13.5238C14.4761 12.8152 16.0831 12.5748 17.2573 12.7058C18.1919 12.8101 18.3474 13.8314 17.9752 14.634C17.4348 15.7995 16.1651 16.0561 15.0763 16.0874C14.2235 16.1119 12.925 16.3131 12.4822 15.2986C12.0086 14.2132 13.0214 13.4433 13.8301 13.0856C14.5972 12.7462 16.307 12.0676 16.8915 13.1002C17.5025 14.1795 16.3034 15.3123 15.4556 15.6127C14.6265 15.9064 13.1083 16.1089 12.5432 15.1744C11.9105 14.1283 12.9918 13.3795 13.7759 13.0272C14.5328 12.6871 15.6707 12.44 16.2752 13.239C16.7227 13.8306 16.9996 15.2127 16.3294 15.7441C15.4812 16.4166 13.8343 16.0794 12.9834 15.6053C11.9208 15.0133 11.5585 13.7565 12.7532 13.0929C14.1083 12.3401 16.1125 12.3814 17.5011 12.998C18.4862 13.4353 19.5398 14.8123 18.3274 15.7003C17.3315 16.4298 15.5406 16.7976 14.399 16.27C13.721 15.9567 13.3552 14.5288 13.9114 13.9182C14.8937 12.8397 19.6517 12.9571 18.9438 15.3059C18.5421 16.6388 16.3684 16.7559 15.3269 16.7301C14.269 16.7039 13.0243 16.4791 12.9699 15.1014C12.8639 12.4142 18.279 12.3268 18.2597 14.5755C18.2356 17.3754 11.6506 18.4518 11.4459 15.3351C11.3564 13.9706 13.0842 13.59 14.0265 13.4289C15.3723 13.1988 17.1573 13.715 17.7788 15.1671C18.8646 17.704 13.9218 17.7812 12.9834 16.0947C11.6695 13.7333 16.8695 13.151 17.7449 15.3059C18.8227 17.9587 11.8806 18.5387 11.9065 15.8025C11.9198 14.4002 13.7829 14.0403 14.7444 13.9547C16.2304 13.8224 18.5471 14.2402 19.0589 16.0801C19.7913 18.7126 15.0732 17.1068 14.5683 15.3716C13.8076 12.7568 20.0734 13.2732 20.7928 15.043C21.6489 17.1488 14.0226 16.9425 14.399 15.2475C14.8102 13.3956 20.5722 12.8514 20.4745 15.116C20.368 17.5855 15.6079 17.8902 15.2457 15.5031C14.783 12.4542 22.0098 13.2295 20.8335 15.934C20.0758 17.6759 16.8289 17.4649 15.4421 17.3217C14.504 17.2248 11.1897 16.703 11.473 14.9845C11.6737 13.7674 13.2074 13.3256 14.1416 13.1659C15.275 12.9722 17.8741 13.2016 18.0497 14.78C18.1912 16.0518 17.3401 16.5843 16.2955 16.8616C15.4758 17.0791 13.9299 17.3056 13.5321 16.2189C12.693 13.9268 16.7636 11.9699 17.5282 14.0205C18.0703 15.4745 16.9258 16.8042 15.6995 17.1902C14.839 17.4611 13.0279 17.7487 12.3265 16.9127C11.96 16.4759 12.0962 15.7118 12.0962 15.1817C12.0962 14.7632 11.9135 14.4098 11.7304 14.0643C11.4288 13.4951 10.6933 14.9759 10.6061 15.1744C10.3611 15.7322 10.6299 16.0147 10.8499 16.4891C11.9629 18.8894 15.0355 19.0415 17.3115 18.9869C18.28 18.9637 20.0207 18.2901 20.0207 17.0222C20.0207 16.0063 20.3864 15.033 20.3864 14.0205C20.3864 13.4957 20.5799 12.0193 19.8378 12.0193C18.5743 12.0193 17.286 11.7563 15.9975 11.7563C14.9228 11.7563 13.8481 11.7563 12.7735 11.7563C11.5398 11.7563 11.5216 12.6852 11.2157 13.7575C10.8993 14.8663 10.324 17.713 11.3647 18.4611" class="primaryColor" stroke-width="2" stroke-linecap="round"/>
<path d="M20.3862 12.9395C20.3862 13.8605 20.5081 14.7503 20.5081 15.671C20.5081 16.2902 20.5081 16.9106 20.5081 15.8317" class="primaryColor" stroke-width="2" stroke-linecap="round"/>
<path d="M20.5078 12.6766C21.3065 12.935 21.1174 15.0752 21.1174 15.8025C21.1174 16.509 21.0212 17.4267 20.7245 18.0666C20.3824 18.8044 19.4175 18.7055 18.801 18.724C17.6262 18.7591 16.4521 18.8554 15.2654 18.8554C14.4573 18.8554 13.3329 19.0776 12.5833 18.6947C12.0659 18.4305 11.6713 17.4298 11.5131 16.8542C11.3227 16.1613 11.0724 15.3673 10.9984 14.6485C10.9637 14.3126 10.3584 13.416 10.7545 13.2024" class="primaryColor" stroke-width="2" stroke-linecap="round"/>
<path d="M11.12 13.9913C10.4588 13.912 10.3452 11.7827 10.1176 11.2305C9.98665 10.9127 9.99725 10.0085 10.4495 10.6462C10.9289 11.3222 11.6701 11.7258 12.0954 12.4137" class="primaryColor" stroke-width="2" stroke-linecap="round"/>
<path d="M19.2886 12.5451C19.3641 11.8119 20.7296 9.38989 21.544 9.38989C22.2391 9.38989 20.6296 12.5863 20.6296 13.0709" class="primaryColor" stroke-width="2" stroke-linecap="round"/>
<path d="M13.1928 12.6766C12.6047 12.0426 10.5433 8.59182 10.0229 10.8361" class="primaryColor" stroke-width="2" stroke-linecap="round"/>
<path d="M14.5342 20.8273C13.8265 21.6354 13.6647 23.0391 13.5657 24.1066C13.5215 24.583 13.5589 25.0815 13.5589 25.56C13.5589 26.7348 13.5589 25.1384 13.5589 24.8005C13.5589 23.5762 13.5573 22.4269 13.9924 21.2874C14.2409 20.6366 15.0511 19.7756 15.7534 19.7756C16.1075 19.7756 16.4706 19.7484 16.8235 19.7756C17.186 19.8035 17.6304 20.344 17.9208 20.5644C18.4393 20.9578 18.6776 21.9039 18.8284 22.5363C19.0975 23.6648 18.6794 24.6397 18.6794 25.7572C18.6794 26.2846 18.3557 25.1475 18.3407 25.0342C18.2523 24.3665 18.2012 23.6968 18.0969 23.033C18.0309 22.613 17.8085 22.3641 17.6769 21.9813C17.4203 21.2339 17.3383 21.6105 17.3383 22.2004C17.3383 23.1839 17.3383 24.1675 17.3383 25.151C17.3383 25.3843 17.3855 25.6788 17.2773 25.8887C17.1778 26.0819 17.2164 26.3309 17.2164 26.546C17.2164 26.9301 17.0945 25.1405 17.0945 24.8516C17.0945 23.8702 17.1574 22.8864 16.7829 21.9667C16.7618 21.9147 16.3496 23.9529 16.2952 24.3184C16.2194 24.8286 16.1568 25.3581 16.1259 25.8741C16.1165 26.0311 16.1929 26.4496 16.092 26.5825C15.8627 26.8847 15.7707 24.1854 15.7805 24.0117C15.8275 23.173 15.8628 22.1589 16.2952 21.4262C16.627 20.8641 16.3005 21.8876 16.2207 22.1565C15.9899 22.9344 15.7423 24.0055 15.3335 24.6982C15.0961 25.1005 15.0219 24.7555 15.0219 24.4134C15.0219 23.6419 15.018 21.6888 15.8753 21.2509C16.4949 20.9344 16.7287 22.3207 16.7287 22.7335C16.7287 23.0792 16.3523 23.213 16.1462 23.4274C15.7993 23.7881 15.6009 24.1798 15.3876 24.6398C15.0668 25.3318 14.7202 25.8689 14.1956 26.378C14.1133 26.4579 13.7665 26.4803 13.8772 26.4803C14.0759 26.4803 14.2746 26.4803 14.4733 26.4803C14.9118 26.4803 15.3429 26.6117 15.8076 26.6117C16.1959 26.6117 16.5842 26.6117 16.9725 26.6117C17.2153 26.6117 17.4617 26.6263 17.704 26.6117C17.9406 26.5976 17.9317 26.3488 18.1917 26.3488C18.7151 26.3488 18.0426 26.7432 17.765 26.7432C17.2773 26.7432 16.7897 26.7432 16.302 26.7432C15.6289 26.7432 14.2492 27.0202 13.7756 26.5095C13.7339 26.4645 13.5876 26.1071 13.5657 26.1662C13.5176 26.2957 13.5302 26.6677 13.5657 26.8016C13.5899 26.893 14.7595 27.0178 14.9 27.0719C15.5855 27.3359 16.5914 27.1376 17.3112 27.1376C17.7497 27.1376 18.1308 26.8747 18.5575 26.8747" class="primaryColor" stroke-width="2" stroke-linecap="round"/>
<path d="M14.5337 24.7714C14.8488 24.308 15.118 23.6194 15.1433 23.0331C15.1583 22.6858 15.3127 22.2736 15.6919 22.2736C16.1112 22.2736 17.5118 20.987 16.972 20.696" class="primaryColor" stroke-width="2" stroke-linecap="round"/>
<path d="M14.6903 19.7293C14.4633 19.7565 14.1853 20.1064 14.0324 20.2811C13.7822 20.5667 13.7261 20.8168 13.6628 21.192C13.5427 21.904 13.4081 22.5509 13.3744 23.2766C13.3578 23.6345 13.1683 23.994 13.1551 24.3626C13.1432 24.6959 13.1551 25.032 13.1551 25.3655C13.1551 25.7004 12.9899 27.05 13.3013 27.218" class="primaryColor" stroke-width="2" stroke-linecap="round"/>
<path d="M17.9067 19.4929C18.8986 20.4555 18.9302 21.6046 18.9302 22.9613C18.9302 24.2274 18.8571 25.5371 18.8571 26.8239" class="primaryColor" stroke-width="2" stroke-linecap="round"/>
<path d="M13.959 19.4929C13.5203 19.5126 13.2326 20.5168 12.9762 20.8723C12.8433 21.0565 12.7975 21.6825 12.7893 21.919C12.777 22.2788 12.6836 22.6358 12.6391 22.9963C12.5395 23.8016 12.4238 24.6513 12.4238 25.4663C12.4238 25.9305 12.4238 26.3947 12.4238 26.8589C12.4238 27.0869 12.57 27.3023 12.57 27.5333" class="primaryColor" stroke-width="2" stroke-linecap="round"/>
<path d="M13.7398 19.7293C13.4305 19.7293 13.2207 19.5982 12.9357 19.5104C12.6773 19.4308 12.3003 19.2065 12.0584 19.1775C11.562 19.1181 10.9807 18.3709 10.7588 17.9163C10.3667 17.1128 10.1578 16.0847 10.1578 15.1748C10.1578 14.7606 10.0812 14.2738 10.2471 13.8961C10.3778 13.5987 10.5007 13.2598 10.5964 12.9501" class="primaryColor" stroke-width="2" stroke-linecap="round"/>
<path d="M21.1229 12.3194C21.7946 12.3194 21.5954 16.865 21.5615 17.522C21.5452 17.8378 21.3467 18.2291 21.2122 18.503C21.0232 18.8881 20.7726 18.725 20.4284 18.8227C19.9886 18.9475 19.4573 18.8621 19.0029 18.8621C18.6923 18.8621 18.2075 18.7927 17.9795 18.5468" class="primaryColor" stroke-width="2" stroke-linecap="round"/>
<path d="M18.7837 18.7833C18.9043 19.4498 19.275 19.9797 19.3848 20.6576C19.459 21.1162 19.6094 21.5383 19.6609 22.0108C19.7161 22.5168 19.734 23.0025 19.734 23.5129C19.734 24.8599 19.8177 26.3051 19.5147 27.612" class="primaryColor" stroke-width="2" stroke-linecap="round"/>
<path d="M21.7812 13.0289C21.7812 12.4822 22.0006 11.9435 22.0006 11.3735C22.0006 10.708 22.1218 9.8737 21.9275 9.24512" class="primaryColor" stroke-width="2" stroke-linecap="round"/>
<path d="M10.4502 13.8172C10.3067 13.7785 10.3771 13.2884 10.3771 13.1691C10.3771 12.8735 10.3152 12.7106 10.2471 12.4334C10.174 12.1355 10.1578 11.879 10.1578 11.5662C10.1578 11.0244 10.0956 10.4631 9.93848 9.95465" class="primaryColor" stroke-width="2" stroke-linecap="round"/>
<path d="M12.6436 12.2407C12.6436 11.5532 14.0776 11.2862 14.5442 11.1371C15.3853 10.8684 16.5122 11.0583 17.379 11.0583C18.2109 11.0583 19.0416 11.0618 19.4421 11.9254" class="primaryColor" stroke-width="2" stroke-linecap="round"/>
<path d="M21.05 18.5468C20.5754 18.8311 20.2054 19.2311 19.6895 19.4577C19.2575 19.6475 18.8265 20.0445 18.3452 20.0445" class="primaryColor" stroke-width="2" stroke-linecap="round"/>
<path d="M21.0497 18.4682C20.1515 19.3995 18.8653 19.4141 17.687 19.4141" class="primaryColor" stroke-width="2" stroke-linecap="round"/>
<path d="M11.3271 18.0739C12.0916 19.123 13.0066 19.488 14.1781 19.887" class="primaryColor" stroke-width="2" stroke-linecap="round"/>
<path d="M13.2281 23.4343C12.5101 23.3698 12.1556 22.9285 11.5427 23.5481C11.0901 24.0057 10.3814 24.3729 9.75981 24.0649C8.89552 23.6367 8.2508 22.9922 7.67234 22.2125C7.6135 22.1331 7.52124 22.0154 7.4246 22.0154C7.35139 22.0154 7.57755 22.0411 7.63173 22.0942C7.71736 22.1782 7.76813 22.2231 7.8754 22.2694C8.26576 22.4378 8.55175 22.9861 8.80542 23.3204C9.38156 24.0797 9.93861 24.5379 10.9051 24.5379C11.4621 24.5379 11.9713 24.1589 12.3509 23.7496" class="primaryColor" stroke-linecap="round"/>
<path d="M8.40332 22.567C9.26448 23.4956 10.3366 24.1631 11.5386 24.4151C12.2627 24.5669 12.9296 24.2637 13.6179 24.0823C13.789 24.0372 14.0322 23.9614 14.0322 23.7494" class="primaryColor" stroke-linecap="round"/>
<path d="M13.2744 27.4837C13.8368 27.4837 14.392 27.7284 14.9608 27.7874C15.738 27.868 16.5859 27.8798 17.3669 27.8174C17.7487 27.7869 18.0192 27.4904 18.3788 27.42C18.4774 27.4006 18.6432 27.3225 18.7404 27.3525C18.7519 27.356 18.3128 27.7091 18.2536 27.7499C17.8095 28.0564 17.3338 27.9266 16.828 27.9711C16.0409 28.0404 15.2531 28.0236 14.4636 28.0236C14.1792 28.0236 13.4809 27.9964 13.337 27.6862" class="primaryColor" stroke-linecap="round"/>
</svg>
