<svg width="40" height="39" viewBox="0 0 40 39" fill="none" xmlns="http://www.w3.org/2000/svg">
<path d="M32.6406 21.505C33.5122 21.9954 28.391 30.2334 27.5047 31.2213C25.9398 32.9657 24.7115 34.4786 22.2557 34.6401C18.6836 34.875 15.0301 34.2689 11.552 33.3154C9.55351 32.7675 8.97827 32.4266 7.58952 30.993C6.31176 29.674 4.69847 27.9442 4.36235 26.0409C2.95845 18.0911 3.57764 7.4415 12.7524 4.61198C15.2104 3.85391 17.157 3.49128 19.7173 3.53196C22.1362 3.57041 24.5732 4.54703 26.8962 5.1839C30.2058 6.09124 32.6738 7.63781 34.1245 10.9024C34.8964 12.6397 35.7812 14.1961 35.7878 16.1589C35.7943 18.0665 35.6305 20.0356 35.1274 21.8705C34.3489 24.7102 34.3281 28.2153 32.3477 30.5943C31.5376 31.5675 30.4148 32.2933 29.3601 32.8941C28.2777 33.5107 26.9223 33.3349 25.8455 33.8134C24.966 34.2042 23.7227 34.0785 22.774 34.3223C21.9743 34.5278 23.4819 34.6337 23.7365 34.5862C24.713 34.4039 25.3216 34.2175 26.2078 33.8552C29.7713 32.3982 31.2422 29.3898 32.6429 26.1623C34.3295 22.2764 33.7348 17.4634 31.9032 13.8147C31.3394 12.6917 30.9203 10.9646 29.9313 10.1553C29.4339 9.74823 29.0981 9.16059 28.563 8.80281C28.3026 8.62874 26.4181 7.38118 27.4388 7.661C30.3085 8.44775 31.1363 10.882 32.7259 13.1204C33.6602 14.4361 33.3081 16.0466 33.762 17.4144" stroke="#2F2F2F" stroke-width="2" stroke-linecap="round"/>
<path d="M19.3965 19.6008C19.1824 19.5123 19.2585 19.479 19.2218 19.2942" stroke="#2F2F2F" stroke-width="30" stroke-linecap="round"/>
<path d="M18.1349 18.6487C18.1349 17.9946 18.5291 17.8435 19.1817 17.8435C20.0498 17.8435 20.7001 17.7197 21.1142 18.6398C21.7467 20.0454 19.0875 19.8257 18.1707 19.9013C17.1668 19.9841 15.0345 20.0192 15.7909 18.3624C16.2199 17.4226 20.2391 16.4384 20.3805 17.8525C20.5742 19.7892 18.0974 20.0886 16.6408 19.9102C15.9708 19.8282 15.0991 19.263 14.8246 18.6129C14.4245 17.6654 15.7472 17.3813 16.3992 17.2352C17.4525 16.9991 19.5509 16.6538 20.4789 17.3962C21.1247 17.9128 20.9547 19.0872 20.3895 19.5792C19.4871 20.3646 15.8461 21.3197 15.6477 19.5345C15.497 18.1781 17.4711 17.2826 18.5017 17.0025C20.1679 16.5498 23.1449 16.1841 24.2008 17.933C26.4993 21.7399 19.7029 21.5845 17.7233 21.2791C16.9879 21.1656 15.9298 20.9718 15.7372 20.0981C15.5625 19.3058 15.8718 18.3623 16.5603 17.9151C17.8967 17.0471 20.0194 16.7526 21.5704 16.9131C22.8049 17.0408 23.0103 18.2919 22.5188 19.275C21.8049 20.7028 20.1278 21.017 18.6896 21.0554C17.563 21.0854 15.8478 21.3319 15.263 20.0892C14.6373 18.7596 15.9752 17.8165 17.0434 17.3783C18.0567 16.9626 20.3152 16.1313 21.0873 17.3962C21.8943 18.7183 20.3104 20.1059 19.1906 20.4739C18.0954 20.8337 16.09 21.0817 15.3435 19.9371C14.5077 18.6555 15.9361 17.7383 16.9718 17.3067C17.9717 16.8901 19.4747 16.5874 20.2732 17.5662C20.8644 18.2909 21.2301 19.9839 20.3447 20.6349C19.2244 21.4586 17.0489 21.0456 15.9251 20.4649C14.5214 19.7397 14.0428 18.2002 15.6209 17.3872C17.4109 16.4651 20.0583 16.5157 21.8925 17.2709C23.1937 17.8067 24.5854 19.4935 22.984 20.5812C21.6685 21.4748 19.3029 21.9253 17.7949 21.2791C16.8994 20.8953 16.4162 19.1462 17.1508 18.3982C18.4483 17.0771 24.7333 17.2209 23.7982 20.0981C23.2675 21.7308 20.3963 21.8743 19.0206 21.8427C17.6232 21.8106 15.979 21.5352 15.9072 19.8476C15.7671 16.5558 22.9201 16.4488 22.8945 19.2034C22.8628 22.6332 14.1644 23.9517 13.8942 20.1339C13.7758 18.4624 16.0582 17.9961 17.3029 17.7988C19.0806 17.517 21.4383 18.1493 22.2593 19.9281C23.6936 23.0357 17.1646 23.1302 15.9251 21.0643C14.1895 18.1717 21.0582 17.4584 22.2146 20.0981C23.6382 23.3477 14.4683 24.0582 14.5025 20.7065C14.5201 18.9886 16.9811 18.5478 18.2512 18.443C20.214 18.2809 23.2741 18.7927 23.9503 21.0465C24.9177 24.2712 18.6854 22.3041 18.0186 20.1786C17.0137 16.9755 25.2903 17.6081 26.2406 19.776C27.3714 22.3556 17.2978 22.1029 17.7949 20.0265C18.3381 17.758 25.9491 17.0914 25.8201 19.8655C25.6794 22.8906 19.3918 23.2638 18.9133 20.3397C18.3021 16.6048 27.8482 17.5545 26.2943 20.8675C25.2935 23.0013 21.0046 22.7428 19.1727 22.5674C17.9336 22.4487 13.5557 21.8095 13.9299 19.7044C14.195 18.2135 16.221 17.6723 17.4549 17.4767C18.952 17.2394 22.3852 17.5204 22.6172 19.4539C22.8041 21.0118 21.6799 21.6641 20.3 22.0037C19.2173 22.2703 17.1752 22.5477 16.6497 21.2164C15.5414 18.4087 20.9184 16.0116 21.9283 18.5235C22.6444 20.3046 21.1326 21.9335 19.5127 22.4063C18.376 22.7382 15.9838 23.0905 15.0572 22.0664C14.5732 21.5314 14.753 20.5953 14.753 19.946C14.753 19.4333 14.5118 19.0004 14.2699 18.5772C13.8715 17.8799 12.9 19.6939 12.7848 19.9371C12.4612 20.6202 12.8163 20.9663 13.1068 21.5475C14.577 24.4878 18.6356 24.674 21.642 24.6072C22.9214 24.5788 25.2207 23.7536 25.2207 22.2006C25.2207 20.9561 25.7038 19.7639 25.7038 18.5235C25.7038 17.8806 25.9593 16.0721 24.9791 16.0721C23.3102 16.0721 21.6084 15.75 19.9063 15.75C18.4868 15.75 17.0673 15.75 15.6477 15.75C14.0182 15.75 13.9941 16.8878 13.59 18.2014C13.172 19.5597 12.4122 23.0467 13.7868 23.9631" stroke="#E5E5E5" stroke-width="2" stroke-linecap="round"/>
<path d="M25.7041 17.1992C25.7041 18.3274 25.8651 19.4175 25.8651 20.5453C25.8651 21.3037 25.8651 22.0637 25.8651 20.7421" stroke="#E5E5E5" stroke-width="2" stroke-linecap="round"/>
<path d="M25.8648 16.8774C26.9199 17.194 26.67 19.8157 26.67 20.7066C26.67 21.5721 26.5431 22.6962 26.1511 23.4801C25.6992 24.3839 24.4247 24.2627 23.6103 24.2853C22.0585 24.3284 20.5076 24.4464 18.9401 24.4464C17.8726 24.4464 16.3874 24.7186 15.3972 24.2495C14.7138 23.9258 14.1925 22.7 13.9836 21.995C13.7321 21.1461 13.4015 20.1735 13.3037 19.2931C13.2579 18.8816 12.4584 17.7832 12.9816 17.5216" stroke="#E5E5E5" stroke-width="2" stroke-linecap="round"/>
<path d="M13.4641 18.4877C12.5906 18.3907 12.4406 15.7824 12.14 15.1059C11.967 14.7166 11.981 13.6089 12.5784 14.3902C13.2116 15.2182 14.1906 15.7126 14.7524 16.5553" stroke="#E5E5E5" stroke-width="2" stroke-linecap="round"/>
<path d="M24.2539 16.7161C24.3537 15.8179 26.1574 12.8511 27.2332 12.8511C28.1513 12.8511 26.0254 16.7666 26.0254 17.3602" stroke="#E5E5E5" stroke-width="2" stroke-linecap="round"/>
<path d="M16.2017 16.8772C15.425 16.1005 12.702 11.8734 12.0146 14.6227" stroke="#E5E5E5" stroke-width="2" stroke-linecap="round"/>
<path d="M17.9733 26.8617C17.0384 27.8516 16.8247 29.5711 16.6939 30.8788C16.6356 31.4623 16.685 32.073 16.685 32.6592C16.685 34.0982 16.685 32.1427 16.685 31.7287C16.685 30.229 16.6828 28.8212 17.2576 27.4254C17.5859 26.6281 18.6561 25.5734 19.5837 25.5734C20.0515 25.5734 20.5311 25.5401 20.9973 25.5734C21.4761 25.6076 22.063 26.2697 22.4467 26.5396C23.1316 27.0216 23.4463 28.1805 23.6455 28.9553C24.001 30.3376 23.4487 31.5318 23.4487 32.9007C23.4487 33.5467 23.0212 32.1539 23.0014 32.015C22.8845 31.1972 22.8171 30.3768 22.6793 29.5636C22.5921 29.0492 22.2983 28.7443 22.1246 28.2753C21.7855 27.3598 21.6773 27.8211 21.6773 28.5437C21.6773 29.7485 21.6773 30.9533 21.6773 32.1582C21.6773 32.4439 21.7396 32.8046 21.5967 33.0618C21.4653 33.2984 21.5162 33.6035 21.5162 33.867C21.5162 34.3375 21.3552 32.1452 21.3552 31.7914C21.3552 30.5891 21.4383 29.384 20.9436 28.2574C20.9157 28.1938 20.3713 30.6905 20.2995 31.1382C20.1992 31.7632 20.1166 32.4118 20.0758 33.0439C20.0634 33.2362 20.1643 33.7489 20.0311 33.9117C19.7282 34.2819 19.6067 30.9753 19.6195 30.7625C19.6816 29.7351 19.7283 28.4929 20.2995 27.5954C20.7377 26.9068 20.3065 28.1605 20.2011 28.49C19.8961 29.4429 19.569 30.7549 19.029 31.6035C18.7155 32.0962 18.6175 31.6736 18.6175 31.2546C18.6175 30.3096 18.6124 27.917 19.7448 27.3806C20.5632 26.993 20.8721 28.6912 20.8721 29.1968C20.8721 29.6203 20.3749 29.7842 20.1026 30.0467C19.6444 30.4886 19.3823 30.9684 19.1006 31.5319C18.6767 32.3796 18.219 33.0376 17.526 33.6612C17.4173 33.7591 16.9592 33.7865 17.1055 33.7865C17.3679 33.7865 17.6304 33.7865 17.8928 33.7865C18.4721 33.7865 19.0415 33.9475 19.6553 33.9475C20.1682 33.9475 20.6812 33.9475 21.1941 33.9475C21.5148 33.9475 21.8403 33.9653 22.1604 33.9475C22.4728 33.9302 22.4611 33.6254 22.8045 33.6254C23.4959 33.6254 22.6075 34.1086 22.2409 34.1086C21.5967 34.1086 20.9526 34.1086 20.3084 34.1086C19.4193 34.1086 17.5969 34.4478 16.9713 33.8223C16.9162 33.7672 16.7229 33.3294 16.6939 33.4018C16.6305 33.5603 16.6471 34.016 16.6939 34.1801C16.7259 34.2921 18.271 34.4449 18.4564 34.5112C19.362 34.8346 20.6907 34.5917 21.6415 34.5917C22.2207 34.5917 22.7241 34.2696 23.2877 34.2696" stroke="#E5E5E5" stroke-width="2" stroke-linecap="round"/>
<path d="M17.9736 31.6932C18.3899 31.1255 18.7454 30.2821 18.7788 29.5639C18.7986 29.1384 19.0026 28.6334 19.5035 28.6334C20.0573 28.6334 21.9075 27.0574 21.1944 26.7009" stroke="#E5E5E5" stroke-width="2" stroke-linecap="round"/>
<path d="M18.1794 25.5166C17.8796 25.5499 17.5124 25.9786 17.3104 26.1925C16.9799 26.5424 16.9058 26.8487 16.8222 27.3084C16.6636 28.1805 16.4857 28.973 16.4413 29.8619C16.4194 30.3003 16.169 30.7408 16.1516 31.1923C16.1359 31.6006 16.1516 32.0122 16.1516 32.4208C16.1516 32.831 15.9333 34.4843 16.3447 34.69" stroke="#E5E5E5" stroke-width="2" stroke-linecap="round"/>
<path d="M22.4287 25.2271C23.7389 26.4062 23.7806 27.8138 23.7806 29.4758C23.7806 31.0267 23.684 32.6311 23.684 34.2073" stroke="#E5E5E5" stroke-width="2" stroke-linecap="round"/>
<path d="M17.2143 25.2271C16.6349 25.2512 16.2548 26.4814 15.9161 26.9169C15.7406 27.1425 15.6801 27.9093 15.6693 28.199C15.653 28.6397 15.5297 29.0771 15.4708 29.5187C15.3393 30.5052 15.1865 31.546 15.1865 32.5443C15.1865 33.1129 15.1865 33.6816 15.1865 34.2502C15.1865 34.5295 15.3796 34.7934 15.3796 35.0764" stroke="#E5E5E5" stroke-width="2" stroke-linecap="round"/>
<path d="M16.9248 25.5167C16.5162 25.5167 16.2391 25.3561 15.8626 25.2485C15.5213 25.151 15.0234 24.8763 14.7038 24.8408C14.0481 24.7679 13.2803 23.8527 12.9872 23.2958C12.4692 22.3116 12.1932 21.0521 12.1932 19.9376C12.1932 19.4302 12.0921 18.8339 12.3113 18.3711C12.4838 18.0069 12.6462 17.5917 12.7726 17.2124" stroke="#E5E5E5" stroke-width="2" stroke-linecap="round"/>
<path d="M26.6776 16.4397C27.5648 16.4397 27.3016 22.0079 27.2569 22.8128C27.2354 23.1996 26.9732 23.6789 26.7956 24.0144C26.5459 24.4861 26.2148 24.2864 25.7602 24.4061C25.1793 24.5589 24.4774 24.4543 23.8773 24.4543C23.4669 24.4543 22.8266 24.3693 22.5254 24.0681" stroke="#E5E5E5" stroke-width="2" stroke-linecap="round"/>
<path d="M23.5869 24.3579C23.7462 25.1744 24.2359 25.8235 24.3809 26.6539C24.4789 27.2156 24.6776 27.7328 24.7457 28.3116C24.8186 28.9314 24.8422 29.5263 24.8422 30.1516C24.8422 31.8016 24.9528 33.5719 24.5525 35.1728" stroke="#E5E5E5" stroke-width="2" stroke-linecap="round"/>
<path d="M27.5469 17.3088C27.5469 16.6392 27.8366 15.9793 27.8366 15.281C27.8366 14.4658 27.9967 13.4438 27.74 12.6738" stroke="#E5E5E5" stroke-width="2" stroke-linecap="round"/>
<path d="M12.5793 18.2745C12.3897 18.2271 12.4827 17.6268 12.4827 17.4806C12.4827 17.1185 12.4009 16.9189 12.311 16.5793C12.2145 16.2145 12.193 15.9002 12.193 15.5171C12.193 14.8534 12.1109 14.1657 11.9033 13.543" stroke="#E5E5E5" stroke-width="2" stroke-linecap="round"/>
<path d="M15.4766 16.3434C15.4766 15.5012 17.3708 15.1742 17.9872 14.9915C19.0981 14.6623 20.5867 14.895 21.7316 14.895C22.8306 14.895 23.9279 14.8993 24.4568 15.9571" stroke="#E5E5E5" stroke-width="2" stroke-linecap="round"/>
<path d="M26.5806 24.0681C25.9537 24.4164 25.465 24.9063 24.7835 25.1839C24.2128 25.4164 23.6436 25.9028 23.0078 25.9028" stroke="#E5E5E5" stroke-width="2" stroke-linecap="round"/>
<path d="M26.5805 23.9717C25.394 25.1125 23.6952 25.1304 22.1387 25.1304" stroke="#E5E5E5" stroke-width="2" stroke-linecap="round"/>
<path d="M13.7383 23.4888C14.748 24.7739 15.9566 25.221 17.5042 25.7097" stroke="#E5E5E5" stroke-width="2" stroke-linecap="round"/>
<path d="M16.2485 30.0553C15.3 29.9762 14.8319 29.4357 14.0222 30.1947C13.4243 30.7553 12.4882 31.205 11.6672 30.8277C10.5255 30.3032 9.67389 29.5137 8.9098 28.5585C8.83208 28.4614 8.71021 28.3171 8.58256 28.3171C8.48585 28.3171 8.78459 28.3486 8.85615 28.4137C8.96926 28.5165 9.03632 28.5716 9.17802 28.6283C9.69365 28.8345 10.0714 29.5062 10.4065 29.9158C11.1675 30.8459 11.9034 31.4071 13.18 31.4071C13.9157 31.4071 14.5884 30.9428 15.0898 30.4415" stroke="#E5E5E5" stroke-linecap="round"/>
<path d="M9.87598 28.9927C11.0135 30.1302 12.4296 30.9478 14.0174 31.2565C14.9738 31.4425 15.8548 31.0711 16.7641 30.8488C16.99 30.7936 17.3112 30.7008 17.3112 30.4411" stroke="#E5E5E5" stroke-linecap="round"/>
<path d="M16.3096 35.0155C17.0524 35.0155 17.7858 35.3153 18.5371 35.3875C19.5637 35.4862 20.6838 35.5007 21.7155 35.4242C22.2197 35.3869 22.5771 35.0237 23.052 34.9374C23.1823 34.9137 23.4013 34.818 23.5297 34.8547C23.5448 34.859 22.9648 35.2916 22.8867 35.3416C22.3 35.717 21.6717 35.558 21.0036 35.6126C19.9639 35.6974 18.9232 35.6769 17.8804 35.6769C17.5047 35.6769 16.5823 35.6435 16.3922 35.2635" stroke="#E5E5E5" stroke-linecap="round"/>
</svg>
