 <svg onclick="(function() { window.open('https://www.instagram.com/artur.pine') })()" class="cursorClick" width="32" height="32" viewBox="0 0 32 32" fill="none" xmlns="http://www.w3.org/2000/svg">
                        <path
                            d="M15.7497 18.5755C14.6459 18.3678 13.6215 17.8838 12.7442 17.1238C12.3963 16.8224 11.3478 15.8345 11.7095 15.2234C12.3344 14.1676 14.3161 14.0372 15.3309 13.9696C16.0231 13.9235 16.494 13.8471 16.6613 14.6427C17.0062 16.2837 16.6111 19.6357 14.6165 19.9745C13.2661 20.2038 12.3866 18.8995 11.8881 17.6979C11.7226 17.2987 11.5677 16.7727 11.7095 16.3385C11.827 15.979 11.6858 16.0958 11.3462 15.936C10.1168 15.3578 8.98732 14.2315 8.98732 12.7554C8.98732 12.0187 8.74062 10.7599 9.09818 10.0895C9.23079 9.84084 9.2748 9.66718 8.95652 9.66718C7.57291 9.66718 11.7178 9.42963 13.1014 9.42963C15.7128 9.42963 18.3241 9.42963 20.9355 9.42963C21.7752 9.42963 22.6148 9.42963 23.4545 9.42963C23.8781 9.42963 23.8425 9.50642 23.8425 9.97073C23.8425 10.7711 23.8331 11.5723 23.8425 12.3727C23.8564 13.5683 24.2054 14.787 24.3106 15.9888C24.3768 16.7464 24.3968 17.4855 24.3968 18.2456C24.3968 19.0286 24.3968 19.8117 24.3968 20.5948C24.3968 23.1766 20.684 22.3724 19.2911 22.2576C17.0153 22.0701 14.7209 21.7825 12.4363 21.7825C11.9518 21.7825 11.4673 21.7825 10.9828 21.7825C10.7784 21.7825 10.0413 21.6563 9.89883 21.8089C9.76475 21.9526 9.87849 22.1416 9.65247 22.284C9.42453 22.4277 9.25215 22.7533 8.93189 22.6008C8.53803 22.4132 8.77793 20.9717 8.82719 20.6475C8.97856 19.6512 9.20904 18.639 9.20904 17.6253"
                            class="#000" stroke-width="15" stroke-linecap="round" />
                        <path
                            d="M6.22232 1.29463C11.964 1.29463 17.6834 1.00024 23.425 1.00024C24.4421 1.00024 25.5262 0.987043 26.5312 1.15561C26.8209 1.2042 27.1221 1.42312 27.4087 1.44182C27.6061 1.45469 28.1019 1.32752 28.2584 1.47453C28.7581 1.94387 29.2757 2.19936 29.728 2.84833C30.1008 3.38331 30.4175 4.59217 30.4175 5.26883C30.4175 7.38655 30.6682 9.57787 30.6682 11.7453C30.6682 14.2419 30.9189 16.7226 30.9189 19.2194C30.9189 21.0618 31.2276 23.416 30.6403 25.1398C30.5052 25.5365 30.6518 26.0283 30.4801 26.391C30.3648 26.6347 30.23 27.2713 30.1737 27.5685C30.0322 28.3161 29.7739 28.896 29.1917 29.343C27.0893 30.957 24.4386 30.8804 22.0181 30.8804C18.8655 30.8804 15.7128 30.8804 12.5601 30.8804C10.2438 30.8804 7.68684 31.2265 5.41442 30.7413C4.81462 30.6133 4.14451 30.221 3.58969 30.1444C2.89402 30.0483 2.59668 28.7056 2.27337 28.1573C1.7026 27.1893 1.74876 26.1036 1.48637 25.0254C1.37184 24.5547 1.49736 24.0048 1.45154 23.5207C1.39547 22.9282 1.26501 22.3364 1.21475 21.7462C0.827306 17.1972 1.08242 12.4536 1.08242 7.85288C1.08242 6.98027 1.58651 5.48183 2.08533 4.82725C2.37592 4.44592 2.62515 3.9808 2.89322 3.57611C3.08355 3.28879 3.48251 2.93396 3.58969 2.61936C3.8111 1.96944 4.97879 1.80244 5.44228 1.7035C6.30202 1.51996 7.10676 1.29463 7.97741 1.29463"
                            class="#000" stroke-width="2" stroke-linecap="round" />
                        <path
                            d="M24.8404 3.37189C25.6626 3.37189 26.4722 3.29862 27.2793 3.25311C27.4646 3.24267 27.708 3.2166 27.889 3.25971C28.101 3.31018 28.4447 4.6803 28.6589 4.97539C28.8265 5.20629 28.7299 4.48698 28.7205 4.9424C28.6895 6.43621 28.4268 7.79234 28.6158 9.31079C28.8329 11.0551 29.0686 12.7326 29.1886 14.4842C29.283 15.8625 29.4225 17.2052 29.6505 18.5623C29.9911 20.59 29.5571 22.5304 29.1639 24.488C28.954 25.5331 28.8587 26.6465 28.4125 27.6026C28.0494 28.3807 27.676 28.8712 26.8112 29.0015C25.9663 29.1288 25.0813 29.3053 24.2368 29.3777C23.3498 29.4537 22.447 28.965 21.6255 28.6716"
                            class="#000" stroke-width="2" stroke-linecap="round" />
                        <path
                            d="M7.09153 11.6759C6.9274 11.4781 7.03408 10.9501 7.03408 10.691C7.03408 10.414 7.03408 10.137 7.03408 9.86003C7.03408 9.59512 7.09153 9.34784 7.09153 9.09058C7.09153 8.78207 7.3457 8.61678 7.49369 8.3998C7.91347 7.78433 8.96407 7.61325 9.61941 7.61325C10.0583 7.61325 10.4887 7.49014 10.9376 7.49014C11.4756 7.49014 12.0083 7.42859 12.5494 7.42859C15.4444 7.42859 18.3283 7.67481 21.2119 7.67481C21.7976 7.67481 22.3732 7.85948 22.9482 7.85948C23.4512 7.85948 23.9338 8.3061 24.0845 8.83068C24.3897 9.89346 24.2121 11.2431 24.2121 12.353C24.2121 13.1234 24.0972 13.8837 24.0972 14.6648C24.0972 15.3961 24.0398 16.1127 24.0398 16.8466C24.0398 18.0791 24.0647 19.3185 24.0972 20.5399C24.1187 21.344 24.3406 22.7478 23.5802 23.2004C23.1209 23.4738 22.7008 23.7408 22.1471 23.7408C21.4866 23.7408 20.8427 23.8445 20.1905 23.8639C18.506 23.914 16.8243 23.9254 15.1348 23.9254C14.1773 23.9254 13.2264 23.8023 12.2622 23.8023C11.5236 23.8023 10.8041 23.7408 10.0663 23.7408C9.21726 23.7408 8.01942 23.8624 7.56391 22.9405C7.01444 21.8285 7.14898 20.4903 7.14898 19.2472C7.14898 18.4837 7.09538 17.6961 7.15218 16.9355C7.22922 15.9037 7.32134 14.884 7.32134 13.844C7.32134 12.5468 7.32134 11.2496 7.32134 9.95236"
                            class="#000" stroke-width="2" stroke-linecap="round" />
                        <path
                            d="M16.2263 13.2764C15.2928 13.2764 14.2984 13.1146 13.5133 13.7689C12.7001 14.4466 12.4508 15.1908 12.2047 16.2311C11.9781 17.1887 12.2218 18.1156 12.8941 18.8164C13.2609 19.1988 13.7755 19.4364 14.2601 19.5824C14.9403 19.7874 15.7206 19.986 16.4274 19.986C16.8996 19.986 17.2343 20.0125 17.637 19.7363C17.9979 19.4889 18.2225 19.1458 18.4382 18.7549C18.7692 18.1546 19.0238 17.4165 19.0957 16.7235C19.2805 14.9411 18.2862 13.5469 16.6157 13.2628C15.7638 13.1179 14.7188 12.9828 13.9154 13.3653C13.4339 13.5946 12.8969 14.0947 12.6324 14.5828C12.4269 14.9618 12.3454 15.3531 12.2047 15.7523C11.9302 16.5307 12.0407 17.0771 12.4217 17.7837C12.8476 18.5735 13.3646 19.2205 14.2187 19.4627C15.1833 19.7363 16.2126 19.8495 17.1136 19.3089C17.8122 18.8897 18.0461 18.0423 18.2084 17.2775C18.4831 15.9824 17.8967 14.8068 16.9731 14.0151"
                            class="#000" stroke-width="2" stroke-linecap="round" />
                        <path
                            d="M20.8801 11.122C20.5036 10.9427 20.2277 11.1247 20.3758 11.6007C20.4373 11.7986 20.7379 11.5111 20.7843 11.4297C20.9029 11.2217 20.7071 11.0936 20.6566 11.31C20.6299 11.4246 20.7596 11.6438 20.7651 11.4776C20.7713 11.2943 20.7592 10.8081 20.4811 10.8826C20.2104 10.9551 20.0998 12.0877 20.363 11.4297"
                            class="#000" stroke-width="2" stroke-linecap="round" />
                    </svg>