<svg width="109" height="110" viewBox="0 0 109 110" fill="none"
                                        xmlns="http://www.w3.org/2000/svg">

                                        <path
                                            d="M21.4034 48.4839C21.7439 39.6306 30.5149 33.4325 37.1203 29.717C40.0332 28.0784 43.07 26.7577 46.0525 25.2664C47.9759 24.3047 50.0062 22.8371 52.2147 22.7144C59.9366 22.2854 66.5035 22.155 74.0628 23.8348C80.7604 25.3232 88.6282 26.9679 88.6282 35.319C88.6282 38.0851 89.3236 42.022 88.5037 44.6869C88.1967 45.6844 88.5014 48.2222 87.9435 48.9196C86.7118 50.4592 85.6748 52.2491 84.4266 53.7747C79.9484 59.248 67.9123 60.4932 61.5204 60.7773C52.8275 61.1636 43.5487 62.3627 34.8483 61.2441C29.2153 60.5199 25.344 58.9143 21.1544 55.4865C16.9889 52.0783 18.6024 43.3981 18.6024 38.7114C18.6024 35.4566 18.5239 33.3837 20.9677 30.993C24.9062 27.1401 31.6876 24.1635 37.1203 23.3057C42.6818 22.4276 49.5912 21.1608 54.9535 23.3057C59.6879 25.1995 64.3237 26.1539 68.3362 29.4369C71.6169 32.1211 72.8061 35.6181 74.9965 39.1471C76.4701 41.5213 79.0942 44.0022 75.2454 44.0022C67.6723 44.0022 60.0991 44.0022 52.526 44.0022C45.6958 44.0022 38.9021 43.6504 32.0784 43.4731C32.073 43.473 26.9059 43.3612 27.13 43.7532C27.8764 45.0596 31.8163 45.2297 33.0121 45.3716C37.1418 45.8616 41.3414 45.6828 45.4923 45.6828"
                                            stroke="#984DD2" stroke-width="21" stroke-linecap="round" />
                                        <path
                                            d="M79.9579 15.5795C70.46 13.663 63.5191 9.51591 53.4973 9.51591C39.5244 9.51591 29.2542 9.98551 18.5225 20.2115C9.57364 28.7386 5 40.9206 5 53.3087C5 66.5951 20.276 73.3325 31.1268 75.3736C57.8615 80.4025 104.362 75.1817 103.998 39.4971C103.737 14.0091 84.7177 8 63.4304 8"
                                            class="secundaryColor" stroke-width="10" stroke-linecap="round" />
                                        <path
                                            d="M79.9579 15.5795C70.46 13.663 63.5191 9.51591 53.4973 9.51591C39.5244 9.51591 29.2542 9.98551 18.5225 20.2115C9.57364 28.7386 5 40.9206 5 53.3087C5 66.5951 20.276 73.3325 31.1268 75.3736C57.8615 80.4025 104.362 75.1817 103.998 39.4971C103.737 14.0091 84.7177 8 63.4304 8"
                                            class="secundaryColor" stroke-width="10" stroke-linecap="round" />
                                        <path
                                            d="M43.2953 24.7324C43.2953 30.6508 42.6311 36.5672 43.0434 42.5008C43.3008 46.204 42.8876 50.5373 43.781 54.1465C43.9956 55.0131 44.2586 62.6091 45.2382 62.6673C48.8112 62.8796 52.3726 63.2957 55.9964 62.6673C60.4121 61.9016 62.7714 59.5188 65.1534 55.818C66.2447 54.1225 67.404 51.3857 66.8625 49.2593C66.3319 47.1753 63.6604 45.1576 61.9152 44.2086C60.2252 43.2896 56.7069 44.0269 54.827 44.0269C54.4543 44.0269 53.2284 44.0269 54.3233 44.0269C55.7762 44.0269 56.9124 44.0453 58.2632 43.5182C62.5073 41.8622 66.1688 38.6057 64.9555 33.3986C64.3321 30.7228 62.1965 28.8192 60.1162 27.3486C57.9043 25.785 54.7834 24.0784 52.0386 24.0784C48.6946 24.0784 44.9135 23.5883 42 25.0594"
                                            stroke="white" stroke-width="6" />
                                        <path
                                            d="M20.555 100V90.655H23.405C24.525 90.655 25.355 90.875 25.895 91.315C26.435 91.755 26.705 92.32 26.705 93.01C26.705 93.41 26.59 93.805 26.36 94.195C26.14 94.585 25.815 94.865 25.385 95.035C25.895 95.255 26.3 95.57 26.6 95.98C26.91 96.38 27.065 96.82 27.065 97.3C27.065 98.11 26.76 98.765 26.15 99.265C25.55 99.755 24.63 100 23.39 100H20.555ZM22.25 94.39H23.27C23.93 94.39 24.38 94.28 24.62 94.06C24.87 93.83 24.995 93.53 24.995 93.16C24.995 92.82 24.87 92.545 24.62 92.335C24.37 92.125 23.97 92.02 23.42 92.02H22.25V94.39ZM22.25 98.605H23.57C24.1 98.605 24.52 98.49 24.83 98.26C25.15 98.03 25.31 97.695 25.31 97.255C25.31 96.805 25.16 96.44 24.86 96.16C24.57 95.88 24.055 95.74 23.315 95.74H22.25V98.605ZM31.235 100.15C30.615 100.15 30.05 100 29.54 99.7C29.04 99.39 28.645 98.965 28.355 98.425C28.065 97.875 27.92 97.235 27.92 96.505C27.92 95.815 28.065 95.195 28.355 94.645C28.645 94.095 29.04 93.66 29.54 93.34C30.05 93.02 30.615 92.86 31.235 92.86C31.865 92.86 32.43 93.02 32.93 93.34C33.44 93.66 33.84 94.095 34.13 94.645C34.43 95.195 34.58 95.815 34.58 96.505C34.58 97.225 34.43 97.86 34.13 98.41C33.84 98.96 33.44 99.39 32.93 99.7C32.43 100 31.865 100.15 31.235 100.15ZM31.235 98.8C31.715 98.8 32.11 98.59 32.42 98.17C32.73 97.74 32.885 97.185 32.885 96.505C32.885 95.805 32.73 95.25 32.42 94.84C32.11 94.43 31.715 94.225 31.235 94.225C30.775 94.225 30.39 94.43 30.08 94.84C29.77 95.25 29.615 95.805 29.615 96.505C29.615 97.185 29.765 97.74 30.065 98.17C30.375 98.59 30.765 98.8 31.235 98.8ZM38.735 100.15C38.115 100.15 37.55 100 37.04 99.7C36.54 99.39 36.145 98.965 35.855 98.425C35.565 97.875 35.42 97.235 35.42 96.505C35.42 95.815 35.565 95.195 35.855 94.645C36.145 94.095 36.54 93.66 37.04 93.34C37.55 93.02 38.115 92.86 38.735 92.86C39.365 92.86 39.93 93.02 40.43 93.34C40.94 93.66 41.34 94.095 41.63 94.645C41.93 95.195 42.08 95.815 42.08 96.505C42.08 97.225 41.93 97.86 41.63 98.41C41.34 98.96 40.94 99.39 40.43 99.7C39.93 100 39.365 100.15 38.735 100.15ZM38.735 98.8C39.215 98.8 39.61 98.59 39.92 98.17C40.23 97.74 40.385 97.185 40.385 96.505C40.385 95.805 40.23 95.25 39.92 94.84C39.61 94.43 39.215 94.225 38.735 94.225C38.275 94.225 37.89 94.43 37.58 94.84C37.27 95.25 37.115 95.805 37.115 96.505C37.115 97.185 37.265 97.74 37.565 98.17C37.875 98.59 38.265 98.8 38.735 98.8ZM46.985 100.15C46.445 100.15 46 100.035 45.65 99.805C45.3 99.565 45.045 99.17 44.885 98.62C44.725 98.07 44.665 97.325 44.705 96.385L44.78 94.36H43.355L43.385 93.025H44.84L44.9 91.375L46.655 91.15L46.79 91.135L46.805 91.27C46.755 91.34 46.71 91.415 46.67 91.495C46.64 91.565 46.62 91.68 46.61 91.84L46.505 93.025H48.755L48.74 94.36H46.49L46.4 96.355C46.37 97.005 46.39 97.505 46.46 97.855C46.54 98.205 46.655 98.45 46.805 98.59C46.965 98.72 47.155 98.785 47.375 98.785C47.695 98.785 47.98 98.72 48.23 98.59C48.49 98.46 48.73 98.31 48.95 98.14L49.31 99.37C48.96 99.62 48.595 99.815 48.215 99.955C47.835 100.085 47.425 100.15 46.985 100.15ZM53.885 100.165C53.245 100.165 52.655 100.08 52.115 99.91C51.575 99.74 51.095 99.455 50.675 99.055L51.425 97.675L51.485 97.555L51.605 97.63C51.635 97.7 51.665 97.78 51.695 97.87C51.725 97.95 51.8 98.045 51.92 98.155C52.17 98.365 52.45 98.53 52.76 98.65C53.08 98.77 53.465 98.83 53.915 98.83C54.335 98.83 54.66 98.76 54.89 98.62C55.12 98.48 55.235 98.295 55.235 98.065C55.235 97.835 55.105 97.65 54.845 97.51C54.595 97.37 54.18 97.215 53.6 97.045C52.84 96.845 52.235 96.575 51.785 96.235C51.335 95.895 51.11 95.44 51.11 94.87C51.11 94.3 51.355 93.825 51.845 93.445C52.345 93.055 53.015 92.86 53.855 92.86C55.005 92.86 55.94 93.215 56.66 93.925L55.835 95.08L55.73 95.2L55.625 95.11C55.615 95.03 55.59 94.955 55.55 94.885C55.52 94.815 55.445 94.72 55.325 94.6C55.125 94.46 54.895 94.355 54.635 94.285C54.385 94.205 54.135 94.165 53.885 94.165C53.545 94.165 53.25 94.22 53 94.33C52.76 94.44 52.64 94.61 52.64 94.84C52.64 95.04 52.77 95.21 53.03 95.35C53.29 95.49 53.735 95.64 54.365 95.8C55.205 96.01 55.815 96.29 56.195 96.64C56.575 96.98 56.765 97.42 56.765 97.96C56.765 98.36 56.655 98.73 56.435 99.07C56.215 99.4 55.89 99.665 55.46 99.865C55.04 100.065 54.515 100.165 53.885 100.165ZM61.985 100.15C61.445 100.15 61 100.035 60.65 99.805C60.3 99.565 60.045 99.17 59.885 98.62C59.725 98.07 59.665 97.325 59.705 96.385L59.78 94.36H58.355L58.385 93.025H59.84L59.9 91.375L61.655 91.15L61.79 91.135L61.805 91.27C61.755 91.34 61.71 91.415 61.67 91.495C61.64 91.565 61.62 91.68 61.61 91.84L61.505 93.025H63.755L63.74 94.36H61.49L61.4 96.355C61.37 97.005 61.39 97.505 61.46 97.855C61.54 98.205 61.655 98.45 61.805 98.59C61.965 98.72 62.155 98.785 62.375 98.785C62.695 98.785 62.98 98.72 63.23 98.59C63.49 98.46 63.73 98.31 63.95 98.14L64.31 99.37C63.96 99.62 63.595 99.815 63.215 99.955C62.835 100.085 62.425 100.15 61.985 100.15ZM66.335 93.025H68.09L68.075 94.15C68.265 93.75 68.545 93.435 68.915 93.205C69.285 92.975 69.675 92.86 70.085 92.86C70.865 92.86 71.51 93.125 72.02 93.655L71.3 95.08L71.255 95.2L71.12 95.14C71.09 95.06 71.06 94.98 71.03 94.9C71 94.81 70.925 94.71 70.805 94.6C70.665 94.49 70.515 94.405 70.355 94.345C70.205 94.285 70.04 94.255 69.86 94.255C69.38 94.255 68.96 94.42 68.6 94.75C68.24 95.08 68.06 95.61 68.06 96.34V100H66.335V93.025ZM75.47 100.18C74.7 100.18 74.1 100 73.67 99.64C73.25 99.28 73.04 98.805 73.04 98.215C73.04 97.475 73.37 96.865 74.03 96.385C74.7 95.895 75.67 95.65 76.94 95.65C77.01 95.65 77.1 95.65 77.21 95.65C77.33 95.65 77.455 95.655 77.585 95.665C77.515 95.085 77.35 94.695 77.09 94.495C76.83 94.285 76.48 94.18 76.04 94.18C75.72 94.18 75.42 94.235 75.14 94.345C74.86 94.445 74.58 94.635 74.3 94.915L73.37 93.895C73.77 93.525 74.205 93.26 74.675 93.1C75.145 92.94 75.625 92.86 76.115 92.86C76.695 92.86 77.225 92.955 77.705 93.145C78.185 93.325 78.565 93.645 78.845 94.105C79.125 94.555 79.265 95.18 79.265 95.98V100H77.51V99.25C77.25 99.6 76.95 99.845 76.61 99.985C76.27 100.115 75.89 100.18 75.47 100.18ZM74.735 98.005C74.735 98.325 74.835 98.55 75.035 98.68C75.245 98.8 75.5 98.86 75.8 98.86C76.34 98.86 76.76 98.7 77.06 98.38C77.36 98.05 77.54 97.535 77.6 96.835C77.47 96.835 77.345 96.835 77.225 96.835C77.105 96.825 77 96.82 76.91 96.82C76.11 96.82 75.545 96.93 75.215 97.15C74.895 97.37 74.735 97.655 74.735 98.005ZM80.72 102.505L80.705 93.01H82.385V93.985C82.605 93.595 82.885 93.31 83.225 93.13C83.565 92.95 83.94 92.86 84.35 92.86C84.86 92.86 85.32 93 85.73 93.28C86.15 93.55 86.485 93.96 86.735 94.51C86.985 95.05 87.11 95.725 87.11 96.535C87.11 97.355 86.98 98.035 86.72 98.575C86.46 99.115 86.115 99.52 85.685 99.79C85.265 100.05 84.81 100.18 84.32 100.18C83.95 100.18 83.595 100.115 83.255 99.985C82.915 99.855 82.645 99.66 82.445 99.4V102.505H80.72ZM83.855 98.86C84.145 98.86 84.41 98.785 84.65 98.635C84.89 98.485 85.08 98.235 85.22 97.885C85.36 97.535 85.43 97.055 85.43 96.445C85.43 95.755 85.295 95.21 85.025 94.81C84.765 94.41 84.405 94.205 83.945 94.195C83.465 94.185 83.09 94.375 82.82 94.765C82.56 95.145 82.43 95.77 82.43 96.64C82.45 98.12 82.925 98.86 83.855 98.86Z"
                                            class="secundaryTextColor" />
                                    </svg>