 <svg width="109" height="110" viewBox="0 0 109 110" fill="none" xmlns="http://www.w3.org/2000/svg">
                    <path
                        d="M49.3173 12.8921C46.3806 33.082 46.1124 53.9596 46.1124 74.3194C46.1124 79.0844 29.4033 69.8524 28.1887 68.9778C24.6257 66.4125 21.3128 63.8234 19.672 59.6302C17.2644 53.4776 18.0063 46.2547 20.5919 40.2524C23.2083 34.1788 29.1027 28.608 34.8953 25.7117C37.5897 24.3645 41.1517 23.3937 43.5901 21.7056C43.9704 21.4423 45.0365 19.5668 44.2132 19.3316C39.0843 17.8662 32.6737 22.4297 28.7229 24.9105C23.1215 28.4276 17.1411 33.0636 14.8943 39.5996C12.7928 45.7131 14.4682 51.5679 17.0012 57.1969C19.4905 62.7286 22.6874 64.6665 28.3668 65.6542C35.6629 66.9231 37.6679 63.2131 37.566 56.3363C37.4728 50.0454 35.8479 44.1767 34.6579 38.0565C34.1874 35.637 34.0435 32.8361 35.6965 30.8158C38.4894 27.4022 34.8654 35.3427 34.6579 35.8012C32.8186 39.8647 30.8879 43.8861 28.8416 47.8492C27.7793 49.9065 26.5532 51.871 26.3785 54.2294C26.2727 55.658 25.7207 58.9376 26.3489 60.194C26.5715 60.6393 27.8781 58.5876 27.9513 58.2948"
                        stroke="#147B9C" stroke-width="14" stroke-linecap="round" />
                    <path
                        d="M59.9993 13.9604C56.1297 28.3554 56.2603 43.9996 56.2603 58.8587C56.2603 60.6293 56.2603 62.4 56.2603 64.1706C56.2603 65.7729 57.1605 66.8318 57.3583 68.4141C57.8743 72.5421 61.1093 73.2511 64.5396 73.2511C70.2762 73.2511 73.6218 69.9679 78.2791 66.96C82.299 64.3639 85.0121 61.8032 87.9829 58.0575C91.6581 53.4235 93.5508 45.2901 91.2471 39.659C89.6045 35.6436 87.9776 30.1874 84.867 27.0768C81.5793 23.7891 78.6681 22.3714 74.1543 21.2012C73.6876 21.0801 69.0169 20.828 71.3055 20.3703C75.6096 19.5094 79.1554 19.8876 82.9678 22.2101C89.9631 26.4716 95.0652 31.9468 94.7191 40.2525C94.3913 48.1193 83.2709 53.5488 77.5076 56.6925C73.682 58.7791 69.3062 61.5109 64.866 62.0043C61.5173 62.3764 62.599 57.9853 62.6701 55.6835C62.8384 50.2304 64.3052 45.2009 66.3201 40.1635C66.6385 39.3674 69.7132 32.2857 69.8514 32.537C71.0237 34.6684 70.9845 37.1395 72.4035 39.3029C74.5329 42.5494 76.7253 45.8001 79.4068 48.6209C80.5728 49.8474 81.4221 51.0881 82.4633 52.3896C82.7065 52.6935 84.5591 55.1107 83.4129 53.6063C79.1424 48.0012 74.3441 42.0904 68.3677 38.2346C66.862 37.2632 67.8581 37.4631 69.1392 37.4631C71.4341 37.4631 73.729 37.4631 76.0238 37.4631C76.8135 37.4631 80.032 36.9612 80.5938 37.7005C82.0015 39.5526 78.4906 46.1092 77.745 47.79C76.9366 49.6124 76.3247 51.9211 75.2523 53.6063C74.9636 54.0599 75.8447 50.7126 76.1425 50.2233C78.1686 46.8948 82.0049 43.9852 82.9678 40.1338"
                        stroke="#0BA2D2" stroke-width="14" stroke-linecap="round" />
                    <path
                        d="M79.9579 15.5795C70.46 13.663 63.5191 9.51591 53.4973 9.51591C39.5244 9.51591 29.2542 9.98551 18.5225 20.2115C9.57364 28.7386 5 40.9206 5 53.3087C5 66.5951 20.276 73.3325 31.1268 75.3736C57.8615 80.4025 104.362 75.1817 103.998 39.4971C103.737 14.0091 84.7177 8 63.4304 8"
                        class="secundaryColor" stroke-width="10" stroke-linecap="round" />
                    <path
                        d="M71.2173 28.3823C70.0269 28.3823 63.8929 26.4571 65.9945 26.8392C69.7445 27.5211 76.9123 30.6919 78.6954 34.258"
                        stroke="#0BA2D2" stroke-width="14" stroke-linecap="round" />
                    <path
                        d="M36 27.4C45.0799 27.2966 54.1555 27 63.2361 27C65.2145 27 67.1928 27 69.1712 27C69.451 27 70.1873 27.0159 69.9842 27.2C69.6466 27.506 69.1113 27.681 68.7298 27.9334C66.9897 29.0846 65.2798 30.2042 63.4452 31.2225C59.5719 33.3724 55.7075 35.5101 52.0281 37.9563C50.4316 39.0177 48.9078 39.925 47.2429 40.8453C46.0436 41.5083 44.646 41.9059 43.5378 42.701C42.9045 43.1554 41.9216 43.82 41.122 43.99C40.7762 44.0635 40.4982 44.1961 40.1812 44.3567C39.1979 44.8547 42.0206 44.4069 42.086 44.4011C50.7309 43.6406 59.5158 44.4011 68.1956 44.4011C68.9705 44.4011 70.2994 44.1462 70.9947 44.4122C71.0481 44.4327 70.6833 45.6448 70.6578 45.7568C70.3183 47.2512 70.2862 48.6584 70.2862 50.1904C70.2862 52.1583 70.4952 54.1463 70.4952 56.0908C70.4952 56.6201 70.3554 56.5751 69.8681 56.8019C68.1383 57.607 66.4428 58.4416 64.688 59.2021C62.0148 60.3606 59.3916 61.5223 56.7901 62.8023C56.3056 63.0407 55.9928 63.3276 55.4544 63.4135C55.0684 63.475 54.9149 64.0791 54.502 63.9913C53.51 63.7804 52.68 62.7767 51.8887 62.2467C49.9935 60.9775 47.8684 59.9742 45.7446 59.1132C44.2445 58.5051 42.7826 57.8332 41.273 57.2464C40.2825 56.8614 39.2196 56.7299 38.2997 56.2019"
                        stroke="white" stroke-width="7" />
                    <path
                        d="M47.185 100.165C46.505 100.165 45.88 100 45.31 99.67C44.75 99.33 44.3 98.805 43.96 98.095C43.63 97.385 43.465 96.48 43.465 95.38C43.465 94.46 43.575 93.69 43.795 93.07C44.025 92.44 44.325 91.94 44.695 91.57C45.065 91.2 45.47 90.935 45.91 90.775C46.36 90.605 46.805 90.52 47.245 90.52C47.945 90.52 48.545 90.68 49.045 91C49.555 91.32 49.94 91.77 50.2 92.35L49.135 93.145L49.015 93.22L48.94 93.1C48.95 93.03 48.94 92.96 48.91 92.89C48.89 92.81 48.84 92.7 48.76 92.56C48.54 92.3 48.31 92.125 48.07 92.035C47.84 91.935 47.595 91.885 47.335 91.885C46.955 91.885 46.595 92.015 46.255 92.275C45.925 92.535 45.655 92.92 45.445 93.43C45.245 93.93 45.145 94.555 45.145 95.305C45.145 96.385 45.34 97.235 45.73 97.855C46.13 98.465 46.63 98.77 47.23 98.77C47.6 98.77 47.92 98.69 48.19 98.53C48.46 98.37 48.705 98.105 48.925 97.735L50.095 98.605C49.745 99.175 49.33 99.58 48.85 99.82C48.38 100.05 47.825 100.165 47.185 100.165ZM54.13 100.165C53.51 100.165 52.925 100.075 52.375 99.895C51.835 99.705 51.385 99.42 51.025 99.04L51.85 97.645L51.91 97.525L52.045 97.6C52.065 97.68 52.09 97.76 52.12 97.84C52.16 97.91 52.24 98 52.36 98.11C52.61 98.3 52.885 98.455 53.185 98.575C53.495 98.695 53.83 98.755 54.19 98.755C54.66 98.755 55.04 98.655 55.33 98.455C55.63 98.245 55.78 97.94 55.78 97.54C55.78 97.34 55.735 97.155 55.645 96.985C55.555 96.805 55.375 96.625 55.105 96.445C54.845 96.265 54.455 96.055 53.935 95.815C53.295 95.535 52.785 95.255 52.405 94.975C52.035 94.685 51.77 94.375 51.61 94.045C51.45 93.705 51.37 93.325 51.37 92.905C51.37 92.445 51.495 92.035 51.745 91.675C52.005 91.315 52.36 91.03 52.81 90.82C53.26 90.61 53.775 90.505 54.355 90.505C55.505 90.505 56.45 90.905 57.19 91.705L56.2 92.845L56.11 92.95L55.99 92.86C55.98 92.78 55.96 92.705 55.93 92.635C55.91 92.555 55.845 92.455 55.735 92.335C55.545 92.155 55.34 92.035 55.12 91.975C54.91 91.915 54.66 91.885 54.37 91.885C53.96 91.885 53.635 91.98 53.395 92.17C53.155 92.36 53.035 92.58 53.035 92.83C53.035 93.03 53.08 93.21 53.17 93.37C53.26 93.53 53.44 93.7 53.71 93.88C53.99 94.06 54.415 94.275 54.985 94.525C55.615 94.815 56.11 95.1 56.47 95.38C56.83 95.65 57.08 95.95 57.22 96.28C57.37 96.61 57.445 96.995 57.445 97.435C57.445 97.885 57.33 98.32 57.1 98.74C56.87 99.16 56.51 99.505 56.02 99.775C55.53 100.035 54.9 100.165 54.13 100.165ZM61.63 100.165C61.01 100.165 60.425 100.075 59.875 99.895C59.335 99.705 58.885 99.42 58.525 99.04L59.35 97.645L59.41 97.525L59.545 97.6C59.565 97.68 59.59 97.76 59.62 97.84C59.66 97.91 59.74 98 59.86 98.11C60.11 98.3 60.385 98.455 60.685 98.575C60.995 98.695 61.33 98.755 61.69 98.755C62.16 98.755 62.54 98.655 62.83 98.455C63.13 98.245 63.28 97.94 63.28 97.54C63.28 97.34 63.235 97.155 63.145 96.985C63.055 96.805 62.875 96.625 62.605 96.445C62.345 96.265 61.955 96.055 61.435 95.815C60.795 95.535 60.285 95.255 59.905 94.975C59.535 94.685 59.27 94.375 59.11 94.045C58.95 93.705 58.87 93.325 58.87 92.905C58.87 92.445 58.995 92.035 59.245 91.675C59.505 91.315 59.86 91.03 60.31 90.82C60.76 90.61 61.275 90.505 61.855 90.505C63.005 90.505 63.95 90.905 64.69 91.705L63.7 92.845L63.61 92.95L63.49 92.86C63.48 92.78 63.46 92.705 63.43 92.635C63.41 92.555 63.345 92.455 63.235 92.335C63.045 92.155 62.84 92.035 62.62 91.975C62.41 91.915 62.16 91.885 61.87 91.885C61.46 91.885 61.135 91.98 60.895 92.17C60.655 92.36 60.535 92.58 60.535 92.83C60.535 93.03 60.58 93.21 60.67 93.37C60.76 93.53 60.94 93.7 61.21 93.88C61.49 94.06 61.915 94.275 62.485 94.525C63.115 94.815 63.61 95.1 63.97 95.38C64.33 95.65 64.58 95.95 64.72 96.28C64.87 96.61 64.945 96.995 64.945 97.435C64.945 97.885 64.83 98.32 64.6 98.74C64.37 99.16 64.01 99.505 63.52 99.775C63.03 100.035 62.4 100.165 61.63 100.165Z"
                         class="secundaryTextColor" />
                </svg>