<svg width="109" height="110" viewBox="0 0 109 110" fill="none"
                                                        xmlns="http://www.w3.org/2000/svg">

                                                        <path
                                                            d="M13.2503 35.217C13.612 33.7706 15.6432 32.5625 16.7433 31.768C20.7802 28.8525 25.6711 26.7681 30.2897 24.9435C36.2371 22.5939 42.7918 20.9149 49.0609 19.6453C55.6543 18.3099 62.2514 17.3933 68.9622 16.8714C74.4798 16.4423 80.0476 16.5534 85.121 18.9995C87.2653 20.0333 89.4145 21.1453 91.3878 22.4778C93.3225 23.7841 95.8643 24.9985 97.141 27.0275C99.0343 30.0364 99.1437 34.751 99.1077 38.211C99.0764 41.215 96.8678 43.9438 94.8221 45.9895C92.4068 48.4049 89.0869 50.745 86.1043 52.3884C78.9221 56.346 71.6099 60.5654 63.5613 62.5446C59.597 63.5194 55.5839 64.7047 51.7174 65.9935C51.4974 66.0669 49.8331 66.5974 50.3965 67.0356C51.4971 67.8916 55.1918 67.0517 56.3405 66.9035C61.4573 66.2432 66.7 64.6221 71.6333 63.161C75.4087 62.0428 79.9348 60.8168 83.1397 58.4058C85.0508 56.9681 86.6019 54.624 88.0123 52.7113C89.417 50.8063 90.6064 48.9205 91.5053 46.7233C92.4913 44.313 93.2429 41.6917 92.9142 39.0622C92.5937 36.4984 91.9739 32.828 90.654 30.5792C89.2594 28.2032 85.7466 27.1679 83.2864 26.5579C77.6145 25.1514 71.5014 25.2529 65.704 25.5599C60.3834 25.8415 55.0385 26.4483 49.9268 27.9962C44.7077 29.5766 39.5341 31.353 34.3698 33.1036C30.3466 34.4674 26.316 35.8105 22.291 37.169C19.7078 38.0408 17.0931 38.688 14.7327 40.1042C11.8848 41.813 8.09067 46.2293 8.27502 49.732C8.36252 51.3945 9.78959 52.9696 10.7407 54.2377C12.4653 56.5372 15.2035 57.7868 17.8147 58.8461C22.1215 60.5932 26.7803 61.1302 31.3318 61.8988C37.2028 62.8903 43.2216 63.4158 49.1783 63.1023C55.7519 62.7563 62.3908 61.7382 68.7861 60.1963C75.3937 58.6033 82.4605 57.0257 88.4232 53.6506C91.5075 51.9048 95.3757 48.8676 94.7634 44.786C94.3746 42.1935 91.2331 40.341 89.2744 38.9742C84.8764 35.905 79.5893 35.5717 74.3925 35.9802C63.7438 36.8172 53.1279 39.5001 42.8968 42.4672C36.3208 44.3742 29.8794 46.6819 23.4505 49.0275C23.3601 49.0605 20.5081 49.85 21.748 50.3924C23.3375 51.0878 26.2097 50.5392 27.8534 50.5392C36.6689 50.5392 45.3421 50.0321 54.0656 48.69C59.6422 47.832 65.1888 46.6103 70.7674 45.8134C72.1642 45.6138 73.5677 45.5199 74.9796 45.5199C76.1713 45.5199 77.3696 45.5559 78.5606 45.5052C79.068 45.4836 80.377 44.9081 80.0723 45.3144C79.5534 46.0063 77.2489 46.738 76.5793 47.0756C73 48.88 69.3854 50.6035 65.6747 52.1243C56.9859 55.6853 47.9046 58.1565 38.8167 60.4605C38.4797 60.5459 28.6705 62.8628 28.8955 63.4251C29.0414 63.79 29.6839 63.5888 30.0109 63.8067C31.9684 65.1117 34.6797 65.7002 36.9088 66.3311C40.9341 67.4703 44.538 68.4831 48.7674 67.8574C55.3149 66.8889 61.3014 61.9618 66.1443 57.8187C70.6802 53.9384 75.1167 50.1542 80.087 46.8407"
                                                            stroke="#509D3C" stroke-width="16" stroke-linecap="round" />
                                                        <path
                                                            d="M79.9579 15.5795C70.46 13.663 63.5191 9.51591 53.4973 9.51591C39.5244 9.51591 29.2542 9.98551 18.5225 20.2115C9.57364 28.7386 5 40.9206 5 53.3087C5 66.5951 20.276 73.3325 31.1268 75.3736C57.8615 80.4025 104.362 75.1817 103.998 39.4971C103.737 14.0091 84.7177 8 63.4304 8"
                                                            class="secundaryColor" stroke-width="10" stroke-linecap="round" />
                                                        <path
                                                            d="M36.0684 31.3836C36.0684 34.9117 36.4429 38.3651 36.5926 41.8821C36.7284 45.0742 36.8867 48.1727 37.4953 51.3031C37.7125 52.4198 37.2549 55.1324 38.1215 56.05C40.0356 58.0767 43.8675 58.696 46.3776 59.632C47.4807 60.0433 48.7679 60.6132 49.9596 60.7386C50.4271 60.7878 52.2484 61.4448 52.6388 61.7288C53.4318 62.3054 53.3669 58.8602 53.3669 58.6273C53.3669 54.7783 53.3669 50.9293 53.3669 47.0804C53.3669 42.9353 53.3669 38.7903 53.3669 34.6452C53.3669 32.2326 53.256 29.9509 52.8281 27.5977C52.5573 26.1082 52.852 25.1728 51.0954 25.9377C47.8092 27.3688 45.1886 29.4409 42.417 31.6457C41.7096 32.2084 39.5539 34.2837 38.4855 34.1502C38.0064 34.0903 38.9457 33.2997 39.2135 32.8979C40.0063 31.7088 41.1615 30.3828 42.3587 29.6071C45.1673 27.7875 48.6013 26.5742 51.2555 24.5836C51.8553 24.1337 52.2568 23.8997 51.1973 24.336C48.409 25.4841 45.7446 26.8779 42.9266 27.9617C41.6713 28.4445 38.0623 29.3319 38.1797 31.0341C38.4042 34.2887 38.7521 37.4311 38.6748 40.7172C38.5934 44.1773 37.8403 48.0024 39.0825 51.3467C39.7713 53.2012 39.9376 52.4641 40.3202 50.7789C41.6046 45.1214 42.0184 39.2377 42.0966 33.4512C42.1117 32.3358 42.379 33.08 42.4898 33.757C42.8739 36.1044 42.8737 38.5061 42.8829 40.8774C42.9015 45.6435 42.8829 50.4101 42.8829 55.1763C42.8829 58.2504 42.8829 52.7592 42.8829 52.2787C42.8829 49.606 42.9831 46.9868 43.4071 44.3429C43.711 42.448 44.2701 40.5646 44.4264 38.6495C44.491 37.8583 44.6111 34.1921 45.1399 37.1206C46.1645 42.7952 46.3767 48.6057 47.7026 54.2153C47.7835 54.5575 48.4892 57.7788 48.3288 55.9335C47.8545 50.4798 48.7871 45.1672 49.115 39.7416C49.2607 37.3319 49.836 34.4859 49.4354 32.0825C49.2084 30.7204 49.2101 34.8371 49.1879 36.2178C49.1392 39.2351 49.1594 42.2571 49.1733 45.2748C49.1833 47.4365 49.3464 49.5817 49.4208 51.7399C49.4287 51.9679 49.6381 53.6049 49.4354 53.8076C49.3721 53.8708 49.3968 53.6328 49.3771 53.5455C49.2305 52.8936 49.1241 52.2438 49.0422 51.5797C48.7549 49.2492 48.5487 46.8925 48.4452 44.5467C48.2604 40.3577 48.2121 36.0596 48.6491 31.9078C48.6949 31.4724 49.0657 31.1469 49.1587 30.7283C49.352 29.8588 47.3419 30.6523 47.0619 30.7429C46.1473 31.0388 44.211 31.7044 43.8148 32.7232C43.336 33.9545 44.4656 34.9284 45.6204 35.0384C46.7847 35.1493 47.244 34.5287 48.2268 34.3103C48.3412 34.2849 48.3859 40.9304 48.3724 41.4889C48.2962 44.6513 47.7436 47.7653 47.6153 50.9099C47.5535 52.4237 47.2165 54.6244 47.9938 56.0063C48.1812 56.3394 48.7375 57.2695 48.62 57.1566C47.5197 56.1004 46.0212 55.8514 44.7176 55.1763C44.2354 54.9266 40.9059 52.9033 42.8247 53.196C44.344 53.4278 45.2638 54.6655 46.6106 55.1763C47.1899 55.3961 50.2007 56.9179 50.6876 55.7005C51.321 54.1172 51.4429 52.435 50.7459 51.041"
                                                            stroke="white" stroke-width="5" stroke-linecap="round" />
                                                        <path
                                                            d="M50.2217 55.4965C54.5276 55.1432 58.7767 54.9902 63.0936 54.9723C65.1391 54.9638 67.6776 55.1335 69.6607 54.4336C70.271 54.2182 69.8458 51.1483 69.8208 50.7205C69.6376 47.5853 69.1291 44.4946 68.8452 41.3723C68.5612 38.2479 68.9909 34.9108 68.3647 31.8494C68.1477 30.7883 68.0444 29.9818 68.0444 28.8789C68.0444 27.4408 64.8071 28.7632 63.9527 28.8935C61.444 29.2762 58.7776 29.5488 56.2354 29.5488C54.5815 29.5488 52.9079 30.0729 51.2701 30.0729"
                                                            stroke="white" stroke-width="5" stroke-linecap="round" />
                                                        <path
                                                            d="M57.8223 36.3638C58.0638 36.394 57.9958 36.4488 58.0844 36.6259"
                                                            stroke="white" stroke-width="3" stroke-linecap="round" />
                                                        <path d="M62.2783 36.1016H62.5404" stroke="white"
                                                            stroke-width="3" stroke-linecap="round" />
                                                        <path d="M58.3471 41.6057L58.085 41.0815" stroke="white"
                                                            stroke-width="3" stroke-linecap="round" />
                                                        <path d="M62.8027 41.0815V41.6057" stroke="white"
                                                            stroke-width="3" stroke-linecap="round" />
                                                        <path
                                                            d="M58.3476 47.8958C57.8904 47.8958 57.5947 47.6169 58.0855 47.3716"
                                                            stroke="white" stroke-width="3" stroke-linecap="round" />
                                                        <path
                                                            d="M63.3266 47.3716C63.2964 47.6131 63.2415 47.5452 63.0645 47.6337"
                                                            stroke="white" stroke-width="3" stroke-linecap="round" />
                                                        <path
                                                            d="M41.5723 35.5771C43.0445 37.6383 43.1184 40.4892 43.8001 42.9014C44.3965 45.0117 44.8012 47.0334 45.8678 48.9296C46.271 49.6465 46.4121 51.7572 47.0763 52.0894"
                                                            stroke="#509D3C" stroke-width="3" stroke-linecap="round" />
                                                        <path
                                                            d="M48.1249 35.5771C46.8228 39.3387 44.1984 42.5961 42.8829 46.3232C42.3298 47.8905 41.695 49.4155 40.7861 50.7789"
                                                            stroke="#509D3C" stroke-width="3" stroke-linecap="round" />
                                                        <path
                                                            d="M35.765 100V90.655H41.855V92.035H37.415V94.435H41.06V95.83H37.415V98.62H41.81V100H35.765ZM42.92 100L45.335 96.505L42.95 93.025H44.735L46.235 95.185L47.63 93.025H49.34L47.135 96.445L49.64 100H47.81L46.235 97.78L44.735 100H42.92ZM54.17 100.18C53.49 100.18 52.88 100.025 52.34 99.715C51.8 99.405 51.37 98.98 51.05 98.44C50.74 97.89 50.585 97.265 50.585 96.565C50.585 95.875 50.74 95.25 51.05 94.69C51.37 94.13 51.8 93.685 52.34 93.355C52.88 93.025 53.495 92.86 54.185 92.86C54.825 92.86 55.385 92.98 55.865 93.22C56.345 93.46 56.725 93.79 57.005 94.21L56.06 95.245L55.97 95.35L55.85 95.26C55.85 95.17 55.84 95.09 55.82 95.02C55.8 94.94 55.735 94.835 55.625 94.705C55.435 94.525 55.22 94.4 54.98 94.33C54.75 94.26 54.49 94.225 54.2 94.225C53.87 94.225 53.56 94.315 53.27 94.495C52.98 94.675 52.745 94.94 52.565 95.29C52.395 95.64 52.31 96.065 52.31 96.565C52.31 97.015 52.4 97.41 52.58 97.75C52.76 98.08 52.995 98.34 53.285 98.53C53.585 98.71 53.905 98.8 54.245 98.8C54.555 98.8 54.86 98.735 55.16 98.605C55.46 98.475 55.74 98.25 56 97.93L56.945 99.01C56.575 99.42 56.145 99.72 55.655 99.91C55.165 100.09 54.67 100.18 54.17 100.18ZM61.565 100.165C60.895 100.165 60.295 100.025 59.765 99.745C59.245 99.465 58.835 99.055 58.535 98.515C58.235 97.975 58.085 97.325 58.085 96.565C58.085 95.785 58.23 95.12 58.52 94.57C58.82 94.02 59.215 93.6 59.705 93.31C60.205 93.01 60.76 92.86 61.37 92.86C61.91 92.86 62.405 92.985 62.855 93.235C63.315 93.485 63.68 93.865 63.95 94.375C64.23 94.875 64.37 95.5 64.37 96.25C64.37 96.35 64.365 96.47 64.355 96.61C64.355 96.75 64.35 96.87 64.34 96.97H59.72C59.74 97.41 59.845 97.77 60.035 98.05C60.225 98.32 60.46 98.52 60.74 98.65C61.02 98.78 61.32 98.845 61.64 98.845C61.95 98.845 62.245 98.795 62.525 98.695C62.805 98.595 63.065 98.425 63.305 98.185L64.175 99.025C63.835 99.425 63.445 99.715 63.005 99.895C62.565 100.075 62.085 100.165 61.565 100.165ZM59.75 95.695H62.72C62.72 95.205 62.595 94.83 62.345 94.57C62.095 94.31 61.745 94.18 61.295 94.18C60.905 94.18 60.565 94.305 60.275 94.555C59.985 94.795 59.81 95.175 59.75 95.695ZM65.945 100V98.665H67.91V91.27H66.035V89.935H69.62V98.665H71.57V100H65.945Z"
                                                             class="secundaryTextColor" />
                                                    </svg>