 <svg width="109" height="110" viewBox="0 0 109 110" fill="none"
                            xmlns="http://www.w3.org/2000/svg">
                            xmlns="http://www.w3.org/2000/svg">
                            <path
                                d="M56.4503 5.06258C47.2355 5.06258 36.6953 4.04222 29.1079 10.2417C19.9093 17.7576 11.1889 28.1386 10.1015 40.3975C7.73231 67.1064 47.3839 91.5332 71.4554 83.4176C93.689 75.9216 94.951 36.2921 80.4584 21.7694C68.7824 10.0693 60.1655 9.57343 44.4463 9.57343"
                                class="secundaryColor" stroke-width="10" stroke-linecap="round" />
                            <path
                                d="M50.8971 28.4806C48.3536 28.2989 46.1049 27.785 43.5161 27.785C42.0837 27.785 40.9717 27.5836 40.0381 28.8284C39.1836 29.9678 38.2396 31.7193 38.048 33.1565C37.2752 38.9524 46.0437 38.1828 49.6991 37.8904C49.8865 37.8754 53.1272 37.8527 52.9259 37.3494C52.8174 37.0782 50.5526 37.744 50.2788 37.7938C47.8139 38.2419 45.1274 38.0178 43.4581 35.9775C42.5367 34.8513 41.6568 31.7803 42.55 30.4901C43.8836 28.5637 48.1878 28.0224 50.3367 28.4999C50.6398 28.5673 50.8392 28.9807 51.1676 29.0989C51.3083 29.1495 51.9018 29.1162 51.9018 29.3501C51.9018 29.5732 49.441 29.6149 49.1194 29.7172C48.0544 30.056 40.657 30.7612 43.5934 33.6975C45.1951 35.2992 48.3988 35.0671 50.472 35.0887C53.6584 35.1219 52.1405 35.6396 50.9164 34.7216C48.9728 33.2639 49.9946 31.066 51.6699 29.949C51.871 29.815 51.9404 32.9679 51.9404 33.2724C51.9404 34.2692 52.0473 35.7219 52.4621 36.6344C52.6296 37.0028 52.9609 33.3525 53.1577 32.4995C53.2856 31.9455 54.4477 29.8757 53.9499 29.2535C52.773 27.7824 53.6794 31.3473 53.6794 32.1518C53.6794 33.7104 53.6794 35.269 53.6794 36.8277"
                                stroke="#D24D4D" stroke-width="4" stroke-linecap="round" />
                            <path
                                d="M40.3706 49.3677C38.8433 48.753 38.965 47.5433 38.965 46.1953C38.965 44.6019 41.4061 44.1461 42.8304 43.8077C44.7649 43.3482 47.8948 43.3855 49.8193 43.791C50.0057 43.8303 52.8398 44.5804 52.5915 44.7928C52.5889 44.795 51.619 44.2673 51.342 44.2585C47.3667 44.1326 45.0424 43.5795 41.4443 45.3104C39.636 46.1804 38.8257 49.373 40.8001 50.4362C44.3184 52.3309 48.8901 52.0725 52.8452 52.0725C55.5114 52.0725 46.8241 52.6497 44.9388 51.0373C43.7396 50.0117 43.5332 48.7651 43.5332 47.3975C43.5332 45.5207 48.6779 45.6162 50.1902 45.7779C52.3106 46.0046 50.7691 46.8997 50.2098 47.6312C49.5534 48.4898 49.4422 49.5733 49.507 50.5698C49.6284 52.4395 51.7371 48.2308 51.9472 47.7815C52.4045 46.8039 52.2901 50.6252 51.0883 50.8537C49.6668 51.1238 47.5343 48.5357 46.3444 47.9986C45.2965 47.5256 44.3265 47.5644 43.1818 47.5644C40.6178 47.5644 37.4844 47.6179 38.2817 50.6867C38.8008 52.6843 44.1849 52.373 45.8368 52.373C46.8129 52.373 49.7412 52.373 48.7651 52.373C47.4086 52.373 45.9508 52.5 44.6069 52.3563C41.5178 52.0261 39.3164 49.1617 39.3164 46.7296C39.3164 45.8202 39.0415 44.7942 39.8435 44.1083C41.1783 42.9667 43.1163 42.7559 44.9388 42.7559C46.5205 42.7559 47.9916 42.9882 49.507 43.0564C50.1705 43.0863 52.0776 43.246 52.3182 43.6575"
                                stroke="#984DD2" stroke-width="4" stroke-linecap="round" />
                            <path
                                d="M46.1296 58.4459C44.5326 58.7212 42.3647 59.7143 41.7688 60.9689C40.8911 62.8169 43.3309 64.2535 45.4088 64.5263C47.8252 64.8435 50.5523 64.4582 51.4633 62.5344C51.77 61.8868 52.1933 60.7809 51.8237 60.1093C51.397 59.3336 50.0712 58.7061 49.1208 58.404C46.6806 57.6282 43.8334 57.7473 42.2463 59.5292C40.9606 60.9727 39.7243 62.8228 41.6967 64.2816C43.392 65.5355 46.3801 66.0442 48.4721 65.1762C50.4398 64.3598 51.0917 62.9293 50.7245 61.2205C49.8187 57.0044 42.181 57.5353 40.0389 60.7662C37.6648 64.3471 44.2652 66.5684 48.0036 65.938C51.9224 65.2772 53.1195 58.9864 48.364 58.9491C46.0708 58.9311 43.5164 59.4992 42.0751 60.9899C41.4183 61.6692 40.7958 62.4051 40.7958 63.2822C40.7958 64.3618 42.6618 65.1708 43.769 65.5606C45.4518 66.1531 48.0038 66.8144 49.274 65.3579C50.2501 64.2386 50.2347 61.5782 48.8595 60.6684C47.3536 59.672 44.911 60.4006 43.814 61.4721C42.7476 62.5138 43.0172 64.4144 44.1114 65.351C45.3071 66.3745 47.6726 66.2322 48.382 64.9176C49.0521 63.6759 48.9762 61.6852 47.2558 60.9829C45.6741 60.3371 42.8643 60.5691 41.5256 61.4721C40.8971 61.896 40.2138 62.9574 40.138 63.6037C40.0211 64.6019 40.7233 64.9241 41.913 65.2112C43.4176 65.5743 45.975 66.1496 46.8143 64.708C47.4668 63.5872 48.7075 60.9015 46.7783 60.1093C44.9171 59.345 44.1616 61.1022 43.8591 62.2479C43.5256 63.511 43.5668 64.7727 45.2286 65.3649C46.3613 65.7686 47.785 65.3575 48.8865 65.1133"
                                stroke="#509D3C" stroke-width="4" stroke-linecap="round" />
                            <path
                                d="M42.2998 57.4877C42.2998 54.8167 48.218 55.2659 50.308 55.2659C50.791 55.2659 51.9916 55.0802 52.4338 55.2804C52.6164 55.3631 52.6861 56.5238 52.6903 56.7035C52.722 58.0599 52.9599 59.3876 53.0202 60.7261C53.0354 61.0627 53.1851 62.8819 53.1851 61.699C53.1851 60.25 53.3501 58.8318 53.3501 57.3861C53.3501 56.797 53.0596 56.32 53.0202 55.7887C52.9825 55.2814 52.1963 55.8383 52.0031 55.9194C51.0259 56.3293 49.8136 56.5321 48.732 56.7035"
                                stroke="#509D3C" stroke-width="2" stroke-linecap="round" />
                            <path d="M55.2158 25L54.7302 69" stroke="#D9D9D9" stroke-width="2" stroke-linecap="round" />
                            <path
                                d="M57.7009 32.7746C57.1021 32.101 57.8655 29.3417 57.3656 30.0916C56.3354 31.6368 56.1123 33.2853 56.1123 35.1576C56.1123 38.4026 57.914 38.176 60.8782 38.176C62.1894 38.176 65.7514 37.8633 66.2796 36.4108C66.7003 35.254 67.0834 32.943 66.1207 31.9803C65.2907 31.1503 63.7733 30.1446 62.6081 29.9327C61.543 29.7391 57.1778 28.8215 56.43 29.7562C56.2206 30.018 56.1527 29.6326 56.8184 29.4208C58.2175 28.9757 59.9952 28.6481 61.3725 29.3502C63.1882 30.2759 63.7621 33.8081 63.0317 35.6342C62.3497 37.3392 60.2585 37.2228 58.6718 37.2228C56.3116 37.2228 60.4854 36.9051 61.1959 36.9051C64.471 36.9051 65.6636 29.4646 62.1491 29.2796C61.1738 29.2283 59.8445 29.0647 58.9719 29.5267C58.2257 29.9218 57.6179 30.5921 57.0655 30.8683"
                                stroke="#DB8983" stroke-width="4" stroke-linecap="round" />
                            <path
                                d="M60.562 43.7992C57.9035 43.8798 54.9551 48.0374 58.1275 49.7118C60.6807 51.0593 64.2085 50.2213 65.4312 47.4704C66.7561 44.4893 65.1117 42.7559 62.3783 42.7559C59.8567 42.7559 57.2453 46.1877 59.2481 48.5911C60.1219 49.6396 62.8011 50.9506 64.04 49.7118C64.7067 49.045 64.3878 47.5631 64.3878 46.7169C64.3878 44.9986 64.3832 44.4948 62.7261 44.4948C61.4208 44.4948 58.5918 43.9922 57.4319 44.5721C55.598 45.4891 55.988 47.9505 56.7363 49.364C57.739 51.258 60.1672 51.1029 62.0305 51.1029C64.8844 51.1029 64.7911 48.6983 64.7356 46.3111C64.696 44.6082 62.0474 43.4514 60.562 43.4514C58.3281 43.4514 57.9874 44.2721 57.1614 46.2338C55.3644 50.5015 61.8143 53.5577 65.1607 51.4507C66.8048 50.4155 66.8342 45.4936 65.0834 44.5721C63.4308 43.7023 62.8145 43.1037 60.9098 43.1037"
                                stroke="#5AC3E4" stroke-width="4" stroke-linecap="round" />
                            <path
                                d="M31.99 108V98.655H37.81V100.02H33.505V102.285H37V103.65H33.505V108H31.99ZM39.76 108V106.665H41.47V102.36H39.85V101.025H43.18V106.665H44.74V108H39.76ZM42.25 99.87C41.95 99.87 41.695 99.77 41.485 99.57C41.285 99.37 41.185 99.13 41.185 98.85C41.185 98.56 41.285 98.32 41.485 98.13C41.685 97.93 41.94 97.83 42.25 97.83C42.53 97.83 42.775 97.93 42.985 98.13C43.205 98.33 43.315 98.57 43.315 98.85C43.315 99.13 43.205 99.37 42.985 99.57C42.775 99.77 42.53 99.87 42.25 99.87ZM49.45 105.645C49.1 105.645 48.765 105.59 48.445 105.48C48.355 105.56 48.28 105.635 48.22 105.705C48.16 105.765 48.13 105.85 48.13 105.96C48.13 106.14 48.31 106.275 48.67 106.365C49.03 106.455 49.645 106.5 50.515 106.5C51.115 106.5 51.585 106.585 51.925 106.755C52.265 106.925 52.51 107.155 52.66 107.445C52.81 107.725 52.885 108.03 52.885 108.36C52.885 108.75 52.765 109.12 52.525 109.47C52.295 109.83 51.935 110.12 51.445 110.34C50.965 110.57 50.345 110.685 49.585 110.685C48.595 110.685 47.82 110.515 47.26 110.175C46.7 109.845 46.42 109.4 46.42 108.84C46.42 108.54 46.515 108.26 46.705 108C46.905 107.75 47.15 107.55 47.44 107.4C47.25 107.28 47.1 107.14 46.99 106.98C46.89 106.81 46.84 106.615 46.84 106.395C46.84 106.105 46.92 105.85 47.08 105.63C47.24 105.41 47.435 105.205 47.665 105.015C47.415 104.805 47.215 104.55 47.065 104.25C46.925 103.94 46.855 103.605 46.855 103.245C46.855 102.795 46.965 102.39 47.185 102.03C47.415 101.66 47.725 101.365 48.115 101.145C48.505 100.925 48.95 100.815 49.45 100.815C49.77 100.815 50.075 100.865 50.365 100.965C50.655 101.065 50.91 101.205 51.13 101.385C51.4 101.195 51.7 101.05 52.03 100.95C52.36 100.85 52.715 100.815 53.095 100.845L53.26 102.015C53 101.965 52.74 101.955 52.48 101.985C52.23 102.015 52 102.085 51.79 102.195C51.95 102.525 52.03 102.875 52.03 103.245C52.03 103.705 51.915 104.115 51.685 104.475C51.465 104.835 51.16 105.12 50.77 105.33C50.38 105.54 49.94 105.645 49.45 105.645ZM49.435 104.415C49.775 104.415 50.055 104.305 50.275 104.085C50.495 103.865 50.605 103.585 50.605 103.245C50.605 102.915 50.49 102.645 50.26 102.435C50.04 102.215 49.765 102.105 49.435 102.105C49.135 102.105 48.865 102.215 48.625 102.435C48.395 102.655 48.28 102.925 48.28 103.245C48.28 103.565 48.39 103.84 48.61 104.07C48.84 104.3 49.115 104.415 49.435 104.415ZM47.725 108.585C47.725 108.855 47.91 109.05 48.28 109.17C48.66 109.3 49.14 109.365 49.72 109.365C50.29 109.365 50.725 109.29 51.025 109.14C51.335 108.99 51.49 108.79 51.49 108.54C51.49 108.31 51.39 108.145 51.19 108.045C51 107.955 50.62 107.91 50.05 107.91C49.74 107.91 49.435 107.895 49.135 107.865C48.835 107.835 48.555 107.79 48.295 107.73C48.135 107.85 48 107.975 47.89 108.105C47.78 108.235 47.725 108.395 47.725 108.585ZM53.95 108V101.025H55.375V101.535C55.545 101.295 55.735 101.125 55.945 101.025C56.155 100.915 56.37 100.86 56.59 100.86C56.84 100.86 57.07 100.925 57.28 101.055C57.5 101.185 57.665 101.4 57.775 101.7C58.085 101.14 58.575 100.86 59.245 100.86C59.755 100.86 60.12 101.04 60.34 101.4C60.57 101.75 60.68 102.235 60.67 102.855V108H59.2V103.215C59.2 102.765 59.165 102.465 59.095 102.315C59.025 102.155 58.92 102.075 58.78 102.075C58.58 102.075 58.4 102.21 58.24 102.48C58.08 102.74 58 103.09 58 103.53V108H56.62V103.26C56.62 102.78 56.585 102.46 56.515 102.3C56.445 102.14 56.315 102.06 56.125 102.06C55.945 102.06 55.78 102.18 55.63 102.42C55.49 102.65 55.42 102.99 55.42 103.44V108H53.95ZM63.97 108.18C63.2 108.18 62.6 108 62.17 107.64C61.75 107.28 61.54 106.805 61.54 106.215C61.54 105.475 61.87 104.865 62.53 104.385C63.2 103.895 64.17 103.65 65.44 103.65C65.51 103.65 65.6 103.65 65.71 103.65C65.83 103.65 65.955 103.655 66.085 103.665C66.015 103.085 65.85 102.695 65.59 102.495C65.33 102.285 64.98 102.18 64.54 102.18C64.22 102.18 63.92 102.235 63.64 102.345C63.36 102.445 63.08 102.635 62.8 102.915L61.87 101.895C62.27 101.525 62.705 101.26 63.175 101.1C63.645 100.94 64.125 100.86 64.615 100.86C65.195 100.86 65.725 100.955 66.205 101.145C66.685 101.325 67.065 101.645 67.345 102.105C67.625 102.555 67.765 103.18 67.765 103.98V108H66.01V107.25C65.75 107.6 65.45 107.845 65.11 107.985C64.77 108.115 64.39 108.18 63.97 108.18ZM63.235 106.005C63.235 106.325 63.335 106.55 63.535 106.68C63.745 106.8 64 106.86 64.3 106.86C64.84 106.86 65.26 106.7 65.56 106.38C65.86 106.05 66.04 105.535 66.1 104.835C65.97 104.835 65.845 104.835 65.725 104.835C65.605 104.825 65.5 104.82 65.41 104.82C64.61 104.82 64.045 104.93 63.715 105.15C63.395 105.37 63.235 105.655 63.235 106.005Z"
                                 class="secundaryTextColor" />
                        </svg>