 <svg width="109" height="110" viewBox="0 0 109 110" fill="none" xmlns="http://www.w3.org/2000/svg">
                        <path
                            d="M59.9993 13.9604C56.1297 28.3554 56.2603 43.9996 56.2603 58.8587C56.2603 60.6293 56.2603 62.4 56.2603 64.1706C56.2603 65.7729 57.1605 66.8318 57.3583 68.4141C57.8743 72.5421 61.1093 73.2511 64.5396 73.2511C70.2762 73.2511 73.6218 69.9679 78.2791 66.96C82.299 64.3639 85.0121 61.8032 87.9829 58.0575C91.6581 53.4235 93.5508 45.2901 91.2471 39.659C89.6045 35.6436 87.9776 30.1874 84.867 27.0768C81.5793 23.7891 78.6681 22.3714 74.1543 21.2012C73.6876 21.0801 69.0169 20.828 71.3055 20.3703C75.6096 19.5094 79.1554 19.8876 82.9678 22.2101C89.9631 26.4716 95.0652 31.9468 94.7191 40.2525C94.3913 48.1193 83.2709 53.5488 77.5076 56.6925C73.682 58.7791 69.3062 61.5109 64.866 62.0043C61.5173 62.3764 62.599 57.9853 62.6701 55.6835C62.8384 50.2304 64.3052 45.2009 66.3201 40.1635C66.6385 39.3674 69.7132 32.2857 69.8514 32.537C71.0237 34.6684 70.9845 37.1395 72.4035 39.3029C74.5329 42.5494 76.7253 45.8001 79.4068 48.6209C80.5728 49.8474 81.4221 51.0881 82.4633 52.3896C82.7065 52.6935 84.5591 55.1107 83.4129 53.6063C79.1424 48.0012 74.3441 42.0904 68.3677 38.2346C66.862 37.2632 67.8581 37.4631 69.1392 37.4631C71.4341 37.4631 73.729 37.4631 76.0238 37.4631C76.8135 37.4631 80.032 36.9612 80.5938 37.7005C82.0015 39.5526 78.4906 46.1092 77.745 47.79C76.9366 49.6124 76.3247 51.9211 75.2523 53.6063C74.9636 54.0599 75.8447 50.7126 76.1425 50.2233C78.1686 46.8948 82.0049 43.9852 82.9678 40.1338"
                            stroke="#FC8732" stroke-width="14" stroke-linecap="round" />
                        <path
                            d="M71.2173 28.3823C70.0269 28.3823 63.8929 26.4571 65.9945 26.8392C69.7445 27.5211 76.9123 30.6919 78.6954 34.258"
                            stroke="#FC8732" stroke-width="14" stroke-linecap="round" />
                        <path
                            d="M49.3173 12.8921C46.3806 33.082 46.1124 53.9596 46.1124 74.3194C46.1124 79.0844 29.4033 69.8524 28.1887 68.9778C24.6257 66.4125 21.3128 63.8234 19.672 59.6302C17.2644 53.4776 18.0063 46.2547 20.5919 40.2524C23.2083 34.1788 29.1027 28.608 34.8953 25.7117C37.5897 24.3645 41.1517 23.3937 43.5901 21.7056C43.9704 21.4423 45.0365 19.5668 44.2132 19.3316C39.0843 17.8662 32.6737 22.4297 28.7229 24.9105C23.1215 28.4276 17.1411 33.0636 14.8943 39.5996C12.7928 45.7131 14.4682 51.5679 17.0012 57.1969C19.4905 62.7286 22.6874 64.6665 28.3668 65.6542C35.6629 66.9231 37.6679 63.2131 37.566 56.3363C37.4728 50.0454 35.8479 44.1767 34.6579 38.0565C34.1874 35.637 34.0435 32.8361 35.6965 30.8158C38.4894 27.4022 34.8654 35.3427 34.6579 35.8012C32.8186 39.8647 30.8879 43.8861 28.8416 47.8492C27.7793 49.9065 26.5532 51.871 26.3785 54.2294C26.2727 55.658 25.7207 58.9376 26.3489 60.194C26.5715 60.6393 27.8781 58.5876 27.9513 58.2948"
                            stroke="#DA611D" stroke-width="14" stroke-linecap="round" />
                        <path
                            d="M79.9579 15.5795C70.46 13.663 63.5191 9.51591 53.4973 9.51591C39.5244 9.51591 29.2542 9.98551 18.5225 20.2115C9.57364 28.7386 5 40.9206 5 53.3087C5 66.5951 20.276 73.3325 31.1268 75.3736C57.8615 80.4025 104.362 75.1817 103.998 39.4971C103.737 14.0091 84.7177 8 63.4304 8"
                            class="secundaryColor" stroke-width="10" stroke-linecap="round" />
                        <path d="M40.3027 25.6294C48.7576 25.6294 57.1972 26.2961 65.6391 26.2961" stroke="white"
                            stroke-width="7" stroke-linecap="square" />
                        <path
                            d="M38.1758 25.9385C38.1093 29.5894 37.5173 33.485 37.8421 37.1257C37.9785 38.6541 38.0533 40.2052 37.824 41.7303"
                            stroke="white" stroke-width="7" stroke-linecap="square" />
                        <path d="M41.6367 41.631C48.9591 41.5384 56.395 41.631 63.6394 41.631" stroke="white"
                            stroke-width="7" stroke-linecap="square" />
                        <path d="M63.6389 42.9648C63.2267 47.0412 62.6812 51.0046 61.6387 54.9663" stroke="white"
                            stroke-width="7" stroke-linecap="square" />
                        <path d="M60.9724 56.6328C58.0827 57.897 55.2812 59.2494 52.3047 60.2999" stroke="white"
                            stroke-width="7" stroke-linecap="square" />
                        <path
                            d="M40.6357 55.9663C43.8455 57.5901 47.0578 59.1701 50.3036 60.7076C50.8015 60.9435 51.411 60.8481 51.6371 61.3003"
                            stroke="white" stroke-width="7" stroke-linecap="square" />
                        <path d="M39.3027 52.2993V55.633" stroke="white" stroke-width="7" stroke-linecap="square" />
                        <path
                            d="M39.57 90.655H41.415V90.79C41.355 90.85 41.315 90.92 41.295 91C41.285 91.07 41.28 91.185 41.28 91.345V94.45H44.16V90.655H46.005V90.79C45.945 90.85 45.91 90.92 45.9 91C45.89 91.07 45.885 91.185 45.885 91.345V100H44.16V95.8H41.28V100H39.57V90.655ZM49.365 100V92.08H46.845V90.655H53.64V92.08H50.985V100H49.365ZM54.48 100V90.655H55.965L57.78 94.945L59.595 90.64H61.08V100H59.61V93.475L58.14 96.91H57.315L55.935 93.49V100H54.48ZM62.355 90.655H64.2V90.79C64.14 90.85 64.1 90.92 64.08 91C64.07 91.07 64.065 91.185 64.065 91.345V98.62H68.355V100H62.355V90.655Z"
                             class="secundaryTextColor" />
                    </svg>