<svg width="109" height="110" viewBox="0 0 109 110" fill="none"
                                xmlns="http://www.w3.org/2000/svg">
                                xmlns="http://www.w3.org/2000/svg">
                                <path
                                    d="M59.1589 19.4365C64.3756 20.2391 68.0997 21.1676 72.171 24.8318C76.3411 28.5848 78.3557 33.1995 80.264 38.2882C82.5962 44.5074 81.6426 51.2053 77.6933 56.2831C76.6488 57.6259 75.8304 58.6076 75.1861 60.2185C75.154 60.2985 75.3335 58.8473 75.4082 58.5999C76.2734 55.7338 76.2968 53.155 76.2968 50.1579C76.2968 46.3691 75.5927 35.1476 76.6142 38.796C78.3404 44.961 80.1491 51.9743 79.5975 58.4095C79.1685 63.4145 77.3513 68.4117 74.583 72.5641C72.9135 75.0685 71.4096 75.3039 68.9339 76.8169C68.1254 77.3109 67.734 78.1048 68.68 76.9438C71.4595 73.5326 73.7614 69.6336 75.1543 65.455C77.014 59.8759 78.5819 52.6353 78.5819 46.6668C78.5819 45.2281 78.604 49.5444 78.5819 50.983C78.5033 56.0915 77.5527 61.0193 75.4717 65.7089C73.1059 71.0403 69.8912 77.1342 63.5069 77.1342C59.0438 77.1342 65.8047 61.7686 66.3949 60.4406C68.7539 55.1328 71.4241 49.5115 74.9956 44.8895C78.1929 40.7519 75.9199 47.9844 75.4717 49.1423C73.0033 55.5188 69.3071 61.6549 65.5698 67.3593C64.1096 69.588 60.879 75.4646 57.8894 76.1821C55.8561 76.6701 58.1343 67.866 58.2703 67.3593C60.4158 59.3625 64.204 52.2368 68.4896 45.2069C69.9395 42.8285 74.0492 35.5776 72.9327 38.1296C70.4992 43.692 68.238 49.3998 65.3793 54.7597C62.7869 59.6206 59.7744 64.2864 56.5565 68.7557C54.2985 71.8918 53.9651 71.8154 54.8427 67.8036C56.3069 61.11 57.8996 54.3421 60.6188 48.0315C60.8564 47.48 66.9008 36.2032 65.1255 40.5733C62.437 47.1909 58.1071 53.1264 53.8271 58.7903C53.4623 59.2731 44.729 69.1572 44.6869 69.0731C44.2979 68.2951 45.1809 67.4019 45.512 66.5976C47.1867 62.5305 49.0146 58.5077 50.9708 54.5693C53.06 50.363 55.2936 46.1682 57.9529 42.2871C58.2458 41.8596 60.7464 38.1084 59.9841 41.4302C58.5366 47.7369 54.7999 53.9196 51.5421 59.425C49.7386 62.4727 47.6166 66.8114 45.0042 69.327C44.0335 70.2618 44.9103 66.5797 45.3216 65.2964C47.1673 59.5378 49.0433 53.7313 51.4786 48.1902C53.6273 43.3011 53.4088 46.1845 52.7481 49.7453C51.5621 56.136 49.8939 62.4991 48.3684 68.8192C47.7727 71.2869 47.1871 73.1176 44.1791 71.739C37.7984 68.8145 32.0877 60.4094 28.3424 54.7914C25.8313 51.0248 24.4307 47.1048 23.1693 42.7949C22.7051 41.2089 22.0267 36.3184 22.0267 37.9709C22.0267 45.3358 25.5042 52.1526 30.3418 57.5843C33.9256 61.6083 42.1582 66.7467 47.7336 63.17C48.7964 62.4882 49.6014 61.36 49.4157 60.0598C49.2157 58.6599 45.3906 59.6752 44.6869 59.7741C37.4432 60.7928 28.0523 63.9472 26.1208 54.4106C25.3126 50.4203 25.0396 45.3351 27.422 41.7793C28.3488 40.396 31.2576 37.8529 32.5634 40.0655C36.605 46.9137 34.8897 56.4838 35.1975 64.0269C35.5235 72.0119 41.4878 55.2797 41.7671 53.7124C41.9835 52.4983 43.6892 45.8823 41.894 44.9847C40.1079 44.0917 37.113 46.2301 35.991 47.365C33.7318 49.6501 31.8449 53.5261 31.6747 56.7591C31.4097 61.7952 37.9697 62.2617 41.6084 62.44C53.8059 63.038 67.8147 56.4075 69.759 43.2392C70.3648 39.1365 70.3904 34.5125 66.5219 32.2265C65.7084 31.7458 58.787 26.8732 60.7775 30.3858C64.4599 36.8841 74.593 37.1381 79.0262 42.8584C79.7671 43.8143 79.5041 45.1806 78.5819 45.9051C77.0595 47.1013 77.1956 42.8466 77.0585 42.2236C74.7593 31.7727 65.2856 28.0089 56.1122 24.8318C47.6173 21.8897 35.4703 18.8432 26.7238 22.9911C20.7419 25.8278 20.2173 31.1437 18.6309 36.8284C18.0425 38.9368 16.5677 43.6827 17.4566 45.9051C18.0488 47.3857 18.8064 43.0152 19.5195 41.5889C21.3691 37.8897 23.3722 34.3076 25.4543 30.7349C27.3299 27.5166 29.0515 24.1865 31.0717 21.0551C32.3068 19.1408 32.0417 20.1089 30.7861 21.2138C23.5855 27.5503 12.8114 38.9181 13.4895 49.4279C13.8768 55.4307 19.768 59.1996 23.8675 62.8526C28.7987 67.2468 34.5948 69.9439 39.9581 73.6749C41.4637 74.7223 42.1945 74.9019 43.9887 74.8492C48.4336 74.7184 44.3769 73.0947 42.7827 71.8342C36.5864 66.9348 30.4962 61.7522 24.4387 56.6639C22.8898 55.3628 21.4664 53.9542 19.9956 52.5699C18.8237 51.4669 21.4449 55.4491 22.0267 56.9496C27.5133 71.099 40.7173 79.0957 55.6044 79.4193C64.2427 79.6071 74.4217 78.1897 77.4394 69.1365"
                                    stroke="#FFD704" stroke-width="10" stroke-linecap="round" />
                                <path
                                    d="M56.4503 5.06258C47.2355 5.06258 36.6953 4.04222 29.1079 10.2417C19.9093 17.7576 11.1889 28.1386 10.1015 40.3975C7.73231 67.1064 47.3839 91.5332 71.4554 83.4176C93.689 75.9216 94.951 36.2921 80.4584 21.7694C68.7824 10.0693 60.1655 9.57343 44.4463 9.57343"
                                    class="secundaryColor" stroke-width="10" stroke-linecap="round" />
                                <path
                                    d="M42.5918 46.8571C44.3374 42.5326 46.3471 34.5386 52.3033 34.8605C56.4166 35.0829 56.0803 42.5785 55.6674 45.3654C55.3197 47.7122 52.7238 49.4728 52.0177 46.4127C51.4966 44.1546 50.8621 41.4209 51.4147 39.1133C51.5863 38.3966 53.3236 35.4579 54.4614 36.6378C58.4455 40.7694 53.402 47.5992 49.32 48.8882C42.6398 50.9978 35.9328 44.628 39.5133 37.8438C43.8028 29.7164 50.2052 45.7145 42.5918 45.7145"
                                    stroke="#D9C513" stroke-width="5" stroke-linecap="round" />
                                <path d="M45.4492 43.4294C45.6507 39.8023 50.0193 38.6427 50.0193 42.8582"
                                    stroke="#D9C513" stroke-width="5" stroke-linecap="round" />
                                <path
                                    d="M36.3083 38.2879C36.3083 30.6023 51.3866 30.9711 53.0337 38.3196C53.9041 42.203 53.1919 46.8711 48.8761 48.1898C42.9199 50.0097 40.8625 40.0855 40.1167 36.1297C39.1551 31.0291 46.8172 31.6238 50.0187 32.3848C57.3751 34.1334 57.3396 44.8635 49.7648 46.3173C40.088 48.1744 29.6436 44.4365 29.6436 33.4321C29.6436 24.149 42.5425 27.7204 46.845 30.9884C50.8985 34.0673 52.3253 40.4209 46.1467 41.4615C39.9608 42.5034 35.7003 34.8013 35.9909 29.4967C36.3501 22.9419 44.8683 19.7262 50.4312 21.9116C55.0947 23.7437 56.7257 31.2824 51.4785 33.4638C46.5919 35.4954 40.7929 34.0434 37.2604 30.2902C34.3647 27.2134 31.3619 21.7446 36.7844 19.5313C42.9308 17.0226 50.3172 18.9369 54.9696 23.4032C59.2318 27.495 58.0278 30.6446 52.1133 31.1788C45.2847 31.7956 37.3312 28.4754 32.3729 23.8158C28.2514 19.9426 32.2043 18.249 36.467 17.5002C40.0211 16.8758 43.6881 16.7027 47.2893 16.6115C49.0162 16.5678 52.3208 16.0456 53.8271 17.278C57.7834 20.515 49.1589 25.9683 46.9084 26.6087C43.893 27.4667 36.0686 29.0674 34.2771 25.3392C31.7038 19.9838 35.3318 16.4617 40.4341 15.7864C46.9227 14.9276 54.8267 16.9778 59.1589 22.229C62.8275 26.6758 57.335 28.5764 53.6367 28.5764C48.2343 28.5764 41.7924 27.0348 38.4029 22.4194C35.5538 18.5397 37.9879 16.2308 42.1796 16.1038C47.7055 15.9363 54.2476 17.859 58.3972 21.6894C62.4486 25.4292 55.0023 27.0741 52.5576 27.3069C49.5806 27.5904 45.9604 27.9518 46.2737 23.8793C46.6602 18.855 55.5225 16.4239 59.3176 18.7379C62.2602 20.5322 65.5588 31.3553 62.0152 33.7177"
                                    stroke="#FFD704" stroke-width="10" stroke-linecap="round" />
                                <path
                                    d="M46.2531 32.5098C46.2531 37.8198 46.5524 43.2077 46.2213 48.5052C46.0689 50.9432 45.4346 56.0635 43.2698 57.6454C39.9503 60.0712 35.3417 62.5398 32.8601 57.9311C32.0151 56.3618 31.6219 54.7569 30.3846 53.5196C28.9445 52.0796 31.8831 57.7125 33.6852 58.661C39.5247 61.7344 42.8614 57.4714 44.7932 52.5041C46.2303 48.8086 45.5697 41.9075 44.2536 38.2224C43.8154 36.9955 44.2578 35.6773 43.5237 34.6679C43.1483 34.1517 43.3967 32.9385 43.3967 32.3194C43.3967 30.7325 43.3967 35.4931 43.3967 37.0799C43.3967 41.1323 44.3019 53.4617 39.0805 55.3604C34.692 56.9562 34.1046 55.1325 31.9714 51.9328"
                                    class="secundaryColor" stroke-width="5" stroke-linecap="round" />
                                <path
                                    d="M50.8232 55.9318C53.2274 59.0757 55.4593 60.5019 59.4239 60.5019C61.905 60.5019 63.9471 60.964 65.1049 58.3438C66.7042 54.7242 67.1436 50.6578 62.9467 48.7592C60.2655 47.5463 54.9181 47.1358 54.8221 43.6813C54.6542 37.6359 60.6531 36.2444 65.6761 36.5088C67.8516 36.6233 62.1456 37.0801 61.106 37.0801C58.1533 37.0801 56.8187 37.5863 55.5203 40.5076C53.9847 43.9626 63.4379 45.4794 65.1049 46.2203C68.4798 47.7203 69.5442 51.6909 68.4055 55.2336C66.5414 61.0331 55.6071 61.9595 51.8388 57.7725C50.7188 56.528 51.5911 57.2908 52.5688 57.9629C54.8122 59.5053 56.9041 60.5313 59.3922 61.6444C61.8969 62.7649 68.8041 63.2765 69.1037 59.2324C69.4357 54.7508 70.939 53.7682 67.3899 50.2191C64.5405 47.3697 60.5463 47.469 57.1072 46.0933C54.4664 45.0371 54.5355 40.1766 57.361 38.9208C60.1323 37.6891 63.842 38.2226 66.8186 38.2226"
                                    class="secundaryColor" stroke-width="5" stroke-linecap="round" />
                                <path
                                    d="M14.91 108.225C14.43 108.225 13.975 108.14 13.545 107.97C13.115 107.8 12.755 107.54 12.465 107.19L13.305 105.855L13.38 105.735L13.5 105.81C13.52 105.89 13.545 105.97 13.575 106.05C13.605 106.13 13.68 106.23 13.8 106.35C14.1 106.56 14.42 106.665 14.76 106.665C15.55 106.665 15.945 106.005 15.945 104.685V100.02H14.22V98.655H19.005V100.02H17.625V104.805C17.635 105.585 17.51 106.23 17.25 106.74C16.99 107.24 16.65 107.615 16.23 107.865C15.81 108.105 15.37 108.225 14.91 108.225ZM22.47 108.18C21.7 108.18 21.1 108 20.67 107.64C20.25 107.28 20.04 106.805 20.04 106.215C20.04 105.475 20.37 104.865 21.03 104.385C21.7 103.895 22.67 103.65 23.94 103.65C24.01 103.65 24.1 103.65 24.21 103.65C24.33 103.65 24.455 103.655 24.585 103.665C24.515 103.085 24.35 102.695 24.09 102.495C23.83 102.285 23.48 102.18 23.04 102.18C22.72 102.18 22.42 102.235 22.14 102.345C21.86 102.445 21.58 102.635 21.3 102.915L20.37 101.895C20.77 101.525 21.205 101.26 21.675 101.1C22.145 100.94 22.625 100.86 23.115 100.86C23.695 100.86 24.225 100.955 24.705 101.145C25.185 101.325 25.565 101.645 25.845 102.105C26.125 102.555 26.265 103.18 26.265 103.98V108H24.51V107.25C24.25 107.6 23.95 107.845 23.61 107.985C23.27 108.115 22.89 108.18 22.47 108.18ZM21.735 106.005C21.735 106.325 21.835 106.55 22.035 106.68C22.245 106.8 22.5 106.86 22.8 106.86C23.34 106.86 23.76 106.7 24.06 106.38C24.36 106.05 24.54 105.535 24.6 104.835C24.47 104.835 24.345 104.835 24.225 104.835C24.105 104.825 24 104.82 23.91 104.82C23.11 104.82 22.545 104.93 22.215 105.15C21.895 105.37 21.735 105.655 21.735 106.005ZM30.06 108L27.435 101.025H29.205L30.885 105.72L31.695 103.74C31.885 103.26 32.035 102.795 32.145 102.345C32.265 101.885 32.34 101.445 32.37 101.025H33.96C33.91 101.465 33.8 101.935 33.63 102.435C33.47 102.925 33.285 103.425 33.075 103.935L31.395 108H30.06ZM37.47 108.18C36.7 108.18 36.1 108 35.67 107.64C35.25 107.28 35.04 106.805 35.04 106.215C35.04 105.475 35.37 104.865 36.03 104.385C36.7 103.895 37.67 103.65 38.94 103.65C39.01 103.65 39.1 103.65 39.21 103.65C39.33 103.65 39.455 103.655 39.585 103.665C39.515 103.085 39.35 102.695 39.09 102.495C38.83 102.285 38.48 102.18 38.04 102.18C37.72 102.18 37.42 102.235 37.14 102.345C36.86 102.445 36.58 102.635 36.3 102.915L35.37 101.895C35.77 101.525 36.205 101.26 36.675 101.1C37.145 100.94 37.625 100.86 38.115 100.86C38.695 100.86 39.225 100.955 39.705 101.145C40.185 101.325 40.565 101.645 40.845 102.105C41.125 102.555 41.265 103.18 41.265 103.98V108H39.51V107.25C39.25 107.6 38.95 107.845 38.61 107.985C38.27 108.115 37.89 108.18 37.47 108.18ZM36.735 106.005C36.735 106.325 36.835 106.55 37.035 106.68C37.245 106.8 37.5 106.86 37.8 106.86C38.34 106.86 38.76 106.7 39.06 106.38C39.36 106.05 39.54 105.535 39.6 104.835C39.47 104.835 39.345 104.835 39.225 104.835C39.105 104.825 39 104.82 38.91 104.82C38.11 104.82 37.545 104.93 37.215 105.15C36.895 105.37 36.735 105.655 36.735 106.005ZM45.885 108.165C45.245 108.165 44.655 108.08 44.115 107.91C43.575 107.74 43.095 107.455 42.675 107.055L43.425 105.675L43.485 105.555L43.605 105.63C43.635 105.7 43.665 105.78 43.695 105.87C43.725 105.95 43.8 106.045 43.92 106.155C44.17 106.365 44.45 106.53 44.76 106.65C45.08 106.77 45.465 106.83 45.915 106.83C46.335 106.83 46.66 106.76 46.89 106.62C47.12 106.48 47.235 106.295 47.235 106.065C47.235 105.835 47.105 105.65 46.845 105.51C46.595 105.37 46.18 105.215 45.6 105.045C44.84 104.845 44.235 104.575 43.785 104.235C43.335 103.895 43.11 103.44 43.11 102.87C43.11 102.3 43.355 101.825 43.845 101.445C44.345 101.055 45.015 100.86 45.855 100.86C47.005 100.86 47.94 101.215 48.66 101.925L47.835 103.08L47.73 103.2L47.625 103.11C47.615 103.03 47.59 102.955 47.55 102.885C47.52 102.815 47.445 102.72 47.325 102.6C47.125 102.46 46.895 102.355 46.635 102.285C46.385 102.205 46.135 102.165 45.885 102.165C45.545 102.165 45.25 102.22 45 102.33C44.76 102.44 44.64 102.61 44.64 102.84C44.64 103.04 44.77 103.21 45.03 103.35C45.29 103.49 45.735 103.64 46.365 103.8C47.205 104.01 47.815 104.29 48.195 104.64C48.575 104.98 48.765 105.42 48.765 105.96C48.765 106.36 48.655 106.73 48.435 107.07C48.215 107.4 47.89 107.665 47.46 107.865C47.04 108.065 46.515 108.165 45.885 108.165ZM53.67 108.18C52.99 108.18 52.38 108.025 51.84 107.715C51.3 107.405 50.87 106.98 50.55 106.44C50.24 105.89 50.085 105.265 50.085 104.565C50.085 103.875 50.24 103.25 50.55 102.69C50.87 102.13 51.3 101.685 51.84 101.355C52.38 101.025 52.995 100.86 53.685 100.86C54.325 100.86 54.885 100.98 55.365 101.22C55.845 101.46 56.225 101.79 56.505 102.21L55.56 103.245L55.47 103.35L55.35 103.26C55.35 103.17 55.34 103.09 55.32 103.02C55.3 102.94 55.235 102.835 55.125 102.705C54.935 102.525 54.72 102.4 54.48 102.33C54.25 102.26 53.99 102.225 53.7 102.225C53.37 102.225 53.06 102.315 52.77 102.495C52.48 102.675 52.245 102.94 52.065 103.29C51.895 103.64 51.81 104.065 51.81 104.565C51.81 105.015 51.9 105.41 52.08 105.75C52.26 106.08 52.495 106.34 52.785 106.53C53.085 106.71 53.405 106.8 53.745 106.8C54.055 106.8 54.36 106.735 54.66 106.605C54.96 106.475 55.24 106.25 55.5 105.93L56.445 107.01C56.075 107.42 55.645 107.72 55.155 107.91C54.665 108.09 54.17 108.18 53.67 108.18ZM58.335 101.025H60.09L60.075 102.15C60.265 101.75 60.545 101.435 60.915 101.205C61.285 100.975 61.675 100.86 62.085 100.86C62.865 100.86 63.51 101.125 64.02 101.655L63.3 103.08L63.255 103.2L63.12 103.14C63.09 103.06 63.06 102.98 63.03 102.9C63 102.81 62.925 102.71 62.805 102.6C62.665 102.49 62.515 102.405 62.355 102.345C62.205 102.285 62.04 102.255 61.86 102.255C61.38 102.255 60.96 102.42 60.6 102.75C60.24 103.08 60.06 103.61 60.06 104.34V108H58.335V101.025ZM65.76 108V106.665H67.47V102.36H65.85V101.025H69.18V106.665H70.74V108H65.76ZM68.25 99.87C67.95 99.87 67.695 99.77 67.485 99.57C67.285 99.37 67.185 99.13 67.185 98.85C67.185 98.56 67.285 98.32 67.485 98.13C67.685 97.93 67.94 97.83 68.25 97.83C68.53 97.83 68.775 97.93 68.985 98.13C69.205 98.33 69.315 98.57 69.315 98.85C69.315 99.13 69.205 99.37 68.985 99.57C68.775 99.77 68.53 99.87 68.25 99.87ZM72.72 110.505L72.705 101.01H74.385V101.985C74.605 101.595 74.885 101.31 75.225 101.13C75.565 100.95 75.94 100.86 76.35 100.86C76.86 100.86 77.32 101 77.73 101.28C78.15 101.55 78.485 101.96 78.735 102.51C78.985 103.05 79.11 103.725 79.11 104.535C79.11 105.355 78.98 106.035 78.72 106.575C78.46 107.115 78.115 107.52 77.685 107.79C77.265 108.05 76.81 108.18 76.32 108.18C75.95 108.18 75.595 108.115 75.255 107.985C74.915 107.855 74.645 107.66 74.445 107.4V110.505H72.72ZM75.855 106.86C76.145 106.86 76.41 106.785 76.65 106.635C76.89 106.485 77.08 106.235 77.22 105.885C77.36 105.535 77.43 105.055 77.43 104.445C77.43 103.755 77.295 103.21 77.025 102.81C76.765 102.41 76.405 102.205 75.945 102.195C75.465 102.185 75.09 102.375 74.82 102.765C74.56 103.145 74.43 103.77 74.43 104.64C74.45 106.12 74.925 106.86 75.855 106.86ZM83.985 108.15C83.445 108.15 83 108.035 82.65 107.805C82.3 107.565 82.045 107.17 81.885 106.62C81.725 106.07 81.665 105.325 81.705 104.385L81.78 102.36H80.355L80.385 101.025H81.84L81.9 99.375L83.655 99.15L83.79 99.135L83.805 99.27C83.755 99.34 83.71 99.415 83.67 99.495C83.64 99.565 83.62 99.68 83.61 99.84L83.505 101.025H85.755L85.74 102.36H83.49L83.4 104.355C83.37 105.005 83.39 105.505 83.46 105.855C83.54 106.205 83.655 106.45 83.805 106.59C83.965 106.72 84.155 106.785 84.375 106.785C84.695 106.785 84.98 106.72 85.23 106.59C85.49 106.46 85.73 106.31 85.95 106.14L86.31 107.37C85.96 107.62 85.595 107.815 85.215 107.955C84.835 108.085 84.425 108.15 83.985 108.15Z"
                                     class="secundaryTextColor" />
                            </svg>