<svg width="109" height="110" viewBox="0 0 109 110" fill="none"
                                    xmlns="http://www.w3.org/2000/svg">
                                    xmlns="http://www.w3.org/2000/svg">
                                    <path
                                        d="M24.7505 39.3978C21.8472 38.7526 22.6821 33.6848 23.3236 31.7145C24.7165 27.4362 27.4395 23.9337 30.6777 20.8755C32.2978 19.3454 33.2271 17.4266 35.2328 16.2929C38.6034 14.3878 42.7771 14.7014 46.4834 14.7014C53.7517 14.7014 60.6745 14.4479 67.7223 16.4301C74.9 18.4488 80.2526 23.4592 85.9977 27.9277C88.7552 30.0724 91.0921 32.2922 93.1048 35.1994C95.0174 37.962 93.955 44.3405 93.5164 47.3007C92.8314 51.9243 92.5699 57.8961 89.6748 61.8441C85.8816 67.0166 78.4297 67.5047 72.6616 67.9359C62.7039 68.6804 53.3076 66.5031 43.7942 63.8199C36.9189 61.8807 31.2551 56.023 27.2202 50.374C26.5085 49.3776 25.2444 48.3679 25.2444 47.0537C25.2444 46.1318 25.1948 46.8851 25.2993 47.3556C25.6437 48.905 27.0812 50.2003 28.208 51.2247C35.4571 57.8148 46.7986 61.5211 56.2522 63.4906C58.8203 64.0256 61.4156 64.5435 63.963 65.1096C65.0759 65.3569 60.1773 70.1391 59.5451 70.4879C50.4053 75.5306 44.2915 64.6046 37.0987 60.8563C31.0683 57.7137 25.1938 54.0889 22.5004 47.5476C19.8884 41.2042 21.9087 35.2595 24.531 29.2997C24.6539 29.0203 26.7268 26.4655 26.0128 26.1715C24.8893 25.7089 21.3705 30.6491 20.5247 31.4949C18.5903 33.4293 18.6127 31.0646 18.8783 29.2723C19.2301 26.8971 22.2407 25.1162 23.7352 23.3726C24.1348 22.9064 25.2613 21.4953 24.7505 21.8359C22.134 23.5802 19.353 29.3543 18.3294 32.2633C17.0199 35.9851 16.8477 40.9033 16.8477 44.8585C16.8477 50.7443 19.9696 53.7383 24.3664 57.1793C28.1678 60.1543 32.7359 61.846 36.8243 64.3687C40.7111 66.7669 44.6774 69.1094 49.3647 69.5C53.9808 69.8847 47.9241 59.5428 46.9773 58.2769C44.1404 54.4837 40.991 51.0874 38.5805 46.9714C36.6659 43.7021 33.7665 39.8034 33.2571 35.9403C32.7142 31.8236 34.4927 26.8117 37.3183 23.7293C37.9039 23.0904 39.2359 27.2627 39.4312 27.6533C41.4818 31.7545 44.3533 35.2923 47.1694 38.8764C51.2253 44.0385 54.9985 49.2776 59.7097 53.8864C60.8927 55.0436 61.8487 56.1959 61.7952 54.2157C61.7472 52.441 61.0198 50.8829 60.1488 49.3587C57.4509 44.6374 54.2522 40.0015 51.0111 35.6385C49.3877 33.4531 46.8096 31.402 45.8248 28.8058C45.3009 27.4246 45.1484 26.3525 44.2882 25.1013C43.3298 23.7073 44.8638 24.9591 45.4407 25.2934C49.5202 27.6577 53.9073 29.3895 58.1182 31.4949C63.1689 34.0203 71.2082 37.1767 74.2532 42.2516C76.4681 45.9432 79.2535 52.0379 74.8569 55.2035C71.8789 57.3477 68.4898 59.0395 65.1429 60.527C63.7021 61.1674 62.2113 61.6806 60.9171 62.6125C59.8472 63.3828 64.3962 62.6546 64.649 62.6125C70.0914 61.7054 75.9284 59.4499 78.0674 53.9687C79.6619 49.8828 80.0706 45.3149 80.0706 40.9619C80.0706 38.6254 80.5846 35.3518 79.4669 33.1963C78.3379 31.0189 75.3205 30.0724 73.2104 29.2997C68.7418 27.6633 64.2787 27.3216 59.6548 26.4459C58.9837 26.3188 54.823 24.6667 55.9778 26.6654C57.3095 28.9702 59.0306 31.0053 60.3134 33.3609C63.2496 38.7528 64.7432 44.7374 65.7466 50.7582"
                                        stroke="#3D3D3D" stroke-width="15" stroke-linecap="round" />
                                    <path
                                        d="M78.3952 11.4686C59.8079 2.60997 29.2419 1.07272 14.7816 18.3021C9.39003 24.7261 5.6148 35.4571 5.03973 43.8026C4.14112 56.8436 18.676 67.768 29.2695 72.6365C54.712 84.3293 99.3737 85.8246 100.793 48.886C101.199 38.3372 102.096 24.4721 91.0514 19.1354C83.7732 15.6189 74.3007 15.9687 66.4052 15.9687"
                                        class="secundaryColor" stroke-width="10" stroke-linecap="round" />
                                    <path
                                        d="M38.6123 32.9248C36.1558 33.5948 32.2175 34.4282 31.3551 37.2617C31.1 38.1 31.3573 38.537 32.1877 38.8648C33.6081 39.4255 35.1139 39.5885 36.624 39.7346C40.0366 40.0649 43.4597 40.2849 46.8884 40.3062C51.519 40.3351 56.1507 40.3062 60.7815 40.3062C62.672 40.3062 64.2929 40.2853 66.1001 39.8837C66.7353 39.7426 67.2762 39.6242 67.9144 39.4115"
                                        stroke="#147B9C" stroke-width="2" stroke-linecap="round" />
                                    <path
                                        d="M37.7176 33.5957C36.0047 33.5957 34.3692 35.3612 33.915 36.9509C33.6962 37.7169 33.067 38.4649 34.2505 38.7279C34.6996 38.8277 35.2453 38.7403 35.7045 38.7403C35.9526 38.7403 35.1094 38.7277 34.934 38.6161C34.3997 38.2761 33.59 37.7342 33.2937 37.1746C32.4996 35.6747 32.5707 37.5932 33.0203 38.0693C33.7836 38.8775 34.8322 38.5266 35.7542 38.7901C36.4786 38.997 37.201 39.6351 37.9413 39.6351"
                                        stroke="#147B9C" stroke-width="2" stroke-linecap="round" />
                                    <path
                                        d="M72.1641 38.9645C75.0676 36.5076 79.926 36.2518 81.2852 40.4805C81.8402 42.2071 80.5662 44.5539 79.6698 45.9482C78.5518 47.6873 77.0933 49.8916 75.6311 51.3538C75.0558 51.9292 72.5844 53.5864 74.0529 51.8509C74.5945 51.2109 74.8564 50.4904 75.308 49.8129C75.9218 48.8923 76.788 48.0315 77.085 46.9175C77.5018 45.3547 79.6245 42.8328 78.8496 41.0894C78.5991 40.5257 77.3212 39.6152 76.7619 39.4118C76.3084 39.2469 76.0341 38.9923 75.5193 38.9645C75.3194 38.9537 73.8423 38.7408 74.6245 38.7408C76.1786 38.7408 77.1893 39.1025 78.5514 39.8592C79.5465 40.412 79.584 42.3485 79.5455 43.3884C79.542 43.483 79.3661 44.1343 79.21 44.0718C78.7403 43.8839 79.3814 42.1552 79.4461 41.8723C79.5934 41.2278 79.8139 40.1673 79.0981 39.8095C78.5222 39.5215 77.4739 38.773 76.8613 38.7408C76.0459 38.6979 75.2178 38.7408 74.4009 38.7408C73.3517 38.7408 73.8279 38.7408 74.6245 38.7408C75.7689 38.7408 76.4921 38.8909 77.5324 39.1881C80.8676 40.141 80.1154 43.7629 78.0916 45.7867C76.8557 47.0225 75.9569 48.6172 74.7488 49.8254C74.1632 50.411 73.8562 51.9089 73.5061 52.6089"
                                        stroke="#147B9C" stroke-width="2" stroke-linecap="round" />
                                    <path
                                        d="M38.1646 47.688C36.204 48.4722 38.1995 50.6251 39.1587 51.0432C40.0237 51.4202 41.1002 51.2417 42.0169 51.3166C43.2112 51.4141 44.4016 51.568 45.5958 51.6645C48.0914 51.8662 50.648 51.7142 53.1512 51.7142C55.229 51.7142 57.1443 51.1455 59.1905 51.0432C59.6288 51.0213 61.6281 50.3626 61.5516 49.7508C61.54 49.6577 59.7135 50.3549 59.4639 50.3721C58.37 50.4476 57.2895 50.7998 56.1833 50.8195C53.3853 50.8695 50.5815 50.8195 47.7829 50.8195C45.3401 50.8195 42.9954 50.6486 40.6748 49.8751C39.6793 49.5433 39.3601 48.4593 38.3883 48.1353"
                                        stroke="#147B9C" stroke-width="2" stroke-linecap="round" />
                                    <path
                                        d="M40.8496 56.6348C40.8496 57.9526 42.1487 58.6253 43.2231 58.9834C46.4078 60.045 50.2995 59.7663 53.5994 59.7663C54.7707 59.7663 56.4428 60.0659 57.5014 59.4308C58.1452 59.0445 58.6122 59.0127 59.3032 58.8591C60.4136 58.6124 60.4072 58.3602 59.1914 58.4242C58.2706 58.4727 57.3236 59.1777 56.3705 59.3189C54.151 59.6477 51.9134 59.5426 49.6725 59.5426C47.2389 59.5426 44.5812 59.1101 42.5272 57.7407C42.2969 57.5872 40.7647 56.4085 41.5206 56.8087C41.8817 56.9999 42.0117 57.4271 42.4154 57.6289C42.7348 57.7886 43.3953 57.8632 43.6332 58.1011C44.4464 58.9143 45.6383 58.7989 46.715 59.145C47.9957 59.5566 49.5778 59.3189 50.9152 59.3189C53.2078 59.3189 55.8901 60.0401 58.1848 59.5302C58.789 59.3959 59.4781 58.7239 60.0861 58.6479C60.8022 58.5584 61.162 57.4814 61.4282 57.0821"
                                        stroke="#147B9C" stroke-width="2" stroke-linecap="round" />
                                    <path
                                        d="M35.2071 60.106C34.1278 60.9747 33.3118 61.7433 33.3767 63.2019C33.4899 65.7504 38.0245 66.3605 39.704 66.6141C47.0878 67.7292 54.463 67.8119 61.895 67.2243C64.9963 66.979 67.0958 67.394 70 66C70.853 65.5906 71.6857 64.9524 72.5 64.5C72.9077 64.2735 73.5165 63.7763 74 63.5C74.4835 63.2237 76.1107 61.3624 75.3859 61"
                                        stroke="#147B9C" stroke-linecap="round" />
                                    <path
                                        d="M35.2065 60.5127C35.2065 62.2978 35.5098 63.3812 36.9352 64.4899C37.5078 64.9352 37.9178 65.5019 38.6639 65.6085C39.3516 65.7067 40.2502 66.3903 39.0707 65.8006C37.8328 65.1816 36.7614 64.8099 35.6132 64.0718C34.8653 63.591 34.871 62.9497 34.5511 62.2301C34.1677 61.3675 34.1675 63.7877 34.2009 64.0718C34.3449 65.2964 35.6389 65.2551 36.4155 65.9023C37.0119 66.3993 37.2758 66.1884 36.5849 65.7102C35.9594 65.2771 34.7836 64.4577 34.4382 63.7668C34.3322 63.5548 33.8068 61.9245 34.0992 62.4674C35.2687 64.6393 36.9211 65.9305 39.2741 66.2073C40.6072 66.3642 41.9526 66.4107 43.3417 66.4107"
                                        stroke="#147B9C" stroke-linecap="round" />
                                    <path
                                        d="M58.1895 71.6985C61.5515 71.6985 64.8706 71.7849 68.2003 71.2466C70.9193 70.807 73.1502 70.1255 75.5784 68.9642C76.9483 68.3091 77.9173 67.5068 77.9173 66.0039"
                                        stroke="#147B9C" stroke-linecap="round" />
                                    <path
                                        d="M72.426 39.9712C73.3217 39.9712 74.2198 39.9509 75.1152 39.9712C75.8074 39.987 76.3827 40.4515 76.9908 40.7396C77.224 40.85 79.0517 42.4163 78.2337 41.5983C76.4563 39.8209 74.7174 39.1577 72.2227 39.1577"
                                        stroke="#147B9C" stroke-linecap="round" />
                                    <path d="M43.2715 66.6607C44.2609 66.6607 45.4971 66.6524 46.4427 66.9676"
                                        stroke="#147B9C" stroke-linecap="round" />
                                    <path
                                        d="M35.5996 60.5229C35.5996 62.7724 37.3726 63.7946 39.1004 64.899C40.3376 65.6897 41.6349 66.3176 43.0445 66.638C45.2678 67.1433 47.4289 67.1722 49.7165 67.1722"
                                        stroke="#147B9C" stroke-linecap="round" />
                                    <path
                                        d="M34.2695 61.6483C34.2866 61.4946 34.3974 61.4498 34.531 61.3925C34.5741 61.374 35.0652 61.1557 35.0652 61.205C35.0652 61.3886 34.605 61.722 34.4741 61.8528"
                                        stroke="#147B9C" stroke-linecap="round" />
                                    <path
                                        d="M54.4306 11.5005C54.4306 13.9305 54.3615 15.7652 52.4792 17.3053C51.0699 18.4583 49.1005 20.2016 48.7581 22.0848C48.1699 25.3198 47.5927 29.6825 50.4119 31.8752C50.7888 32.1683 51.1561 33.5765 51.1561 33.099C51.1561 32.1153 50.6092 30.9679 50.3292 30.023C49.8021 28.2441 49.6677 26.4797 49.6677 24.5985C49.6677 22.4868 51.2141 19.7776 52.7107 18.281C54.0988 16.8929 54.1329 15.4474 54.1329 13.5843"
                                        stroke="#9E1A1A" stroke-width="2" stroke-linecap="round" />
                                    <path
                                        d="M58.8947 34.1244C61.7456 34.1244 61.5682 30.5466 60.0854 29.0638C58.8597 27.8382 57.4062 26.3856 57.4062 24.5986C57.4062 22.4473 59.7509 20.2179 61.5738 19.3064C62.1862 19.0003 62.6476 18.2574 61.64 18.9426C61.1108 19.3024 60.5721 20.1616 60.3169 20.7287C59.6847 22.1336 58.8584 24.0185 59.5562 25.4916C60.2387 26.9325 61.4595 27.9136 62.103 29.3615C63.1614 31.7428 62.0223 34.4221 59.1923 34.4221"
                                        stroke="#9E1A1A" stroke-width="2" stroke-linecap="round" />
                                    <path
                                        d="M40.91 103.225C40.43 103.225 39.975 103.14 39.545 102.97C39.115 102.8 38.755 102.54 38.465 102.19L39.305 100.855L39.38 100.735L39.5 100.81C39.52 100.89 39.545 100.97 39.575 101.05C39.605 101.13 39.68 101.23 39.8 101.35C40.1 101.56 40.42 101.665 40.76 101.665C41.55 101.665 41.945 101.005 41.945 99.685V95.02H40.22V93.655H45.005V95.02H43.625V99.805C43.635 100.585 43.51 101.23 43.25 101.74C42.99 102.24 42.65 102.615 42.23 102.865C41.81 103.105 41.37 103.225 40.91 103.225ZM48.47 103.18C47.7 103.18 47.1 103 46.67 102.64C46.25 102.28 46.04 101.805 46.04 101.215C46.04 100.475 46.37 99.865 47.03 99.385C47.7 98.895 48.67 98.65 49.94 98.65C50.01 98.65 50.1 98.65 50.21 98.65C50.33 98.65 50.455 98.655 50.585 98.665C50.515 98.085 50.35 97.695 50.09 97.495C49.83 97.285 49.48 97.18 49.04 97.18C48.72 97.18 48.42 97.235 48.14 97.345C47.86 97.445 47.58 97.635 47.3 97.915L46.37 96.895C46.77 96.525 47.205 96.26 47.675 96.1C48.145 95.94 48.625 95.86 49.115 95.86C49.695 95.86 50.225 95.955 50.705 96.145C51.185 96.325 51.565 96.645 51.845 97.105C52.125 97.555 52.265 98.18 52.265 98.98V103H50.51V102.25C50.25 102.6 49.95 102.845 49.61 102.985C49.27 103.115 48.89 103.18 48.47 103.18ZM47.735 101.005C47.735 101.325 47.835 101.55 48.035 101.68C48.245 101.8 48.5 101.86 48.8 101.86C49.34 101.86 49.76 101.7 50.06 101.38C50.36 101.05 50.54 100.535 50.6 99.835C50.47 99.835 50.345 99.835 50.225 99.835C50.105 99.825 50 99.82 49.91 99.82C49.11 99.82 48.545 99.93 48.215 100.15C47.895 100.37 47.735 100.655 47.735 101.005ZM56.06 103L53.435 96.025H55.205L56.885 100.72L57.695 98.74C57.885 98.26 58.035 97.795 58.145 97.345C58.265 96.885 58.34 96.445 58.37 96.025H59.96C59.91 96.465 59.8 96.935 59.63 97.435C59.47 97.925 59.285 98.425 59.075 98.935L57.395 103H56.06ZM63.47 103.18C62.7 103.18 62.1 103 61.67 102.64C61.25 102.28 61.04 101.805 61.04 101.215C61.04 100.475 61.37 99.865 62.03 99.385C62.7 98.895 63.67 98.65 64.94 98.65C65.01 98.65 65.1 98.65 65.21 98.65C65.33 98.65 65.455 98.655 65.585 98.665C65.515 98.085 65.35 97.695 65.09 97.495C64.83 97.285 64.48 97.18 64.04 97.18C63.72 97.18 63.42 97.235 63.14 97.345C62.86 97.445 62.58 97.635 62.3 97.915L61.37 96.895C61.77 96.525 62.205 96.26 62.675 96.1C63.145 95.94 63.625 95.86 64.115 95.86C64.695 95.86 65.225 95.955 65.705 96.145C66.185 96.325 66.565 96.645 66.845 97.105C67.125 97.555 67.265 98.18 67.265 98.98V103H65.51V102.25C65.25 102.6 64.95 102.845 64.61 102.985C64.27 103.115 63.89 103.18 63.47 103.18ZM62.735 101.005C62.735 101.325 62.835 101.55 63.035 101.68C63.245 101.8 63.5 101.86 63.8 101.86C64.34 101.86 64.76 101.7 65.06 101.38C65.36 101.05 65.54 100.535 65.6 99.835C65.47 99.835 65.345 99.835 65.225 99.835C65.105 99.825 65 99.82 64.91 99.82C64.11 99.82 63.545 99.93 63.215 100.15C62.895 100.37 62.735 100.655 62.735 101.005Z"
                                         class="secundaryTextColor" />
                                </svg>