                                      <svg width="109" height="110" viewBox="0 0 109 110" fill="none"
                                                xmlns="http://www.w3.org/2000/svg">

                                                <path
                                                    d="M38.7461 29.2522C39.5122 18.9098 50.8883 15.1625 59.7132 15.0535C67.2802 14.9601 74.3352 17.9581 79.0519 23.9849C82.3917 28.2525 82.258 36.4026 82.6906 41.5933C83.0921 46.4118 81.386 49.5016 79.5099 53.629C77.5198 58.0073 74.1925 61.235 70.4512 64.0617C66.6532 66.9313 60.2835 69.558 55.4384 69.558C50.1802 69.558 44.0265 69.9376 38.9496 68.362C35.4503 67.276 33.5519 65.2725 30.9343 62.9167C28.4191 60.653 25.1165 57.2565 23.3769 54.3415C20.4946 49.5117 19.3267 43.8419 18.4914 38.4126C17.7584 33.6482 17.4944 28.1668 20.2217 23.9849C21.4549 22.094 24.3992 18.2776 26.7103 17.6999C28.6572 17.2131 24.1486 20.7991 22.7153 22.2037C20.4168 24.4563 18.0439 27.0556 16.1758 29.6847C14.2151 32.4442 13.3496 36.6444 13.5804 39.9902C13.6686 41.2701 13.9307 42.6384 14.242 43.8834C14.4403 44.6765 14.2208 46.226 14.6745 44.774C17.1019 37.0063 20.6718 27.8938 26.4813 22.0256C30.864 17.5986 36.3235 16.7582 41.8504 14.5955C46.7092 12.6942 51.0783 16.0443 56.2526 16.4276C63.9719 16.9994 69.439 19.0115 76.3037 21.9238C79.4169 23.2446 84.1386 25.0133 85.2097 28.616C86.6034 33.3039 87.1705 39.0199 85.5659 43.7053C85.2079 44.7508 80.3865 51.9963 79.5099 50.4738C77.8329 47.5611 78.339 42.9654 77.118 39.7357C75.3397 35.0319 72.1889 30.9981 68.5174 27.6236C65.4902 24.8414 61.7681 21.2673 57.6267 20.2953C57.1506 20.1836 53.4693 19.1668 54.8786 20.2444C61.1319 25.0264 67.1748 29.8868 72.5887 35.639C72.8409 35.907 75.1298 38.0878 74.8279 38.6161C74.1386 39.8224 67.1619 35.2856 66.7616 35.0792C58.6112 30.8767 50.0704 26.8834 41.5451 23.5015C38.0857 22.1291 34.1002 20.6234 30.3745 20.1426C23.8868 19.3055 35.4577 25.2168 36.3287 25.6643C47.3251 31.3138 58.1391 37.3623 68.4665 44.1633C70.3049 45.3739 70.1223 45.3901 68.1103 44.5195C62.7883 42.2167 57.7487 39.5233 52.2831 37.4965C43.0426 34.07 14.5554 26.2207 23.7332 29.812C39.5864 36.0154 86.6596 55.8287 70.8329 49.5577C64.9687 47.2342 58.673 45.8157 52.5376 44.4177C46.8415 43.1199 41.0203 41.8116 35.1582 41.6442C32.0669 41.5558 28.9941 42.2791 26.4049 40.4991C25.5421 39.9059 23.6458 38.7551 26.125 39.6848C31.6402 41.753 36.7523 44.8064 42.3084 46.8605C51.0405 50.0887 60.2409 52.8837 69.5861 53.4255C75.1683 53.7491 79.1427 53.6534 79.0519 47.115C79.008 43.9579 75.9343 39.9169 72.8431 38.9724C69.3065 37.8917 68.3148 47.069 68.1611 49.0488C67.9876 51.2857 67.8847 53.6427 68.5174 55.8173C68.7833 56.7316 69.1666 57.8195 68.95 58.7945C68.5258 60.703 64.6444 61.6797 63.1484 61.7462C55.6521 62.0793 49.8471 59.7708 42.8937 57.2423C38.5731 55.6712 30.9083 55.7462 27.9826 51.6952C26.4409 49.5605 24.7405 47.2872 23.7332 44.8249C22.8585 42.6867 22.5335 35.753 23.3769 37.9037C26.3656 45.5247 33.6006 52.059 39.713 57.2423C41.8242 59.0326 44.1762 60.6011 46.7869 61.5681C48.0221 62.0256 47.8527 62.2296 46.5324 62.2296C38.2778 62.2296 32.1198 50.7091 28.7459 44.4941C26.7486 40.8147 25.1011 37.6471 23.8858 33.6542C23.6813 32.9823 23.1734 30.3159 23.1734 32.6873C23.1734 36.9396 28.2657 38.2106 31.4177 39.7866"
                                                    stroke="#3FCBDE" stroke-width="10" stroke-linecap="round" />
                                                <path
                                                    d="M66.681 9.82525C48.6263 -0.208164 21.6758 5.81754 11.6061 24.0745C-1.15361 47.2085 22.371 72.824 44.3198 77.7578C75.0199 84.6588 93.1743 61.8852 91.9409 32.2761C90.9363 8.15778 67.6199 5.35164 48.792 5.35164"
                                                    class="secundaryColor" stroke-width="10" stroke-linecap="round" />
                                                <path
                                                    d="M46.8965 38.9511C47.8394 38.0082 48.7257 38.097 49.9809 38.097C52.804 38.097 52.4483 41.707 52.4483 43.8386C52.4483 45.1277 50.986 45.5678 49.6961 45.3333C48.2281 45.0664 47.7832 42.6849 47.7506 41.5135C47.6266 37.0488 52.8754 37.2317 52.8754 41.7033C52.8754 45.3293 48.1777 45.489 48.1777 41.9405C48.1777 36.6865 53.7295 38.3131 53.7295 42.9607C53.7295 44.4141 51.1284 44.2349 50.1232 44.0521C48.9676 43.842 48.1369 42.1645 47.8455 41.1813C47.3362 39.4622 49.8551 38.813 51.1671 38.9511C52.9994 39.144 52.7959 43.5036 51.3807 44.2656C48.2678 45.9418 45.2352 40.5804 49.2216 39.473C53.8559 38.1857 51.9775 47.0682 47.3236 43.4115C43.3871 40.3186 50.313 35.8948 50.313 40.6593C50.313 42.5233 50.306 43.767 48.1777 43.6488C46.4926 43.5552 47.1942 40.0788 48.8183 39.8289C50.9758 39.497 51.3485 40.6329 51.1434 42.5811C50.8727 45.1531 48.1433 42.5361 48.6997 40.4221C49.4101 37.7226 51.9753 39.3504 52.0213 41.4186C52.053 42.8453 49.5109 45.7412 48.0116 44.2419C47.0563 43.2866 47.7158 40.8293 49.0318 40.6831C50.9294 40.4722 53.4385 42.0564 51.1671 43.7437C50.2991 44.3885 47.5537 45.7327 46.9914 44.1707C46.4356 42.6267 47.2003 41.4 48.7946 41.1101C52.0107 40.5254 49.0318 47.8989 49.0318 43.2217"
                                                    stroke="#FDFDFD" stroke-width="2" stroke-linecap="round" />
                                                <path
                                                    d="M71.7536 38.3647C61.0104 35.5496 50.2399 33.1461 39.0539 33.0016C35.0125 32.9494 33.0611 34.1502 30.1021 36.7145C28.5313 38.0757 25 40.5449 25 42.9026C25 44.1637 26.3114 44.7653 27.3191 45.1945C33.0274 47.6261 39.8136 48.5051 45.8953 49.4345C53.805 50.6433 65.8537 52.9764 72.8899 47.6698C73.5557 47.1677 75.5379 45.3744 74.8612 44.3236C72.8869 41.2575 69.7762 39.1897 65.9094 39.1897"
                                                    stroke="#FDFDFD" stroke-width="2" stroke-linecap="round" />
                                                <path
                                                    d="M65.2015 57.9794C61.5125 47.5041 57.4671 37.2369 51.318 27.8915C49.0964 24.5151 47.0083 23.5718 43.2262 22.5582C41.2186 22.0202 37.1946 20.4792 35.2419 21.8005C34.1975 22.5072 34.4342 23.9305 34.6434 25.0057C35.8285 31.096 38.9035 37.209 41.5421 42.7669C44.9736 49.9952 49.7935 61.2817 58.1318 64.1352C58.9207 64.4052 61.5167 65.0419 62.0078 63.8926C63.4408 60.5392 63.4101 56.8041 61.243 53.6015"
                                                    stroke="#FDFDFD" stroke-width="2" stroke-linecap="round" />
                                                <path
                                                    d="M44.0947 63.2499C51.189 54.7053 57.9219 45.9618 62.7835 35.8864C64.54 32.2463 64.2772 29.9702 63.2048 26.2043C62.6356 24.2053 61.8915 19.9611 59.755 18.9639C58.6123 18.4306 57.5125 19.3646 56.6974 20.0962C52.0799 24.2405 48.4134 30.0183 44.9992 35.1363C40.5588 41.7926 33.349 51.7242 35.1821 60.3444C35.3555 61.16 36.1422 63.7146 37.3806 63.5458C40.994 63.0534 44.1833 61.1091 45.8186 57.6051"
                                                    stroke="#FDFDFD" stroke-width="2" stroke-linecap="round" />
                                                <path
                                                    d="M31.675 102V92.655H34.63C35.77 92.655 36.605 92.905 37.135 93.405C37.665 93.905 37.93 94.57 37.93 95.4C37.93 95.74 37.855 96.085 37.705 96.435C37.565 96.775 37.36 97.08 37.09 97.35C36.83 97.62 36.525 97.82 36.175 97.95L38.185 102H36.4L34.51 98.115H33.385V102H31.675ZM33.385 96.705H34.75C35.23 96.705 35.59 96.595 35.83 96.375C36.07 96.145 36.19 95.835 36.19 95.445C36.19 95.085 36.07 94.775 35.83 94.515C35.59 94.255 35.23 94.125 34.75 94.125H33.385V96.705ZM42.565 102.165C41.895 102.165 41.295 102.025 40.765 101.745C40.245 101.465 39.835 101.055 39.535 100.515C39.235 99.975 39.085 99.325 39.085 98.565C39.085 97.785 39.23 97.12 39.52 96.57C39.82 96.02 40.215 95.6 40.705 95.31C41.205 95.01 41.76 94.86 42.37 94.86C42.91 94.86 43.405 94.985 43.855 95.235C44.315 95.485 44.68 95.865 44.95 96.375C45.23 96.875 45.37 97.5 45.37 98.25C45.37 98.35 45.365 98.47 45.355 98.61C45.355 98.75 45.35 98.87 45.34 98.97H40.72C40.74 99.41 40.845 99.77 41.035 100.05C41.225 100.32 41.46 100.52 41.74 100.65C42.02 100.78 42.32 100.845 42.64 100.845C42.95 100.845 43.245 100.795 43.525 100.695C43.805 100.595 44.065 100.425 44.305 100.185L45.175 101.025C44.835 101.425 44.445 101.715 44.005 101.895C43.565 102.075 43.085 102.165 42.565 102.165ZM40.75 97.695H43.72C43.72 97.205 43.595 96.83 43.345 96.57C43.095 96.31 42.745 96.18 42.295 96.18C41.905 96.18 41.565 96.305 41.275 96.555C40.985 96.795 40.81 97.175 40.75 97.695ZM48.97 102.18C48.2 102.18 47.6 102 47.17 101.64C46.75 101.28 46.54 100.805 46.54 100.215C46.54 99.475 46.87 98.865 47.53 98.385C48.2 97.895 49.17 97.65 50.44 97.65C50.51 97.65 50.6 97.65 50.71 97.65C50.83 97.65 50.955 97.655 51.085 97.665C51.015 97.085 50.85 96.695 50.59 96.495C50.33 96.285 49.98 96.18 49.54 96.18C49.22 96.18 48.92 96.235 48.64 96.345C48.36 96.445 48.08 96.635 47.8 96.915L46.87 95.895C47.27 95.525 47.705 95.26 48.175 95.1C48.645 94.94 49.125 94.86 49.615 94.86C50.195 94.86 50.725 94.955 51.205 95.145C51.685 95.325 52.065 95.645 52.345 96.105C52.625 96.555 52.765 97.18 52.765 97.98V102H51.01V101.25C50.75 101.6 50.45 101.845 50.11 101.985C49.77 102.115 49.39 102.18 48.97 102.18ZM48.235 100.005C48.235 100.325 48.335 100.55 48.535 100.68C48.745 100.8 49 100.86 49.3 100.86C49.84 100.86 50.26 100.7 50.56 100.38C50.86 100.05 51.04 99.535 51.1 98.835C50.97 98.835 50.845 98.835 50.725 98.835C50.605 98.825 50.5 98.82 50.41 98.82C49.61 98.82 49.045 98.93 48.715 99.15C48.395 99.37 48.235 99.655 48.235 100.005ZM57.67 102.18C56.99 102.18 56.38 102.025 55.84 101.715C55.3 101.405 54.87 100.98 54.55 100.44C54.24 99.89 54.085 99.265 54.085 98.565C54.085 97.875 54.24 97.25 54.55 96.69C54.87 96.13 55.3 95.685 55.84 95.355C56.38 95.025 56.995 94.86 57.685 94.86C58.325 94.86 58.885 94.98 59.365 95.22C59.845 95.46 60.225 95.79 60.505 96.21L59.56 97.245L59.47 97.35L59.35 97.26C59.35 97.17 59.34 97.09 59.32 97.02C59.3 96.94 59.235 96.835 59.125 96.705C58.935 96.525 58.72 96.4 58.48 96.33C58.25 96.26 57.99 96.225 57.7 96.225C57.37 96.225 57.06 96.315 56.77 96.495C56.48 96.675 56.245 96.94 56.065 97.29C55.895 97.64 55.81 98.065 55.81 98.565C55.81 99.015 55.9 99.41 56.08 99.75C56.26 100.08 56.495 100.34 56.785 100.53C57.085 100.71 57.405 100.8 57.745 100.8C58.055 100.8 58.36 100.735 58.66 100.605C58.96 100.475 59.24 100.25 59.5 99.93L60.445 101.01C60.075 101.42 59.645 101.72 59.155 101.91C58.665 102.09 58.17 102.18 57.67 102.18ZM65.485 102.15C64.945 102.15 64.5 102.035 64.15 101.805C63.8 101.565 63.545 101.17 63.385 100.62C63.225 100.07 63.165 99.325 63.205 98.385L63.28 96.36H61.855L61.885 95.025H63.34L63.4 93.375L65.155 93.15L65.29 93.135L65.305 93.27C65.255 93.34 65.21 93.415 65.17 93.495C65.14 93.565 65.12 93.68 65.11 93.84L65.005 95.025H67.255L67.24 96.36H64.99L64.9 98.355C64.87 99.005 64.89 99.505 64.96 99.855C65.04 100.205 65.155 100.45 65.305 100.59C65.465 100.72 65.655 100.785 65.875 100.785C66.195 100.785 66.48 100.72 66.73 100.59C66.99 100.46 67.23 100.31 67.45 100.14L67.81 101.37C67.46 101.62 67.095 101.815 66.715 101.955C66.335 102.085 65.925 102.15 65.485 102.15Z"
                                                     class="secundaryTextColor" />
                                            </svg>