<svg width="109" height="110" viewBox="0 0 109 110" fill="none"
                                                    xmlns="http://www.w3.org/2000/svg">

                                                    <path
                                                        d="M12.0898 41.4771C14.0122 33.5659 17.1348 25.2501 25.6581 22.6733C30.4596 21.2217 35.0638 18.7115 40.1603 18.4947C45.1972 18.2803 50.1774 18.0276 55.2279 18.0276C60.8054 18.0276 66.8225 17.39 72.2374 18.9371C76.4897 20.1521 80.8642 22.1948 84.4045 24.8855C86.9555 26.8242 87.611 29.2425 89.0993 31.94C90.3624 34.2294 91.9779 36.5201 92.8109 39.0191C95.0187 45.6425 81.1437 50.6907 77.0551 52.2677C70.8604 54.6571 63.5962 56.0858 56.9731 56.5201C51.0463 56.9087 45.2551 58.2899 39.3 58.2899C35.4611 58.2899 30.3059 59.1762 26.9116 56.9134C23.5197 54.6521 21.3154 51.1942 18.4807 48.3595C18.0269 47.9057 14.0165 43.5898 13.8842 44.6479C13.161 50.4332 18.3945 53.8514 23.2738 55.3894C33.4254 58.5894 44.5765 59.1185 55.1542 59.1747C61.7484 59.2098 66.207 58.4233 71.4754 54.4062C74.5589 52.055 76.8519 49.3738 79.7835 46.8847C81.9339 45.0589 82.8706 43.6289 83.4213 40.9363C84.0036 38.0896 83.1717 37.3553 80.57 35.7253C73.7613 31.4596 64.4325 32.1858 56.7765 32.1858C47.1749 32.1858 37.5699 32.1084 27.9686 32.1858C24.9834 32.2099 22.7838 32.6741 21.3811 35.4795C21.1252 35.9914 19.0435 39.3005 19.2672 39.7073C20.3465 41.6696 24.2414 42.0384 26.0513 42.2636C36.1145 43.5159 46.2428 42.6638 56.2849 41.6737C62.7865 41.0327 69.4019 39.7633 75.949 39.7073C76.2404 39.7048 79.4881 39.5029 78.4561 40.5922C74.3412 44.9357 64.8585 44.5954 59.5786 45.5574C53.719 46.6249 47.617 47.4781 41.8809 49.0969C39.4681 49.7778 36.885 50.8253 36.4241 53.5213C35.8014 57.1643 35.205 60.5303 38.7347 62.616C40.9672 63.9352 47.0464 64.6291 49.255 63.1567"
                                                        stroke="#3D3D3D" stroke-width="16" stroke-linecap="round" />
                                                    <path
                                                        d="M66.1885 17.9355C52.2348 9.05509 26.7089 12.2006 14.8725 23.2114C-8.12426 44.6039 12.899 69.3929 38.6652 71.6843C58.7593 73.4713 94.3851 68.218 95.9502 41.7597C97.1066 22.2121 77.9095 12 60.2196 12"
                                                        class="secundaryColor" stroke-width="10" stroke-linecap="round" />
                                                    <path
                                                        d="M38.5787 27.2114C37.4708 31.5776 38.4442 36.1486 38.4442 40.5716C38.4442 42.081 38.4442 43.5903 38.4442 45.0997"
                                                        stroke="#3D3D3D" stroke-width="4" stroke-linecap="round" />
                                                    <path
                                                        d="M38.6256 24.3871C38.1483 27.304 38.3242 30.3183 38.2335 33.2659C38.1496 35.9908 38.5699 38.5512 38.892 41.242C39.4269 45.7102 39.5579 50.1306 39.5579 54.6195C39.5579 55.8073 39.2687 57.4506 39.6615 58.5853C40.1634 60.0352 42.1553 60.6497 43.5534 60.9086C46.3291 61.4227 49.1373 61.8071 51.9439 62.1813C54.4079 62.5098 56.2766 61.9459 58.4994 60.9826C59.2678 60.6497 60.0161 60.2881 60.7413 59.8802C61.0048 59.732 61.6224 59.4129 61.7698 59.1477C62.0527 58.6384 62.0657 58.3951 62.0657 57.7345C62.0657 56.008 62.0657 54.2816 62.0657 52.5551C62.0657 46.2971 61.3998 40.0976 61.3998 33.843C61.3998 31.7343 61.3998 29.6256 61.3998 27.5168C61.3998 26.8729 61.3737 26.0844 61.2371 25.4525C61.1767 25.1732 61.2739 24.1639 61.0595 23.9801C59.4077 22.5643 56.6986 21.9884 54.6075 21.531C52.094 20.9812 49.5798 20.9243 47.0161 20.9243C45.1184 20.9243 43.0435 21.4071 41.4299 22.4559C40.7525 22.8962 40.0495 23.1589 39.4247 23.7211C39.1801 23.9413 38.7606 24.253 38.4925 24.3871"
                                                        stroke="#147B9C" stroke-width="4" stroke-linecap="round" />
                                                    <path
                                                        d="M38.8926 25.9854C38.9711 27.3995 41.9561 27.8187 42.9768 27.9831C45.9467 28.4613 48.9172 28.7455 51.9297 28.6416C53.79 28.5775 55.5578 27.8673 57.3309 27.3838C58.3469 27.1067 59.3485 26.8469 60.3349 26.5181"
                                                        stroke="#147B9C" stroke-width="4" stroke-linecap="round" />
                                                    <path
                                                        d="M39.0254 34.7754C40.992 35.7041 43.4775 35.8777 45.6031 36.1664C48.3559 36.5402 51.0314 36.6592 53.8086 36.6399C55.7303 36.6266 57.6408 36.2856 59.5133 35.9C60.0131 35.7971 60.771 35.6708 61.1337 35.3081"
                                                        stroke="#147B9C" stroke-width="4" stroke-linecap="round" />
                                                    <path
                                                        d="M38.7588 42.8994C42.9496 46.2843 49.1768 46.263 54.2819 45.5631C55.5289 45.3921 56.6605 45.1975 57.8335 44.764C58.6619 44.4578 59.5222 44.3688 60.3343 44.0981"
                                                        stroke="#147B9C" stroke-width="4" stroke-linecap="round" />
                                                    <path
                                                        d="M39.957 53.4209C40.1425 53.4765 40.2322 53.6537 40.3862 53.7613C40.914 54.1297 41.6374 54.3229 42.2359 54.5308C43.4142 54.94 44.6152 55.1213 45.8467 55.2855C48.5113 55.6407 51.3172 55.8182 54.0078 55.8182C55.8399 55.8182 57.5578 55.6037 59.2611 54.9525C59.7744 54.7562 61.2879 54.443 61.5326 53.9536"
                                                        stroke="#147B9C" stroke-width="4" stroke-linecap="round" />
                                                    <path
                                                        d="M42.63 95.165C42.01 95.165 41.425 95.075 40.875 94.895C40.335 94.705 39.885 94.42 39.525 94.04L40.35 92.645L40.41 92.525L40.545 92.6C40.565 92.68 40.59 92.76 40.62 92.84C40.66 92.91 40.74 93 40.86 93.11C41.11 93.3 41.385 93.455 41.685 93.575C41.995 93.695 42.33 93.755 42.69 93.755C43.16 93.755 43.54 93.655 43.83 93.455C44.13 93.245 44.28 92.94 44.28 92.54C44.28 92.34 44.235 92.155 44.145 91.985C44.055 91.805 43.875 91.625 43.605 91.445C43.345 91.265 42.955 91.055 42.435 90.815C41.795 90.535 41.285 90.255 40.905 89.975C40.535 89.685 40.27 89.375 40.11 89.045C39.95 88.705 39.87 88.325 39.87 87.905C39.87 87.445 39.995 87.035 40.245 86.675C40.505 86.315 40.86 86.03 41.31 85.82C41.76 85.61 42.275 85.505 42.855 85.505C44.005 85.505 44.95 85.905 45.69 86.705L44.7 87.845L44.61 87.95L44.49 87.86C44.48 87.78 44.46 87.705 44.43 87.635C44.41 87.555 44.345 87.455 44.235 87.335C44.045 87.155 43.84 87.035 43.62 86.975C43.41 86.915 43.16 86.885 42.87 86.885C42.46 86.885 42.135 86.98 41.895 87.17C41.655 87.36 41.535 87.58 41.535 87.83C41.535 88.03 41.58 88.21 41.67 88.37C41.76 88.53 41.94 88.7 42.21 88.88C42.49 89.06 42.915 89.275 43.485 89.525C44.115 89.815 44.61 90.1 44.97 90.38C45.33 90.65 45.58 90.95 45.72 91.28C45.87 91.61 45.945 91.995 45.945 92.435C45.945 92.885 45.83 93.32 45.6 93.74C45.37 94.16 45.01 94.505 44.52 94.775C44.03 95.035 43.4 95.165 42.63 95.165ZM52.17 97.19C51.23 97.2 50.555 97.055 50.145 96.755C49.745 96.455 49.535 95.895 49.515 95.075C48.705 94.905 48.05 94.41 47.55 93.59C47.05 92.77 46.8 91.685 46.8 90.335C46.8 89.175 46.96 88.24 47.28 87.53C47.6 86.82 48.025 86.305 48.555 85.985C49.085 85.665 49.66 85.505 50.28 85.505C50.94 85.505 51.53 85.675 52.05 86.015C52.58 86.355 52.995 86.88 53.295 87.59C53.595 88.3 53.74 89.21 53.73 90.32C53.73 91.79 53.49 92.905 53.01 93.665C52.54 94.415 51.905 94.885 51.105 95.075C51.125 95.305 51.195 95.49 51.315 95.63C51.435 95.78 51.64 95.85 51.93 95.84L53.16 95.78L53.13 97.19H52.17ZM50.31 93.77C50.62 93.77 50.91 93.66 51.18 93.44C51.45 93.21 51.67 92.85 51.84 92.36C52.01 91.87 52.095 91.225 52.095 90.425C52.095 89.545 52.005 88.845 51.825 88.325C51.655 87.805 51.43 87.435 51.15 87.215C50.88 86.995 50.59 86.885 50.28 86.885C49.71 86.885 49.265 87.185 48.945 87.785C48.625 88.375 48.465 89.175 48.465 90.185C48.465 91.355 48.63 92.245 48.96 92.855C49.3 93.465 49.75 93.77 50.31 93.77ZM54.855 85.655H56.7V85.79C56.64 85.85 56.6 85.92 56.58 86C56.57 86.07 56.565 86.185 56.565 86.345V93.62H60.855V95H54.855V85.655Z"
                                                         class="secundaryTextColor" />
                                                </svg>