<svg width="109" height="110" viewBox="0 0 109 110" fill="none"
                                            xmlns="http://www.w3.org/2000/svg">

                                            <path
                                                d="M18.7452 37.9999C21.9634 36.5695 23.9842 32.4306 26.9793 30.4245C31.0125 27.723 35.7841 25.6317 40.4467 24.3495C47.5088 22.4074 54.8397 21.9651 62.0751 21.0375C70.0364 20.0169 78.4707 20.9591 85.4234 25.1729C88.2614 26.8929 91.0764 29.4923 93.438 31.8151C95.1857 33.5342 95.9771 35.1848 96.6219 37.4875C98.1456 42.9294 94.7656 48.9637 91.3703 52.9494C89.6589 54.9585 87.0942 56.3234 85.0941 58.018C82.8148 59.949 80.0521 61.7285 77.354 63.0134C67.1463 67.8742 55.5709 68.9603 44.454 68.9603C34.7884 68.9603 26.7315 63.7748 18.4707 59.4269C16.0485 58.1521 14.9115 55.3431 14.1706 52.803C12.6161 47.4733 13.953 42.181 16.0371 37.2314C20.4148 26.8343 30.9286 18.4973 42.1301 16.6643C42.4813 16.6068 43.9981 16.3507 44.2893 16.6643C44.9119 17.3347 37.8095 23.551 37.3726 23.9652C31.985 29.0742 26.3604 33.9388 21.252 39.3356C18.4507 42.2951 14.5181 46.1361 13.2923 50.1864C12.778 51.8858 13.7619 51.945 15.2319 51.5405C17.7287 50.8534 20.1262 49.6588 22.4414 48.5396C30.5637 44.6131 38.5397 40.3789 46.6132 36.353C53.6476 32.8453 60.6577 28.7732 67.9853 25.8865C68.4953 25.6856 69.4037 25.1529 69.9798 25.0448C71.5678 24.7471 67.5341 27.1741 66.1738 28.0457C56.4198 34.2959 46.0848 39.7995 35.9454 45.3923C32.2249 47.4445 28.4446 49.3921 24.7469 51.4856C24.7442 51.4871 20.3852 54.1208 21.2337 53.8826C33.1502 50.5377 45.0198 46.6441 56.7869 42.8123C63.1176 40.7508 69.3639 38.491 75.6157 36.2067C77.2632 35.6047 80.0496 34.5778 81.837 34.0109C82.5371 33.7888 83.9554 32.8384 83.9962 33.5717C84.013 33.8737 83.6182 34.0476 83.3923 34.2488C81.9999 35.4889 79.7751 37.0419 78.3787 37.9816C72.698 41.8041 66.7117 45.0026 60.4648 47.8077C53.782 50.8085 46.9017 53.3417 40.0076 55.8039C37.2594 56.7854 34.2148 57.5946 31.627 59.0061C30.4628 59.6412 37.0579 57.9846 37.1531 57.9631C48.2885 55.4486 59.4944 53.686 70.7484 51.8332C76.2891 50.9211 83.6284 50.966 87.912 46.5634C89.4559 44.9765 90.2319 41.4654 87.912 40.3054"
                                                stroke="#3D3D3D" stroke-width="16" stroke-linecap="round" />
                                            <path
                                                d="M79.9579 15.5795C70.46 13.663 63.5191 9.51591 53.4973 9.51591C39.5244 9.51591 29.2542 9.98551 18.5225 20.2115C9.57364 28.7386 5 40.9206 5 53.3087C5 66.5951 20.276 73.3325 31.1268 75.3736C57.8615 80.4025 104.362 75.1817 103.998 39.4971C103.737 14.0091 84.7177 8 63.4304 8"
                                                class="secundaryColor" stroke-width="10" stroke-linecap="round" />
                                            <path
                                                d="M58.5 30.7007C48.5 27.5007 41.3333 36.0341 39 40.7007C42.3333 39.3674 50.1 37.5007 54.5 40.7007C58.9 43.9008 65.6667 45.3674 68.5 45.7007C76.5 45.7007 80.5 38.7007 81.5 35.2007C76.7 38.0007 64.1667 33.3674 58.5 30.7007Z"
                                                fill="#3FCBDE" />
                                            <path
                                                d="M43.5 42.7007C33.5 39.5007 26.3333 48.0341 24 52.7007C27.3333 51.3674 35.1 49.5007 39.5 52.7007C43.9 55.9008 50.6667 57.3674 53.5 57.7007C61.5 57.7007 65.5 50.7007 66.5 47.2007C61.7 50.0007 49.1667 45.3674 43.5 42.7007Z"
                                                fill="#3FCBDE" />
                                            <path
                                                d="M26.865 100V92.08H24.345V90.655H31.14V92.08H28.485V100H26.865ZM34.47 100.18C33.7 100.18 33.1 100 32.67 99.64C32.25 99.28 32.04 98.805 32.04 98.215C32.04 97.475 32.37 96.865 33.03 96.385C33.7 95.895 34.67 95.65 35.94 95.65C36.01 95.65 36.1 95.65 36.21 95.65C36.33 95.65 36.455 95.655 36.585 95.665C36.515 95.085 36.35 94.695 36.09 94.495C35.83 94.285 35.48 94.18 35.04 94.18C34.72 94.18 34.42 94.235 34.14 94.345C33.86 94.445 33.58 94.635 33.3 94.915L32.37 93.895C32.77 93.525 33.205 93.26 33.675 93.1C34.145 92.94 34.625 92.86 35.115 92.86C35.695 92.86 36.225 92.955 36.705 93.145C37.185 93.325 37.565 93.645 37.845 94.105C38.125 94.555 38.265 95.18 38.265 95.98V100H36.51V99.25C36.25 99.6 35.95 99.845 35.61 99.985C35.27 100.115 34.89 100.18 34.47 100.18ZM33.735 98.005C33.735 98.325 33.835 98.55 34.035 98.68C34.245 98.8 34.5 98.86 34.8 98.86C35.34 98.86 35.76 98.7 36.06 98.38C36.36 98.05 36.54 97.535 36.6 96.835C36.47 96.835 36.345 96.835 36.225 96.835C36.105 96.825 36 96.82 35.91 96.82C35.11 96.82 34.545 96.93 34.215 97.15C33.895 97.37 33.735 97.655 33.735 98.005ZM40.26 100V98.665H41.97V94.36H40.35V93.025H43.68V98.665H45.24V100H40.26ZM42.75 91.87C42.45 91.87 42.195 91.77 41.985 91.57C41.785 91.37 41.685 91.13 41.685 90.85C41.685 90.56 41.785 90.32 41.985 90.13C42.185 89.93 42.44 89.83 42.75 89.83C43.03 89.83 43.275 89.93 43.485 90.13C43.705 90.33 43.815 90.57 43.815 90.85C43.815 91.13 43.705 91.37 43.485 91.57C43.275 91.77 43.03 91.87 42.75 91.87ZM47.445 100V98.665H49.41V91.27H47.535V89.935H51.12V98.665H53.07V100H47.445ZM55.425 100L54.135 93.025H55.605L56.4 97.795L57.39 93.805H58.275L59.445 97.765C59.565 96.885 59.655 96.18 59.715 95.65C59.775 95.11 59.815 94.675 59.835 94.345C59.855 94.005 59.865 93.7 59.865 93.43V93.025H61.305C61.245 93.765 61.16 94.535 61.05 95.335C60.94 96.135 60.815 96.935 60.675 97.735C60.545 98.525 60.41 99.28 60.27 100H58.785L57.81 96.22L56.91 100H55.425ZM62.76 100V98.665H64.47V94.36H62.85V93.025H66.18V98.665H67.74V100H62.76ZM65.25 91.87C64.95 91.87 64.695 91.77 64.485 91.57C64.285 91.37 64.185 91.13 64.185 90.85C64.185 90.56 64.285 90.32 64.485 90.13C64.685 89.93 64.94 89.83 65.25 89.83C65.53 89.83 65.775 89.93 65.985 90.13C66.205 90.33 66.315 90.57 66.315 90.85C66.315 91.13 66.205 91.37 65.985 91.57C65.775 91.77 65.53 91.87 65.25 91.87ZM69.825 100V93.025H71.52V93.985C71.77 93.645 72.06 93.375 72.39 93.175C72.72 92.965 73.1 92.86 73.53 92.86C73.93 92.86 74.3 92.96 74.64 93.16C74.99 93.35 75.27 93.66 75.48 94.09C75.69 94.52 75.795 95.085 75.795 95.785V100H74.1V95.815C74.1 95.245 74.01 94.83 73.83 94.57C73.65 94.3 73.4 94.165 73.08 94.165C72.83 94.165 72.585 94.235 72.345 94.375C72.105 94.505 71.905 94.695 71.745 94.945C71.595 95.195 71.52 95.495 71.52 95.845V100H69.825ZM79.89 100.165C79.37 100.165 78.89 100.03 78.45 99.76C78.02 99.49 77.67 99.08 77.4 98.53C77.13 97.98 76.995 97.295 76.995 96.475C76.995 95.665 77.125 94.995 77.385 94.465C77.645 93.925 77.995 93.52 78.435 93.25C78.875 92.98 79.365 92.845 79.905 92.845C80.255 92.845 80.58 92.91 80.88 93.04C81.18 93.17 81.415 93.38 81.585 93.67V89.935H83.4V90.07C83.34 90.13 83.3 90.2 83.28 90.28C83.27 90.35 83.265 90.465 83.265 90.625L83.25 99.07C83.25 99.23 83.26 99.385 83.28 99.535C83.3 99.685 83.345 99.84 83.415 100H81.75C81.67 99.84 81.625 99.715 81.615 99.625C81.605 99.525 81.6 99.395 81.6 99.235C81.41 99.555 81.165 99.79 80.865 99.94C80.565 100.09 80.24 100.165 79.89 100.165ZM80.175 98.8C81.095 98.8 81.555 98.03 81.555 96.49C81.555 94.94 81.08 94.165 80.13 94.165C79.65 94.165 79.285 94.37 79.035 94.78C78.785 95.19 78.66 95.745 78.66 96.445C78.66 97.185 78.805 97.765 79.095 98.185C79.395 98.595 79.755 98.8 80.175 98.8Z"
                                                 class="secundaryTextColor" />
                                        </svg>