<svg width="109" height="110" viewBox="0 0 109 110" fill="none" xmlns="http://www.w3.org/2000/svg">
                <path
                    d="M38.1022 46.6229C41.7209 46.6229 42.0425 40.407 45.6994 40.407C48.8612 40.407 49.646 43.9479 49.646 46.6229C49.646 50.2642 45.2395 51.0138 42.3448 51.0628C40.9836 51.0859 36.0723 51.8428 35.0436 50.5202C33.2783 48.2506 34.3694 40.5374 35.5369 38.2857C36.3459 36.7255 41.9422 30.8711 43.9234 33.8951C47.5977 39.5031 42.0072 46.5295 37.2142 48.8922C31.5439 51.6874 25.1041 49.5163 21.3291 44.7976C19.3324 42.3016 15.5561 37.4625 16.8892 33.7964C17.6063 31.8243 20.614 29.6846 21.9211 27.9752C23.8477 25.4558 24.2198 26.2832 26.5584 25.1139C31.1292 22.8285 36.4553 22.4969 41.6541 21.3153C47.6855 19.9445 54.3711 18.4343 60.4992 18.2074C71.1667 17.8123 79.6257 22.7387 88.7174 27.2845C97.0947 31.4732 92.0872 41.1087 89.8027 47.7082C87.3486 54.7978 80.39 55.7506 74.5096 58.3641C71.7822 59.5763 68.1238 59.2405 65.1858 59.8934C60.4509 60.9456 55.8332 60.8307 50.978 60.8307C43.8741 60.8307 36.7702 60.8307 29.6663 60.8307C23.232 60.8307 13.9505 52.4646 15.0639 45.7843C15.9017 40.7575 26.5928 37.8336 30.3077 35.7697C40.0232 30.3722 54.7732 30.6392 65.5311 30.6392C72.2903 30.6392 74.8997 29.9205 78.2589 35.9671C78.9565 37.2228 85.4912 42.285 80.9722 43.071C74.854 44.135 69.1163 43.4008 62.9658 42.8736C61.4077 42.7401 52.1098 40.6573 50.7313 42.3803C48.005 45.7882 70.098 51.0628 73.1776 51.0628C74.9906 51.0628 75.3976 56.4537 75.3976 58.1667C75.3976 60.881 73.1429 64.9901 70.5137 66.1586C65.2057 68.5177 57.1392 67.9346 51.422 67.9346C46.8341 67.9346 42.2461 67.9346 37.6582 67.9346C31.5947 67.9346 26.0862 65.2172 20.5398 63.2973C17.767 62.3375 13.3574 56.2125 15.0146 53.7268"
                    stroke="#3D3D3D" stroke-width="17" stroke-linecap="round" />
                <path
                    d="M79.2008 15.5795C69.7988 13.663 62.928 9.51591 53.0074 9.51591C39.1757 9.51591 29.0092 9.98551 18.3859 20.2115C9.52744 28.7386 5 40.9206 5 53.3087C5 66.5951 20.1217 73.3325 30.8628 75.3736C57.3275 80.4025 103.359 75.1817 102.998 39.4971C102.74 14.0091 83.9125 8 62.8402 8"
                    class="secundaryColor" stroke-width="10" stroke-linecap="round" />
                <path
                    d="M49.2785 50.486C50.7538 48.7894 51.4403 46.6906 52.7937 44.968C55.4246 41.6196 51.4795 46.6784 50.7704 47.7066C49.2843 49.8615 47.3717 51.6908 45.9678 53.7968"
                    stroke="white" stroke-width="4" stroke-linecap="round" />
                <path d="M25 28.0463C30.1724 28.0463 35.2642 27.3105 40.4503 27.3105" stroke="white" stroke-width="4"
                    stroke-linecap="round" />
                <path
                    d="M27.9434 29.5176C29.1729 32.7722 30.2487 36.0646 31.4789 39.3273C33.247 44.0164 35.9244 48.2954 36.956 53.2243C37.4655 55.6583 38.1476 58.3652 38.9793 60.7042C39.1294 61.1264 39.7749 63.9686 39.3471 62.2574"
                    stroke="white" stroke-width="4" stroke-linecap="round" />
                <path
                    d="M31.2533 29.5176C33.5182 33.1148 34.8306 37.8693 36.2399 41.841C37.1326 44.3569 39.1933 47.4399 39.3463 50.1179C39.4128 51.2817 40.2256 52.1442 40.4295 53.2652C40.6402 54.4241 40.6211 55.6195 41.3491 56.5555C42.1713 57.6127 42.0757 59.4853 41.2674 60.132C40.7986 60.507 40.3383 60.9384 39.9185 61.3582C39.2554 62.0213 38.6865 58.5348 38.4471 57.6796C37.629 54.7577 37.3952 51.6605 36.4851 48.7282C35.6025 45.8842 34.1269 43.2306 33.2561 40.3695C32.5089 37.9144 31.3155 35.5898 30.5176 33.1962"
                    stroke="white" stroke-width="4" stroke-linecap="round" />
                <path d="M40.082 63.3616C43.979 59.3148 46.5671 54.0018 49.6465 49.3828" stroke="white" stroke-width="4"
                    stroke-linecap="round" />
                <path d="M48.543 27.3105C52.7716 27.3105 56.844 27.6784 61.0503 27.6784" stroke="white" stroke-width="4"
                    stroke-linecap="round" />
                <path
                    d="M76.8685 24C74.0487 24 72.3835 24.1654 70.8396 26.7385C69.6099 28.7881 71.3102 30.0749 73.2103 30.2332C74.85 30.3699 76.7787 30.6277 77.8086 29.1297C78.573 28.0177 79.91 26.42 78.3399 25.6349C76.4925 24.7112 70.9901 24.668 72.168 28.3326C73.2543 31.7122 79.562 26.2072 76.1327 26.2072C74.7476 26.2072 72.8293 27.5611 72.4337 28.9457C71.724 31.4294 72.0493 32.4473 74.089 34.1162C74.7321 34.6424 77.2657 35.631 77.7677 34.6272C78.5016 33.1594 78.8048 30.267 79.0552 28.6392C79.4575 26.0245 78.1202 29.6596 77.6042 30.3763C76.8453 31.4303 75.6537 32.8634 74.6408 33.7075C74.1865 34.0861 72.333 31.5991 72.6176 31.439C73.6651 30.8498 75.2453 31.8465 76.2145 31.0712C78.1307 29.5382 77.972 34.0148 77.972 34.668C77.972 36.464 76.3078 37.8325 75.1926 39.2663C73.8641 40.9745 72.9597 43.1867 72.0862 45.1521C71.2162 47.1098 70.1512 48.8989 69.2251 50.854C68.591 52.1925 68.0417 54.3264 67.0179 55.3501C66.4983 55.8697 63.3937 63.266 62.8896 62.2578"
                    stroke="white" stroke-width="4" stroke-linecap="round" />
                <path
                    d="M55.532 29.1502C55.7956 32.0503 57.1573 36.0563 58.3114 38.6942C59.3126 40.9827 60.8552 43.8265 61.0499 46.358C61.1373 47.4934 62.0191 48.2989 62.1739 49.3827C62.3042 50.2944 62.7101 51.2437 62.9097 52.1416C63.1201 53.0888 63.7436 54.0551 63.9724 55.0845C64.1471 55.8708 63.9928 56.854 63.9928 57.6596C63.9928 58.6024 62.4324 58.7689 61.8674 59.3967C60.9189 60.4506 61.1611 60.0218 60.4777 58.2931C59.5225 55.877 58.9843 53.3911 58.2909 50.895C56.6312 44.92 53.2535 39.3101 50.668 33.5645C50.4462 33.0717 48.8292 28.6216 49.4827 28.4349C52.6567 27.528 53.6225 34.9614 54.4284 36.8753C55.16 38.6129 55.0082 40.7211 55.9203 42.3932C56.7949 43.9967 57.7556 46.2546 58.0866 48.0747C58.4005 49.8012 59.2371 51.334 59.5785 53.0408C59.7822 54.0595 60.5687 54.6358 60.9682 55.5546C60.9795 55.5807 60.9322 52.8829 60.8251 52.2642C59.5803 45.0719 56.8939 38.3617 55.2458 31.3573C54.9399 30.0572 53.17 29.1502 51.6694 29.1502C49.8691 29.1502 48.4084 28.615 46.7032 28.4144C45.5913 28.2836 47.7517 27.6787 48.1747 27.6787C49.033 27.6787 49.8914 27.6787 50.7497 27.6787"
                    stroke="white" stroke-width="4" stroke-linecap="round" />
                <path
                    d="M43.0254 57.8431C46.6777 54.7021 48.61 50.3474 50.6688 46.0714C51.4083 44.5356 51.7137 43.0405 52.876 41.7388C53.4545 41.0908 53.8963 39.9072 54.0613 39.082"
                    stroke="white" stroke-width="4" stroke-linecap="round" />
                <path
                    d="M54 47.5724C55.8938 48.6377 56.2737 51.5757 57.3925 53.2539C58.534 54.9661 59.1347 57.019 60.4172 58.6901C62.757 61.7389 60.7161 59.133 59.9676 57.1369C58.7903 53.9976 58.2231 51.1579 56.3911 48.3082C55.753 47.3156 53.9156 44.4937 54.9401 45.0791C55.8093 45.5758 56.4182 48.5 56.759 49.3913C57.3516 50.9412 57.9496 52.7463 58.7822 54.1735C59.806 55.9287 61.0253 57.5357 61.9295 59.3441C62.7272 60.9394 63.5864 62.3254 62.093 59.7119"
                    stroke="white" stroke-width="4" stroke-linecap="round" />
                <path
                    d="M49.8393 33.0465C48.9084 33.2792 53.5487 42.5655 53.8858 44.0824C53.9989 44.5914 55.0387 46.5236 54.9485 46.2078C54.254 43.7769 53.1813 41.3686 52.4144 38.9323C51.7187 36.7226 51.1332 34.4926 50.0232 32.4947C49.1048 30.8415 48 31.1586 48 29"
                    stroke="white" stroke-width="4" stroke-linecap="round" />
                <path
                    d="M21.38 100L20.15 90.655H21.62L22.25 96.52L23.45 91.39H24.35L25.55 96.505L26.045 90.655H27.425L26.21 100H25.145L23.825 94.24L22.475 100H21.38ZM31.235 100.15C30.615 100.15 30.05 100 29.54 99.7C29.04 99.39 28.645 98.965 28.355 98.425C28.065 97.875 27.92 97.235 27.92 96.505C27.92 95.815 28.065 95.195 28.355 94.645C28.645 94.095 29.04 93.66 29.54 93.34C30.05 93.02 30.615 92.86 31.235 92.86C31.865 92.86 32.43 93.02 32.93 93.34C33.44 93.66 33.84 94.095 34.13 94.645C34.43 95.195 34.58 95.815 34.58 96.505C34.58 97.225 34.43 97.86 34.13 98.41C33.84 98.96 33.44 99.39 32.93 99.7C32.43 100 31.865 100.15 31.235 100.15ZM31.235 98.8C31.715 98.8 32.11 98.59 32.42 98.17C32.73 97.74 32.885 97.185 32.885 96.505C32.885 95.805 32.73 95.25 32.42 94.84C32.11 94.43 31.715 94.225 31.235 94.225C30.775 94.225 30.39 94.43 30.08 94.84C29.77 95.25 29.615 95.805 29.615 96.505C29.615 97.185 29.765 97.74 30.065 98.17C30.375 98.59 30.765 98.8 31.235 98.8ZM36.335 93.025H38.09L38.075 94.15C38.265 93.75 38.545 93.435 38.915 93.205C39.285 92.975 39.675 92.86 40.085 92.86C40.865 92.86 41.51 93.125 42.02 93.655L41.3 95.08L41.255 95.2L41.12 95.14C41.09 95.06 41.06 94.98 41.03 94.9C41 94.81 40.925 94.71 40.805 94.6C40.665 94.49 40.515 94.405 40.355 94.345C40.205 94.285 40.04 94.255 39.86 94.255C39.38 94.255 38.96 94.42 38.6 94.75C38.24 95.08 38.06 95.61 38.06 96.34V100H36.335V93.025ZM45.89 100.165C45.37 100.165 44.89 100.03 44.45 99.76C44.02 99.49 43.67 99.08 43.4 98.53C43.13 97.98 42.995 97.295 42.995 96.475C42.995 95.665 43.125 94.995 43.385 94.465C43.645 93.925 43.995 93.52 44.435 93.25C44.875 92.98 45.365 92.845 45.905 92.845C46.255 92.845 46.58 92.91 46.88 93.04C47.18 93.17 47.415 93.38 47.585 93.67V89.935H49.4V90.07C49.34 90.13 49.3 90.2 49.28 90.28C49.27 90.35 49.265 90.465 49.265 90.625L49.25 99.07C49.25 99.23 49.26 99.385 49.28 99.535C49.3 99.685 49.345 99.84 49.415 100H47.75C47.67 99.84 47.625 99.715 47.615 99.625C47.605 99.525 47.6 99.395 47.6 99.235C47.41 99.555 47.165 99.79 46.865 99.94C46.565 100.09 46.24 100.165 45.89 100.165ZM46.175 98.8C47.095 98.8 47.555 98.03 47.555 96.49C47.555 94.94 47.08 94.165 46.13 94.165C45.65 94.165 45.285 94.37 45.035 94.78C44.785 95.19 44.66 95.745 44.66 96.445C44.66 97.185 44.805 97.765 45.095 98.185C45.395 98.595 45.755 98.8 46.175 98.8ZM50.72 102.505L50.705 93.01H52.385V93.985C52.605 93.595 52.885 93.31 53.225 93.13C53.565 92.95 53.94 92.86 54.35 92.86C54.86 92.86 55.32 93 55.73 93.28C56.15 93.55 56.485 93.96 56.735 94.51C56.985 95.05 57.11 95.725 57.11 96.535C57.11 97.355 56.98 98.035 56.72 98.575C56.46 99.115 56.115 99.52 55.685 99.79C55.265 100.05 54.81 100.18 54.32 100.18C53.95 100.18 53.595 100.115 53.255 99.985C52.915 99.855 52.645 99.66 52.445 99.4V102.505H50.72ZM53.855 98.86C54.145 98.86 54.41 98.785 54.65 98.635C54.89 98.485 55.08 98.235 55.22 97.885C55.36 97.535 55.43 97.055 55.43 96.445C55.43 95.755 55.295 95.21 55.025 94.81C54.765 94.41 54.405 94.205 53.945 94.195C53.465 94.185 53.09 94.375 52.82 94.765C52.56 95.145 52.43 95.77 52.43 96.64C52.45 98.12 52.925 98.86 53.855 98.86ZM58.835 93.025H60.59L60.575 94.15C60.765 93.75 61.045 93.435 61.415 93.205C61.785 92.975 62.175 92.86 62.585 92.86C63.365 92.86 64.01 93.125 64.52 93.655L63.8 95.08L63.755 95.2L63.62 95.14C63.59 95.06 63.56 94.98 63.53 94.9C63.5 94.81 63.425 94.71 63.305 94.6C63.165 94.49 63.015 94.405 62.855 94.345C62.705 94.285 62.54 94.255 62.36 94.255C61.88 94.255 61.46 94.42 61.1 94.75C60.74 95.08 60.56 95.61 60.56 96.34V100H58.835V93.025ZM69.065 100.165C68.395 100.165 67.795 100.025 67.265 99.745C66.745 99.465 66.335 99.055 66.035 98.515C65.735 97.975 65.585 97.325 65.585 96.565C65.585 95.785 65.73 95.12 66.02 94.57C66.32 94.02 66.715 93.6 67.205 93.31C67.705 93.01 68.26 92.86 68.87 92.86C69.41 92.86 69.905 92.985 70.355 93.235C70.815 93.485 71.18 93.865 71.45 94.375C71.73 94.875 71.87 95.5 71.87 96.25C71.87 96.35 71.865 96.47 71.855 96.61C71.855 96.75 71.85 96.87 71.84 96.97H67.22C67.24 97.41 67.345 97.77 67.535 98.05C67.725 98.32 67.96 98.52 68.24 98.65C68.52 98.78 68.82 98.845 69.14 98.845C69.45 98.845 69.745 98.795 70.025 98.695C70.305 98.595 70.565 98.425 70.805 98.185L71.675 99.025C71.335 99.425 70.945 99.715 70.505 99.895C70.065 100.075 69.585 100.165 69.065 100.165ZM67.25 95.695H70.22C70.22 95.205 70.095 94.83 69.845 94.57C69.595 94.31 69.245 94.18 68.795 94.18C68.405 94.18 68.065 94.305 67.775 94.555C67.485 94.795 67.31 95.175 67.25 95.695ZM76.385 100.165C75.745 100.165 75.155 100.08 74.615 99.91C74.075 99.74 73.595 99.455 73.175 99.055L73.925 97.675L73.985 97.555L74.105 97.63C74.135 97.7 74.165 97.78 74.195 97.87C74.225 97.95 74.3 98.045 74.42 98.155C74.67 98.365 74.95 98.53 75.26 98.65C75.58 98.77 75.965 98.83 76.415 98.83C76.835 98.83 77.16 98.76 77.39 98.62C77.62 98.48 77.735 98.295 77.735 98.065C77.735 97.835 77.605 97.65 77.345 97.51C77.095 97.37 76.68 97.215 76.1 97.045C75.34 96.845 74.735 96.575 74.285 96.235C73.835 95.895 73.61 95.44 73.61 94.87C73.61 94.3 73.855 93.825 74.345 93.445C74.845 93.055 75.515 92.86 76.355 92.86C77.505 92.86 78.44 93.215 79.16 93.925L78.335 95.08L78.23 95.2L78.125 95.11C78.115 95.03 78.09 94.955 78.05 94.885C78.02 94.815 77.945 94.72 77.825 94.6C77.625 94.46 77.395 94.355 77.135 94.285C76.885 94.205 76.635 94.165 76.385 94.165C76.045 94.165 75.75 94.22 75.5 94.33C75.26 94.44 75.14 94.61 75.14 94.84C75.14 95.04 75.27 95.21 75.53 95.35C75.79 95.49 76.235 95.64 76.865 95.8C77.705 96.01 78.315 96.29 78.695 96.64C79.075 96.98 79.265 97.42 79.265 97.96C79.265 98.36 79.155 98.73 78.935 99.07C78.715 99.4 78.39 99.665 77.96 99.865C77.54 100.065 77.015 100.165 76.385 100.165ZM83.885 100.165C83.245 100.165 82.655 100.08 82.115 99.91C81.575 99.74 81.095 99.455 80.675 99.055L81.425 97.675L81.485 97.555L81.605 97.63C81.635 97.7 81.665 97.78 81.695 97.87C81.725 97.95 81.8 98.045 81.92 98.155C82.17 98.365 82.45 98.53 82.76 98.65C83.08 98.77 83.465 98.83 83.915 98.83C84.335 98.83 84.66 98.76 84.89 98.62C85.12 98.48 85.235 98.295 85.235 98.065C85.235 97.835 85.105 97.65 84.845 97.51C84.595 97.37 84.18 97.215 83.6 97.045C82.84 96.845 82.235 96.575 81.785 96.235C81.335 95.895 81.11 95.44 81.11 94.87C81.11 94.3 81.355 93.825 81.845 93.445C82.345 93.055 83.015 92.86 83.855 92.86C85.005 92.86 85.94 93.215 86.66 93.925L85.835 95.08L85.73 95.2L85.625 95.11C85.615 95.03 85.59 94.955 85.55 94.885C85.52 94.815 85.445 94.72 85.325 94.6C85.125 94.46 84.895 94.355 84.635 94.285C84.385 94.205 84.135 94.165 83.885 94.165C83.545 94.165 83.25 94.22 83 94.33C82.76 94.44 82.64 94.61 82.64 94.84C82.64 95.04 82.77 95.21 83.03 95.35C83.29 95.49 83.735 95.64 84.365 95.8C85.205 96.01 85.815 96.29 86.195 96.64C86.575 96.98 86.765 97.42 86.765 97.96C86.765 98.36 86.655 98.73 86.435 99.07C86.215 99.4 85.89 99.665 85.46 99.865C85.04 100.065 84.515 100.165 83.885 100.165Z"
                     class="secundaryTextColor" />
            </svg>